<?xml version="1.0" encoding="utf-8" standalone="no"?>
<!DOCTYPE svg PUBLIC "-//W3C//DTD SVG 1.1//EN"
  "http://www.w3.org/Graphics/SVG/1.1/DTD/svg11.dtd">
<!-- Created with matplotlib (https://matplotlib.org/) -->
<svg height="720pt" version="1.1" viewBox="0 0 1440 720" width="1440pt" xmlns="http://www.w3.org/2000/svg" xmlns:xlink="http://www.w3.org/1999/xlink">
 <defs>
  <style type="text/css">
*{stroke-linecap:butt;stroke-linejoin:round;}
  </style>
 </defs>
 <g id="figure_1">
  <g id="patch_1">
   <path d="M 0 720 
L 1440 720 
L 1440 0 
L 0 0 
z
" style="fill:#ffffff;"/>
  </g>
  <g id="axes_1">
   <g id="patch_2">
    <path clip-path="url(#pf47cf8f0c9)" d="M 337.13442 123.112341 
C 357.118315 127.228388 375.081422 138.119562 387.971664 153.935364 
C 400.861905 169.751166 407.905399 189.542075 407.905399 209.945455 
C 407.905399 230.348834 400.861905 250.139743 387.971664 265.955545 
C 375.081422 281.771347 357.118315 292.662521 337.13442 296.778568 
C 348.889682 297.345961 360.638664 295.52039 371.667517 291.412774 
C 382.69637 287.305157 392.777113 281.000406 401.297258 272.881585 
C 409.817403 264.762764 416.600826 254.997701 421.235378 244.179705 
C 425.86993 233.361709 428.259808 221.714402 428.259808 209.945455 
C 428.259808 198.176507 425.86993 186.529201 421.235378 175.711204 
C 416.600826 164.893208 409.817403 155.128145 401.297258 147.009324 
C 392.777113 138.890503 382.69637 132.585752 371.667517 128.478136 
C 360.638664 124.370519 348.889682 122.544948 337.13442 123.112341 
" style="fill:#ff0000;opacity:0.4;"/>
   </g>
   <g id="patch_3">
    <path clip-path="url(#pf47cf8f0c9)" d="M 537.43177 309.192692 
C 563.752445 309.192692 588.998637 298.735377 607.610165 280.123849 
C 626.221693 261.512322 636.679008 236.26613 636.679008 209.945455 
C 636.679008 183.624779 626.221693 158.378588 607.610165 139.76706 
C 588.998637 121.155532 563.752445 110.698217 537.43177 110.698217 
C 511.111095 110.698217 485.864903 121.155532 467.253375 139.76706 
C 448.641847 158.378588 438.184532 183.624779 438.184532 209.945455 
C 438.184532 236.26613 448.641847 261.512322 467.253375 280.123849 
C 485.864903 298.735377 511.111095 309.192692 537.43177 309.192692 
z
" style="fill:#008000;opacity:0.4;"/>
   </g>
   <g id="patch_4">
    <path clip-path="url(#pf47cf8f0c9)" d="M 337.13442 296.778568 
C 314.837129 295.702342 293.789192 286.078053 278.389475 269.917108 
C 262.989757 253.756162 254.391402 232.268704 254.391402 209.945455 
C 254.391402 187.622205 262.989757 166.134747 278.389475 149.973801 
C 293.789192 133.812856 314.837129 124.188567 337.13442 123.112341 
C 324.245779 120.45769 310.926316 120.705633 298.145402 123.838124 
C 285.364488 126.970614 273.439892 132.909771 263.239468 141.22335 
C 253.039045 149.536929 244.816403 160.018234 239.169975 171.904449 
C 233.523548 183.790663 230.593719 196.786266 230.593719 209.945455 
C 230.593719 223.104643 233.523548 236.100246 239.169975 247.986461 
C 244.816403 259.872675 253.039045 270.35398 263.239468 278.667559 
C 273.439892 286.981138 285.364488 292.920295 298.145402 296.052786 
C 310.926316 299.185276 324.245779 299.433219 337.13442 296.778568 
" style="fill:#0000ff;opacity:0.4;"/>
   </g>
   <g id="patch_5">
    <path clip-path="url(#pf47cf8f0c9)" d="M 337.13442 123.112341 
C 314.837129 124.188567 293.789192 133.812856 278.389475 149.973801 
C 262.989757 166.134747 254.391402 187.622205 254.391402 209.945455 
C 254.391402 232.268704 262.989757 253.756162 278.389475 269.917108 
C 293.789192 286.078053 314.837129 295.702342 337.13442 296.778568 
C 357.118315 292.662521 375.081422 281.771347 387.971664 265.955545 
C 400.861905 250.139743 407.905399 230.348834 407.905399 209.945455 
C 407.905399 189.542075 400.861905 169.751166 387.971664 153.935364 
C 375.081422 138.119562 357.118315 127.228388 337.13442 123.112341 
" style="fill:#b200b2;opacity:0.4;"/>
   </g>
   <g id="text_1">
    <!-- 43 -->
    <defs>
     <path d="M 37.796875 64.3125 
L 12.890625 25.390625 
L 37.796875 25.390625 
z
M 35.203125 72.90625 
L 47.609375 72.90625 
L 47.609375 25.390625 
L 58.015625 25.390625 
L 58.015625 17.1875 
L 47.609375 17.1875 
L 47.609375 0 
L 37.796875 0 
L 37.796875 17.1875 
L 4.890625 17.1875 
L 4.890625 26.703125 
z
" id="DejaVuSans-52"/>
     <path d="M 40.578125 39.3125 
Q 47.65625 37.796875 51.625 33 
Q 55.609375 28.21875 55.609375 21.1875 
Q 55.609375 10.40625 48.1875 4.484375 
Q 40.765625 -1.421875 27.09375 -1.421875 
Q 22.515625 -1.421875 17.65625 -0.515625 
Q 12.796875 0.390625 7.625 2.203125 
L 7.625 11.71875 
Q 11.71875 9.328125 16.59375 8.109375 
Q 21.484375 6.890625 26.8125 6.890625 
Q 36.078125 6.890625 40.9375 10.546875 
Q 45.796875 14.203125 45.796875 21.1875 
Q 45.796875 27.640625 41.28125 31.265625 
Q 36.765625 34.90625 28.71875 34.90625 
L 20.21875 34.90625 
L 20.21875 43.015625 
L 29.109375 43.015625 
Q 36.375 43.015625 40.234375 45.921875 
Q 44.09375 48.828125 44.09375 54.296875 
Q 44.09375 59.90625 40.109375 62.90625 
Q 36.140625 65.921875 28.71875 65.921875 
Q 24.65625 65.921875 20.015625 65.03125 
Q 15.375 64.15625 9.8125 62.3125 
L 9.8125 71.09375 
Q 15.4375 72.65625 20.34375 73.4375 
Q 25.25 74.21875 29.59375 74.21875 
Q 40.828125 74.21875 47.359375 69.109375 
Q 53.90625 64.015625 53.90625 55.328125 
Q 53.90625 49.265625 50.4375 45.09375 
Q 46.96875 40.921875 40.578125 39.3125 
z
" id="DejaVuSans-51"/>
    </defs>
    <g transform="translate(411.720103 212.70483)scale(0.1 -0.1)">
     <use xlink:href="#DejaVuSans-52"/>
     <use x="63.623047" xlink:href="#DejaVuSans-51"/>
    </g>
   </g>
   <g id="text_2">
    <!-- 391 -->
    <defs>
     <path d="M 10.984375 1.515625 
L 10.984375 10.5 
Q 14.703125 8.734375 18.5 7.8125 
Q 22.3125 6.890625 25.984375 6.890625 
Q 35.75 6.890625 40.890625 13.453125 
Q 46.046875 20.015625 46.78125 33.40625 
Q 43.953125 29.203125 39.59375 26.953125 
Q 35.25 24.703125 29.984375 24.703125 
Q 19.046875 24.703125 12.671875 31.3125 
Q 6.296875 37.9375 6.296875 49.421875 
Q 6.296875 60.640625 12.9375 67.421875 
Q 19.578125 74.21875 30.609375 74.21875 
Q 43.265625 74.21875 49.921875 64.515625 
Q 56.59375 54.828125 56.59375 36.375 
Q 56.59375 19.140625 48.40625 8.859375 
Q 40.234375 -1.421875 26.421875 -1.421875 
Q 22.703125 -1.421875 18.890625 -0.6875 
Q 15.09375 0.046875 10.984375 1.515625 
z
M 30.609375 32.421875 
Q 37.25 32.421875 41.125 36.953125 
Q 45.015625 41.5 45.015625 49.421875 
Q 45.015625 57.28125 41.125 61.84375 
Q 37.25 66.40625 30.609375 66.40625 
Q 23.96875 66.40625 20.09375 61.84375 
Q 16.21875 57.28125 16.21875 49.421875 
Q 16.21875 41.5 20.09375 36.953125 
Q 23.96875 32.421875 30.609375 32.421875 
z
" id="DejaVuSans-57"/>
     <path d="M 12.40625 8.296875 
L 28.515625 8.296875 
L 28.515625 63.921875 
L 10.984375 60.40625 
L 10.984375 69.390625 
L 28.421875 72.90625 
L 38.28125 72.90625 
L 38.28125 8.296875 
L 54.390625 8.296875 
L 54.390625 0 
L 12.40625 0 
z
" id="DejaVuSans-49"/>
    </defs>
    <g transform="translate(527.88802 212.70483)scale(0.1 -0.1)">
     <use xlink:href="#DejaVuSans-51"/>
     <use x="63.623047" xlink:href="#DejaVuSans-57"/>
     <use x="127.246094" xlink:href="#DejaVuSans-49"/>
    </g>
   </g>
   <g id="text_3">
    <!-- 55 -->
    <defs>
     <path d="M 10.796875 72.90625 
L 49.515625 72.90625 
L 49.515625 64.59375 
L 19.828125 64.59375 
L 19.828125 46.734375 
Q 21.96875 47.46875 24.109375 47.828125 
Q 26.265625 48.1875 28.421875 48.1875 
Q 40.625 48.1875 47.75 41.5 
Q 54.890625 34.8125 54.890625 23.390625 
Q 54.890625 11.625 47.5625 5.09375 
Q 40.234375 -1.421875 26.90625 -1.421875 
Q 22.3125 -1.421875 17.546875 -0.640625 
Q 12.796875 0.140625 7.71875 1.703125 
L 7.71875 11.625 
Q 12.109375 9.234375 16.796875 8.0625 
Q 21.484375 6.890625 26.703125 6.890625 
Q 35.15625 6.890625 40.078125 11.328125 
Q 45.015625 15.765625 45.015625 23.390625 
Q 45.015625 31 40.078125 35.4375 
Q 35.15625 39.890625 26.703125 39.890625 
Q 22.75 39.890625 18.8125 39.015625 
Q 14.890625 38.140625 10.796875 36.28125 
z
" id="DejaVuSans-53"/>
    </defs>
    <g transform="translate(236.130061 212.70483)scale(0.1 -0.1)">
     <use xlink:href="#DejaVuSans-53"/>
     <use x="63.623047" xlink:href="#DejaVuSans-53"/>
    </g>
   </g>
   <g id="text_4">
    <!-- 257 -->
    <defs>
     <path d="M 19.1875 8.296875 
L 53.609375 8.296875 
L 53.609375 0 
L 7.328125 0 
L 7.328125 8.296875 
Q 12.9375 14.109375 22.625 23.890625 
Q 32.328125 33.6875 34.8125 36.53125 
Q 39.546875 41.84375 41.421875 45.53125 
Q 43.3125 49.21875 43.3125 52.78125 
Q 43.3125 58.59375 39.234375 62.25 
Q 35.15625 65.921875 28.609375 65.921875 
Q 23.96875 65.921875 18.8125 64.3125 
Q 13.671875 62.703125 7.8125 59.421875 
L 7.8125 69.390625 
Q 13.765625 71.78125 18.9375 73 
Q 24.125 74.21875 28.421875 74.21875 
Q 39.75 74.21875 46.484375 68.546875 
Q 53.21875 62.890625 53.21875 53.421875 
Q 53.21875 48.921875 51.53125 44.890625 
Q 49.859375 40.875 45.40625 35.40625 
Q 44.1875 33.984375 37.640625 27.21875 
Q 31.109375 20.453125 19.1875 8.296875 
z
" id="DejaVuSans-50"/>
     <path d="M 8.203125 72.90625 
L 55.078125 72.90625 
L 55.078125 68.703125 
L 28.609375 0 
L 18.3125 0 
L 43.21875 64.59375 
L 8.203125 64.59375 
z
" id="DejaVuSans-55"/>
    </defs>
    <g transform="translate(321.60465 212.70483)scale(0.1 -0.1)">
     <use xlink:href="#DejaVuSans-50"/>
     <use x="63.623047" xlink:href="#DejaVuSans-53"/>
     <use x="127.246094" xlink:href="#DejaVuSans-55"/>
    </g>
   </g>
   <g id="text_5">
    <!-- TOP -->
    <defs>
     <path d="M -0.296875 72.90625 
L 61.375 72.90625 
L 61.375 64.59375 
L 35.5 64.59375 
L 35.5 0 
L 25.59375 0 
L 25.59375 64.59375 
L -0.296875 64.59375 
z
" id="DejaVuSans-84"/>
     <path d="M 39.40625 66.21875 
Q 28.65625 66.21875 22.328125 58.203125 
Q 16.015625 50.203125 16.015625 36.375 
Q 16.015625 22.609375 22.328125 14.59375 
Q 28.65625 6.59375 39.40625 6.59375 
Q 50.140625 6.59375 56.421875 14.59375 
Q 62.703125 22.609375 62.703125 36.375 
Q 62.703125 50.203125 56.421875 58.203125 
Q 50.140625 66.21875 39.40625 66.21875 
z
M 39.40625 74.21875 
Q 54.734375 74.21875 63.90625 63.9375 
Q 73.09375 53.65625 73.09375 36.375 
Q 73.09375 19.140625 63.90625 8.859375 
Q 54.734375 -1.421875 39.40625 -1.421875 
Q 24.03125 -1.421875 14.8125 8.828125 
Q 5.609375 19.09375 5.609375 36.375 
Q 5.609375 53.65625 14.8125 63.9375 
Q 24.03125 74.21875 39.40625 74.21875 
z
" id="DejaVuSans-79"/>
     <path d="M 19.671875 64.796875 
L 19.671875 37.40625 
L 32.078125 37.40625 
Q 38.96875 37.40625 42.71875 40.96875 
Q 46.484375 44.53125 46.484375 51.125 
Q 46.484375 57.671875 42.71875 61.234375 
Q 38.96875 64.796875 32.078125 64.796875 
z
M 9.8125 72.90625 
L 32.078125 72.90625 
Q 44.34375 72.90625 50.609375 67.359375 
Q 56.890625 61.8125 56.890625 51.125 
Q 56.890625 40.328125 50.609375 34.8125 
Q 44.34375 29.296875 32.078125 29.296875 
L 19.671875 29.296875 
L 19.671875 0 
L 9.8125 0 
z
" id="DejaVuSans-80"/>
    </defs>
    <g transform="translate(329.31998 315.159025)scale(0.12 -0.12)">
     <use xlink:href="#DejaVuSans-84"/>
     <use x="61.083984" xlink:href="#DejaVuSans-79"/>
     <use x="139.794922" xlink:href="#DejaVuSans-80"/>
    </g>
   </g>
   <g id="text_6">
    <!-- BTM -->
    <defs>
     <path d="M 19.671875 34.8125 
L 19.671875 8.109375 
L 35.5 8.109375 
Q 43.453125 8.109375 47.28125 11.40625 
Q 51.125 14.703125 51.125 21.484375 
Q 51.125 28.328125 47.28125 31.5625 
Q 43.453125 34.8125 35.5 34.8125 
z
M 19.671875 64.796875 
L 19.671875 42.828125 
L 34.28125 42.828125 
Q 41.5 42.828125 45.03125 45.53125 
Q 48.578125 48.25 48.578125 53.8125 
Q 48.578125 59.328125 45.03125 62.0625 
Q 41.5 64.796875 34.28125 64.796875 
z
M 9.8125 72.90625 
L 35.015625 72.90625 
Q 46.296875 72.90625 52.390625 68.21875 
Q 58.5 63.53125 58.5 54.890625 
Q 58.5 48.1875 55.375 44.234375 
Q 52.25 40.28125 46.1875 39.3125 
Q 53.46875 37.75 57.5 32.78125 
Q 61.53125 27.828125 61.53125 20.40625 
Q 61.53125 10.640625 54.890625 5.3125 
Q 48.25 0 35.984375 0 
L 9.8125 0 
z
" id="DejaVuSans-66"/>
     <path d="M 9.8125 72.90625 
L 24.515625 72.90625 
L 43.109375 23.296875 
L 61.8125 72.90625 
L 76.515625 72.90625 
L 76.515625 0 
L 66.890625 0 
L 66.890625 64.015625 
L 48.09375 14.015625 
L 38.1875 14.015625 
L 19.390625 64.015625 
L 19.390625 0 
L 9.8125 0 
z
" id="DejaVuSans-77"/>
    </defs>
    <g transform="translate(524.473645 327.47206)scale(0.12 -0.12)">
     <use xlink:href="#DejaVuSans-66"/>
     <use x="68.603516" xlink:href="#DejaVuSans-84"/>
     <use x="129.6875" xlink:href="#DejaVuSans-77"/>
    </g>
   </g>
   <g id="text_7">
    <!-- BURGOS -->
    <defs>
     <path d="M 8.6875 72.90625 
L 18.609375 72.90625 
L 18.609375 28.609375 
Q 18.609375 16.890625 22.84375 11.734375 
Q 27.09375 6.59375 36.625 6.59375 
Q 46.09375 6.59375 50.34375 11.734375 
Q 54.59375 16.890625 54.59375 28.609375 
L 54.59375 72.90625 
L 64.5 72.90625 
L 64.5 27.390625 
Q 64.5 13.140625 57.4375 5.859375 
Q 50.390625 -1.421875 36.625 -1.421875 
Q 22.796875 -1.421875 15.734375 5.859375 
Q 8.6875 13.140625 8.6875 27.390625 
z
" id="DejaVuSans-85"/>
     <path d="M 44.390625 34.1875 
Q 47.5625 33.109375 50.5625 29.59375 
Q 53.5625 26.078125 56.59375 19.921875 
L 66.609375 0 
L 56 0 
L 46.6875 18.703125 
Q 43.0625 26.03125 39.671875 28.421875 
Q 36.28125 30.8125 30.421875 30.8125 
L 19.671875 30.8125 
L 19.671875 0 
L 9.8125 0 
L 9.8125 72.90625 
L 32.078125 72.90625 
Q 44.578125 72.90625 50.734375 67.671875 
Q 56.890625 62.453125 56.890625 51.90625 
Q 56.890625 45.015625 53.6875 40.46875 
Q 50.484375 35.9375 44.390625 34.1875 
z
M 19.671875 64.796875 
L 19.671875 38.921875 
L 32.078125 38.921875 
Q 39.203125 38.921875 42.84375 42.21875 
Q 46.484375 45.515625 46.484375 51.90625 
Q 46.484375 58.296875 42.84375 61.546875 
Q 39.203125 64.796875 32.078125 64.796875 
z
" id="DejaVuSans-82"/>
     <path d="M 59.515625 10.40625 
L 59.515625 29.984375 
L 43.40625 29.984375 
L 43.40625 38.09375 
L 69.28125 38.09375 
L 69.28125 6.78125 
Q 63.578125 2.734375 56.6875 0.65625 
Q 49.8125 -1.421875 42 -1.421875 
Q 24.90625 -1.421875 15.25 8.5625 
Q 5.609375 18.5625 5.609375 36.375 
Q 5.609375 54.25 15.25 64.234375 
Q 24.90625 74.21875 42 74.21875 
Q 49.125 74.21875 55.546875 72.453125 
Q 61.96875 70.703125 67.390625 67.28125 
L 67.390625 56.78125 
Q 61.921875 61.421875 55.765625 63.765625 
Q 49.609375 66.109375 42.828125 66.109375 
Q 29.4375 66.109375 22.71875 58.640625 
Q 16.015625 51.171875 16.015625 36.375 
Q 16.015625 21.625 22.71875 14.15625 
Q 29.4375 6.6875 42.828125 6.6875 
Q 48.046875 6.6875 52.140625 7.59375 
Q 56.25 8.5 59.515625 10.40625 
z
" id="DejaVuSans-71"/>
     <path d="M 53.515625 70.515625 
L 53.515625 60.890625 
Q 47.90625 63.578125 42.921875 64.890625 
Q 37.9375 66.21875 33.296875 66.21875 
Q 25.25 66.21875 20.875 63.09375 
Q 16.5 59.96875 16.5 54.203125 
Q 16.5 49.359375 19.40625 46.890625 
Q 22.3125 44.4375 30.421875 42.921875 
L 36.375 41.703125 
Q 47.40625 39.59375 52.65625 34.296875 
Q 57.90625 29 57.90625 20.125 
Q 57.90625 9.515625 50.796875 4.046875 
Q 43.703125 -1.421875 29.984375 -1.421875 
Q 24.8125 -1.421875 18.96875 -0.25 
Q 13.140625 0.921875 6.890625 3.21875 
L 6.890625 13.375 
Q 12.890625 10.015625 18.65625 8.296875 
Q 24.421875 6.59375 29.984375 6.59375 
Q 38.421875 6.59375 43.015625 9.90625 
Q 47.609375 13.234375 47.609375 19.390625 
Q 47.609375 24.75 44.3125 27.78125 
Q 41.015625 30.8125 33.5 32.328125 
L 27.484375 33.5 
Q 16.453125 35.6875 11.515625 40.375 
Q 6.59375 45.0625 6.59375 53.421875 
Q 6.59375 63.09375 13.40625 68.65625 
Q 20.21875 74.21875 32.171875 74.21875 
Q 37.3125 74.21875 42.625 73.28125 
Q 47.953125 72.359375 53.515625 70.515625 
z
" id="DejaVuSans-83"/>
    </defs>
    <g transform="translate(293.391434 316.880662)scale(0.12 -0.12)">
     <use xlink:href="#DejaVuSans-66"/>
     <use x="68.603516" xlink:href="#DejaVuSans-85"/>
     <use x="141.796875" xlink:href="#DejaVuSans-82"/>
     <use x="211.279297" xlink:href="#DejaVuSans-71"/>
     <use x="288.769531" xlink:href="#DejaVuSans-79"/>
     <use x="367.480469" xlink:href="#DejaVuSans-83"/>
    </g>
   </g>
   <g id="text_8">
    <!-- BURGOS_L vs MIX -->
    <defs>
     <path d="M 50.984375 -16.609375 
L 50.984375 -23.578125 
L -0.984375 -23.578125 
L -0.984375 -16.609375 
z
" id="DejaVuSans-95"/>
     <path d="M 9.8125 72.90625 
L 19.671875 72.90625 
L 19.671875 8.296875 
L 55.171875 8.296875 
L 55.171875 0 
L 9.8125 0 
z
" id="DejaVuSans-76"/>
     <path id="DejaVuSans-32"/>
     <path d="M 2.984375 54.6875 
L 12.5 54.6875 
L 29.59375 8.796875 
L 46.6875 54.6875 
L 56.203125 54.6875 
L 35.6875 0 
L 23.484375 0 
z
" id="DejaVuSans-118"/>
     <path d="M 44.28125 53.078125 
L 44.28125 44.578125 
Q 40.484375 46.53125 36.375 47.5 
Q 32.28125 48.484375 27.875 48.484375 
Q 21.1875 48.484375 17.84375 46.4375 
Q 14.5 44.390625 14.5 40.28125 
Q 14.5 37.15625 16.890625 35.375 
Q 19.28125 33.59375 26.515625 31.984375 
L 29.59375 31.296875 
Q 39.15625 29.25 43.1875 25.515625 
Q 47.21875 21.78125 47.21875 15.09375 
Q 47.21875 7.46875 41.1875 3.015625 
Q 35.15625 -1.421875 24.609375 -1.421875 
Q 20.21875 -1.421875 15.453125 -0.5625 
Q 10.6875 0.296875 5.421875 2 
L 5.421875 11.28125 
Q 10.40625 8.6875 15.234375 7.390625 
Q 20.0625 6.109375 24.8125 6.109375 
Q 31.15625 6.109375 34.5625 8.28125 
Q 37.984375 10.453125 37.984375 14.40625 
Q 37.984375 18.0625 35.515625 20.015625 
Q 33.0625 21.96875 24.703125 23.78125 
L 21.578125 24.515625 
Q 13.234375 26.265625 9.515625 29.90625 
Q 5.8125 33.546875 5.8125 39.890625 
Q 5.8125 47.609375 11.28125 51.796875 
Q 16.75 56 26.8125 56 
Q 31.78125 56 36.171875 55.265625 
Q 40.578125 54.546875 44.28125 53.078125 
z
" id="DejaVuSans-115"/>
     <path d="M 9.8125 72.90625 
L 19.671875 72.90625 
L 19.671875 0 
L 9.8125 0 
z
" id="DejaVuSans-73"/>
     <path d="M 6.296875 72.90625 
L 16.890625 72.90625 
L 35.015625 45.796875 
L 53.21875 72.90625 
L 63.8125 72.90625 
L 40.375 37.890625 
L 65.375 0 
L 54.78125 0 
L 34.28125 31 
L 13.625 0 
L 2.984375 0 
L 29 38.921875 
z
" id="DejaVuSans-88"/>
    </defs>
    <g transform="translate(379.887614 80.4)scale(0.12 -0.12)">
     <use xlink:href="#DejaVuSans-66"/>
     <use x="68.603516" xlink:href="#DejaVuSans-85"/>
     <use x="141.796875" xlink:href="#DejaVuSans-82"/>
     <use x="211.279297" xlink:href="#DejaVuSans-71"/>
     <use x="288.769531" xlink:href="#DejaVuSans-79"/>
     <use x="367.480469" xlink:href="#DejaVuSans-83"/>
     <use x="430.957031" xlink:href="#DejaVuSans-95"/>
     <use x="480.957031" xlink:href="#DejaVuSans-76"/>
     <use x="536.669922" xlink:href="#DejaVuSans-32"/>
     <use x="568.457031" xlink:href="#DejaVuSans-118"/>
     <use x="627.636719" xlink:href="#DejaVuSans-115"/>
     <use x="679.736328" xlink:href="#DejaVuSans-32"/>
     <use x="711.523438" xlink:href="#DejaVuSans-77"/>
     <use x="797.802734" xlink:href="#DejaVuSans-73"/>
     <use x="827.294922" xlink:href="#DejaVuSans-88"/>
    </g>
   </g>
  </g>
  <g id="axes_2">
   <g id="patch_6">
    <path clip-path="url(#p4525c3a3ad)" d="M 1006.113387 227.269456 
C 1005.038145 221.55747 1004.49702 215.757763 1004.49702 209.945455 
C 1004.49702 204.133146 1005.038145 198.333439 1006.113387 192.621453 
C 1003.985571 182.233632 999.962028 172.32617 994.24462 163.396127 
C 988.527211 154.466084 981.213178 146.66534 972.669466 140.385259 
C 964.125753 134.105179 954.497672 129.452572 944.268265 126.660861 
C 934.038857 123.869151 923.382102 122.985817 912.832652 124.055176 
C 902.283202 125.124536 892.020479 128.128402 882.559366 132.91607 
C 873.098252 137.703738 864.599661 144.193781 857.489969 152.060591 
C 850.380276 159.927401 844.780402 169.037181 840.971292 178.932893 
C 837.162183 188.828605 835.208623 199.341944 835.208623 209.945455 
C 835.208623 220.548965 837.162183 231.062304 840.971292 240.958016 
C 844.780402 250.853728 850.380276 259.963508 857.489969 267.830318 
C 864.599661 275.697128 873.098252 282.187171 882.559366 286.974839 
C 892.020479 291.762507 902.283202 294.766373 912.832652 295.835733 
C 923.382102 296.905093 934.038857 296.021759 944.268265 293.230048 
C 954.497672 290.438337 964.125753 285.78573 972.669466 279.50565 
C 981.213178 273.225569 988.527211 265.424825 994.24462 256.494782 
C 999.962028 247.564739 1003.985571 237.657277 1006.113387 227.269456 
" style="fill:#ff0000;opacity:0.4;"/>
   </g>
   <g id="patch_7">
    <path clip-path="url(#p4525c3a3ad)" d="M 1115.615193 117.943495 
C 1137.032504 122.010808 1156.371641 133.431843 1170.274454 150.223389 
C 1184.177267 167.014936 1191.789596 188.145357 1191.789596 209.945455 
C 1191.789596 231.745552 1184.177267 252.875973 1170.274454 269.66752 
C 1156.371641 286.459067 1137.032504 297.880101 1115.615193 301.947414 
C 1130.542621 307.682268 1146.643909 309.698893 1162.524599 307.822638 
C 1178.40529 305.946384 1193.593304 300.233026 1206.77328 291.17737 
C 1219.953256 282.121715 1230.733397 269.992955 1238.180087 255.841508 
C 1245.626777 241.69006 1249.51865 225.936598 1249.51865 209.945455 
C 1249.51865 193.954311 1245.626777 178.200849 1238.180087 164.049401 
C 1230.733397 149.897954 1219.953256 137.769195 1206.77328 128.713539 
C 1193.593304 119.657883 1178.40529 113.944525 1162.524599 112.068271 
C 1146.643909 110.192017 1130.542621 112.208641 1115.615193 117.943495 
" style="fill:#008000;opacity:0.4;"/>
   </g>
   <g id="patch_8">
    <path clip-path="url(#p4525c3a3ad)" d="M 1006.113387 227.269456 
C 1008.390697 239.367158 1013.031254 250.89794 1019.768943 261.200565 
C 1026.506633 271.503189 1035.210154 280.376882 1045.380399 287.312778 
C 1055.550644 294.248674 1066.989419 299.111609 1079.040763 301.622715 
C 1091.092106 304.133821 1103.521166 304.244164 1115.615193 301.947414 
C 1097.015237 294.801641 1081.012377 282.180605 1069.728799 265.75802 
C 1058.445222 249.335435 1052.40278 229.870826 1052.40278 209.945455 
C 1052.40278 190.020084 1058.445222 170.555474 1069.728799 154.132889 
C 1081.012377 137.710304 1097.015237 125.089268 1115.615193 117.943495 
C 1103.521166 115.646745 1091.092106 115.757088 1079.040763 118.268194 
C 1066.989419 120.7793 1055.550644 125.642235 1045.380399 132.578131 
C 1035.210154 139.514027 1026.506633 148.38772 1019.768943 158.690344 
C 1013.031254 168.992969 1008.390697 180.523751 1006.113387 192.621453 
C 1007.281108 198.322169 1007.869459 204.126371 1007.869459 209.945455 
C 1007.869459 215.764538 1007.281108 221.56874 1006.113387 227.269456 
" style="fill:#0000ff;opacity:0.4;"/>
   </g>
   <g id="patch_9">
    <path clip-path="url(#p4525c3a3ad)" d="M 1006.113387 227.269456 
C 1007.281108 221.56874 1007.869459 215.764538 1007.869459 209.945455 
C 1007.869459 204.126371 1007.281108 198.322169 1006.113387 192.621453 
C 1005.038145 198.333439 1004.49702 204.133146 1004.49702 209.945455 
C 1004.49702 215.757763 1005.038145 221.55747 1006.113387 227.269456 
" style="fill:#b200b2;opacity:0.4;"/>
   </g>
   <g id="patch_10">
    <path clip-path="url(#p4525c3a3ad)" d="M 1115.615193 117.943495 
C 1097.015237 125.089268 1081.012377 137.710304 1069.728799 154.132889 
C 1058.445222 170.555474 1052.40278 190.020084 1052.40278 209.945455 
C 1052.40278 229.870826 1058.445222 249.335435 1069.728799 265.75802 
C 1081.012377 282.180605 1097.015237 294.801641 1115.615193 301.947414 
C 1137.032504 297.880101 1156.371641 286.459067 1170.274454 269.66752 
C 1184.177267 252.875973 1191.789596 231.745552 1191.789596 209.945455 
C 1191.789596 188.145357 1184.177267 167.014936 1170.274454 150.223389 
C 1156.371641 133.431843 1137.032504 122.010808 1115.615193 117.943495 
" style="fill:#0059b2;opacity:0.4;"/>
   </g>
   <g id="text_9">
    <!-- 299 -->
    <g transform="translate(910.309071 212.70483)scale(0.1 -0.1)">
     <use xlink:href="#DejaVuSans-50"/>
     <use x="63.623047" xlink:href="#DejaVuSans-57"/>
     <use x="127.246094" xlink:href="#DejaVuSans-57"/>
    </g>
   </g>
   <g id="text_10">
    <!-- 148 -->
    <defs>
     <path d="M 31.78125 34.625 
Q 24.75 34.625 20.71875 30.859375 
Q 16.703125 27.09375 16.703125 20.515625 
Q 16.703125 13.921875 20.71875 10.15625 
Q 24.75 6.390625 31.78125 6.390625 
Q 38.8125 6.390625 42.859375 10.171875 
Q 46.921875 13.96875 46.921875 20.515625 
Q 46.921875 27.09375 42.890625 30.859375 
Q 38.875 34.625 31.78125 34.625 
z
M 21.921875 38.8125 
Q 15.578125 40.375 12.03125 44.71875 
Q 8.5 49.078125 8.5 55.328125 
Q 8.5 64.0625 14.71875 69.140625 
Q 20.953125 74.21875 31.78125 74.21875 
Q 42.671875 74.21875 48.875 69.140625 
Q 55.078125 64.0625 55.078125 55.328125 
Q 55.078125 49.078125 51.53125 44.71875 
Q 48 40.375 41.703125 38.8125 
Q 48.828125 37.15625 52.796875 32.3125 
Q 56.78125 27.484375 56.78125 20.515625 
Q 56.78125 9.90625 50.3125 4.234375 
Q 43.84375 -1.421875 31.78125 -1.421875 
Q 19.734375 -1.421875 13.25 4.234375 
Q 6.78125 9.90625 6.78125 20.515625 
Q 6.78125 27.484375 10.78125 32.3125 
Q 14.796875 37.15625 21.921875 38.8125 
z
M 18.3125 54.390625 
Q 18.3125 48.734375 21.84375 45.5625 
Q 25.390625 42.390625 31.78125 42.390625 
Q 38.140625 42.390625 41.71875 45.5625 
Q 45.3125 48.734375 45.3125 54.390625 
Q 45.3125 60.0625 41.71875 63.234375 
Q 38.140625 66.40625 31.78125 66.40625 
Q 25.390625 66.40625 21.84375 63.234375 
Q 18.3125 60.0625 18.3125 54.390625 
z
" id="DejaVuSans-56"/>
    </defs>
    <g transform="translate(1211.110373 212.70483)scale(0.1 -0.1)">
     <use xlink:href="#DejaVuSans-49"/>
     <use x="63.623047" xlink:href="#DejaVuSans-52"/>
     <use x="127.246094" xlink:href="#DejaVuSans-56"/>
    </g>
   </g>
   <g id="text_11">
    <!-- 109 -->
    <defs>
     <path d="M 31.78125 66.40625 
Q 24.171875 66.40625 20.328125 58.90625 
Q 16.5 51.421875 16.5 36.375 
Q 16.5 21.390625 20.328125 13.890625 
Q 24.171875 6.390625 31.78125 6.390625 
Q 39.453125 6.390625 43.28125 13.890625 
Q 47.125 21.390625 47.125 36.375 
Q 47.125 51.421875 43.28125 58.90625 
Q 39.453125 66.40625 31.78125 66.40625 
z
M 31.78125 74.21875 
Q 44.046875 74.21875 50.515625 64.515625 
Q 56.984375 54.828125 56.984375 36.375 
Q 56.984375 17.96875 50.515625 8.265625 
Q 44.046875 -1.421875 31.78125 -1.421875 
Q 19.53125 -1.421875 13.0625 8.265625 
Q 6.59375 17.96875 6.59375 36.375 
Q 6.59375 54.828125 13.0625 64.515625 
Q 19.53125 74.21875 31.78125 74.21875 
z
" id="DejaVuSans-48"/>
    </defs>
    <g transform="translate(1036.130807 212.70483)scale(0.1 -0.1)">
     <use xlink:href="#DejaVuSans-49"/>
     <use x="63.623047" xlink:href="#DejaVuSans-48"/>
     <use x="127.246094" xlink:href="#DejaVuSans-57"/>
    </g>
   </g>
   <g id="text_12">
    <!-- 1 -->
    <g transform="translate(1003.001989 212.70483)scale(0.1 -0.1)">
     <use xlink:href="#DejaVuSans-49"/>
    </g>
   </g>
   <g id="text_13">
    <!-- 243 -->
    <g transform="translate(1112.552438 212.70483)scale(0.1 -0.1)">
     <use xlink:href="#DejaVuSans-50"/>
     <use x="63.623047" xlink:href="#DejaVuSans-52"/>
     <use x="127.246094" xlink:href="#DejaVuSans-51"/>
    </g>
   </g>
   <g id="text_14">
    <!-- TOP -->
    <g transform="translate(909.533416 314.678486)scale(0.12 -0.12)">
     <use xlink:href="#DejaVuSans-84"/>
     <use x="61.083984" xlink:href="#DejaVuSans-79"/>
     <use x="139.794922" xlink:href="#DejaVuSans-80"/>
    </g>
   </g>
   <g id="text_15">
    <!-- BTM -->
    <g transform="translate(1138.00259 326.906003)scale(0.12 -0.12)">
     <use xlink:href="#DejaVuSans-66"/>
     <use x="68.603516" xlink:href="#DejaVuSans-84"/>
     <use x="129.6875" xlink:href="#DejaVuSans-77"/>
    </g>
   </g>
   <g id="text_16">
    <!-- PAREDES -->
    <defs>
     <path d="M 34.1875 63.1875 
L 20.796875 26.90625 
L 47.609375 26.90625 
z
M 28.609375 72.90625 
L 39.796875 72.90625 
L 67.578125 0 
L 57.328125 0 
L 50.6875 18.703125 
L 17.828125 18.703125 
L 11.1875 0 
L 0.78125 0 
z
" id="DejaVuSans-65"/>
     <path d="M 9.8125 72.90625 
L 55.90625 72.90625 
L 55.90625 64.59375 
L 19.671875 64.59375 
L 19.671875 43.015625 
L 54.390625 43.015625 
L 54.390625 34.71875 
L 19.671875 34.71875 
L 19.671875 8.296875 
L 56.78125 8.296875 
L 56.78125 0 
L 9.8125 0 
z
" id="DejaVuSans-69"/>
     <path d="M 19.671875 64.796875 
L 19.671875 8.109375 
L 31.59375 8.109375 
Q 46.6875 8.109375 53.6875 14.9375 
Q 60.6875 21.78125 60.6875 36.53125 
Q 60.6875 51.171875 53.6875 57.984375 
Q 46.6875 64.796875 31.59375 64.796875 
z
M 9.8125 72.90625 
L 30.078125 72.90625 
Q 51.265625 72.90625 61.171875 64.09375 
Q 71.09375 55.28125 71.09375 36.53125 
Q 71.09375 17.671875 61.125 8.828125 
Q 51.171875 0 30.078125 0 
L 9.8125 0 
z
" id="DejaVuSans-68"/>
    </defs>
    <g transform="translate(1070.24612 321.994356)scale(0.12 -0.12)">
     <use xlink:href="#DejaVuSans-80"/>
     <use x="60.208984" xlink:href="#DejaVuSans-65"/>
     <use x="128.617188" xlink:href="#DejaVuSans-82"/>
     <use x="198.099609" xlink:href="#DejaVuSans-69"/>
     <use x="261.283203" xlink:href="#DejaVuSans-68"/>
     <use x="338.285156" xlink:href="#DejaVuSans-69"/>
     <use x="401.46875" xlink:href="#DejaVuSans-83"/>
    </g>
   </g>
   <g id="text_17">
    <!-- PAREDES_L vs MIX -->
    <g transform="translate(986.575824 80.4)scale(0.12 -0.12)">
     <use xlink:href="#DejaVuSans-80"/>
     <use x="60.208984" xlink:href="#DejaVuSans-65"/>
     <use x="128.617188" xlink:href="#DejaVuSans-82"/>
     <use x="198.099609" xlink:href="#DejaVuSans-69"/>
     <use x="261.283203" xlink:href="#DejaVuSans-68"/>
     <use x="338.285156" xlink:href="#DejaVuSans-69"/>
     <use x="401.46875" xlink:href="#DejaVuSans-83"/>
     <use x="464.945312" xlink:href="#DejaVuSans-95"/>
     <use x="514.945312" xlink:href="#DejaVuSans-76"/>
     <use x="570.658203" xlink:href="#DejaVuSans-32"/>
     <use x="602.445312" xlink:href="#DejaVuSans-118"/>
     <use x="661.625" xlink:href="#DejaVuSans-115"/>
     <use x="713.724609" xlink:href="#DejaVuSans-32"/>
     <use x="745.511719" xlink:href="#DejaVuSans-77"/>
     <use x="831.791016" xlink:href="#DejaVuSans-73"/>
     <use x="861.283203" xlink:href="#DejaVuSans-88"/>
    </g>
   </g>
  </g>
  <g id="axes_3">
   <g id="patch_11">
    <path clip-path="url(#p1d9798d3a2)" d="M 340.165189 419.585257 
C 359.688628 424.251844 377.080181 435.366581 389.515361 451.124373 
C 401.950542 466.882165 408.717639 486.381137 408.717639 506.454545 
C 408.717639 526.527954 401.950542 546.026926 389.515361 561.784718 
C 377.080181 577.54251 359.688628 588.657247 340.165189 593.323834 
C 351.726269 593.566673 363.220357 591.49916 373.972134 587.24277 
C 384.72391 582.986379 394.518601 576.626136 402.780733 568.535726 
C 411.042865 560.445316 417.607397 550.786352 422.088638 540.126332 
C 426.569879 529.466311 428.878314 518.018176 428.878314 506.454545 
C 428.878314 494.890915 426.569879 483.44278 422.088638 472.782759 
C 417.607397 462.122739 411.042865 452.463775 402.780733 444.373365 
C 394.518601 436.282955 384.72391 429.922711 373.972134 425.666321 
C 363.220357 421.409931 351.726269 419.342418 340.165189 419.585257 
" style="fill:#ff0000;opacity:0.4;"/>
   </g>
   <g id="patch_12">
    <path clip-path="url(#p1d9798d3a2)" d="M 537.992819 605.64955 
C 564.299642 605.64955 589.532547 595.197739 608.13428 576.596006 
C 626.736013 557.994273 637.187824 532.761368 637.187824 506.454545 
C 637.187824 480.147723 626.736013 454.914818 608.13428 436.313085 
C 589.532547 417.711352 564.299642 407.259541 537.992819 407.259541 
C 511.685997 407.259541 486.453092 417.711352 467.851359 436.313085 
C 449.249626 454.914818 438.797815 480.147723 438.797815 506.454545 
C 438.797815 532.761368 449.249626 557.994273 467.851359 576.596006 
C 486.453092 595.197739 511.685997 605.64955 537.992819 605.64955 
z
" style="fill:#008000;opacity:0.4;"/>
   </g>
   <g id="patch_13">
    <path clip-path="url(#p1d9798d3a2)" d="M 340.165189 593.323834 
C 317.450206 592.84671 295.80456 583.478688 279.908684 567.245415 
C 264.012807 551.012141 255.101414 529.174538 255.101414 506.454545 
C 255.101414 483.734553 264.012807 461.89695 279.908684 445.663676 
C 295.80456 429.430403 317.450206 420.062381 340.165189 419.585257 
C 327.04035 416.448094 313.373606 416.325837 300.194745 419.227698 
C 287.015883 422.129559 274.664442 427.980774 264.071099 436.340455 
C 253.477757 444.700137 244.915438 455.352908 239.029312 467.496083 
C 233.143187 479.639258 230.084903 492.959984 230.084903 506.454545 
C 230.084903 519.949107 233.143187 533.269832 239.029312 545.413008 
C 244.915438 557.556183 253.477757 568.208954 264.071099 576.568636 
C 274.664442 584.928317 287.015883 590.779532 300.194745 593.681393 
C 313.373606 596.583253 327.04035 596.460997 340.165189 593.323834 
" style="fill:#0000ff;opacity:0.4;"/>
   </g>
   <g id="patch_14">
    <path clip-path="url(#p1d9798d3a2)" d="M 340.165189 419.585257 
C 317.450206 420.062381 295.80456 429.430403 279.908684 445.663676 
C 264.012807 461.89695 255.101414 483.734553 255.101414 506.454545 
C 255.101414 529.174538 264.012807 551.012141 279.908684 567.245415 
C 295.80456 583.478688 317.450206 592.84671 340.165189 593.323834 
C 359.688628 588.657247 377.080181 577.54251 389.515361 561.784718 
C 401.950542 546.026926 408.717639 526.527954 408.717639 506.454545 
C 408.717639 486.381137 401.950542 466.882165 389.515361 451.124373 
C 377.080181 435.366581 359.688628 424.251844 340.165189 419.585257 
" style="fill:#b200b2;opacity:0.4;"/>
   </g>
   <g id="text_18">
    <!-- 42 -->
    <g transform="translate(412.435477 509.21392)scale(0.1 -0.1)">
     <use xlink:href="#DejaVuSans-52"/>
     <use x="63.623047" xlink:href="#DejaVuSans-50"/>
    </g>
   </g>
   <g id="text_19">
    <!-- 391 -->
    <g transform="translate(528.449069 509.21392)scale(0.1 -0.1)">
     <use xlink:href="#DejaVuSans-51"/>
     <use x="63.623047" xlink:href="#DejaVuSans-57"/>
     <use x="127.246094" xlink:href="#DejaVuSans-49"/>
    </g>
   </g>
   <g id="text_20">
    <!-- 59 -->
    <g transform="translate(236.230659 509.21392)scale(0.1 -0.1)">
     <use xlink:href="#DejaVuSans-53"/>
     <use x="63.623047" xlink:href="#DejaVuSans-57"/>
    </g>
   </g>
   <g id="text_21">
    <!-- 258 -->
    <g transform="translate(322.365777 509.21392)scale(0.1 -0.1)">
     <use xlink:href="#DejaVuSans-50"/>
     <use x="63.623047" xlink:href="#DejaVuSans-53"/>
     <use x="127.246094" xlink:href="#DejaVuSans-56"/>
    </g>
   </g>
   <g id="text_22">
    <!-- TOP -->
    <g transform="translate(329.984239 611.641115)scale(0.12 -0.12)">
     <use xlink:href="#DejaVuSans-84"/>
     <use x="61.083984" xlink:href="#DejaVuSans-79"/>
     <use x="139.794922" xlink:href="#DejaVuSans-80"/>
    </g>
   </g>
   <g id="text_23">
    <!-- BTM -->
    <g transform="translate(525.034694 623.947669)scale(0.12 -0.12)">
     <use xlink:href="#DejaVuSans-66"/>
     <use x="68.603516" xlink:href="#DejaVuSans-84"/>
     <use x="129.6875" xlink:href="#DejaVuSans-77"/>
    </g>
   </g>
   <g id="text_24">
    <!-- BURGOS -->
    <g transform="translate(293.543146 614.069032)scale(0.12 -0.12)">
     <use xlink:href="#DejaVuSans-66"/>
     <use x="68.603516" xlink:href="#DejaVuSans-85"/>
     <use x="141.796875" xlink:href="#DejaVuSans-82"/>
     <use x="211.279297" xlink:href="#DejaVuSans-71"/>
     <use x="288.769531" xlink:href="#DejaVuSans-79"/>
     <use x="367.480469" xlink:href="#DejaVuSans-83"/>
    </g>
   </g>
   <g id="text_25">
    <!-- BURGOS vs MIX -->
    <g transform="translate(386.230739 376.909091)scale(0.12 -0.12)">
     <use xlink:href="#DejaVuSans-66"/>
     <use x="68.603516" xlink:href="#DejaVuSans-85"/>
     <use x="141.796875" xlink:href="#DejaVuSans-82"/>
     <use x="211.279297" xlink:href="#DejaVuSans-71"/>
     <use x="288.769531" xlink:href="#DejaVuSans-79"/>
     <use x="367.480469" xlink:href="#DejaVuSans-83"/>
     <use x="430.957031" xlink:href="#DejaVuSans-32"/>
     <use x="462.744141" xlink:href="#DejaVuSans-118"/>
     <use x="521.923828" xlink:href="#DejaVuSans-115"/>
     <use x="574.023438" xlink:href="#DejaVuSans-32"/>
     <use x="605.810547" xlink:href="#DejaVuSans-77"/>
     <use x="692.089844" xlink:href="#DejaVuSans-73"/>
     <use x="721.582031" xlink:href="#DejaVuSans-88"/>
    </g>
   </g>
  </g>
  <g id="axes_4">
   <g id="patch_15">
    <path clip-path="url(#pf65f80c88d)" d="M 1005.957303 523.780322 
C 1004.883241 518.0676 1004.342718 512.267359 1004.342718 506.454545 
C 1004.342718 500.641732 1004.883241 494.841491 1005.957303 489.128769 
C 1003.829303 478.742526 999.805899 468.836655 994.088938 459.908118 
C 988.371977 450.979581 981.05869 443.180228 972.515974 436.901342 
C 963.973257 430.622456 954.3464 425.970823 944.118367 423.17981 
C 933.890334 420.388796 923.235076 419.505869 912.687153 420.575324 
C 902.13923 421.644779 891.878033 424.648427 882.418351 429.435579 
C 872.958669 434.222732 864.461385 440.711973 857.352797 448.577746 
C 850.244209 456.443519 844.645213 465.552049 840.836704 475.446375 
C 837.028195 485.3407 835.074945 495.852545 835.074945 506.454545 
C 835.074945 517.056546 837.028195 527.568391 840.836704 537.462716 
C 844.645213 547.357041 850.244209 556.465572 857.352797 564.331345 
C 864.461385 572.197118 872.958669 578.686359 882.418351 583.473511 
C 891.878033 588.260664 902.13923 591.264312 912.687153 592.333767 
C 923.235076 593.403222 933.890334 592.520295 944.118367 589.729281 
C 954.3464 586.938268 963.973257 582.286635 972.515974 576.007749 
C 981.05869 569.728863 988.371977 561.92951 994.088938 553.000973 
C 999.805899 544.072436 1003.829303 534.166565 1005.957303 523.780322 
" style="fill:#ff0000;opacity:0.4;"/>
   </g>
   <g id="patch_16">
    <path clip-path="url(#pf65f80c88d)" d="M 1115.938339 414.398106 
C 1137.311019 418.537367 1156.589172 429.993279 1170.442222 446.786668 
C 1184.295271 463.580058 1191.876696 484.684729 1191.876696 506.454545 
C 1191.876696 528.224362 1184.295271 549.329033 1170.442222 566.122423 
C 1156.589172 582.915812 1137.311019 594.371724 1115.938339 598.510985 
C 1130.860014 604.211543 1146.946366 606.199496 1162.806884 604.303005 
C 1178.667403 602.406515 1193.831534 596.681846 1206.988482 587.623842 
C 1220.145431 578.565838 1230.904853 566.443235 1238.3367 552.303914 
C 1245.768547 538.164594 1249.652328 522.428046 1249.652328 506.454545 
C 1249.652328 490.481045 1245.768547 474.744497 1238.3367 460.605177 
C 1230.904853 446.465856 1220.145431 434.343253 1206.988482 425.285249 
C 1193.831534 416.227245 1178.667403 410.502576 1162.806884 408.606086 
C 1146.946366 406.709595 1130.860014 408.697548 1115.938339 414.398106 
" style="fill:#008000;opacity:0.4;"/>
   </g>
   <g id="patch_17">
    <path clip-path="url(#pf65f80c88d)" d="M 1005.957303 523.780322 
C 1008.240461 535.923995 1012.901669 547.49745 1019.672329 557.833782 
C 1026.442989 568.170113 1035.190504 577.066894 1045.41081 584.011456 
C 1055.631115 590.956019 1067.124055 595.812361 1079.227362 598.300641 
C 1091.33067 600.788921 1103.807313 600.860409 1115.938339 598.510985 
C 1097.297957 591.389763 1081.252945 578.77204 1069.937549 562.336182 
C 1058.622154 545.900323 1052.561364 526.408884 1052.561364 506.454545 
C 1052.561364 486.500207 1058.622154 467.008768 1069.937549 450.572909 
C 1081.252945 434.13705 1097.297957 421.519328 1115.938339 414.398106 
C 1103.807313 412.048682 1091.33067 412.12017 1079.227362 414.60845 
C 1067.124055 417.09673 1055.631115 421.953072 1045.41081 428.897635 
C 1035.190504 435.842197 1026.442989 444.738978 1019.672329 455.075309 
C 1012.901669 465.411641 1008.240461 476.985096 1005.957303 489.128769 
C 1007.125414 494.830034 1007.713965 500.634845 1007.713965 506.454545 
C 1007.713965 512.274246 1007.125414 518.079057 1005.957303 523.780322 
" style="fill:#0000ff;opacity:0.4;"/>
   </g>
   <g id="patch_18">
    <path clip-path="url(#pf65f80c88d)" d="M 1005.957303 523.780322 
C 1007.125414 518.079057 1007.713965 512.274246 1007.713965 506.454545 
C 1007.713965 500.634845 1007.125414 494.830034 1005.957303 489.128769 
C 1004.883241 494.841491 1004.342718 500.641732 1004.342718 506.454545 
C 1004.342718 512.267359 1004.883241 518.0676 1005.957303 523.780322 
" style="fill:#b200b2;opacity:0.4;"/>
   </g>
   <g id="patch_19">
    <path clip-path="url(#pf65f80c88d)" d="M 1115.938339 414.398106 
C 1097.297957 421.519328 1081.252945 434.13705 1069.937549 450.572909 
C 1058.622154 467.008768 1052.561364 486.500207 1052.561364 506.454545 
C 1052.561364 526.408884 1058.622154 545.900323 1069.937549 562.336182 
C 1081.252945 578.77204 1097.297957 591.389763 1115.938339 598.510985 
C 1137.311019 594.371724 1156.589172 582.915812 1170.442222 566.122423 
C 1184.295271 549.329033 1191.876696 528.224362 1191.876696 506.454545 
C 1191.876696 484.684729 1184.295271 463.580058 1170.442222 446.786668 
C 1156.589172 429.993279 1137.311019 418.537367 1115.938339 414.398106 
" style="fill:#0059b2;opacity:0.4;"/>
   </g>
   <g id="text_26">
    <!-- 299 -->
    <g transform="translate(910.165082 509.21392)scale(0.1 -0.1)">
     <use xlink:href="#DejaVuSans-50"/>
     <use x="63.623047" xlink:href="#DejaVuSans-57"/>
     <use x="127.246094" xlink:href="#DejaVuSans-57"/>
    </g>
   </g>
   <g id="text_27">
    <!-- 148 -->
    <g transform="translate(1211.220762 509.21392)scale(0.1 -0.1)">
     <use xlink:href="#DejaVuSans-49"/>
     <use x="63.623047" xlink:href="#DejaVuSans-52"/>
     <use x="127.246094" xlink:href="#DejaVuSans-56"/>
    </g>
   </g>
   <g id="text_28">
    <!-- 110 -->
    <g transform="translate(1036.203675 509.21392)scale(0.1 -0.1)">
     <use xlink:href="#DejaVuSans-49"/>
     <use x="63.623047" xlink:href="#DejaVuSans-49"/>
     <use x="127.246094" xlink:href="#DejaVuSans-48"/>
    </g>
   </g>
   <g id="text_29">
    <!-- 1 -->
    <g transform="translate(1002.847092 509.21392)scale(0.1 -0.1)">
     <use xlink:href="#DejaVuSans-49"/>
    </g>
   </g>
   <g id="text_30">
    <!-- 243 -->
    <g transform="translate(1112.67528 509.21392)scale(0.1 -0.1)">
     <use xlink:href="#DejaVuSans-50"/>
     <use x="63.623047" xlink:href="#DejaVuSans-52"/>
     <use x="127.246094" xlink:href="#DejaVuSans-51"/>
    </g>
   </g>
   <g id="text_31">
    <!-- TOP -->
    <g transform="translate(909.38883 611.179913)scale(0.12 -0.12)">
     <use xlink:href="#DejaVuSans-84"/>
     <use x="61.083984" xlink:href="#DejaVuSans-79"/>
     <use x="139.794922" xlink:href="#DejaVuSans-80"/>
    </g>
   </g>
   <g id="text_32">
    <!-- BTM -->
    <g transform="translate(1138.148721 623.405885)scale(0.12 -0.12)">
     <use xlink:href="#DejaVuSans-66"/>
     <use x="68.603516" xlink:href="#DejaVuSans-84"/>
     <use x="129.6875" xlink:href="#DejaVuSans-77"/>
    </g>
   </g>
   <g id="text_33">
    <!-- PAREDES -->
    <g transform="translate(1070.21252 618.627392)scale(0.12 -0.12)">
     <use xlink:href="#DejaVuSans-80"/>
     <use x="60.208984" xlink:href="#DejaVuSans-65"/>
     <use x="128.617188" xlink:href="#DejaVuSans-82"/>
     <use x="198.099609" xlink:href="#DejaVuSans-69"/>
     <use x="261.283203" xlink:href="#DejaVuSans-68"/>
     <use x="338.285156" xlink:href="#DejaVuSans-69"/>
     <use x="401.46875" xlink:href="#DejaVuSans-83"/>
    </g>
   </g>
   <g id="text_34">
    <!-- PAREDES vs MIX -->
    <g transform="translate(992.918949 376.909091)scale(0.12 -0.12)">
     <use xlink:href="#DejaVuSans-80"/>
     <use x="60.208984" xlink:href="#DejaVuSans-65"/>
     <use x="128.617188" xlink:href="#DejaVuSans-82"/>
     <use x="198.099609" xlink:href="#DejaVuSans-69"/>
     <use x="261.283203" xlink:href="#DejaVuSans-68"/>
     <use x="338.285156" xlink:href="#DejaVuSans-69"/>
     <use x="401.46875" xlink:href="#DejaVuSans-83"/>
     <use x="464.945312" xlink:href="#DejaVuSans-32"/>
     <use x="496.732422" xlink:href="#DejaVuSans-118"/>
     <use x="555.912109" xlink:href="#DejaVuSans-115"/>
     <use x="608.011719" xlink:href="#DejaVuSans-32"/>
     <use x="639.798828" xlink:href="#DejaVuSans-77"/>
     <use x="726.078125" xlink:href="#DejaVuSans-73"/>
     <use x="755.570312" xlink:href="#DejaVuSans-88"/>
    </g>
   </g>
  </g>
  <g id="text_35">
   <!-- P1_80_20, Raw vs Filtrados Laura -->
   <defs>
    <path d="M 11.71875 12.40625 
L 22.015625 12.40625 
L 22.015625 4 
L 14.015625 -11.625 
L 7.71875 -11.625 
L 11.71875 4 
z
" id="DejaVuSans-44"/>
    <path d="M 34.28125 27.484375 
Q 23.390625 27.484375 19.1875 25 
Q 14.984375 22.515625 14.984375 16.5 
Q 14.984375 11.71875 18.140625 8.90625 
Q 21.296875 6.109375 26.703125 6.109375 
Q 34.1875 6.109375 38.703125 11.40625 
Q 43.21875 16.703125 43.21875 25.484375 
L 43.21875 27.484375 
z
M 52.203125 31.203125 
L 52.203125 0 
L 43.21875 0 
L 43.21875 8.296875 
Q 40.140625 3.328125 35.546875 0.953125 
Q 30.953125 -1.421875 24.3125 -1.421875 
Q 15.921875 -1.421875 10.953125 3.296875 
Q 6 8.015625 6 15.921875 
Q 6 25.140625 12.171875 29.828125 
Q 18.359375 34.515625 30.609375 34.515625 
L 43.21875 34.515625 
L 43.21875 35.40625 
Q 43.21875 41.609375 39.140625 45 
Q 35.0625 48.390625 27.6875 48.390625 
Q 23 48.390625 18.546875 47.265625 
Q 14.109375 46.140625 10.015625 43.890625 
L 10.015625 52.203125 
Q 14.9375 54.109375 19.578125 55.046875 
Q 24.21875 56 28.609375 56 
Q 40.484375 56 46.34375 49.84375 
Q 52.203125 43.703125 52.203125 31.203125 
z
" id="DejaVuSans-97"/>
    <path d="M 4.203125 54.6875 
L 13.1875 54.6875 
L 24.421875 12.015625 
L 35.59375 54.6875 
L 46.1875 54.6875 
L 57.421875 12.015625 
L 68.609375 54.6875 
L 77.59375 54.6875 
L 63.28125 0 
L 52.6875 0 
L 40.921875 44.828125 
L 29.109375 0 
L 18.5 0 
z
" id="DejaVuSans-119"/>
    <path d="M 9.8125 72.90625 
L 51.703125 72.90625 
L 51.703125 64.59375 
L 19.671875 64.59375 
L 19.671875 43.109375 
L 48.578125 43.109375 
L 48.578125 34.8125 
L 19.671875 34.8125 
L 19.671875 0 
L 9.8125 0 
z
" id="DejaVuSans-70"/>
    <path d="M 9.421875 54.6875 
L 18.40625 54.6875 
L 18.40625 0 
L 9.421875 0 
z
M 9.421875 75.984375 
L 18.40625 75.984375 
L 18.40625 64.59375 
L 9.421875 64.59375 
z
" id="DejaVuSans-105"/>
    <path d="M 9.421875 75.984375 
L 18.40625 75.984375 
L 18.40625 0 
L 9.421875 0 
z
" id="DejaVuSans-108"/>
    <path d="M 18.3125 70.21875 
L 18.3125 54.6875 
L 36.8125 54.6875 
L 36.8125 47.703125 
L 18.3125 47.703125 
L 18.3125 18.015625 
Q 18.3125 11.328125 20.140625 9.421875 
Q 21.96875 7.515625 27.59375 7.515625 
L 36.8125 7.515625 
L 36.8125 0 
L 27.59375 0 
Q 17.1875 0 13.234375 3.875 
Q 9.28125 7.765625 9.28125 18.015625 
L 9.28125 47.703125 
L 2.6875 47.703125 
L 2.6875 54.6875 
L 9.28125 54.6875 
L 9.28125 70.21875 
z
" id="DejaVuSans-116"/>
    <path d="M 41.109375 46.296875 
Q 39.59375 47.171875 37.8125 47.578125 
Q 36.03125 48 33.890625 48 
Q 26.265625 48 22.1875 43.046875 
Q 18.109375 38.09375 18.109375 28.8125 
L 18.109375 0 
L 9.078125 0 
L 9.078125 54.6875 
L 18.109375 54.6875 
L 18.109375 46.1875 
Q 20.953125 51.171875 25.484375 53.578125 
Q 30.03125 56 36.53125 56 
Q 37.453125 56 38.578125 55.875 
Q 39.703125 55.765625 41.0625 55.515625 
z
" id="DejaVuSans-114"/>
    <path d="M 45.40625 46.390625 
L 45.40625 75.984375 
L 54.390625 75.984375 
L 54.390625 0 
L 45.40625 0 
L 45.40625 8.203125 
Q 42.578125 3.328125 38.25 0.953125 
Q 33.9375 -1.421875 27.875 -1.421875 
Q 17.96875 -1.421875 11.734375 6.484375 
Q 5.515625 14.40625 5.515625 27.296875 
Q 5.515625 40.1875 11.734375 48.09375 
Q 17.96875 56 27.875 56 
Q 33.9375 56 38.25 53.625 
Q 42.578125 51.265625 45.40625 46.390625 
z
M 14.796875 27.296875 
Q 14.796875 17.390625 18.875 11.75 
Q 22.953125 6.109375 30.078125 6.109375 
Q 37.203125 6.109375 41.296875 11.75 
Q 45.40625 17.390625 45.40625 27.296875 
Q 45.40625 37.203125 41.296875 42.84375 
Q 37.203125 48.484375 30.078125 48.484375 
Q 22.953125 48.484375 18.875 42.84375 
Q 14.796875 37.203125 14.796875 27.296875 
z
" id="DejaVuSans-100"/>
    <path d="M 30.609375 48.390625 
Q 23.390625 48.390625 19.1875 42.75 
Q 14.984375 37.109375 14.984375 27.296875 
Q 14.984375 17.484375 19.15625 11.84375 
Q 23.34375 6.203125 30.609375 6.203125 
Q 37.796875 6.203125 41.984375 11.859375 
Q 46.1875 17.53125 46.1875 27.296875 
Q 46.1875 37.015625 41.984375 42.703125 
Q 37.796875 48.390625 30.609375 48.390625 
z
M 30.609375 56 
Q 42.328125 56 49.015625 48.375 
Q 55.71875 40.765625 55.71875 27.296875 
Q 55.71875 13.875 49.015625 6.21875 
Q 42.328125 -1.421875 30.609375 -1.421875 
Q 18.84375 -1.421875 12.171875 6.21875 
Q 5.515625 13.875 5.515625 27.296875 
Q 5.515625 40.765625 12.171875 48.375 
Q 18.84375 56 30.609375 56 
z
" id="DejaVuSans-111"/>
    <path d="M 8.5 21.578125 
L 8.5 54.6875 
L 17.484375 54.6875 
L 17.484375 21.921875 
Q 17.484375 14.15625 20.5 10.265625 
Q 23.53125 6.390625 29.59375 6.390625 
Q 36.859375 6.390625 41.078125 11.03125 
Q 45.3125 15.671875 45.3125 23.6875 
L 45.3125 54.6875 
L 54.296875 54.6875 
L 54.296875 0 
L 45.3125 0 
L 45.3125 8.40625 
Q 42.046875 3.421875 37.71875 1 
Q 33.40625 -1.421875 27.6875 -1.421875 
Q 18.265625 -1.421875 13.375 4.4375 
Q 8.5 10.296875 8.5 21.578125 
z
M 31.109375 56 
z
" id="DejaVuSans-117"/>
   </defs>
   <g transform="translate(585.9825 10.6275)scale(0.16 -0.16)">
    <use xlink:href="#DejaVuSans-80"/>
    <use x="60.302734" xlink:href="#DejaVuSans-49"/>
    <use x="123.925781" xlink:href="#DejaVuSans-95"/>
    <use x="173.925781" xlink:href="#DejaVuSans-56"/>
    <use x="237.548828" xlink:href="#DejaVuSans-48"/>
    <use x="301.171875" xlink:href="#DejaVuSans-95"/>
    <use x="351.171875" xlink:href="#DejaVuSans-50"/>
    <use x="414.794922" xlink:href="#DejaVuSans-48"/>
    <use x="478.417969" xlink:href="#DejaVuSans-44"/>
    <use x="510.205078" xlink:href="#DejaVuSans-32"/>
    <use x="541.992188" xlink:href="#DejaVuSans-82"/>
    <use x="611.443359" xlink:href="#DejaVuSans-97"/>
    <use x="672.722656" xlink:href="#DejaVuSans-119"/>
    <use x="754.509766" xlink:href="#DejaVuSans-32"/>
    <use x="786.296875" xlink:href="#DejaVuSans-118"/>
    <use x="845.476562" xlink:href="#DejaVuSans-115"/>
    <use x="897.576172" xlink:href="#DejaVuSans-32"/>
    <use x="929.363281" xlink:href="#DejaVuSans-70"/>
    <use x="986.773438" xlink:href="#DejaVuSans-105"/>
    <use x="1014.556641" xlink:href="#DejaVuSans-108"/>
    <use x="1042.339844" xlink:href="#DejaVuSans-116"/>
    <use x="1081.548828" xlink:href="#DejaVuSans-114"/>
    <use x="1122.662109" xlink:href="#DejaVuSans-97"/>
    <use x="1183.941406" xlink:href="#DejaVuSans-100"/>
    <use x="1247.417969" xlink:href="#DejaVuSans-111"/>
    <use x="1308.599609" xlink:href="#DejaVuSans-115"/>
    <use x="1360.699219" xlink:href="#DejaVuSans-32"/>
    <use x="1392.486328" xlink:href="#DejaVuSans-76"/>
    <use x="1448.199219" xlink:href="#DejaVuSans-97"/>
    <use x="1509.478516" xlink:href="#DejaVuSans-117"/>
    <use x="1572.857422" xlink:href="#DejaVuSans-114"/>
    <use x="1613.970703" xlink:href="#DejaVuSans-97"/>
   </g>
  </g>
 </g>
 <defs>
  <clipPath id="pf47cf8f0c9">
   <rect height="247.090909" width="454.681722" x="206.295503" y="86.4"/>
  </clipPath>
  <clipPath id="p4525c3a3ad">
   <rect height="247.090909" width="464.285067" x="810.221103" y="86.4"/>
  </clipPath>
  <clipPath id="p1d9798d3a2">
   <rect height="247.090909" width="455.803821" x="205.734453" y="382.909091"/>
  </clipPath>
  <clipPath id="pf65f80c88d">
   <rect height="247.090909" width="464.577328" x="810.074972" y="382.909091"/>
  </clipPath>
 </defs>
</svg>
