<?xml version="1.0" encoding="utf-8" standalone="no"?>
<!DOCTYPE svg PUBLIC "-//W3C//DTD SVG 1.1//EN"
  "http://www.w3.org/Graphics/SVG/1.1/DTD/svg11.dtd">
<!-- Created with matplotlib (https://matplotlib.org/) -->
<svg height="720pt" version="1.1" viewBox="0 0 1440 720" width="1440pt" xmlns="http://www.w3.org/2000/svg" xmlns:xlink="http://www.w3.org/1999/xlink">
 <defs>
  <style type="text/css">
*{stroke-linecap:butt;stroke-linejoin:round;}
  </style>
 </defs>
 <g id="figure_1">
  <g id="patch_1">
   <path d="M 0 720 
L 1440 720 
L 1440 0 
L 0 0 
z
" style="fill:#ffffff;"/>
  </g>
  <g id="axes_1">
   <g id="patch_2">
    <path clip-path="url(#p6a0e12d0f5)" d="M 326.199171 125.502378 
C 347.442212 127.17299 367.291783 136.799646 381.756555 152.44663 
C 396.221328 168.093615 404.262132 188.636823 404.262132 209.945455 
C 404.262132 231.254086 396.221328 251.797295 381.756555 267.444279 
C 367.291783 283.091263 347.442212 292.717919 326.199171 294.388531 
C 338.264231 296.055279 350.547561 295.117084 362.219532 291.637313 
C 373.891504 288.157543 384.683285 282.216343 393.86599 274.214989 
C 403.048694 266.213635 410.410823 256.336416 415.45513 245.250448 
C 420.499438 234.16448 423.109743 222.125098 423.109743 209.945455 
C 423.109743 197.765811 420.499438 185.726429 415.45513 174.640461 
C 410.410823 163.554493 403.048694 153.677274 393.86599 145.67592 
C 384.683285 137.674566 373.891504 131.733366 362.219532 128.253596 
C 350.547561 124.773825 338.264231 123.83563 326.199171 125.502378 
" style="fill:#ff0000;opacity:0.4;"/>
   </g>
   <g id="patch_3">
    <path clip-path="url(#p6a0e12d0f5)" d="M 532.747506 309.616148 
C 559.180482 309.616148 584.534391 299.114215 603.225329 280.423277 
C 621.916266 261.73234 632.418199 236.378431 632.418199 209.945455 
C 632.418199 183.512478 621.916266 158.158569 603.225329 139.467632 
C 584.534391 120.776695 559.180482 110.274762 532.747506 110.274762 
C 506.314529 110.274762 480.96062 120.776695 462.269683 139.467632 
C 443.578746 158.158569 433.076813 183.512478 433.076813 209.945455 
C 433.076813 236.378431 443.578746 261.73234 462.269683 280.423277 
C 480.96062 299.114215 506.314529 309.616148 532.747506 309.616148 
z
" style="fill:#008000;opacity:0.4;"/>
   </g>
   <g id="patch_4">
    <path clip-path="url(#p6a0e12d0f5)" d="M 326.199171 294.388531 
C 305.810704 291.571933 287.116467 281.464386 273.595163 265.946746 
C 260.07386 250.429106 252.619653 230.527554 252.619653 209.945455 
C 252.619653 189.363355 260.07386 169.461803 273.595163 153.944163 
C 287.116467 138.426523 305.810704 128.318976 326.199171 125.502378 
C 314.552381 124.586442 302.841059 126.089903 291.803295 129.918009 
C 280.76553 133.746115 270.63818 139.816719 262.059506 147.747229 
C 253.480832 155.67774 246.634922 165.297978 241.953231 176.001641 
C 237.271539 186.705304 234.854529 198.262705 234.854529 209.945455 
C 234.854529 221.628204 237.271539 233.185605 241.953231 243.889268 
C 246.634922 254.592931 253.480832 264.213169 262.059506 272.14368 
C 270.63818 280.07419 280.76553 286.144794 291.803295 289.9729 
C 302.841059 293.801006 314.552381 295.304467 326.199171 294.388531 
" style="fill:#0000ff;opacity:0.4;"/>
   </g>
   <g id="patch_5">
    <path clip-path="url(#p6a0e12d0f5)" d="M 326.199171 125.502378 
C 305.810704 128.318976 287.116467 138.426523 273.595163 153.944163 
C 260.07386 169.461803 252.619653 189.363355 252.619653 209.945455 
C 252.619653 230.527554 260.07386 250.429106 273.595163 265.946746 
C 287.116467 281.464386 305.810704 291.571933 326.199171 294.388531 
C 347.442212 292.717919 367.291783 283.091263 381.756555 267.444279 
C 396.221328 251.797295 404.262132 231.254086 404.262132 209.945455 
C 404.262132 188.636823 396.221328 168.093615 381.756555 152.44663 
C 367.291783 136.799646 347.442212 127.17299 326.199171 125.502378 
" style="fill:#b200b2;opacity:0.4;"/>
   </g>
   <g id="text_1">
    <!-- 45 -->
    <defs>
     <path d="M 37.796875 64.3125 
L 12.890625 25.390625 
L 37.796875 25.390625 
z
M 35.203125 72.90625 
L 47.609375 72.90625 
L 47.609375 25.390625 
L 58.015625 25.390625 
L 58.015625 17.1875 
L 47.609375 17.1875 
L 47.609375 0 
L 37.796875 0 
L 37.796875 17.1875 
L 4.890625 17.1875 
L 4.890625 26.703125 
z
" id="DejaVuSans-52"/>
     <path d="M 10.796875 72.90625 
L 49.515625 72.90625 
L 49.515625 64.59375 
L 19.828125 64.59375 
L 19.828125 46.734375 
Q 21.96875 47.46875 24.109375 47.828125 
Q 26.265625 48.1875 28.421875 48.1875 
Q 40.625 48.1875 47.75 41.5 
Q 54.890625 34.8125 54.890625 23.390625 
Q 54.890625 11.625 47.5625 5.09375 
Q 40.234375 -1.421875 26.90625 -1.421875 
Q 22.3125 -1.421875 17.546875 -0.640625 
Q 12.796875 0.140625 7.71875 1.703125 
L 7.71875 11.625 
Q 12.109375 9.234375 16.796875 8.0625 
Q 21.484375 6.890625 26.703125 6.890625 
Q 35.15625 6.890625 40.078125 11.328125 
Q 45.015625 15.765625 45.015625 23.390625 
Q 45.015625 31 40.078125 35.4375 
Q 35.15625 39.890625 26.703125 39.890625 
Q 22.75 39.890625 18.8125 39.015625 
Q 14.890625 38.140625 10.796875 36.28125 
z
" id="DejaVuSans-53"/>
    </defs>
    <g transform="translate(407.323437 212.70483)scale(0.1 -0.1)">
     <use xlink:href="#DejaVuSans-52"/>
     <use x="63.623047" xlink:href="#DejaVuSans-53"/>
    </g>
   </g>
   <g id="text_2">
    <!-- 432 -->
    <defs>
     <path d="M 40.578125 39.3125 
Q 47.65625 37.796875 51.625 33 
Q 55.609375 28.21875 55.609375 21.1875 
Q 55.609375 10.40625 48.1875 4.484375 
Q 40.765625 -1.421875 27.09375 -1.421875 
Q 22.515625 -1.421875 17.65625 -0.515625 
Q 12.796875 0.390625 7.625 2.203125 
L 7.625 11.71875 
Q 11.71875 9.328125 16.59375 8.109375 
Q 21.484375 6.890625 26.8125 6.890625 
Q 36.078125 6.890625 40.9375 10.546875 
Q 45.796875 14.203125 45.796875 21.1875 
Q 45.796875 27.640625 41.28125 31.265625 
Q 36.765625 34.90625 28.71875 34.90625 
L 20.21875 34.90625 
L 20.21875 43.015625 
L 29.109375 43.015625 
Q 36.375 43.015625 40.234375 45.921875 
Q 44.09375 48.828125 44.09375 54.296875 
Q 44.09375 59.90625 40.109375 62.90625 
Q 36.140625 65.921875 28.71875 65.921875 
Q 24.65625 65.921875 20.015625 65.03125 
Q 15.375 64.15625 9.8125 62.3125 
L 9.8125 71.09375 
Q 15.4375 72.65625 20.34375 73.4375 
Q 25.25 74.21875 29.59375 74.21875 
Q 40.828125 74.21875 47.359375 69.109375 
Q 53.90625 64.015625 53.90625 55.328125 
Q 53.90625 49.265625 50.4375 45.09375 
Q 46.96875 40.921875 40.578125 39.3125 
z
" id="DejaVuSans-51"/>
     <path d="M 19.1875 8.296875 
L 53.609375 8.296875 
L 53.609375 0 
L 7.328125 0 
L 7.328125 8.296875 
Q 12.9375 14.109375 22.625 23.890625 
Q 32.328125 33.6875 34.8125 36.53125 
Q 39.546875 41.84375 41.421875 45.53125 
Q 43.3125 49.21875 43.3125 52.78125 
Q 43.3125 58.59375 39.234375 62.25 
Q 35.15625 65.921875 28.609375 65.921875 
Q 23.96875 65.921875 18.8125 64.3125 
Q 13.671875 62.703125 7.8125 59.421875 
L 7.8125 69.390625 
Q 13.765625 71.78125 18.9375 73 
Q 24.125 74.21875 28.421875 74.21875 
Q 39.75 74.21875 46.484375 68.546875 
Q 53.21875 62.890625 53.21875 53.421875 
Q 53.21875 48.921875 51.53125 44.890625 
Q 49.859375 40.875 45.40625 35.40625 
Q 44.1875 33.984375 37.640625 27.21875 
Q 31.109375 20.453125 19.1875 8.296875 
z
" id="DejaVuSans-50"/>
    </defs>
    <g transform="translate(523.203756 212.70483)scale(0.1 -0.1)">
     <use xlink:href="#DejaVuSans-52"/>
     <use x="63.623047" xlink:href="#DejaVuSans-51"/>
     <use x="127.246094" xlink:href="#DejaVuSans-50"/>
    </g>
   </g>
   <g id="text_3">
    <!-- 41 -->
    <defs>
     <path d="M 12.40625 8.296875 
L 28.515625 8.296875 
L 28.515625 63.921875 
L 10.984375 60.40625 
L 10.984375 69.390625 
L 28.421875 72.90625 
L 38.28125 72.90625 
L 38.28125 8.296875 
L 54.390625 8.296875 
L 54.390625 0 
L 12.40625 0 
z
" id="DejaVuSans-49"/>
    </defs>
    <g transform="translate(237.374591 212.70483)scale(0.1 -0.1)">
     <use xlink:href="#DejaVuSans-52"/>
     <use x="63.623047" xlink:href="#DejaVuSans-49"/>
    </g>
   </g>
   <g id="text_4">
    <!-- 271 -->
    <defs>
     <path d="M 8.203125 72.90625 
L 55.078125 72.90625 
L 55.078125 68.703125 
L 28.609375 0 
L 18.3125 0 
L 43.21875 64.59375 
L 8.203125 64.59375 
z
" id="DejaVuSans-55"/>
    </defs>
    <g transform="translate(318.897142 212.70483)scale(0.1 -0.1)">
     <use xlink:href="#DejaVuSans-50"/>
     <use x="63.623047" xlink:href="#DejaVuSans-55"/>
     <use x="127.246094" xlink:href="#DejaVuSans-49"/>
    </g>
   </g>
   <g id="text_5">
    <!-- TOP -->
    <defs>
     <path d="M -0.296875 72.90625 
L 61.375 72.90625 
L 61.375 64.59375 
L 35.5 64.59375 
L 35.5 0 
L 25.59375 0 
L 25.59375 64.59375 
L -0.296875 64.59375 
z
" id="DejaVuSans-84"/>
     <path d="M 39.40625 66.21875 
Q 28.65625 66.21875 22.328125 58.203125 
Q 16.015625 50.203125 16.015625 36.375 
Q 16.015625 22.609375 22.328125 14.59375 
Q 28.65625 6.59375 39.40625 6.59375 
Q 50.140625 6.59375 56.421875 14.59375 
Q 62.703125 22.609375 62.703125 36.375 
Q 62.703125 50.203125 56.421875 58.203125 
Q 50.140625 66.21875 39.40625 66.21875 
z
M 39.40625 74.21875 
Q 54.734375 74.21875 63.90625 63.9375 
Q 73.09375 53.65625 73.09375 36.375 
Q 73.09375 19.140625 63.90625 8.859375 
Q 54.734375 -1.421875 39.40625 -1.421875 
Q 24.03125 -1.421875 14.8125 8.828125 
Q 5.609375 19.09375 5.609375 36.375 
Q 5.609375 53.65625 14.8125 63.9375 
Q 24.03125 74.21875 39.40625 74.21875 
z
" id="DejaVuSans-79"/>
     <path d="M 19.671875 64.796875 
L 19.671875 37.40625 
L 32.078125 37.40625 
Q 38.96875 37.40625 42.71875 40.96875 
Q 46.484375 44.53125 46.484375 51.125 
Q 46.484375 57.671875 42.71875 61.234375 
Q 38.96875 64.796875 32.078125 64.796875 
z
M 9.8125 72.90625 
L 32.078125 72.90625 
Q 44.34375 72.90625 50.609375 67.359375 
Q 56.890625 61.8125 56.890625 51.125 
Q 56.890625 40.328125 50.609375 34.8125 
Q 44.34375 29.296875 32.078125 29.296875 
L 19.671875 29.296875 
L 19.671875 0 
L 9.8125 0 
z
" id="DejaVuSans-80"/>
    </defs>
    <g transform="translate(325.859073 313.295943)scale(0.12 -0.12)">
     <use xlink:href="#DejaVuSans-84"/>
     <use x="61.083984" xlink:href="#DejaVuSans-79"/>
     <use x="139.794922" xlink:href="#DejaVuSans-80"/>
    </g>
   </g>
   <g id="text_6">
    <!-- BTM -->
    <defs>
     <path d="M 19.671875 34.8125 
L 19.671875 8.109375 
L 35.5 8.109375 
Q 43.453125 8.109375 47.28125 11.40625 
Q 51.125 14.703125 51.125 21.484375 
Q 51.125 28.328125 47.28125 31.5625 
Q 43.453125 34.8125 35.5 34.8125 
z
M 19.671875 64.796875 
L 19.671875 42.828125 
L 34.28125 42.828125 
Q 41.5 42.828125 45.03125 45.53125 
Q 48.578125 48.25 48.578125 53.8125 
Q 48.578125 59.328125 45.03125 62.0625 
Q 41.5 64.796875 34.28125 64.796875 
z
M 9.8125 72.90625 
L 35.015625 72.90625 
Q 46.296875 72.90625 52.390625 68.21875 
Q 58.5 63.53125 58.5 54.890625 
Q 58.5 48.1875 55.375 44.234375 
Q 52.25 40.28125 46.1875 39.3125 
Q 53.46875 37.75 57.5 32.78125 
Q 61.53125 27.828125 61.53125 20.40625 
Q 61.53125 10.640625 54.890625 5.3125 
Q 48.25 0 35.984375 0 
L 9.8125 0 
z
" id="DejaVuSans-66"/>
     <path d="M 9.8125 72.90625 
L 24.515625 72.90625 
L 43.109375 23.296875 
L 61.8125 72.90625 
L 76.515625 72.90625 
L 76.515625 0 
L 66.890625 0 
L 66.890625 64.015625 
L 48.09375 14.015625 
L 38.1875 14.015625 
L 19.390625 64.015625 
L 19.390625 0 
L 9.8125 0 
z
" id="DejaVuSans-77"/>
    </defs>
    <g transform="translate(519.789381 327.721591)scale(0.12 -0.12)">
     <use xlink:href="#DejaVuSans-66"/>
     <use x="68.603516" xlink:href="#DejaVuSans-84"/>
     <use x="129.6875" xlink:href="#DejaVuSans-77"/>
    </g>
   </g>
   <g id="text_7">
    <!-- BURGOS -->
    <defs>
     <path d="M 8.6875 72.90625 
L 18.609375 72.90625 
L 18.609375 28.609375 
Q 18.609375 16.890625 22.84375 11.734375 
Q 27.09375 6.59375 36.625 6.59375 
Q 46.09375 6.59375 50.34375 11.734375 
Q 54.59375 16.890625 54.59375 28.609375 
L 54.59375 72.90625 
L 64.5 72.90625 
L 64.5 27.390625 
Q 64.5 13.140625 57.4375 5.859375 
Q 50.390625 -1.421875 36.625 -1.421875 
Q 22.796875 -1.421875 15.734375 5.859375 
Q 8.6875 13.140625 8.6875 27.390625 
z
" id="DejaVuSans-85"/>
     <path d="M 44.390625 34.1875 
Q 47.5625 33.109375 50.5625 29.59375 
Q 53.5625 26.078125 56.59375 19.921875 
L 66.609375 0 
L 56 0 
L 46.6875 18.703125 
Q 43.0625 26.03125 39.671875 28.421875 
Q 36.28125 30.8125 30.421875 30.8125 
L 19.671875 30.8125 
L 19.671875 0 
L 9.8125 0 
L 9.8125 72.90625 
L 32.078125 72.90625 
Q 44.578125 72.90625 50.734375 67.671875 
Q 56.890625 62.453125 56.890625 51.90625 
Q 56.890625 45.015625 53.6875 40.46875 
Q 50.484375 35.9375 44.390625 34.1875 
z
M 19.671875 64.796875 
L 19.671875 38.921875 
L 32.078125 38.921875 
Q 39.203125 38.921875 42.84375 42.21875 
Q 46.484375 45.515625 46.484375 51.90625 
Q 46.484375 58.296875 42.84375 61.546875 
Q 39.203125 64.796875 32.078125 64.796875 
z
" id="DejaVuSans-82"/>
     <path d="M 59.515625 10.40625 
L 59.515625 29.984375 
L 43.40625 29.984375 
L 43.40625 38.09375 
L 69.28125 38.09375 
L 69.28125 6.78125 
Q 63.578125 2.734375 56.6875 0.65625 
Q 49.8125 -1.421875 42 -1.421875 
Q 24.90625 -1.421875 15.25 8.5625 
Q 5.609375 18.5625 5.609375 36.375 
Q 5.609375 54.25 15.25 64.234375 
Q 24.90625 74.21875 42 74.21875 
Q 49.125 74.21875 55.546875 72.453125 
Q 61.96875 70.703125 67.390625 67.28125 
L 67.390625 56.78125 
Q 61.921875 61.421875 55.765625 63.765625 
Q 49.609375 66.109375 42.828125 66.109375 
Q 29.4375 66.109375 22.71875 58.640625 
Q 16.015625 51.171875 16.015625 36.375 
Q 16.015625 21.625 22.71875 14.15625 
Q 29.4375 6.6875 42.828125 6.6875 
Q 48.046875 6.6875 52.140625 7.59375 
Q 56.25 8.5 59.515625 10.40625 
z
" id="DejaVuSans-71"/>
     <path d="M 53.515625 70.515625 
L 53.515625 60.890625 
Q 47.90625 63.578125 42.921875 64.890625 
Q 37.9375 66.21875 33.296875 66.21875 
Q 25.25 66.21875 20.875 63.09375 
Q 16.5 59.96875 16.5 54.203125 
Q 16.5 49.359375 19.40625 46.890625 
Q 22.3125 44.4375 30.421875 42.921875 
L 36.375 41.703125 
Q 47.40625 39.59375 52.65625 34.296875 
Q 57.90625 29 57.90625 20.125 
Q 57.90625 9.515625 50.796875 4.046875 
Q 43.703125 -1.421875 29.984375 -1.421875 
Q 24.8125 -1.421875 18.96875 -0.25 
Q 13.140625 0.921875 6.890625 3.21875 
L 6.890625 13.375 
Q 12.890625 10.015625 18.65625 8.296875 
Q 24.421875 6.59375 29.984375 6.59375 
Q 38.421875 6.59375 43.015625 9.90625 
Q 47.609375 13.234375 47.609375 19.390625 
Q 47.609375 24.75 44.3125 27.78125 
Q 41.015625 30.8125 33.5 32.328125 
L 27.484375 33.5 
Q 16.453125 35.6875 11.515625 40.375 
Q 6.59375 45.0625 6.59375 53.421875 
Q 6.59375 63.09375 13.40625 68.65625 
Q 20.21875 74.21875 32.171875 74.21875 
Q 37.3125 74.21875 42.625 73.28125 
Q 47.953125 72.359375 53.515625 70.515625 
z
" id="DejaVuSans-83"/>
    </defs>
    <g transform="translate(293.700205 312.754699)scale(0.12 -0.12)">
     <use xlink:href="#DejaVuSans-66"/>
     <use x="68.603516" xlink:href="#DejaVuSans-85"/>
     <use x="141.796875" xlink:href="#DejaVuSans-82"/>
     <use x="211.279297" xlink:href="#DejaVuSans-71"/>
     <use x="288.769531" xlink:href="#DejaVuSans-79"/>
     <use x="367.480469" xlink:href="#DejaVuSans-83"/>
    </g>
   </g>
   <g id="text_8">
    <!-- BURGOS_L vs MIX -->
    <defs>
     <path d="M 50.984375 -16.609375 
L 50.984375 -23.578125 
L -0.984375 -23.578125 
L -0.984375 -16.609375 
z
" id="DejaVuSans-95"/>
     <path d="M 9.8125 72.90625 
L 19.671875 72.90625 
L 19.671875 8.296875 
L 55.171875 8.296875 
L 55.171875 0 
L 9.8125 0 
z
" id="DejaVuSans-76"/>
     <path id="DejaVuSans-32"/>
     <path d="M 2.984375 54.6875 
L 12.5 54.6875 
L 29.59375 8.796875 
L 46.6875 54.6875 
L 56.203125 54.6875 
L 35.6875 0 
L 23.484375 0 
z
" id="DejaVuSans-118"/>
     <path d="M 44.28125 53.078125 
L 44.28125 44.578125 
Q 40.484375 46.53125 36.375 47.5 
Q 32.28125 48.484375 27.875 48.484375 
Q 21.1875 48.484375 17.84375 46.4375 
Q 14.5 44.390625 14.5 40.28125 
Q 14.5 37.15625 16.890625 35.375 
Q 19.28125 33.59375 26.515625 31.984375 
L 29.59375 31.296875 
Q 39.15625 29.25 43.1875 25.515625 
Q 47.21875 21.78125 47.21875 15.09375 
Q 47.21875 7.46875 41.1875 3.015625 
Q 35.15625 -1.421875 24.609375 -1.421875 
Q 20.21875 -1.421875 15.453125 -0.5625 
Q 10.6875 0.296875 5.421875 2 
L 5.421875 11.28125 
Q 10.40625 8.6875 15.234375 7.390625 
Q 20.0625 6.109375 24.8125 6.109375 
Q 31.15625 6.109375 34.5625 8.28125 
Q 37.984375 10.453125 37.984375 14.40625 
Q 37.984375 18.0625 35.515625 20.015625 
Q 33.0625 21.96875 24.703125 23.78125 
L 21.578125 24.515625 
Q 13.234375 26.265625 9.515625 29.90625 
Q 5.8125 33.546875 5.8125 39.890625 
Q 5.8125 47.609375 11.28125 51.796875 
Q 16.75 56 26.8125 56 
Q 31.78125 56 36.171875 55.265625 
Q 40.578125 54.546875 44.28125 53.078125 
z
" id="DejaVuSans-115"/>
     <path d="M 9.8125 72.90625 
L 19.671875 72.90625 
L 19.671875 0 
L 9.8125 0 
z
" id="DejaVuSans-73"/>
     <path d="M 6.296875 72.90625 
L 16.890625 72.90625 
L 35.015625 45.796875 
L 53.21875 72.90625 
L 63.8125 72.90625 
L 40.375 37.890625 
L 65.375 0 
L 54.78125 0 
L 34.28125 31 
L 13.625 0 
L 2.984375 0 
L 29 38.921875 
z
" id="DejaVuSans-88"/>
    </defs>
    <g transform="translate(379.887614 80.4)scale(0.12 -0.12)">
     <use xlink:href="#DejaVuSans-66"/>
     <use x="68.603516" xlink:href="#DejaVuSans-85"/>
     <use x="141.796875" xlink:href="#DejaVuSans-82"/>
     <use x="211.279297" xlink:href="#DejaVuSans-71"/>
     <use x="288.769531" xlink:href="#DejaVuSans-79"/>
     <use x="367.480469" xlink:href="#DejaVuSans-83"/>
     <use x="430.957031" xlink:href="#DejaVuSans-95"/>
     <use x="480.957031" xlink:href="#DejaVuSans-76"/>
     <use x="536.669922" xlink:href="#DejaVuSans-32"/>
     <use x="568.457031" xlink:href="#DejaVuSans-118"/>
     <use x="627.636719" xlink:href="#DejaVuSans-115"/>
     <use x="679.736328" xlink:href="#DejaVuSans-32"/>
     <use x="711.523438" xlink:href="#DejaVuSans-77"/>
     <use x="797.802734" xlink:href="#DejaVuSans-73"/>
     <use x="827.294922" xlink:href="#DejaVuSans-88"/>
    </g>
   </g>
  </g>
  <g id="axes_2">
   <g id="patch_6">
    <path clip-path="url(#p6346bf9215)" d="M 1006.872155 226.576965 
C 1005.835118 221.093863 1005.313188 215.525764 1005.313188 209.945455 
C 1005.313188 204.365145 1005.835118 198.797046 1006.872155 193.313944 
C 1004.826362 183.101295 1000.913675 173.353224 995.330971 164.560223 
C 989.748266 155.767222 982.590775 148.079287 974.218643 141.883252 
C 965.84651 135.687217 956.402551 131.088776 946.361958 128.319311 
C 936.321364 125.549845 925.855414 124.656597 915.490721 125.684512 
C 905.126029 126.712426 895.039401 129.64397 885.738366 134.331635 
C 876.437331 139.0193 868.08055 145.383123 861.088513 153.102894 
C 854.096476 160.822666 848.588455 169.766699 844.841598 179.484956 
C 841.094741 189.203213 839.172964 199.529915 839.172964 209.945455 
C 839.172964 220.360994 841.094741 230.687696 844.841598 240.405953 
C 848.588455 250.12421 854.096476 259.068243 861.088513 266.788015 
C 868.08055 274.507786 876.437331 280.871609 885.738366 285.559274 
C 895.039401 290.246939 905.126029 293.178483 915.490721 294.206397 
C 925.855414 295.234312 936.321364 294.341064 946.361958 291.571598 
C 956.402551 288.802133 965.84651 284.203692 974.218643 278.007657 
C 982.590775 271.811622 989.748266 264.123687 995.330971 255.330686 
C 1000.913675 246.537685 1004.826362 236.789614 1006.872155 226.576965 
" style="fill:#ff0000;opacity:0.4;"/>
   </g>
   <g id="patch_7">
    <path clip-path="url(#p6346bf9215)" d="M 1103.358814 120.860617 
C 1125.505352 122.986477 1146.082449 133.296241 1161.043926 149.762651 
C 1176.005403 166.22906 1184.301826 187.697119 1184.301826 209.945455 
C 1184.301826 232.19379 1176.005403 253.661849 1161.043926 270.128258 
C 1146.082449 286.594668 1125.505352 296.904433 1103.358814 299.030292 
C 1118.450903 306.34758 1135.157814 309.711072 1151.905677 308.803911 
C 1168.65354 307.896751 1184.899397 302.748349 1199.112814 293.843707 
C 1213.326231 284.939065 1225.046414 272.566869 1233.169268 257.892637 
C 1241.292123 243.218405 1245.554309 226.717868 1245.554309 209.945455 
C 1245.554309 193.173041 1241.292123 176.672504 1233.169268 161.998272 
C 1225.046414 147.32404 1213.326231 134.951844 1199.112814 126.047202 
C 1184.899397 117.14256 1168.65354 111.994158 1151.905677 111.086998 
C 1135.157814 110.179837 1118.450903 113.543329 1103.358814 120.860617 
" style="fill:#008000;opacity:0.4;"/>
   </g>
   <g id="patch_8">
    <path clip-path="url(#p6346bf9215)" d="M 1006.872155 226.576965 
C 1011.01956 248.505429 1023.22306 268.108661 1041.068994 281.50945 
C 1058.914928 294.910238 1081.143703 301.162734 1103.358814 299.030292 
C 1086.631643 290.920247 1072.522057 278.260634 1062.652684 262.507332 
C 1052.783311 246.75403 1047.547564 228.534996 1047.547564 209.945455 
C 1047.547564 191.355913 1052.783311 173.136879 1062.652684 157.383577 
C 1072.522057 141.630275 1086.631643 128.970662 1103.358814 120.860617 
C 1081.143703 118.728175 1058.914928 124.980671 1041.068994 138.38146 
C 1023.22306 151.782248 1011.01956 171.38548 1006.872155 193.313944 
C 1007.96908 198.789814 1008.52158 204.360797 1008.52158 209.945455 
C 1008.52158 215.530112 1007.96908 221.101095 1006.872155 226.576965 
" style="fill:#0000ff;opacity:0.4;"/>
   </g>
   <g id="patch_9">
    <path clip-path="url(#p6346bf9215)" d="M 1006.872155 226.576965 
C 1007.96908 221.101095 1008.52158 215.530112 1008.52158 209.945455 
C 1008.52158 204.360797 1007.96908 198.789814 1006.872155 193.313944 
C 1005.835118 198.797046 1005.313188 204.365145 1005.313188 209.945455 
C 1005.313188 215.525764 1005.835118 221.093863 1006.872155 226.576965 
" style="fill:#b200b2;opacity:0.4;"/>
   </g>
   <g id="patch_10">
    <path clip-path="url(#p6346bf9215)" d="M 1103.358814 120.860617 
C 1086.631643 128.970662 1072.522057 141.630275 1062.652684 157.383577 
C 1052.783311 173.136879 1047.547564 191.355913 1047.547564 209.945455 
C 1047.547564 228.534996 1052.783311 246.75403 1062.652684 262.507332 
C 1072.522057 278.260634 1086.631643 290.920247 1103.358814 299.030292 
C 1125.505352 296.904433 1146.082449 286.594668 1161.043926 270.128258 
C 1176.005403 253.661849 1184.301826 232.19379 1184.301826 209.945455 
C 1184.301826 187.697119 1176.005403 166.22906 1161.043926 149.762651 
C 1146.082449 133.296241 1125.505352 122.986477 1103.358814 120.860617 
" style="fill:#0059b2;opacity:0.4;"/>
   </g>
   <g id="text_9">
    <!-- 315 -->
    <g transform="translate(912.699326 212.70483)scale(0.1 -0.1)">
     <use xlink:href="#DejaVuSans-51"/>
     <use x="63.623047" xlink:href="#DejaVuSans-49"/>
     <use x="127.246094" xlink:href="#DejaVuSans-53"/>
    </g>
   </g>
   <g id="text_10">
    <!-- 177 -->
    <g transform="translate(1205.384317 212.70483)scale(0.1 -0.1)">
     <use xlink:href="#DejaVuSans-49"/>
     <use x="63.623047" xlink:href="#DejaVuSans-55"/>
     <use x="127.246094" xlink:href="#DejaVuSans-55"/>
    </g>
   </g>
   <g id="text_11">
    <!-- 97 -->
    <defs>
     <path d="M 10.984375 1.515625 
L 10.984375 10.5 
Q 14.703125 8.734375 18.5 7.8125 
Q 22.3125 6.890625 25.984375 6.890625 
Q 35.75 6.890625 40.890625 13.453125 
Q 46.046875 20.015625 46.78125 33.40625 
Q 43.953125 29.203125 39.59375 26.953125 
Q 35.25 24.703125 29.984375 24.703125 
Q 19.046875 24.703125 12.671875 31.3125 
Q 6.296875 37.9375 6.296875 49.421875 
Q 6.296875 60.640625 12.9375 67.421875 
Q 19.578125 74.21875 30.609375 74.21875 
Q 43.265625 74.21875 49.921875 64.515625 
Q 56.59375 54.828125 56.59375 36.375 
Q 56.59375 19.140625 48.40625 8.859375 
Q 40.234375 -1.421875 26.421875 -1.421875 
Q 22.703125 -1.421875 18.890625 -0.6875 
Q 15.09375 0.046875 10.984375 1.515625 
z
M 30.609375 32.421875 
Q 37.25 32.421875 41.125 36.953125 
Q 45.015625 41.5 45.015625 49.421875 
Q 45.015625 57.28125 41.125 61.84375 
Q 37.25 66.40625 30.609375 66.40625 
Q 23.96875 66.40625 20.09375 61.84375 
Q 16.21875 57.28125 16.21875 49.421875 
Q 16.21875 41.5 20.09375 36.953125 
Q 23.96875 32.421875 30.609375 32.421875 
z
" id="DejaVuSans-57"/>
    </defs>
    <g transform="translate(1034.998653 212.70483)scale(0.1 -0.1)">
     <use xlink:href="#DejaVuSans-57"/>
     <use x="63.623047" xlink:href="#DejaVuSans-55"/>
    </g>
   </g>
   <g id="text_12">
    <!-- 1 -->
    <g transform="translate(1003.736134 212.70483)scale(0.1 -0.1)">
     <use xlink:href="#DejaVuSans-49"/>
    </g>
   </g>
   <g id="text_13">
    <!-- 255 -->
    <g transform="translate(1106.380945 212.70483)scale(0.1 -0.1)">
     <use xlink:href="#DejaVuSans-50"/>
     <use x="63.623047" xlink:href="#DejaVuSans-53"/>
     <use x="127.246094" xlink:href="#DejaVuSans-53"/>
    </g>
   </g>
   <g id="text_14">
    <!-- TOP -->
    <g transform="translate(911.841647 312.843621)scale(0.12 -0.12)">
     <use xlink:href="#DejaVuSans-84"/>
     <use x="61.083984" xlink:href="#DejaVuSans-79"/>
     <use x="139.794922" xlink:href="#DejaVuSans-80"/>
    </g>
   </g>
   <g id="text_15">
    <!-- BTM -->
    <g transform="translate(1133.592811 327.172685)scale(0.12 -0.12)">
     <use xlink:href="#DejaVuSans-66"/>
     <use x="68.603516" xlink:href="#DejaVuSans-84"/>
     <use x="129.6875" xlink:href="#DejaVuSans-77"/>
    </g>
   </g>
   <g id="text_16">
    <!-- PAREDES -->
    <defs>
     <path d="M 34.1875 63.1875 
L 20.796875 26.90625 
L 47.609375 26.90625 
z
M 28.609375 72.90625 
L 39.796875 72.90625 
L 67.578125 0 
L 57.328125 0 
L 50.6875 18.703125 
L 17.828125 18.703125 
L 11.1875 0 
L 0.78125 0 
z
" id="DejaVuSans-65"/>
     <path d="M 9.8125 72.90625 
L 55.90625 72.90625 
L 55.90625 64.59375 
L 19.671875 64.59375 
L 19.671875 43.015625 
L 54.390625 43.015625 
L 54.390625 34.71875 
L 19.671875 34.71875 
L 19.671875 8.296875 
L 56.78125 8.296875 
L 56.78125 0 
L 9.8125 0 
z
" id="DejaVuSans-69"/>
     <path d="M 19.671875 64.796875 
L 19.671875 8.109375 
L 31.59375 8.109375 
Q 46.6875 8.109375 53.6875 14.9375 
Q 60.6875 21.78125 60.6875 36.53125 
Q 60.6875 51.171875 53.6875 57.984375 
Q 46.6875 64.796875 31.59375 64.796875 
z
M 9.8125 72.90625 
L 30.078125 72.90625 
Q 51.265625 72.90625 61.171875 64.09375 
Q 71.09375 55.28125 71.09375 36.53125 
Q 71.09375 17.671875 61.125 8.828125 
Q 51.171875 0 30.078125 0 
L 9.8125 0 
z
" id="DejaVuSans-68"/>
    </defs>
    <g transform="translate(1066.910319 317.663632)scale(0.12 -0.12)">
     <use xlink:href="#DejaVuSans-80"/>
     <use x="60.208984" xlink:href="#DejaVuSans-65"/>
     <use x="128.617188" xlink:href="#DejaVuSans-82"/>
     <use x="198.099609" xlink:href="#DejaVuSans-69"/>
     <use x="261.283203" xlink:href="#DejaVuSans-68"/>
     <use x="338.285156" xlink:href="#DejaVuSans-69"/>
     <use x="401.46875" xlink:href="#DejaVuSans-83"/>
    </g>
   </g>
   <g id="text_17">
    <!-- PAREDES_L vs MIX -->
    <g transform="translate(986.575824 80.4)scale(0.12 -0.12)">
     <use xlink:href="#DejaVuSans-80"/>
     <use x="60.208984" xlink:href="#DejaVuSans-65"/>
     <use x="128.617188" xlink:href="#DejaVuSans-82"/>
     <use x="198.099609" xlink:href="#DejaVuSans-69"/>
     <use x="261.283203" xlink:href="#DejaVuSans-68"/>
     <use x="338.285156" xlink:href="#DejaVuSans-69"/>
     <use x="401.46875" xlink:href="#DejaVuSans-83"/>
     <use x="464.945312" xlink:href="#DejaVuSans-95"/>
     <use x="514.945312" xlink:href="#DejaVuSans-76"/>
     <use x="570.658203" xlink:href="#DejaVuSans-32"/>
     <use x="602.445312" xlink:href="#DejaVuSans-118"/>
     <use x="661.625" xlink:href="#DejaVuSans-115"/>
     <use x="713.724609" xlink:href="#DejaVuSans-32"/>
     <use x="745.511719" xlink:href="#DejaVuSans-77"/>
     <use x="831.791016" xlink:href="#DejaVuSans-73"/>
     <use x="861.283203" xlink:href="#DejaVuSans-88"/>
    </g>
   </g>
  </g>
  <g id="axes_3">
   <g id="patch_11">
    <path clip-path="url(#p36d95b9cc5)" d="M 329.709379 421.709606 
C 350.452129 424.168038 369.587248 434.158617 383.460857 449.773628 
C 397.334465 465.388639 405.003474 485.566616 405.003474 506.454545 
C 405.003474 527.342475 397.334465 547.520452 383.460857 563.135463 
C 369.587248 578.750474 350.452129 588.741053 329.709379 591.199485 
C 341.578379 592.435692 353.575764 591.164742 364.922315 587.469182 
C 376.268866 583.773621 386.713499 577.735228 395.577847 569.746189 
C 404.442194 561.757151 411.530099 551.994254 416.38121 541.091588 
C 421.232321 530.188923 423.739289 518.387751 423.739289 506.454545 
C 423.739289 494.52134 421.232321 482.720168 416.38121 471.817502 
C 411.530099 460.914837 404.442194 451.15194 395.577847 443.162902 
C 386.713499 435.173863 376.268866 429.13547 364.922315 425.439909 
C 353.575764 421.744349 341.578379 420.473399 329.709379 421.709606 
" style="fill:#ff0000;opacity:0.4;"/>
   </g>
   <g id="patch_12">
    <path clip-path="url(#p36d95b9cc5)" d="M 533.323439 606.0765 
C 559.74349 606.0765 585.085001 595.579703 603.766798 576.897905 
C 622.448596 558.216108 632.945393 532.874597 632.945393 506.454545 
C 632.945393 480.034494 622.448596 454.692983 603.766798 436.011186 
C 585.085001 417.329388 559.74349 406.832591 533.323439 406.832591 
C 506.903388 406.832591 481.561876 417.329388 462.880079 436.011186 
C 444.198282 454.692983 433.701484 480.034494 433.701484 506.454545 
C 433.701484 532.874597 444.198282 558.216108 462.880079 576.897905 
C 481.561876 595.579703 506.903388 606.0765 533.323439 606.0765 
z
" style="fill:#008000;opacity:0.4;"/>
   </g>
   <g id="patch_13">
    <path clip-path="url(#p36d95b9cc5)" d="M 329.709379 591.199485 
C 308.759679 589.017484 289.345551 579.142719 275.244284 563.496465 
C 261.143016 547.85021 253.332567 527.517571 253.332567 506.454545 
C 253.332567 485.39152 261.143016 465.058881 275.244284 449.412626 
C 289.345551 433.766372 308.759679 423.891607 329.709379 421.709606 
C 317.73907 420.290884 305.602888 421.424357 294.102318 425.035169 
C 282.601748 428.645981 271.995659 434.652855 262.984487 442.659093 
C 253.973314 450.66533 246.759892 460.490716 241.820602 471.486374 
C 236.881312 482.482031 234.327334 494.400456 234.327334 506.454545 
C 234.327334 518.508635 236.881312 530.42706 241.820602 541.422717 
C 246.759892 552.418375 253.973314 562.243761 262.984487 570.249998 
C 271.995659 578.256235 282.601748 584.26311 294.102318 587.873922 
C 305.602888 591.484734 317.73907 592.618206 329.709379 591.199485 
" style="fill:#0000ff;opacity:0.4;"/>
   </g>
   <g id="patch_14">
    <path clip-path="url(#p36d95b9cc5)" d="M 329.709379 421.709606 
C 308.759679 423.891607 289.345551 433.766372 275.244284 449.412626 
C 261.143016 465.058881 253.332567 485.39152 253.332567 506.454545 
C 253.332567 527.517571 261.143016 547.85021 275.244284 563.496465 
C 289.345551 579.142719 308.759679 589.017484 329.709379 591.199485 
C 350.452129 588.741053 369.587248 578.750474 383.460857 563.135463 
C 397.334465 547.520452 405.003474 527.342475 405.003474 506.454545 
C 405.003474 485.566616 397.334465 465.388639 383.460857 449.773628 
C 369.587248 434.158617 350.452129 424.168038 329.709379 421.709606 
" style="fill:#b200b2;opacity:0.4;"/>
   </g>
   <g id="text_18">
    <!-- 44 -->
    <g transform="translate(408.008881 509.21392)scale(0.1 -0.1)">
     <use xlink:href="#DejaVuSans-52"/>
     <use x="63.623047" xlink:href="#DejaVuSans-52"/>
    </g>
   </g>
   <g id="text_19">
    <!-- 432 -->
    <g transform="translate(523.779689 509.21392)scale(0.1 -0.1)">
     <use xlink:href="#DejaVuSans-52"/>
     <use x="63.623047" xlink:href="#DejaVuSans-51"/>
     <use x="127.246094" xlink:href="#DejaVuSans-50"/>
    </g>
   </g>
   <g id="text_20">
    <!-- 45 -->
    <g transform="translate(237.46745 509.21392)scale(0.1 -0.1)">
     <use xlink:href="#DejaVuSans-52"/>
     <use x="63.623047" xlink:href="#DejaVuSans-53"/>
    </g>
   </g>
   <g id="text_21">
    <!-- 272 -->
    <g transform="translate(319.62427 509.21392)scale(0.1 -0.1)">
     <use xlink:href="#DejaVuSans-50"/>
     <use x="63.623047" xlink:href="#DejaVuSans-55"/>
     <use x="127.246094" xlink:href="#DejaVuSans-50"/>
    </g>
   </g>
   <g id="text_22">
    <!-- TOP -->
    <g transform="translate(326.530303 609.781478)scale(0.12 -0.12)">
     <use xlink:href="#DejaVuSans-84"/>
     <use x="61.083984" xlink:href="#DejaVuSans-79"/>
     <use x="139.794922" xlink:href="#DejaVuSans-80"/>
    </g>
   </g>
   <g id="text_23">
    <!-- BTM -->
    <g transform="translate(520.365314 624.200071)scale(0.12 -0.12)">
     <use xlink:href="#DejaVuSans-66"/>
     <use x="68.603516" xlink:href="#DejaVuSans-84"/>
     <use x="129.6875" xlink:href="#DejaVuSans-77"/>
    </g>
   </g>
   <g id="text_24">
    <!-- BURGOS -->
    <g transform="translate(293.807279 609.916187)scale(0.12 -0.12)">
     <use xlink:href="#DejaVuSans-66"/>
     <use x="68.603516" xlink:href="#DejaVuSans-85"/>
     <use x="141.796875" xlink:href="#DejaVuSans-82"/>
     <use x="211.279297" xlink:href="#DejaVuSans-71"/>
     <use x="288.769531" xlink:href="#DejaVuSans-79"/>
     <use x="367.480469" xlink:href="#DejaVuSans-83"/>
    </g>
   </g>
   <g id="text_25">
    <!-- BURGOS vs MIX -->
    <g transform="translate(386.230739 376.909091)scale(0.12 -0.12)">
     <use xlink:href="#DejaVuSans-66"/>
     <use x="68.603516" xlink:href="#DejaVuSans-85"/>
     <use x="141.796875" xlink:href="#DejaVuSans-82"/>
     <use x="211.279297" xlink:href="#DejaVuSans-71"/>
     <use x="288.769531" xlink:href="#DejaVuSans-79"/>
     <use x="367.480469" xlink:href="#DejaVuSans-83"/>
     <use x="430.957031" xlink:href="#DejaVuSans-32"/>
     <use x="462.744141" xlink:href="#DejaVuSans-118"/>
     <use x="521.923828" xlink:href="#DejaVuSans-115"/>
     <use x="574.023438" xlink:href="#DejaVuSans-32"/>
     <use x="605.810547" xlink:href="#DejaVuSans-77"/>
     <use x="692.089844" xlink:href="#DejaVuSans-73"/>
     <use x="721.582031" xlink:href="#DejaVuSans-88"/>
    </g>
   </g>
  </g>
  <g id="axes_4">
   <g id="patch_15">
    <path clip-path="url(#p93ec6409ed)" d="M 1006.718118 523.087962 
C 1005.682204 517.604086 1005.160847 512.035407 1005.160847 506.454545 
C 1005.160847 500.873684 1005.682204 495.305005 1006.718118 489.821129 
C 1004.672123 479.609938 1000.759534 469.863339 995.177217 461.071738 
C 989.594899 452.280137 982.438074 444.5935 974.066842 438.398583 
C 965.69561 432.203667 956.252766 427.606143 946.213432 424.837338 
C 936.174097 422.068533 925.709522 421.175678 915.346236 422.203697 
C 904.98295 423.231716 894.897729 426.163072 885.598016 430.850275 
C 876.298304 435.537477 867.942732 441.90057 860.951718 449.619393 
C 853.960703 457.338217 848.453496 466.281102 844.707195 475.998085 
C 840.960895 485.715067 839.039404 496.040395 839.039404 506.454545 
C 839.039404 516.868695 840.960895 527.194024 844.707195 536.911006 
C 848.453496 546.627989 853.960703 555.570874 860.951718 563.289697 
C 867.942732 571.008521 876.298304 577.371614 885.598016 582.058816 
C 894.897729 586.746018 904.98295 589.677375 915.346236 590.705394 
C 925.709522 591.733413 936.174097 590.840557 946.213432 588.071753 
C 956.252766 585.302948 965.69561 580.705424 974.066842 574.510508 
C 982.438074 568.315591 989.594899 560.628954 995.177217 551.837353 
C 1000.759534 543.045752 1004.672123 533.299153 1006.718118 523.087962 
" style="fill:#ff0000;opacity:0.4;"/>
   </g>
   <g id="patch_16">
    <path clip-path="url(#p93ec6409ed)" d="M 1103.696301 417.289645 
C 1125.80032 419.502155 1146.310798 429.856904 1161.216051 446.328585 
C 1176.121303 462.800267 1184.38177 484.240072 1184.38177 506.454545 
C 1184.38177 528.669019 1176.121303 550.108824 1161.216051 566.580506 
C 1146.310798 583.052187 1125.80032 593.406936 1103.696301 595.619445 
C 1118.786098 602.896509 1135.479105 606.225286 1152.205974 605.292828 
C 1168.932843 604.360371 1185.152438 599.196847 1199.339917 590.28769 
C 1213.527395 581.378534 1225.223775 569.011968 1233.32945 554.350602 
C 1241.435126 539.689236 1245.687869 523.207385 1245.687869 506.454545 
C 1245.687869 489.701706 1241.435126 473.219855 1233.32945 458.558489 
C 1225.223775 443.897123 1213.527395 431.530557 1199.339917 422.621401 
C 1185.152438 413.712244 1168.932843 408.54872 1152.205974 407.616262 
C 1135.479105 406.683805 1118.786098 410.012582 1103.696301 417.289645 
" style="fill:#008000;opacity:0.4;"/>
   </g>
   <g id="patch_17">
    <path clip-path="url(#p93ec6409ed)" d="M 1006.718118 523.087962 
C 1010.878288 545.110869 1023.152957 564.791172 1041.100814 578.214652 
C 1059.048672 591.638132 1081.395346 597.851667 1103.696301 595.619445 
C 1086.922273 587.53016 1072.766526 574.869332 1062.862984 559.098333 
C 1052.959442 543.327335 1047.704389 525.077234 1047.704389 506.454545 
C 1047.704389 487.831857 1052.959442 469.581756 1062.862984 453.810758 
C 1072.766526 438.039759 1086.922273 425.378931 1103.696301 417.289645 
C 1081.395346 415.057424 1059.048672 421.270958 1041.100814 434.694439 
C 1023.152957 448.117919 1010.878288 467.798222 1006.718118 489.821129 
C 1007.815427 495.297594 1008.368122 500.869229 1008.368122 506.454545 
C 1008.368122 512.039862 1007.815427 517.611497 1006.718118 523.087962 
" style="fill:#0000ff;opacity:0.4;"/>
   </g>
   <g id="patch_18">
    <path clip-path="url(#p93ec6409ed)" d="M 1006.718118 523.087962 
C 1007.815427 517.611497 1008.368122 512.039862 1008.368122 506.454545 
C 1008.368122 500.869229 1007.815427 495.297594 1006.718118 489.821129 
C 1005.682204 495.305005 1005.160847 500.873684 1005.160847 506.454545 
C 1005.160847 512.035407 1005.682204 517.604086 1006.718118 523.087962 
" style="fill:#b200b2;opacity:0.4;"/>
   </g>
   <g id="patch_19">
    <path clip-path="url(#p93ec6409ed)" d="M 1103.696301 417.289645 
C 1086.922273 425.378931 1072.766526 438.039759 1062.862984 453.810758 
C 1052.959442 469.581756 1047.704389 487.831857 1047.704389 506.454545 
C 1047.704389 525.077234 1052.959442 543.327335 1062.862984 559.098333 
C 1072.766526 574.869332 1086.922273 587.53016 1103.696301 595.619445 
C 1125.80032 593.406936 1146.310798 583.052187 1161.216051 566.580506 
C 1176.121303 550.108824 1184.38177 528.669019 1184.38177 506.454545 
C 1184.38177 484.240072 1176.121303 462.800267 1161.216051 446.328585 
C 1146.310798 429.856904 1125.80032 419.502155 1103.696301 417.289645 
" style="fill:#0059b2;opacity:0.4;"/>
   </g>
   <g id="text_26">
    <!-- 315 -->
    <g transform="translate(912.556375 509.21392)scale(0.1 -0.1)">
     <use xlink:href="#DejaVuSans-51"/>
     <use x="63.623047" xlink:href="#DejaVuSans-49"/>
     <use x="127.246094" xlink:href="#DejaVuSans-53"/>
    </g>
   </g>
   <g id="text_27">
    <!-- 177 -->
    <g transform="translate(1205.49107 509.21392)scale(0.1 -0.1)">
     <use xlink:href="#DejaVuSans-49"/>
     <use x="63.623047" xlink:href="#DejaVuSans-55"/>
     <use x="127.246094" xlink:href="#DejaVuSans-55"/>
    </g>
   </g>
   <g id="text_28">
    <!-- 98 -->
    <defs>
     <path d="M 31.78125 34.625 
Q 24.75 34.625 20.71875 30.859375 
Q 16.703125 27.09375 16.703125 20.515625 
Q 16.703125 13.921875 20.71875 10.15625 
Q 24.75 6.390625 31.78125 6.390625 
Q 38.8125 6.390625 42.859375 10.171875 
Q 46.921875 13.96875 46.921875 20.515625 
Q 46.921875 27.09375 42.890625 30.859375 
Q 38.875 34.625 31.78125 34.625 
z
M 21.921875 38.8125 
Q 15.578125 40.375 12.03125 44.71875 
Q 8.5 49.078125 8.5 55.328125 
Q 8.5 64.0625 14.71875 69.140625 
Q 20.953125 74.21875 31.78125 74.21875 
Q 42.671875 74.21875 48.875 69.140625 
Q 55.078125 64.0625 55.078125 55.328125 
Q 55.078125 49.078125 51.53125 44.71875 
Q 48 40.375 41.703125 38.8125 
Q 48.828125 37.15625 52.796875 32.3125 
Q 56.78125 27.484375 56.78125 20.515625 
Q 56.78125 9.90625 50.3125 4.234375 
Q 43.84375 -1.421875 31.78125 -1.421875 
Q 19.734375 -1.421875 13.25 4.234375 
Q 6.78125 9.90625 6.78125 20.515625 
Q 6.78125 27.484375 10.78125 32.3125 
Q 14.796875 37.15625 21.921875 38.8125 
z
M 18.3125 54.390625 
Q 18.3125 48.734375 21.84375 45.5625 
Q 25.390625 42.390625 31.78125 42.390625 
Q 38.140625 42.390625 41.71875 45.5625 
Q 45.3125 48.734375 45.3125 54.390625 
Q 45.3125 60.0625 41.71875 63.234375 
Q 38.140625 66.40625 31.78125 66.40625 
Q 25.390625 66.40625 21.84375 63.234375 
Q 18.3125 60.0625 18.3125 54.390625 
z
" id="DejaVuSans-56"/>
    </defs>
    <g transform="translate(1035.071059 509.21392)scale(0.1 -0.1)">
     <use xlink:href="#DejaVuSans-57"/>
     <use x="63.623047" xlink:href="#DejaVuSans-56"/>
    </g>
   </g>
   <g id="text_29">
    <!-- 1 -->
    <g transform="translate(1003.583235 509.21392)scale(0.1 -0.1)">
     <use xlink:href="#DejaVuSans-49"/>
    </g>
   </g>
   <g id="text_30">
    <!-- 255 -->
    <g transform="translate(1106.49933 509.21392)scale(0.1 -0.1)">
     <use xlink:href="#DejaVuSans-50"/>
     <use x="63.623047" xlink:href="#DejaVuSans-53"/>
     <use x="127.246094" xlink:href="#DejaVuSans-53"/>
    </g>
   </g>
   <g id="text_31">
    <!-- TOP -->
    <g transform="translate(911.698138 609.345915)scale(0.12 -0.12)">
     <use xlink:href="#DejaVuSans-84"/>
     <use x="61.083984" xlink:href="#DejaVuSans-79"/>
     <use x="139.794922" xlink:href="#DejaVuSans-80"/>
    </g>
   </g>
   <g id="text_32">
    <!-- BTM -->
    <g transform="translate(1133.738004 623.673296)scale(0.12 -0.12)">
     <use xlink:href="#DejaVuSans-66"/>
     <use x="68.603516" xlink:href="#DejaVuSans-84"/>
     <use x="129.6875" xlink:href="#DejaVuSans-77"/>
    </g>
   </g>
   <g id="text_33">
    <!-- PAREDES -->
    <g transform="translate(1066.874121 614.292018)scale(0.12 -0.12)">
     <use xlink:href="#DejaVuSans-80"/>
     <use x="60.208984" xlink:href="#DejaVuSans-65"/>
     <use x="128.617188" xlink:href="#DejaVuSans-82"/>
     <use x="198.099609" xlink:href="#DejaVuSans-69"/>
     <use x="261.283203" xlink:href="#DejaVuSans-68"/>
     <use x="338.285156" xlink:href="#DejaVuSans-69"/>
     <use x="401.46875" xlink:href="#DejaVuSans-83"/>
    </g>
   </g>
   <g id="text_34">
    <!-- PAREDES vs MIX -->
    <g transform="translate(992.918949 376.909091)scale(0.12 -0.12)">
     <use xlink:href="#DejaVuSans-80"/>
     <use x="60.208984" xlink:href="#DejaVuSans-65"/>
     <use x="128.617188" xlink:href="#DejaVuSans-82"/>
     <use x="198.099609" xlink:href="#DejaVuSans-69"/>
     <use x="261.283203" xlink:href="#DejaVuSans-68"/>
     <use x="338.285156" xlink:href="#DejaVuSans-69"/>
     <use x="401.46875" xlink:href="#DejaVuSans-83"/>
     <use x="464.945312" xlink:href="#DejaVuSans-32"/>
     <use x="496.732422" xlink:href="#DejaVuSans-118"/>
     <use x="555.912109" xlink:href="#DejaVuSans-115"/>
     <use x="608.011719" xlink:href="#DejaVuSans-32"/>
     <use x="639.798828" xlink:href="#DejaVuSans-77"/>
     <use x="726.078125" xlink:href="#DejaVuSans-73"/>
     <use x="755.570312" xlink:href="#DejaVuSans-88"/>
    </g>
   </g>
  </g>
  <g id="text_35">
   <!-- P1_80_20, Raw vs Filtrados Laura -->
   <defs>
    <path d="M 31.78125 66.40625 
Q 24.171875 66.40625 20.328125 58.90625 
Q 16.5 51.421875 16.5 36.375 
Q 16.5 21.390625 20.328125 13.890625 
Q 24.171875 6.390625 31.78125 6.390625 
Q 39.453125 6.390625 43.28125 13.890625 
Q 47.125 21.390625 47.125 36.375 
Q 47.125 51.421875 43.28125 58.90625 
Q 39.453125 66.40625 31.78125 66.40625 
z
M 31.78125 74.21875 
Q 44.046875 74.21875 50.515625 64.515625 
Q 56.984375 54.828125 56.984375 36.375 
Q 56.984375 17.96875 50.515625 8.265625 
Q 44.046875 -1.421875 31.78125 -1.421875 
Q 19.53125 -1.421875 13.0625 8.265625 
Q 6.59375 17.96875 6.59375 36.375 
Q 6.59375 54.828125 13.0625 64.515625 
Q 19.53125 74.21875 31.78125 74.21875 
z
" id="DejaVuSans-48"/>
    <path d="M 11.71875 12.40625 
L 22.015625 12.40625 
L 22.015625 4 
L 14.015625 -11.625 
L 7.71875 -11.625 
L 11.71875 4 
z
" id="DejaVuSans-44"/>
    <path d="M 34.28125 27.484375 
Q 23.390625 27.484375 19.1875 25 
Q 14.984375 22.515625 14.984375 16.5 
Q 14.984375 11.71875 18.140625 8.90625 
Q 21.296875 6.109375 26.703125 6.109375 
Q 34.1875 6.109375 38.703125 11.40625 
Q 43.21875 16.703125 43.21875 25.484375 
L 43.21875 27.484375 
z
M 52.203125 31.203125 
L 52.203125 0 
L 43.21875 0 
L 43.21875 8.296875 
Q 40.140625 3.328125 35.546875 0.953125 
Q 30.953125 -1.421875 24.3125 -1.421875 
Q 15.921875 -1.421875 10.953125 3.296875 
Q 6 8.015625 6 15.921875 
Q 6 25.140625 12.171875 29.828125 
Q 18.359375 34.515625 30.609375 34.515625 
L 43.21875 34.515625 
L 43.21875 35.40625 
Q 43.21875 41.609375 39.140625 45 
Q 35.0625 48.390625 27.6875 48.390625 
Q 23 48.390625 18.546875 47.265625 
Q 14.109375 46.140625 10.015625 43.890625 
L 10.015625 52.203125 
Q 14.9375 54.109375 19.578125 55.046875 
Q 24.21875 56 28.609375 56 
Q 40.484375 56 46.34375 49.84375 
Q 52.203125 43.703125 52.203125 31.203125 
z
" id="DejaVuSans-97"/>
    <path d="M 4.203125 54.6875 
L 13.1875 54.6875 
L 24.421875 12.015625 
L 35.59375 54.6875 
L 46.1875 54.6875 
L 57.421875 12.015625 
L 68.609375 54.6875 
L 77.59375 54.6875 
L 63.28125 0 
L 52.6875 0 
L 40.921875 44.828125 
L 29.109375 0 
L 18.5 0 
z
" id="DejaVuSans-119"/>
    <path d="M 9.8125 72.90625 
L 51.703125 72.90625 
L 51.703125 64.59375 
L 19.671875 64.59375 
L 19.671875 43.109375 
L 48.578125 43.109375 
L 48.578125 34.8125 
L 19.671875 34.8125 
L 19.671875 0 
L 9.8125 0 
z
" id="DejaVuSans-70"/>
    <path d="M 9.421875 54.6875 
L 18.40625 54.6875 
L 18.40625 0 
L 9.421875 0 
z
M 9.421875 75.984375 
L 18.40625 75.984375 
L 18.40625 64.59375 
L 9.421875 64.59375 
z
" id="DejaVuSans-105"/>
    <path d="M 9.421875 75.984375 
L 18.40625 75.984375 
L 18.40625 0 
L 9.421875 0 
z
" id="DejaVuSans-108"/>
    <path d="M 18.3125 70.21875 
L 18.3125 54.6875 
L 36.8125 54.6875 
L 36.8125 47.703125 
L 18.3125 47.703125 
L 18.3125 18.015625 
Q 18.3125 11.328125 20.140625 9.421875 
Q 21.96875 7.515625 27.59375 7.515625 
L 36.8125 7.515625 
L 36.8125 0 
L 27.59375 0 
Q 17.1875 0 13.234375 3.875 
Q 9.28125 7.765625 9.28125 18.015625 
L 9.28125 47.703125 
L 2.6875 47.703125 
L 2.6875 54.6875 
L 9.28125 54.6875 
L 9.28125 70.21875 
z
" id="DejaVuSans-116"/>
    <path d="M 41.109375 46.296875 
Q 39.59375 47.171875 37.8125 47.578125 
Q 36.03125 48 33.890625 48 
Q 26.265625 48 22.1875 43.046875 
Q 18.109375 38.09375 18.109375 28.8125 
L 18.109375 0 
L 9.078125 0 
L 9.078125 54.6875 
L 18.109375 54.6875 
L 18.109375 46.1875 
Q 20.953125 51.171875 25.484375 53.578125 
Q 30.03125 56 36.53125 56 
Q 37.453125 56 38.578125 55.875 
Q 39.703125 55.765625 41.0625 55.515625 
z
" id="DejaVuSans-114"/>
    <path d="M 45.40625 46.390625 
L 45.40625 75.984375 
L 54.390625 75.984375 
L 54.390625 0 
L 45.40625 0 
L 45.40625 8.203125 
Q 42.578125 3.328125 38.25 0.953125 
Q 33.9375 -1.421875 27.875 -1.421875 
Q 17.96875 -1.421875 11.734375 6.484375 
Q 5.515625 14.40625 5.515625 27.296875 
Q 5.515625 40.1875 11.734375 48.09375 
Q 17.96875 56 27.875 56 
Q 33.9375 56 38.25 53.625 
Q 42.578125 51.265625 45.40625 46.390625 
z
M 14.796875 27.296875 
Q 14.796875 17.390625 18.875 11.75 
Q 22.953125 6.109375 30.078125 6.109375 
Q 37.203125 6.109375 41.296875 11.75 
Q 45.40625 17.390625 45.40625 27.296875 
Q 45.40625 37.203125 41.296875 42.84375 
Q 37.203125 48.484375 30.078125 48.484375 
Q 22.953125 48.484375 18.875 42.84375 
Q 14.796875 37.203125 14.796875 27.296875 
z
" id="DejaVuSans-100"/>
    <path d="M 30.609375 48.390625 
Q 23.390625 48.390625 19.1875 42.75 
Q 14.984375 37.109375 14.984375 27.296875 
Q 14.984375 17.484375 19.15625 11.84375 
Q 23.34375 6.203125 30.609375 6.203125 
Q 37.796875 6.203125 41.984375 11.859375 
Q 46.1875 17.53125 46.1875 27.296875 
Q 46.1875 37.015625 41.984375 42.703125 
Q 37.796875 48.390625 30.609375 48.390625 
z
M 30.609375 56 
Q 42.328125 56 49.015625 48.375 
Q 55.71875 40.765625 55.71875 27.296875 
Q 55.71875 13.875 49.015625 6.21875 
Q 42.328125 -1.421875 30.609375 -1.421875 
Q 18.84375 -1.421875 12.171875 6.21875 
Q 5.515625 13.875 5.515625 27.296875 
Q 5.515625 40.765625 12.171875 48.375 
Q 18.84375 56 30.609375 56 
z
" id="DejaVuSans-111"/>
    <path d="M 8.5 21.578125 
L 8.5 54.6875 
L 17.484375 54.6875 
L 17.484375 21.921875 
Q 17.484375 14.15625 20.5 10.265625 
Q 23.53125 6.390625 29.59375 6.390625 
Q 36.859375 6.390625 41.078125 11.03125 
Q 45.3125 15.671875 45.3125 23.6875 
L 45.3125 54.6875 
L 54.296875 54.6875 
L 54.296875 0 
L 45.3125 0 
L 45.3125 8.40625 
Q 42.046875 3.421875 37.71875 1 
Q 33.40625 -1.421875 27.6875 -1.421875 
Q 18.265625 -1.421875 13.375 4.4375 
Q 8.5 10.296875 8.5 21.578125 
z
M 31.109375 56 
z
" id="DejaVuSans-117"/>
   </defs>
   <g transform="translate(585.9825 10.6275)scale(0.16 -0.16)">
    <use xlink:href="#DejaVuSans-80"/>
    <use x="60.302734" xlink:href="#DejaVuSans-49"/>
    <use x="123.925781" xlink:href="#DejaVuSans-95"/>
    <use x="173.925781" xlink:href="#DejaVuSans-56"/>
    <use x="237.548828" xlink:href="#DejaVuSans-48"/>
    <use x="301.171875" xlink:href="#DejaVuSans-95"/>
    <use x="351.171875" xlink:href="#DejaVuSans-50"/>
    <use x="414.794922" xlink:href="#DejaVuSans-48"/>
    <use x="478.417969" xlink:href="#DejaVuSans-44"/>
    <use x="510.205078" xlink:href="#DejaVuSans-32"/>
    <use x="541.992188" xlink:href="#DejaVuSans-82"/>
    <use x="611.443359" xlink:href="#DejaVuSans-97"/>
    <use x="672.722656" xlink:href="#DejaVuSans-119"/>
    <use x="754.509766" xlink:href="#DejaVuSans-32"/>
    <use x="786.296875" xlink:href="#DejaVuSans-118"/>
    <use x="845.476562" xlink:href="#DejaVuSans-115"/>
    <use x="897.576172" xlink:href="#DejaVuSans-32"/>
    <use x="929.363281" xlink:href="#DejaVuSans-70"/>
    <use x="986.773438" xlink:href="#DejaVuSans-105"/>
    <use x="1014.556641" xlink:href="#DejaVuSans-108"/>
    <use x="1042.339844" xlink:href="#DejaVuSans-116"/>
    <use x="1081.548828" xlink:href="#DejaVuSans-114"/>
    <use x="1122.662109" xlink:href="#DejaVuSans-97"/>
    <use x="1183.941406" xlink:href="#DejaVuSans-100"/>
    <use x="1247.417969" xlink:href="#DejaVuSans-111"/>
    <use x="1308.599609" xlink:href="#DejaVuSans-115"/>
    <use x="1360.699219" xlink:href="#DejaVuSans-32"/>
    <use x="1392.486328" xlink:href="#DejaVuSans-76"/>
    <use x="1448.199219" xlink:href="#DejaVuSans-97"/>
    <use x="1509.478516" xlink:href="#DejaVuSans-117"/>
    <use x="1572.857422" xlink:href="#DejaVuSans-114"/>
    <use x="1613.970703" xlink:href="#DejaVuSans-97"/>
   </g>
  </g>
 </g>
 <defs>
  <clipPath id="p6a0e12d0f5">
   <rect height="247.090909" width="445.313193" x="210.979767" y="86.4"/>
  </clipPath>
  <clipPath id="p6346bf9215">
   <rect height="247.090909" width="455.465509" x="814.630882" y="86.4"/>
  </clipPath>
  <clipPath id="p36d95b9cc5">
   <rect height="247.090909" width="446.465059" x="210.403834" y="382.909091"/>
  </clipPath>
  <clipPath id="p93ec6409ed">
   <rect height="247.090909" width="455.755894" x="814.485689" y="382.909091"/>
  </clipPath>
 </defs>
</svg>
