<?xml version="1.0" encoding="utf-8" standalone="no"?>
<!DOCTYPE svg PUBLIC "-//W3C//DTD SVG 1.1//EN"
  "http://www.w3.org/Graphics/SVG/1.1/DTD/svg11.dtd">
<!-- Created with matplotlib (https://matplotlib.org/) -->
<svg height="720pt" version="1.1" viewBox="0 0 1440 720" width="1440pt" xmlns="http://www.w3.org/2000/svg" xmlns:xlink="http://www.w3.org/1999/xlink">
 <defs>
  <style type="text/css">
*{stroke-linecap:butt;stroke-linejoin:round;}
  </style>
 </defs>
 <g id="figure_1">
  <g id="patch_1">
   <path d="M 0 720 
L 1440 720 
L 1440 0 
L 0 0 
z
" style="fill:#ffffff;"/>
  </g>
  <g id="axes_1">
   <g id="patch_2">
    <path clip-path="url(#p52ef986f2b)" d="M 368.529786 309.032354 
C 346.400402 303.549571 326.733032 290.808374 312.683629 272.853296 
C 298.634226 254.898219 290.996744 232.743931 290.996744 209.945455 
C 290.996744 187.146978 298.634226 164.99269 312.683629 147.037613 
C 326.733032 129.082535 346.400402 116.341338 368.529786 110.858556 
C 342.471152 111.179186 317.56284 121.766868 299.24892 140.307513 
C 280.934999 158.848158 270.654571 183.884848 270.654571 209.945455 
C 270.654571 236.006061 280.934999 261.042751 299.24892 279.583396 
C 317.56284 298.124041 342.471152 308.711723 368.529786 309.032354 
" style="fill:#ff0000;opacity:0.4;"/>
   </g>
   <g id="patch_3">
    <path clip-path="url(#p52ef986f2b)" d="M 491.301681 182.136721 
C 493.86321 191.184194 495.162423 200.542359 495.162423 209.945455 
C 495.162423 219.34855 493.86321 228.706715 491.301681 237.754188 
C 494.350392 243.124681 498.261619 247.957452 502.87856 252.058755 
C 507.495501 256.160058 512.755623 259.474343 518.448047 261.868741 
C 524.14047 264.263139 530.188096 265.705219 536.348474 266.137168 
C 542.508851 266.569116 548.698542 265.985083 554.669402 264.408483 
C 560.640261 262.831882 566.311417 260.284067 571.455513 256.867181 
C 576.599609 253.450295 581.14697 249.210617 584.915294 244.318116 
C 588.683618 239.425615 591.621864 233.946557 593.612239 228.100597 
C 595.602613 222.254638 596.618156 216.120957 596.618156 209.945455 
C 596.618156 203.769952 595.602613 197.636271 593.612239 191.790312 
C 591.621864 185.944352 588.683618 180.465294 584.915294 175.572793 
C 581.14697 170.680292 576.599609 166.440614 571.455513 163.023728 
C 566.311417 159.606842 560.640261 157.059027 554.669402 155.482426 
C 548.698542 153.905826 542.508851 153.321793 536.348474 153.753741 
C 530.188096 154.18569 524.14047 155.62777 518.448047 158.022168 
C 512.755623 160.416566 507.495501 163.730851 502.87856 167.832154 
C 498.261619 171.933457 494.350392 176.766228 491.301681 182.136721 
" style="fill:#008000;opacity:0.4;"/>
   </g>
   <g id="patch_4">
    <path clip-path="url(#p52ef986f2b)" d="M 368.529786 309.032354 
C 394.233612 315.40074 421.433124 311.524123 444.334302 298.228295 
C 467.23548 284.932467 484.087903 263.233678 491.301681 237.754188 
C 486.489245 229.276786 483.958806 219.693576 483.958806 209.945455 
C 483.958806 200.197333 486.489245 190.614123 491.301681 182.136721 
C 484.087903 156.657231 467.23548 134.958442 444.334302 121.662614 
C 421.433124 108.366786 394.233612 104.490169 368.529786 110.858556 
C 381.644333 110.697192 394.66137 113.141066 406.824347 118.04814 
C 418.987324 122.955214 430.055948 130.228544 439.386911 139.445404 
C 448.717875 148.662264 456.126834 159.640565 461.183181 171.742248 
C 466.239528 183.843931 468.843369 196.829915 468.843369 209.945455 
C 468.843369 223.060994 466.239528 236.046978 461.183181 248.148661 
C 456.126834 260.250345 448.717875 271.228645 439.386911 280.445505 
C 430.055948 289.662365 418.987324 296.935695 406.824347 301.842769 
C 394.66137 306.749843 381.644333 309.193717 368.529786 309.032354 
" style="fill:#0000ff;opacity:0.4;"/>
   </g>
   <g id="patch_5">
    <path clip-path="url(#p52ef986f2b)" d="M 368.529786 309.032354 
C 381.644333 309.193717 394.66137 306.749843 406.824347 301.842769 
C 418.987324 296.935695 430.055948 289.662365 439.386911 280.445505 
C 448.717875 271.228645 456.126834 260.250345 461.183181 248.148661 
C 466.239528 236.046978 468.843369 223.060994 468.843369 209.945455 
C 468.843369 196.829915 466.239528 183.843931 461.183181 171.742248 
C 456.126834 159.640565 448.717875 148.662264 439.386911 139.445404 
C 430.055948 130.228544 418.987324 122.955214 406.824347 118.04814 
C 394.66137 113.141066 381.644333 110.697192 368.529786 110.858556 
C 346.400402 116.341338 326.733032 129.082535 312.683629 147.037613 
C 298.634226 164.99269 290.996744 187.146978 290.996744 209.945455 
C 290.996744 232.743931 298.634226 254.898219 312.683629 272.853296 
C 326.733032 290.808374 346.400402 303.549571 368.529786 309.032354 
" style="fill:#b200b2;opacity:0.4;"/>
   </g>
   <g id="patch_6">
    <path clip-path="url(#p52ef986f2b)" d="M 491.301681 182.136721 
C 486.489245 190.614123 483.958806 200.197333 483.958806 209.945455 
C 483.958806 219.693576 486.489245 229.276786 491.301681 237.754188 
C 493.86321 228.706715 495.162423 219.34855 495.162423 209.945455 
C 495.162423 200.542359 493.86321 191.184194 491.301681 182.136721 
" style="fill:#0059b2;opacity:0.4;"/>
   </g>
   <g id="text_1">
    <!-- 36 -->
    <defs>
     <path d="M 40.578125 39.3125 
Q 47.65625 37.796875 51.625 33 
Q 55.609375 28.21875 55.609375 21.1875 
Q 55.609375 10.40625 48.1875 4.484375 
Q 40.765625 -1.421875 27.09375 -1.421875 
Q 22.515625 -1.421875 17.65625 -0.515625 
Q 12.796875 0.390625 7.625 2.203125 
L 7.625 11.71875 
Q 11.71875 9.328125 16.59375 8.109375 
Q 21.484375 6.890625 26.8125 6.890625 
Q 36.078125 6.890625 40.9375 10.546875 
Q 45.796875 14.203125 45.796875 21.1875 
Q 45.796875 27.640625 41.28125 31.265625 
Q 36.765625 34.90625 28.71875 34.90625 
L 20.21875 34.90625 
L 20.21875 43.015625 
L 29.109375 43.015625 
Q 36.375 43.015625 40.234375 45.921875 
Q 44.09375 48.828125 44.09375 54.296875 
Q 44.09375 59.90625 40.109375 62.90625 
Q 36.140625 65.921875 28.71875 65.921875 
Q 24.65625 65.921875 20.015625 65.03125 
Q 15.375 64.15625 9.8125 62.3125 
L 9.8125 71.09375 
Q 15.4375 72.65625 20.34375 73.4375 
Q 25.25 74.21875 29.59375 74.21875 
Q 40.828125 74.21875 47.359375 69.109375 
Q 53.90625 64.015625 53.90625 55.328125 
Q 53.90625 49.265625 50.4375 45.09375 
Q 46.96875 40.921875 40.578125 39.3125 
z
" id="DejaVuSans-51"/>
     <path d="M 33.015625 40.375 
Q 26.375 40.375 22.484375 35.828125 
Q 18.609375 31.296875 18.609375 23.390625 
Q 18.609375 15.53125 22.484375 10.953125 
Q 26.375 6.390625 33.015625 6.390625 
Q 39.65625 6.390625 43.53125 10.953125 
Q 47.40625 15.53125 47.40625 23.390625 
Q 47.40625 31.296875 43.53125 35.828125 
Q 39.65625 40.375 33.015625 40.375 
z
M 52.59375 71.296875 
L 52.59375 62.3125 
Q 48.875 64.0625 45.09375 64.984375 
Q 41.3125 65.921875 37.59375 65.921875 
Q 27.828125 65.921875 22.671875 59.328125 
Q 17.53125 52.734375 16.796875 39.40625 
Q 19.671875 43.65625 24.015625 45.921875 
Q 28.375 48.1875 33.59375 48.1875 
Q 44.578125 48.1875 50.953125 41.515625 
Q 57.328125 34.859375 57.328125 23.390625 
Q 57.328125 12.15625 50.6875 5.359375 
Q 44.046875 -1.421875 33.015625 -1.421875 
Q 20.359375 -1.421875 13.671875 8.265625 
Q 6.984375 17.96875 6.984375 36.375 
Q 6.984375 53.65625 15.1875 63.9375 
Q 23.390625 74.21875 37.203125 74.21875 
Q 40.921875 74.21875 44.703125 73.484375 
Q 48.484375 72.75 52.59375 71.296875 
z
" id="DejaVuSans-54"/>
    </defs>
    <g transform="translate(274.463157 212.70483)scale(0.1 -0.1)">
     <use xlink:href="#DejaVuSans-51"/>
     <use x="63.623047" xlink:href="#DejaVuSans-54"/>
    </g>
   </g>
   <g id="text_2">
    <!-- 91 -->
    <defs>
     <path d="M 10.984375 1.515625 
L 10.984375 10.5 
Q 14.703125 8.734375 18.5 7.8125 
Q 22.3125 6.890625 25.984375 6.890625 
Q 35.75 6.890625 40.890625 13.453125 
Q 46.046875 20.015625 46.78125 33.40625 
Q 43.953125 29.203125 39.59375 26.953125 
Q 35.25 24.703125 29.984375 24.703125 
Q 19.046875 24.703125 12.671875 31.3125 
Q 6.296875 37.9375 6.296875 49.421875 
Q 6.296875 60.640625 12.9375 67.421875 
Q 19.578125 74.21875 30.609375 74.21875 
Q 43.265625 74.21875 49.921875 64.515625 
Q 56.59375 54.828125 56.59375 36.375 
Q 56.59375 19.140625 48.40625 8.859375 
Q 40.234375 -1.421875 26.421875 -1.421875 
Q 22.703125 -1.421875 18.890625 -0.6875 
Q 15.09375 0.046875 10.984375 1.515625 
z
M 30.609375 32.421875 
Q 37.25 32.421875 41.125 36.953125 
Q 45.015625 41.5 45.015625 49.421875 
Q 45.015625 57.28125 41.125 61.84375 
Q 37.25 66.40625 30.609375 66.40625 
Q 23.96875 66.40625 20.09375 61.84375 
Q 16.21875 57.28125 16.21875 49.421875 
Q 16.21875 41.5 20.09375 36.953125 
Q 23.96875 32.421875 30.609375 32.421875 
z
" id="DejaVuSans-57"/>
     <path d="M 12.40625 8.296875 
L 28.515625 8.296875 
L 28.515625 63.921875 
L 10.984375 60.40625 
L 10.984375 69.390625 
L 28.421875 72.90625 
L 38.28125 72.90625 
L 38.28125 8.296875 
L 54.390625 8.296875 
L 54.390625 0 
L 12.40625 0 
z
" id="DejaVuSans-49"/>
    </defs>
    <g transform="translate(539.52779 212.70483)scale(0.1 -0.1)">
     <use xlink:href="#DejaVuSans-57"/>
     <use x="63.623047" xlink:href="#DejaVuSans-49"/>
    </g>
   </g>
   <g id="text_3">
    <!-- 50 -->
    <defs>
     <path d="M 10.796875 72.90625 
L 49.515625 72.90625 
L 49.515625 64.59375 
L 19.828125 64.59375 
L 19.828125 46.734375 
Q 21.96875 47.46875 24.109375 47.828125 
Q 26.265625 48.1875 28.421875 48.1875 
Q 40.625 48.1875 47.75 41.5 
Q 54.890625 34.8125 54.890625 23.390625 
Q 54.890625 11.625 47.5625 5.09375 
Q 40.234375 -1.421875 26.90625 -1.421875 
Q 22.3125 -1.421875 17.546875 -0.640625 
Q 12.796875 0.140625 7.71875 1.703125 
L 7.71875 11.625 
Q 12.109375 9.234375 16.796875 8.0625 
Q 21.484375 6.890625 26.703125 6.890625 
Q 35.15625 6.890625 40.078125 11.328125 
Q 45.015625 15.765625 45.015625 23.390625 
Q 45.015625 31 40.078125 35.4375 
Q 35.15625 39.890625 26.703125 39.890625 
Q 22.75 39.890625 18.8125 39.015625 
Q 14.890625 38.140625 10.796875 36.28125 
z
" id="DejaVuSans-53"/>
     <path d="M 31.78125 66.40625 
Q 24.171875 66.40625 20.328125 58.90625 
Q 16.5 51.421875 16.5 36.375 
Q 16.5 21.390625 20.328125 13.890625 
Q 24.171875 6.390625 31.78125 6.390625 
Q 39.453125 6.390625 43.28125 13.890625 
Q 47.125 21.390625 47.125 36.375 
Q 47.125 51.421875 43.28125 58.90625 
Q 39.453125 66.40625 31.78125 66.40625 
z
M 31.78125 74.21875 
Q 44.046875 74.21875 50.515625 64.515625 
Q 56.984375 54.828125 56.984375 36.375 
Q 56.984375 17.96875 50.515625 8.265625 
Q 44.046875 -1.421875 31.78125 -1.421875 
Q 19.53125 -1.421875 13.0625 8.265625 
Q 6.59375 17.96875 6.59375 36.375 
Q 6.59375 54.828125 13.0625 64.515625 
Q 19.53125 74.21875 31.78125 74.21875 
z
" id="DejaVuSans-48"/>
    </defs>
    <g transform="translate(454.26437 212.70483)scale(0.1 -0.1)">
     <use xlink:href="#DejaVuSans-53"/>
     <use x="63.623047" xlink:href="#DejaVuSans-48"/>
    </g>
   </g>
   <g id="text_4">
    <!-- 258 -->
    <defs>
     <path d="M 19.1875 8.296875 
L 53.609375 8.296875 
L 53.609375 0 
L 7.328125 0 
L 7.328125 8.296875 
Q 12.9375 14.109375 22.625 23.890625 
Q 32.328125 33.6875 34.8125 36.53125 
Q 39.546875 41.84375 41.421875 45.53125 
Q 43.3125 49.21875 43.3125 52.78125 
Q 43.3125 58.59375 39.234375 62.25 
Q 35.15625 65.921875 28.609375 65.921875 
Q 23.96875 65.921875 18.8125 64.3125 
Q 13.671875 62.703125 7.8125 59.421875 
L 7.8125 69.390625 
Q 13.765625 71.78125 18.9375 73 
Q 24.125 74.21875 28.421875 74.21875 
Q 39.75 74.21875 46.484375 68.546875 
Q 53.21875 62.890625 53.21875 53.421875 
Q 53.21875 48.921875 51.53125 44.890625 
Q 49.859375 40.875 45.40625 35.40625 
Q 44.1875 33.984375 37.640625 27.21875 
Q 31.109375 20.453125 19.1875 8.296875 
z
" id="DejaVuSans-50"/>
     <path d="M 31.78125 34.625 
Q 24.75 34.625 20.71875 30.859375 
Q 16.703125 27.09375 16.703125 20.515625 
Q 16.703125 13.921875 20.71875 10.15625 
Q 24.75 6.390625 31.78125 6.390625 
Q 38.8125 6.390625 42.859375 10.171875 
Q 46.921875 13.96875 46.921875 20.515625 
Q 46.921875 27.09375 42.890625 30.859375 
Q 38.875 34.625 31.78125 34.625 
z
M 21.921875 38.8125 
Q 15.578125 40.375 12.03125 44.71875 
Q 8.5 49.078125 8.5 55.328125 
Q 8.5 64.0625 14.71875 69.140625 
Q 20.953125 74.21875 31.78125 74.21875 
Q 42.671875 74.21875 48.875 69.140625 
Q 55.078125 64.0625 55.078125 55.328125 
Q 55.078125 49.078125 51.53125 44.71875 
Q 48 40.375 41.703125 38.8125 
Q 48.828125 37.15625 52.796875 32.3125 
Q 56.78125 27.484375 56.78125 20.515625 
Q 56.78125 9.90625 50.3125 4.234375 
Q 43.84375 -1.421875 31.78125 -1.421875 
Q 19.734375 -1.421875 13.25 4.234375 
Q 6.78125 9.90625 6.78125 20.515625 
Q 6.78125 27.484375 10.78125 32.3125 
Q 14.796875 37.15625 21.921875 38.8125 
z
M 18.3125 54.390625 
Q 18.3125 48.734375 21.84375 45.5625 
Q 25.390625 42.390625 31.78125 42.390625 
Q 38.140625 42.390625 41.71875 45.5625 
Q 45.3125 48.734375 45.3125 54.390625 
Q 45.3125 60.0625 41.71875 63.234375 
Q 38.140625 66.40625 31.78125 66.40625 
Q 25.390625 66.40625 21.84375 63.234375 
Q 18.3125 60.0625 18.3125 54.390625 
z
" id="DejaVuSans-56"/>
    </defs>
    <g transform="translate(370.376307 212.70483)scale(0.1 -0.1)">
     <use xlink:href="#DejaVuSans-50"/>
     <use x="63.623047" xlink:href="#DejaVuSans-53"/>
     <use x="127.246094" xlink:href="#DejaVuSans-56"/>
    </g>
   </g>
   <g id="text_5">
    <!-- 4 -->
    <defs>
     <path d="M 37.796875 64.3125 
L 12.890625 25.390625 
L 37.796875 25.390625 
z
M 35.203125 72.90625 
L 47.609375 72.90625 
L 47.609375 25.390625 
L 58.015625 25.390625 
L 58.015625 17.1875 
L 47.609375 17.1875 
L 47.609375 0 
L 37.796875 0 
L 37.796875 17.1875 
L 4.890625 17.1875 
L 4.890625 26.703125 
z
" id="DejaVuSans-52"/>
    </defs>
    <g transform="translate(486.379364 212.70483)scale(0.1 -0.1)">
     <use xlink:href="#DejaVuSans-52"/>
    </g>
   </g>
   <g id="text_6">
    <!-- TOP -->
    <defs>
     <path d="M -0.296875 72.90625 
L 61.375 72.90625 
L 61.375 64.59375 
L 35.5 64.59375 
L 35.5 0 
L 25.59375 0 
L 25.59375 64.59375 
L -0.296875 64.59375 
z
" id="DejaVuSans-84"/>
     <path d="M 39.40625 66.21875 
Q 28.65625 66.21875 22.328125 58.203125 
Q 16.015625 50.203125 16.015625 36.375 
Q 16.015625 22.609375 22.328125 14.59375 
Q 28.65625 6.59375 39.40625 6.59375 
Q 50.140625 6.59375 56.421875 14.59375 
Q 62.703125 22.609375 62.703125 36.375 
Q 62.703125 50.203125 56.421875 58.203125 
Q 50.140625 66.21875 39.40625 66.21875 
z
M 39.40625 74.21875 
Q 54.734375 74.21875 63.90625 63.9375 
Q 73.09375 53.65625 73.09375 36.375 
Q 73.09375 19.140625 63.90625 8.859375 
Q 54.734375 -1.421875 39.40625 -1.421875 
Q 24.03125 -1.421875 14.8125 8.828125 
Q 5.609375 19.09375 5.609375 36.375 
Q 5.609375 53.65625 14.8125 63.9375 
Q 24.03125 74.21875 39.40625 74.21875 
z
" id="DejaVuSans-79"/>
     <path d="M 19.671875 64.796875 
L 19.671875 37.40625 
L 32.078125 37.40625 
Q 38.96875 37.40625 42.71875 40.96875 
Q 46.484375 44.53125 46.484375 51.125 
Q 46.484375 57.671875 42.71875 61.234375 
Q 38.96875 64.796875 32.078125 64.796875 
z
M 9.8125 72.90625 
L 32.078125 72.90625 
Q 44.34375 72.90625 50.609375 67.359375 
Q 56.890625 61.8125 56.890625 51.125 
Q 56.890625 40.328125 50.609375 34.8125 
Q 44.34375 29.296875 32.078125 29.296875 
L 19.671875 29.296875 
L 19.671875 0 
L 9.8125 0 
z
" id="DejaVuSans-80"/>
    </defs>
    <g transform="translate(357.743345 326.741543)scale(0.12 -0.12)">
     <use xlink:href="#DejaVuSans-84"/>
     <use x="61.083984" xlink:href="#DejaVuSans-79"/>
     <use x="139.794922" xlink:href="#DejaVuSans-80"/>
    </g>
   </g>
   <g id="text_7">
    <!-- BTM -->
    <defs>
     <path d="M 19.671875 34.8125 
L 19.671875 8.109375 
L 35.5 8.109375 
Q 43.453125 8.109375 47.28125 11.40625 
Q 51.125 14.703125 51.125 21.484375 
Q 51.125 28.328125 47.28125 31.5625 
Q 43.453125 34.8125 35.5 34.8125 
z
M 19.671875 64.796875 
L 19.671875 42.828125 
L 34.28125 42.828125 
Q 41.5 42.828125 45.03125 45.53125 
Q 48.578125 48.25 48.578125 53.8125 
Q 48.578125 59.328125 45.03125 62.0625 
Q 41.5 64.796875 34.28125 64.796875 
z
M 9.8125 72.90625 
L 35.015625 72.90625 
Q 46.296875 72.90625 52.390625 68.21875 
Q 58.5 63.53125 58.5 54.890625 
Q 58.5 48.1875 55.375 44.234375 
Q 52.25 40.28125 46.1875 39.3125 
Q 53.46875 37.75 57.5 32.78125 
Q 61.53125 27.828125 61.53125 20.40625 
Q 61.53125 10.640625 54.890625 5.3125 
Q 48.25 0 35.984375 0 
L 9.8125 0 
z
" id="DejaVuSans-66"/>
     <path d="M 9.8125 72.90625 
L 24.515625 72.90625 
L 43.109375 23.296875 
L 61.8125 72.90625 
L 76.515625 72.90625 
L 76.515625 0 
L 66.890625 0 
L 66.890625 64.015625 
L 48.09375 14.015625 
L 38.1875 14.015625 
L 19.390625 64.015625 
L 19.390625 0 
L 9.8125 0 
z
" id="DejaVuSans-77"/>
    </defs>
    <g transform="translate(527.330356 283.976818)scale(0.12 -0.12)">
     <use xlink:href="#DejaVuSans-66"/>
     <use x="68.603516" xlink:href="#DejaVuSans-84"/>
     <use x="129.6875" xlink:href="#DejaVuSans-77"/>
    </g>
   </g>
   <g id="text_8">
    <!-- BURGOS -->
    <defs>
     <path d="M 8.6875 72.90625 
L 18.609375 72.90625 
L 18.609375 28.609375 
Q 18.609375 16.890625 22.84375 11.734375 
Q 27.09375 6.59375 36.625 6.59375 
Q 46.09375 6.59375 50.34375 11.734375 
Q 54.59375 16.890625 54.59375 28.609375 
L 54.59375 72.90625 
L 64.5 72.90625 
L 64.5 27.390625 
Q 64.5 13.140625 57.4375 5.859375 
Q 50.390625 -1.421875 36.625 -1.421875 
Q 22.796875 -1.421875 15.734375 5.859375 
Q 8.6875 13.140625 8.6875 27.390625 
z
" id="DejaVuSans-85"/>
     <path d="M 44.390625 34.1875 
Q 47.5625 33.109375 50.5625 29.59375 
Q 53.5625 26.078125 56.59375 19.921875 
L 66.609375 0 
L 56 0 
L 46.6875 18.703125 
Q 43.0625 26.03125 39.671875 28.421875 
Q 36.28125 30.8125 30.421875 30.8125 
L 19.671875 30.8125 
L 19.671875 0 
L 9.8125 0 
L 9.8125 72.90625 
L 32.078125 72.90625 
Q 44.578125 72.90625 50.734375 67.671875 
Q 56.890625 62.453125 56.890625 51.90625 
Q 56.890625 45.015625 53.6875 40.46875 
Q 50.484375 35.9375 44.390625 34.1875 
z
M 19.671875 64.796875 
L 19.671875 38.921875 
L 32.078125 38.921875 
Q 39.203125 38.921875 42.84375 42.21875 
Q 46.484375 45.515625 46.484375 51.90625 
Q 46.484375 58.296875 42.84375 61.546875 
Q 39.203125 64.796875 32.078125 64.796875 
z
" id="DejaVuSans-82"/>
     <path d="M 59.515625 10.40625 
L 59.515625 29.984375 
L 43.40625 29.984375 
L 43.40625 38.09375 
L 69.28125 38.09375 
L 69.28125 6.78125 
Q 63.578125 2.734375 56.6875 0.65625 
Q 49.8125 -1.421875 42 -1.421875 
Q 24.90625 -1.421875 15.25 8.5625 
Q 5.609375 18.5625 5.609375 36.375 
Q 5.609375 54.25 15.25 64.234375 
Q 24.90625 74.21875 42 74.21875 
Q 49.125 74.21875 55.546875 72.453125 
Q 61.96875 70.703125 67.390625 67.28125 
L 67.390625 56.78125 
Q 61.921875 61.421875 55.765625 63.765625 
Q 49.609375 66.109375 42.828125 66.109375 
Q 29.4375 66.109375 22.71875 58.640625 
Q 16.015625 51.171875 16.015625 36.375 
Q 16.015625 21.625 22.71875 14.15625 
Q 29.4375 6.6875 42.828125 6.6875 
Q 48.046875 6.6875 52.140625 7.59375 
Q 56.25 8.5 59.515625 10.40625 
z
" id="DejaVuSans-71"/>
     <path d="M 53.515625 70.515625 
L 53.515625 60.890625 
Q 47.90625 63.578125 42.921875 64.890625 
Q 37.9375 66.21875 33.296875 66.21875 
Q 25.25 66.21875 20.875 63.09375 
Q 16.5 59.96875 16.5 54.203125 
Q 16.5 49.359375 19.40625 46.890625 
Q 22.3125 44.4375 30.421875 42.921875 
L 36.375 41.703125 
Q 47.40625 39.59375 52.65625 34.296875 
Q 57.90625 29 57.90625 20.125 
Q 57.90625 9.515625 50.796875 4.046875 
Q 43.703125 -1.421875 29.984375 -1.421875 
Q 24.8125 -1.421875 18.96875 -0.25 
Q 13.140625 0.921875 6.890625 3.21875 
L 6.890625 13.375 
Q 12.890625 10.015625 18.65625 8.296875 
Q 24.421875 6.59375 29.984375 6.59375 
Q 38.421875 6.59375 43.015625 9.90625 
Q 47.609375 13.234375 47.609375 19.390625 
Q 47.609375 24.75 44.3125 27.78125 
Q 41.015625 30.8125 33.5 32.328125 
L 27.484375 33.5 
Q 16.453125 35.6875 11.515625 40.375 
Q 6.59375 45.0625 6.59375 53.421875 
Q 6.59375 63.09375 13.40625 68.65625 
Q 20.21875 74.21875 32.171875 74.21875 
Q 37.3125 74.21875 42.625 73.28125 
Q 47.953125 72.359375 53.515625 70.515625 
z
" id="DejaVuSans-83"/>
    </defs>
    <g transform="translate(367.221458 329.729983)scale(0.12 -0.12)">
     <use xlink:href="#DejaVuSans-66"/>
     <use x="68.603516" xlink:href="#DejaVuSans-85"/>
     <use x="141.796875" xlink:href="#DejaVuSans-82"/>
     <use x="211.279297" xlink:href="#DejaVuSans-71"/>
     <use x="288.769531" xlink:href="#DejaVuSans-79"/>
     <use x="367.480469" xlink:href="#DejaVuSans-83"/>
    </g>
   </g>
   <g id="text_9">
    <!-- BURGOS_L vs MIX -->
    <defs>
     <path d="M 50.984375 -16.609375 
L 50.984375 -23.578125 
L -0.984375 -23.578125 
L -0.984375 -16.609375 
z
" id="DejaVuSans-95"/>
     <path d="M 9.8125 72.90625 
L 19.671875 72.90625 
L 19.671875 8.296875 
L 55.171875 8.296875 
L 55.171875 0 
L 9.8125 0 
z
" id="DejaVuSans-76"/>
     <path id="DejaVuSans-32"/>
     <path d="M 2.984375 54.6875 
L 12.5 54.6875 
L 29.59375 8.796875 
L 46.6875 54.6875 
L 56.203125 54.6875 
L 35.6875 0 
L 23.484375 0 
z
" id="DejaVuSans-118"/>
     <path d="M 44.28125 53.078125 
L 44.28125 44.578125 
Q 40.484375 46.53125 36.375 47.5 
Q 32.28125 48.484375 27.875 48.484375 
Q 21.1875 48.484375 17.84375 46.4375 
Q 14.5 44.390625 14.5 40.28125 
Q 14.5 37.15625 16.890625 35.375 
Q 19.28125 33.59375 26.515625 31.984375 
L 29.59375 31.296875 
Q 39.15625 29.25 43.1875 25.515625 
Q 47.21875 21.78125 47.21875 15.09375 
Q 47.21875 7.46875 41.1875 3.015625 
Q 35.15625 -1.421875 24.609375 -1.421875 
Q 20.21875 -1.421875 15.453125 -0.5625 
Q 10.6875 0.296875 5.421875 2 
L 5.421875 11.28125 
Q 10.40625 8.6875 15.234375 7.390625 
Q 20.0625 6.109375 24.8125 6.109375 
Q 31.15625 6.109375 34.5625 8.28125 
Q 37.984375 10.453125 37.984375 14.40625 
Q 37.984375 18.0625 35.515625 20.015625 
Q 33.0625 21.96875 24.703125 23.78125 
L 21.578125 24.515625 
Q 13.234375 26.265625 9.515625 29.90625 
Q 5.8125 33.546875 5.8125 39.890625 
Q 5.8125 47.609375 11.28125 51.796875 
Q 16.75 56 26.8125 56 
Q 31.78125 56 36.171875 55.265625 
Q 40.578125 54.546875 44.28125 53.078125 
z
" id="DejaVuSans-115"/>
     <path d="M 9.8125 72.90625 
L 19.671875 72.90625 
L 19.671875 0 
L 9.8125 0 
z
" id="DejaVuSans-73"/>
     <path d="M 6.296875 72.90625 
L 16.890625 72.90625 
L 35.015625 45.796875 
L 53.21875 72.90625 
L 63.8125 72.90625 
L 40.375 37.890625 
L 65.375 0 
L 54.78125 0 
L 34.28125 31 
L 13.625 0 
L 2.984375 0 
L 29 38.921875 
z
" id="DejaVuSans-88"/>
    </defs>
    <g transform="translate(379.887614 80.4)scale(0.12 -0.12)">
     <use xlink:href="#DejaVuSans-66"/>
     <use x="68.603516" xlink:href="#DejaVuSans-85"/>
     <use x="141.796875" xlink:href="#DejaVuSans-82"/>
     <use x="211.279297" xlink:href="#DejaVuSans-71"/>
     <use x="288.769531" xlink:href="#DejaVuSans-79"/>
     <use x="367.480469" xlink:href="#DejaVuSans-83"/>
     <use x="430.957031" xlink:href="#DejaVuSans-95"/>
     <use x="480.957031" xlink:href="#DejaVuSans-76"/>
     <use x="536.669922" xlink:href="#DejaVuSans-32"/>
     <use x="568.457031" xlink:href="#DejaVuSans-118"/>
     <use x="627.636719" xlink:href="#DejaVuSans-115"/>
     <use x="679.736328" xlink:href="#DejaVuSans-32"/>
     <use x="711.523438" xlink:href="#DejaVuSans-77"/>
     <use x="797.802734" xlink:href="#DejaVuSans-73"/>
     <use x="827.294922" xlink:href="#DejaVuSans-88"/>
    </g>
   </g>
  </g>
  <g id="axes_2">
   <g id="patch_7">
    <path clip-path="url(#pd3562c2bbb)" d="M 999.148169 228.156359 
C 998.019925 222.151709 997.45214 216.055181 997.45214 209.945455 
C 997.45214 203.835728 998.019925 197.7392 999.148169 191.73455 
C 996.912728 180.915466 992.704164 170.599888 986.733378 161.304755 
C 980.762593 152.009622 973.131016 143.892837 964.221085 137.361153 
C 955.311153 130.829468 945.274227 125.993843 934.613281 123.096601 
C 923.952335 120.19936 912.848475 119.28972 901.858142 120.413266 
C 890.867808 121.536812 880.177704 124.674457 870.323534 129.668966 
C 860.469365 134.663476 851.618531 141.430004 844.21457 149.629464 
C 836.810609 157.828924 830.979298 167.322024 827.012856 177.633044 
C 823.046415 187.944064 821.012226 198.89784 821.012226 209.945455 
C 821.012226 220.993069 823.046415 231.946846 827.012856 242.257865 
C 830.979298 252.568885 836.810609 262.061985 844.21457 270.261445 
C 851.618531 278.460905 860.469365 285.227433 870.323534 290.221943 
C 880.177704 295.216452 890.867808 298.354097 901.858142 299.477643 
C 912.848475 300.601189 923.952335 299.691549 934.613281 296.794308 
C 945.274227 293.897066 955.311153 289.061441 964.221085 282.529756 
C 973.131016 275.998072 980.762593 267.881287 986.733378 258.586154 
C 992.704164 249.291021 996.912728 238.975443 999.148169 228.156359 
" style="fill:#ff0000;opacity:0.4;"/>
   </g>
   <g id="patch_8">
    <path clip-path="url(#pd3562c2bbb)" d="M 1184.822064 166.955642 
C 1191.313135 180.35657 1194.685568 195.055228 1194.685568 209.945455 
C 1194.685568 224.835681 1191.313135 239.534339 1184.822064 252.935267 
C 1192.547614 257.919183 1201.475645 260.72965 1210.66302 261.069777 
C 1219.850394 261.409905 1228.961794 259.267278 1237.034712 254.86824 
C 1245.10763 250.469202 1251.847422 243.974308 1256.542113 236.069662 
C 1261.236804 228.165017 1263.715047 219.139123 1263.715047 209.945455 
C 1263.715047 200.751786 1261.236804 191.725892 1256.542113 183.821247 
C 1251.847422 175.916601 1245.10763 169.421707 1237.034712 165.022669 
C 1228.961794 160.623631 1219.850394 158.481005 1210.66302 158.821132 
C 1201.475645 159.161259 1192.547614 161.971726 1184.822064 166.955642 
" style="fill:#008000;opacity:0.4;"/>
   </g>
   <g id="patch_9">
    <path clip-path="url(#pd3562c2bbb)" d="M 999.148169 228.156359 
C 1002.980155 248.550666 1013.153236 267.22432 1028.210612 281.503231 
C 1043.267989 295.782142 1062.454888 304.950557 1083.023722 307.695548 
C 1103.592555 310.44054 1124.512279 306.62451 1142.787163 296.79392 
C 1161.062047 286.96333 1175.776034 271.610952 1184.822064 252.935267 
C 1177.635569 248.299107 1171.725009 241.93409 1167.632916 234.424465 
C 1163.540824 226.91484 1161.396357 218.497629 1161.396357 209.945455 
C 1161.396357 201.39328 1163.540824 192.97607 1167.632916 185.466444 
C 1171.725009 177.956819 1177.635569 171.591802 1184.822064 166.955642 
C 1175.776034 148.279957 1161.062047 132.927579 1142.787163 123.096989 
C 1124.512279 113.266399 1103.592555 109.450369 1083.023722 112.195361 
C 1062.454888 114.940352 1043.267989 124.108767 1028.210612 138.387678 
C 1013.153236 152.666589 1002.980155 171.340243 999.148169 191.73455 
C 1000.386079 197.725787 1001.009876 203.827665 1001.009876 209.945455 
C 1001.009876 216.063244 1000.386079 222.165122 999.148169 228.156359 
" style="fill:#0000ff;opacity:0.4;"/>
   </g>
   <g id="patch_10">
    <path clip-path="url(#pd3562c2bbb)" d="M 999.148169 228.156359 
C 1000.386079 222.165122 1001.009876 216.063244 1001.009876 209.945455 
C 1001.009876 203.827665 1000.386079 197.725787 999.148169 191.73455 
C 998.019925 197.7392 997.45214 203.835728 997.45214 209.945455 
C 997.45214 216.055181 998.019925 222.151709 999.148169 228.156359 
" style="fill:#b200b2;opacity:0.4;"/>
   </g>
   <g id="patch_11">
    <path clip-path="url(#pd3562c2bbb)" d="M 1184.822064 166.955642 
C 1177.635569 171.591802 1171.725009 177.956819 1167.632916 185.466444 
C 1163.540824 192.97607 1161.396357 201.39328 1161.396357 209.945455 
C 1161.396357 218.497629 1163.540824 226.91484 1167.632916 234.424465 
C 1171.725009 241.93409 1177.635569 248.299107 1184.822064 252.935267 
C 1191.313135 239.534339 1194.685568 224.835681 1194.685568 209.945455 
C 1194.685568 195.055228 1191.313135 180.35657 1184.822064 166.955642 
" style="fill:#0059b2;opacity:0.4;"/>
   </g>
   <g id="text_10">
    <!-- 293 -->
    <g transform="translate(899.688433 212.70483)scale(0.1 -0.1)">
     <use xlink:href="#DejaVuSans-50"/>
     <use x="63.623047" xlink:href="#DejaVuSans-57"/>
     <use x="127.246094" xlink:href="#DejaVuSans-51"/>
    </g>
   </g>
   <g id="text_11">
    <!-- 72 -->
    <defs>
     <path d="M 8.203125 72.90625 
L 55.078125 72.90625 
L 55.078125 68.703125 
L 28.609375 0 
L 18.3125 0 
L 43.21875 64.59375 
L 8.203125 64.59375 
z
" id="DejaVuSans-55"/>
    </defs>
    <g transform="translate(1222.837808 212.70483)scale(0.1 -0.1)">
     <use xlink:href="#DejaVuSans-55"/>
     <use x="63.623047" xlink:href="#DejaVuSans-50"/>
    </g>
   </g>
   <g id="text_12">
    <!-- 329 -->
    <g transform="translate(1090.071315 212.70483)scale(0.1 -0.1)">
     <use xlink:href="#DejaVuSans-51"/>
     <use x="63.623047" xlink:href="#DejaVuSans-50"/>
     <use x="127.246094" xlink:href="#DejaVuSans-57"/>
    </g>
   </g>
   <g id="text_13">
    <!-- 1 -->
    <g transform="translate(996.049758 212.70483)scale(0.1 -0.1)">
     <use xlink:href="#DejaVuSans-49"/>
    </g>
   </g>
   <g id="text_14">
    <!-- 23 -->
    <g transform="translate(1171.678462 212.70483)scale(0.1 -0.1)">
     <use xlink:href="#DejaVuSans-50"/>
     <use x="63.623047" xlink:href="#DejaVuSans-51"/>
    </g>
   </g>
   <g id="text_15">
    <!-- TOP -->
    <g transform="translate(899.005426 317.054901)scale(0.12 -0.12)">
     <use xlink:href="#DejaVuSans-84"/>
     <use x="61.083984" xlink:href="#DejaVuSans-79"/>
     <use x="139.794922" xlink:href="#DejaVuSans-80"/>
    </g>
   </g>
   <g id="text_16">
    <!-- BTM -->
    <g transform="translate(1199.597577 278.215421)scale(0.12 -0.12)">
     <use xlink:href="#DejaVuSans-66"/>
     <use x="68.603516" xlink:href="#DejaVuSans-84"/>
     <use x="129.6875" xlink:href="#DejaVuSans-77"/>
    </g>
   </g>
   <g id="text_17">
    <!-- PAREDES -->
    <defs>
     <path d="M 34.1875 63.1875 
L 20.796875 26.90625 
L 47.609375 26.90625 
z
M 28.609375 72.90625 
L 39.796875 72.90625 
L 67.578125 0 
L 57.328125 0 
L 50.6875 18.703125 
L 17.828125 18.703125 
L 11.1875 0 
L 0.78125 0 
z
" id="DejaVuSans-65"/>
     <path d="M 9.8125 72.90625 
L 55.90625 72.90625 
L 55.90625 64.59375 
L 19.671875 64.59375 
L 19.671875 43.015625 
L 54.390625 43.015625 
L 54.390625 34.71875 
L 19.671875 34.71875 
L 19.671875 8.296875 
L 56.78125 8.296875 
L 56.78125 0 
L 9.8125 0 
z
" id="DejaVuSans-69"/>
     <path d="M 19.671875 64.796875 
L 19.671875 8.109375 
L 31.59375 8.109375 
Q 46.6875 8.109375 53.6875 14.9375 
Q 60.6875 21.78125 60.6875 36.53125 
Q 60.6875 51.171875 53.6875 57.984375 
Q 46.6875 64.796875 31.59375 64.796875 
z
M 9.8125 72.90625 
L 30.078125 72.90625 
Q 51.265625 72.90625 61.171875 64.09375 
Q 71.09375 55.28125 71.09375 36.53125 
Q 71.09375 17.671875 61.125 8.828125 
Q 51.171875 0 30.078125 0 
L 9.8125 0 
z
" id="DejaVuSans-68"/>
    </defs>
    <g transform="translate(1068.171667 325.67279)scale(0.12 -0.12)">
     <use xlink:href="#DejaVuSans-80"/>
     <use x="60.208984" xlink:href="#DejaVuSans-65"/>
     <use x="128.617188" xlink:href="#DejaVuSans-82"/>
     <use x="198.099609" xlink:href="#DejaVuSans-69"/>
     <use x="261.283203" xlink:href="#DejaVuSans-68"/>
     <use x="338.285156" xlink:href="#DejaVuSans-69"/>
     <use x="401.46875" xlink:href="#DejaVuSans-83"/>
    </g>
   </g>
   <g id="text_18">
    <!-- PAREDES_L vs MIX -->
    <g transform="translate(986.575824 80.4)scale(0.12 -0.12)">
     <use xlink:href="#DejaVuSans-80"/>
     <use x="60.208984" xlink:href="#DejaVuSans-65"/>
     <use x="128.617188" xlink:href="#DejaVuSans-82"/>
     <use x="198.099609" xlink:href="#DejaVuSans-69"/>
     <use x="261.283203" xlink:href="#DejaVuSans-68"/>
     <use x="338.285156" xlink:href="#DejaVuSans-69"/>
     <use x="401.46875" xlink:href="#DejaVuSans-83"/>
     <use x="464.945312" xlink:href="#DejaVuSans-95"/>
     <use x="514.945312" xlink:href="#DejaVuSans-76"/>
     <use x="570.658203" xlink:href="#DejaVuSans-32"/>
     <use x="602.445312" xlink:href="#DejaVuSans-118"/>
     <use x="661.625" xlink:href="#DejaVuSans-115"/>
     <use x="713.724609" xlink:href="#DejaVuSans-32"/>
     <use x="745.511719" xlink:href="#DejaVuSans-77"/>
     <use x="831.791016" xlink:href="#DejaVuSans-73"/>
     <use x="861.283203" xlink:href="#DejaVuSans-88"/>
    </g>
   </g>
  </g>
  <g id="axes_3">
   <g id="patch_12">
    <path clip-path="url(#p4c2d4b8dba)" d="M 365.43831 604.737778 
C 344.04199 598.682478 325.19729 585.802707 311.784246 568.066884 
C 298.371203 550.331061 291.1098 528.691208 291.1098 506.454545 
C 291.1098 484.217883 298.371203 462.578029 311.784246 444.842207 
C 325.19729 427.106384 344.04199 414.226613 365.43831 408.171313 
C 340.087112 409.224657 316.101277 420.046845 298.536167 438.356943 
C 280.971056 456.667041 271.153953 481.081474 271.153953 506.454545 
C 271.153953 531.827617 280.971056 556.24205 298.536167 574.552148 
C 316.101277 592.862246 340.087112 603.684434 365.43831 604.737778 
" style="fill:#ff0000;opacity:0.4;"/>
   </g>
   <g id="patch_13">
    <path clip-path="url(#p4c2d4b8dba)" d="M 491.588487 478.824623 
C 494.115164 487.81711 495.396436 497.113832 495.396436 506.454545 
C 495.396436 515.795258 494.115164 525.091981 491.588487 534.084468 
C 494.616998 539.412987 498.501095 544.207502 503.085124 548.275876 
C 507.669153 552.344251 512.891051 555.631402 518.541554 558.0056 
C 524.192056 560.379797 530.19466 561.808897 536.308816 562.235628 
C 542.422971 562.662358 548.565897 562.080943 554.491419 560.514682 
C 560.416942 558.948421 566.044835 556.418519 571.149564 553.026362 
C 576.254293 549.634204 580.766745 545.425717 584.506085 540.569553 
C 588.245425 535.71339 591.161027 530.275297 593.136049 524.473205 
C 595.111071 518.671112 596.118774 512.583574 596.118774 506.454545 
C 596.118774 500.325517 595.111071 494.237979 593.136049 488.435886 
C 591.161027 482.633794 588.245425 477.195701 584.506085 472.339537 
C 580.766745 467.483374 576.254293 463.274887 571.149564 459.882729 
C 566.044835 456.490571 560.416942 453.96067 554.491419 452.394409 
C 548.565897 450.828147 542.422971 450.246732 536.308816 450.673463 
C 530.19466 451.100194 524.192056 452.529294 518.541554 454.903491 
C 512.891051 457.277689 507.669153 460.56484 503.085124 464.633214 
C 498.501095 468.701589 494.616998 473.496104 491.588487 478.824623 
" style="fill:#008000;opacity:0.4;"/>
   </g>
   <g id="patch_14">
    <path clip-path="url(#p4c2d4b8dba)" d="M 365.43831 604.737778 
C 378.360297 608.394786 391.877548 609.467732 405.214646 607.895066 
C 418.551743 606.3224 431.448687 602.134781 443.165641 595.572431 
C 454.882595 589.010081 465.191144 580.200931 473.499936 569.650318 
C 481.808728 559.099706 487.955787 547.01331 491.588487 534.084468 
C 486.802177 525.663187 484.28522 516.140966 484.28522 506.454545 
C 484.28522 496.768125 486.802177 487.245904 491.588487 478.824623 
C 487.955787 465.895781 481.808728 453.809385 473.499936 443.258773 
C 465.191144 432.70816 454.882595 423.89901 443.165641 417.33666 
C 431.448687 410.77431 418.551743 406.586691 405.214646 405.014025 
C 391.877548 403.441359 378.360297 404.514304 365.43831 408.171313 
C 378.688202 407.620778 391.913619 409.75528 404.317574 414.44619 
C 416.721529 419.1371 428.049754 426.288258 437.61959 435.468724 
C 447.189427 444.64919 454.804704 455.670774 460.00651 467.869296 
C 465.208317 480.067818 467.890023 493.193221 467.890023 506.454545 
C 467.890023 519.71587 465.208317 532.841273 460.00651 545.039795 
C 454.804704 557.238317 447.189427 568.259901 437.61959 577.440367 
C 428.049754 586.620833 416.721529 593.771991 404.317574 598.462901 
C 391.913619 603.153811 378.688202 605.288313 365.43831 604.737778 
" style="fill:#0000ff;opacity:0.4;"/>
   </g>
   <g id="patch_15">
    <path clip-path="url(#p4c2d4b8dba)" d="M 365.43831 604.737778 
C 378.688202 605.288313 391.913619 603.153811 404.317574 598.462901 
C 416.721529 593.771991 428.049754 586.620833 437.61959 577.440367 
C 447.189427 568.259901 454.804704 557.238317 460.00651 545.039795 
C 465.208317 532.841273 467.890023 519.71587 467.890023 506.454545 
C 467.890023 493.193221 465.208317 480.067818 460.00651 467.869296 
C 454.804704 455.670774 447.189427 444.64919 437.61959 435.468724 
C 428.049754 426.288258 416.721529 419.1371 404.317574 414.44619 
C 391.913619 409.75528 378.688202 407.620778 365.43831 408.171313 
C 344.04199 414.226613 325.19729 427.106384 311.784246 444.842207 
C 298.371203 462.578029 291.1098 484.217883 291.1098 506.454545 
C 291.1098 528.691208 298.371203 550.331061 311.784246 568.066884 
C 325.19729 585.802707 344.04199 598.682478 365.43831 604.737778 
" style="fill:#b200b2;opacity:0.4;"/>
   </g>
   <g id="patch_16">
    <path clip-path="url(#p4c2d4b8dba)" d="M 491.588487 478.824623 
C 486.802177 487.245904 484.28522 496.768125 484.28522 506.454545 
C 484.28522 516.140966 486.802177 525.663187 491.588487 534.084468 
C 494.115164 525.091981 495.396436 515.795258 495.396436 506.454545 
C 495.396436 497.113832 494.115164 487.81711 491.588487 478.824623 
" style="fill:#0059b2;opacity:0.4;"/>
   </g>
   <g id="text_19">
    <!-- 35 -->
    <g transform="translate(274.769377 509.21392)scale(0.1 -0.1)">
     <use xlink:href="#DejaVuSans-51"/>
     <use x="63.623047" xlink:href="#DejaVuSans-53"/>
    </g>
   </g>
   <g id="text_20">
    <!-- 91 -->
    <g transform="translate(539.395105 509.21392)scale(0.1 -0.1)">
     <use xlink:href="#DejaVuSans-57"/>
     <use x="63.623047" xlink:href="#DejaVuSans-49"/>
    </g>
   </g>
   <g id="text_21">
    <!-- 54 -->
    <g transform="translate(453.312677 509.21392)scale(0.1 -0.1)">
     <use xlink:href="#DejaVuSans-53"/>
     <use x="63.623047" xlink:href="#DejaVuSans-52"/>
    </g>
   </g>
   <g id="text_22">
    <!-- 259 -->
    <g transform="translate(369.956162 509.21392)scale(0.1 -0.1)">
     <use xlink:href="#DejaVuSans-50"/>
     <use x="63.623047" xlink:href="#DejaVuSans-53"/>
     <use x="127.246094" xlink:href="#DejaVuSans-57"/>
    </g>
   </g>
   <g id="text_23">
    <!-- 4 -->
    <g transform="translate(486.659578 509.21392)scale(0.1 -0.1)">
     <use xlink:href="#DejaVuSans-52"/>
    </g>
   </g>
   <g id="text_24">
    <!-- TOP -->
    <g transform="translate(357.516363 622.48831)scale(0.12 -0.12)">
     <use xlink:href="#DejaVuSans-84"/>
     <use x="61.083984" xlink:href="#DejaVuSans-79"/>
     <use x="139.794922" xlink:href="#DejaVuSans-80"/>
    </g>
   </g>
   <g id="text_25">
    <!-- BTM -->
    <g transform="translate(527.243872 580.037052)scale(0.12 -0.12)">
     <use xlink:href="#DejaVuSans-66"/>
     <use x="68.603516" xlink:href="#DejaVuSans-84"/>
     <use x="129.6875" xlink:href="#DejaVuSans-77"/>
    </g>
   </g>
   <g id="text_26">
    <!-- BURGOS -->
    <g transform="translate(367.394993 626.263593)scale(0.12 -0.12)">
     <use xlink:href="#DejaVuSans-66"/>
     <use x="68.603516" xlink:href="#DejaVuSans-85"/>
     <use x="141.796875" xlink:href="#DejaVuSans-82"/>
     <use x="211.279297" xlink:href="#DejaVuSans-71"/>
     <use x="288.769531" xlink:href="#DejaVuSans-79"/>
     <use x="367.480469" xlink:href="#DejaVuSans-83"/>
    </g>
   </g>
   <g id="text_27">
    <!-- BURGOS vs MIX -->
    <g transform="translate(386.230739 376.909091)scale(0.12 -0.12)">
     <use xlink:href="#DejaVuSans-66"/>
     <use x="68.603516" xlink:href="#DejaVuSans-85"/>
     <use x="141.796875" xlink:href="#DejaVuSans-82"/>
     <use x="211.279297" xlink:href="#DejaVuSans-71"/>
     <use x="288.769531" xlink:href="#DejaVuSans-79"/>
     <use x="367.480469" xlink:href="#DejaVuSans-83"/>
     <use x="430.957031" xlink:href="#DejaVuSans-32"/>
     <use x="462.744141" xlink:href="#DejaVuSans-118"/>
     <use x="521.923828" xlink:href="#DejaVuSans-115"/>
     <use x="574.023438" xlink:href="#DejaVuSans-32"/>
     <use x="605.810547" xlink:href="#DejaVuSans-77"/>
     <use x="692.089844" xlink:href="#DejaVuSans-73"/>
     <use x="721.582031" xlink:href="#DejaVuSans-88"/>
    </g>
   </g>
  </g>
  <g id="axes_4">
   <g id="patch_17">
    <path clip-path="url(#pfef5807776)" d="M 999.059912 524.646486 
C 997.934198 518.647931 997.367695 512.557814 997.367695 506.454545 
C 997.367695 500.351276 997.934198 494.26116 999.059912 488.262605 
C 996.826835 477.457526 992.623226 467.155389 986.659729 457.872443 
C 980.696232 448.589497 973.074153 440.483435 964.175438 433.960456 
C 955.276724 427.437477 945.25254 422.608389 934.605205 419.715183 
C 923.95787 416.821977 912.868255 415.913799 901.892068 417.036159 
C 890.915881 418.15852 880.239578 421.292353 870.398157 426.280619 
C 860.556735 431.268886 851.717375 438.026848 844.323022 446.215861 
C 836.92867 454.404873 831.104935 463.885826 827.143651 474.183622 
C 823.182366 484.481418 821.150822 495.421125 821.150822 506.454545 
C 821.150822 517.487966 823.182366 528.427673 827.143651 538.725469 
C 831.104935 549.023265 836.92867 558.504218 844.323022 566.69323 
C 851.717375 574.882243 860.556735 581.640205 870.398157 586.628472 
C 880.239578 591.616738 890.915881 594.750571 901.892068 595.872931 
C 912.868255 596.995292 923.95787 596.087114 934.605205 593.193908 
C 945.25254 590.300702 955.276724 585.471614 964.175438 578.948635 
C 973.074153 572.425656 980.696232 564.319593 986.659729 555.036648 
C 992.623226 545.753702 996.826835 535.451565 999.059912 524.646486 
" style="fill:#ff0000;opacity:0.4;"/>
   </g>
   <g id="patch_18">
    <path clip-path="url(#pfef5807776)" d="M 1184.791662 463.514046 
C 1191.266219 476.902224 1194.629713 491.582989 1194.629713 506.454545 
C 1194.629713 521.326102 1191.266219 536.006867 1184.791662 549.395045 
C 1192.507663 554.370738 1201.424008 557.175908 1210.598957 557.514275 
C 1219.773906 557.852642 1228.872655 555.711857 1236.934198 551.318031 
C 1244.995741 546.924205 1251.725903 540.437672 1256.413848 532.543537 
C 1261.101792 524.649402 1263.57645 515.635732 1263.57645 506.454545 
C 1263.57645 497.273359 1261.101792 488.259689 1256.413848 480.365554 
C 1251.725903 472.471419 1244.995741 465.984886 1236.934198 461.59106 
C 1228.872655 457.197233 1219.773906 455.056449 1210.598957 455.394816 
C 1201.424008 455.733183 1192.507663 458.538353 1184.791662 463.514046 
" style="fill:#008000;opacity:0.4;"/>
   </g>
   <g id="patch_19">
    <path clip-path="url(#pfef5807776)" d="M 999.059912 524.646486 
C 1002.889226 545.051622 1013.065269 563.735909 1028.129857 578.021966 
C 1043.194446 592.308023 1062.391922 601.479244 1082.971369 604.221434 
C 1103.550816 606.963624 1124.479945 603.139229 1142.759699 593.296271 
C 1161.039453 583.453312 1175.752899 568.085524 1184.791662 549.395045 
C 1177.612039 544.765237 1171.706914 538.407879 1167.618524 530.906734 
C 1163.530135 523.405588 1161.387569 514.997502 1161.387569 506.454545 
C 1161.387569 497.911589 1163.530135 489.503502 1167.618524 482.002357 
C 1171.706914 474.501212 1177.612039 468.143854 1184.791662 463.514046 
C 1175.752899 444.823567 1161.039453 429.455779 1142.759699 419.61282 
C 1124.479945 409.769862 1103.550816 405.945467 1082.971369 408.687657 
C 1062.391922 411.429846 1043.194446 420.601068 1028.129857 434.887125 
C 1013.065269 449.173182 1002.889226 467.857468 999.059912 488.262605 
C 1000.29682 494.247567 1000.920113 500.343105 1000.920113 506.454545 
C 1000.920113 512.565986 1000.29682 518.661524 999.059912 524.646486 
" style="fill:#0000ff;opacity:0.4;"/>
   </g>
   <g id="patch_20">
    <path clip-path="url(#pfef5807776)" d="M 999.059912 524.646486 
C 1000.29682 518.661524 1000.920113 512.565986 1000.920113 506.454545 
C 1000.920113 500.343105 1000.29682 494.247567 999.059912 488.262605 
C 997.934198 494.26116 997.367695 500.351276 997.367695 506.454545 
C 997.367695 512.557814 997.934198 518.647931 999.059912 524.646486 
" style="fill:#b200b2;opacity:0.4;"/>
   </g>
   <g id="patch_21">
    <path clip-path="url(#pfef5807776)" d="M 1184.791662 463.514046 
C 1177.612039 468.143854 1171.706914 474.501212 1167.618524 482.002357 
C 1163.530135 489.503502 1161.387569 497.911589 1161.387569 506.454545 
C 1161.387569 514.997502 1163.530135 523.405588 1167.618524 530.906734 
C 1171.706914 538.407879 1177.612039 544.765237 1184.791662 549.395045 
C 1191.266219 536.006867 1194.629713 521.326102 1194.629713 506.454545 
C 1194.629713 491.582989 1191.266219 476.902224 1184.791662 463.514046 
" style="fill:#0059b2;opacity:0.4;"/>
   </g>
   <g id="text_28">
    <!-- 293 -->
    <g transform="translate(899.715508 509.21392)scale(0.1 -0.1)">
     <use xlink:href="#DejaVuSans-50"/>
     <use x="63.623047" xlink:href="#DejaVuSans-57"/>
     <use x="127.246094" xlink:href="#DejaVuSans-51"/>
    </g>
   </g>
   <g id="text_29">
    <!-- 72 -->
    <g transform="translate(1222.740581 509.21392)scale(0.1 -0.1)">
     <use xlink:href="#DejaVuSans-55"/>
     <use x="63.623047" xlink:href="#DejaVuSans-50"/>
    </g>
   </g>
   <g id="text_30">
    <!-- 330 -->
    <g transform="translate(1090.026731 509.21392)scale(0.1 -0.1)">
     <use xlink:href="#DejaVuSans-51"/>
     <use x="63.623047" xlink:href="#DejaVuSans-51"/>
     <use x="127.246094" xlink:href="#DejaVuSans-48"/>
    </g>
   </g>
   <g id="text_31">
    <!-- 1 -->
    <g transform="translate(995.962654 509.21392)scale(0.1 -0.1)">
     <use xlink:href="#DejaVuSans-49"/>
    </g>
   </g>
   <g id="text_32">
    <!-- 23 -->
    <g transform="translate(1171.646141 509.21392)scale(0.1 -0.1)">
     <use xlink:href="#DejaVuSans-50"/>
     <use x="63.623047" xlink:href="#DejaVuSans-51"/>
    </g>
   </g>
   <g id="text_33">
    <!-- TOP -->
    <g transform="translate(899.029843 613.444319)scale(0.12 -0.12)">
     <use xlink:href="#DejaVuSans-84"/>
     <use x="61.083984" xlink:href="#DejaVuSans-79"/>
     <use x="139.794922" xlink:href="#DejaVuSans-80"/>
    </g>
   </g>
   <g id="text_34">
    <!-- BTM -->
    <g transform="translate(1199.523885 574.654114)scale(0.12 -0.12)">
     <use xlink:href="#DejaVuSans-66"/>
     <use x="68.603516" xlink:href="#DejaVuSans-84"/>
     <use x="129.6875" xlink:href="#DejaVuSans-77"/>
    </g>
   </g>
   <g id="text_35">
    <!-- PAREDES -->
    <g transform="translate(1068.101516 622.190683)scale(0.12 -0.12)">
     <use xlink:href="#DejaVuSans-80"/>
     <use x="60.208984" xlink:href="#DejaVuSans-65"/>
     <use x="128.617188" xlink:href="#DejaVuSans-82"/>
     <use x="198.099609" xlink:href="#DejaVuSans-69"/>
     <use x="261.283203" xlink:href="#DejaVuSans-68"/>
     <use x="338.285156" xlink:href="#DejaVuSans-69"/>
     <use x="401.46875" xlink:href="#DejaVuSans-83"/>
    </g>
   </g>
   <g id="text_36">
    <!-- PAREDES vs MIX -->
    <g transform="translate(992.918949 376.909091)scale(0.12 -0.12)">
     <use xlink:href="#DejaVuSans-80"/>
     <use x="60.208984" xlink:href="#DejaVuSans-65"/>
     <use x="128.617188" xlink:href="#DejaVuSans-82"/>
     <use x="198.099609" xlink:href="#DejaVuSans-69"/>
     <use x="261.283203" xlink:href="#DejaVuSans-68"/>
     <use x="338.285156" xlink:href="#DejaVuSans-69"/>
     <use x="401.46875" xlink:href="#DejaVuSans-83"/>
     <use x="464.945312" xlink:href="#DejaVuSans-32"/>
     <use x="496.732422" xlink:href="#DejaVuSans-118"/>
     <use x="555.912109" xlink:href="#DejaVuSans-115"/>
     <use x="608.011719" xlink:href="#DejaVuSans-32"/>
     <use x="639.798828" xlink:href="#DejaVuSans-77"/>
     <use x="726.078125" xlink:href="#DejaVuSans-73"/>
     <use x="755.570312" xlink:href="#DejaVuSans-88"/>
    </g>
   </g>
  </g>
  <g id="text_37">
   <!-- P1_80_20, Raw vs Filtrados Laura -->
   <defs>
    <path d="M 11.71875 12.40625 
L 22.015625 12.40625 
L 22.015625 4 
L 14.015625 -11.625 
L 7.71875 -11.625 
L 11.71875 4 
z
" id="DejaVuSans-44"/>
    <path d="M 34.28125 27.484375 
Q 23.390625 27.484375 19.1875 25 
Q 14.984375 22.515625 14.984375 16.5 
Q 14.984375 11.71875 18.140625 8.90625 
Q 21.296875 6.109375 26.703125 6.109375 
Q 34.1875 6.109375 38.703125 11.40625 
Q 43.21875 16.703125 43.21875 25.484375 
L 43.21875 27.484375 
z
M 52.203125 31.203125 
L 52.203125 0 
L 43.21875 0 
L 43.21875 8.296875 
Q 40.140625 3.328125 35.546875 0.953125 
Q 30.953125 -1.421875 24.3125 -1.421875 
Q 15.921875 -1.421875 10.953125 3.296875 
Q 6 8.015625 6 15.921875 
Q 6 25.140625 12.171875 29.828125 
Q 18.359375 34.515625 30.609375 34.515625 
L 43.21875 34.515625 
L 43.21875 35.40625 
Q 43.21875 41.609375 39.140625 45 
Q 35.0625 48.390625 27.6875 48.390625 
Q 23 48.390625 18.546875 47.265625 
Q 14.109375 46.140625 10.015625 43.890625 
L 10.015625 52.203125 
Q 14.9375 54.109375 19.578125 55.046875 
Q 24.21875 56 28.609375 56 
Q 40.484375 56 46.34375 49.84375 
Q 52.203125 43.703125 52.203125 31.203125 
z
" id="DejaVuSans-97"/>
    <path d="M 4.203125 54.6875 
L 13.1875 54.6875 
L 24.421875 12.015625 
L 35.59375 54.6875 
L 46.1875 54.6875 
L 57.421875 12.015625 
L 68.609375 54.6875 
L 77.59375 54.6875 
L 63.28125 0 
L 52.6875 0 
L 40.921875 44.828125 
L 29.109375 0 
L 18.5 0 
z
" id="DejaVuSans-119"/>
    <path d="M 9.8125 72.90625 
L 51.703125 72.90625 
L 51.703125 64.59375 
L 19.671875 64.59375 
L 19.671875 43.109375 
L 48.578125 43.109375 
L 48.578125 34.8125 
L 19.671875 34.8125 
L 19.671875 0 
L 9.8125 0 
z
" id="DejaVuSans-70"/>
    <path d="M 9.421875 54.6875 
L 18.40625 54.6875 
L 18.40625 0 
L 9.421875 0 
z
M 9.421875 75.984375 
L 18.40625 75.984375 
L 18.40625 64.59375 
L 9.421875 64.59375 
z
" id="DejaVuSans-105"/>
    <path d="M 9.421875 75.984375 
L 18.40625 75.984375 
L 18.40625 0 
L 9.421875 0 
z
" id="DejaVuSans-108"/>
    <path d="M 18.3125 70.21875 
L 18.3125 54.6875 
L 36.8125 54.6875 
L 36.8125 47.703125 
L 18.3125 47.703125 
L 18.3125 18.015625 
Q 18.3125 11.328125 20.140625 9.421875 
Q 21.96875 7.515625 27.59375 7.515625 
L 36.8125 7.515625 
L 36.8125 0 
L 27.59375 0 
Q 17.1875 0 13.234375 3.875 
Q 9.28125 7.765625 9.28125 18.015625 
L 9.28125 47.703125 
L 2.6875 47.703125 
L 2.6875 54.6875 
L 9.28125 54.6875 
L 9.28125 70.21875 
z
" id="DejaVuSans-116"/>
    <path d="M 41.109375 46.296875 
Q 39.59375 47.171875 37.8125 47.578125 
Q 36.03125 48 33.890625 48 
Q 26.265625 48 22.1875 43.046875 
Q 18.109375 38.09375 18.109375 28.8125 
L 18.109375 0 
L 9.078125 0 
L 9.078125 54.6875 
L 18.109375 54.6875 
L 18.109375 46.1875 
Q 20.953125 51.171875 25.484375 53.578125 
Q 30.03125 56 36.53125 56 
Q 37.453125 56 38.578125 55.875 
Q 39.703125 55.765625 41.0625 55.515625 
z
" id="DejaVuSans-114"/>
    <path d="M 45.40625 46.390625 
L 45.40625 75.984375 
L 54.390625 75.984375 
L 54.390625 0 
L 45.40625 0 
L 45.40625 8.203125 
Q 42.578125 3.328125 38.25 0.953125 
Q 33.9375 -1.421875 27.875 -1.421875 
Q 17.96875 -1.421875 11.734375 6.484375 
Q 5.515625 14.40625 5.515625 27.296875 
Q 5.515625 40.1875 11.734375 48.09375 
Q 17.96875 56 27.875 56 
Q 33.9375 56 38.25 53.625 
Q 42.578125 51.265625 45.40625 46.390625 
z
M 14.796875 27.296875 
Q 14.796875 17.390625 18.875 11.75 
Q 22.953125 6.109375 30.078125 6.109375 
Q 37.203125 6.109375 41.296875 11.75 
Q 45.40625 17.390625 45.40625 27.296875 
Q 45.40625 37.203125 41.296875 42.84375 
Q 37.203125 48.484375 30.078125 48.484375 
Q 22.953125 48.484375 18.875 42.84375 
Q 14.796875 37.203125 14.796875 27.296875 
z
" id="DejaVuSans-100"/>
    <path d="M 30.609375 48.390625 
Q 23.390625 48.390625 19.1875 42.75 
Q 14.984375 37.109375 14.984375 27.296875 
Q 14.984375 17.484375 19.15625 11.84375 
Q 23.34375 6.203125 30.609375 6.203125 
Q 37.796875 6.203125 41.984375 11.859375 
Q 46.1875 17.53125 46.1875 27.296875 
Q 46.1875 37.015625 41.984375 42.703125 
Q 37.796875 48.390625 30.609375 48.390625 
z
M 30.609375 56 
Q 42.328125 56 49.015625 48.375 
Q 55.71875 40.765625 55.71875 27.296875 
Q 55.71875 13.875 49.015625 6.21875 
Q 42.328125 -1.421875 30.609375 -1.421875 
Q 18.84375 -1.421875 12.171875 6.21875 
Q 5.515625 13.875 5.515625 27.296875 
Q 5.515625 40.765625 12.171875 48.375 
Q 18.84375 56 30.609375 56 
z
" id="DejaVuSans-111"/>
    <path d="M 8.5 21.578125 
L 8.5 54.6875 
L 17.484375 54.6875 
L 17.484375 21.921875 
Q 17.484375 14.15625 20.5 10.265625 
Q 23.53125 6.390625 29.59375 6.390625 
Q 36.859375 6.390625 41.078125 11.03125 
Q 45.3125 15.671875 45.3125 23.6875 
L 45.3125 54.6875 
L 54.296875 54.6875 
L 54.296875 0 
L 45.3125 0 
L 45.3125 8.40625 
Q 42.046875 3.421875 37.71875 1 
Q 33.40625 -1.421875 27.6875 -1.421875 
Q 18.265625 -1.421875 13.375 4.4375 
Q 8.5 10.296875 8.5 21.578125 
z
M 31.109375 56 
z
" id="DejaVuSans-117"/>
   </defs>
   <g transform="translate(585.9825 10.6275)scale(0.16 -0.16)">
    <use xlink:href="#DejaVuSans-80"/>
    <use x="60.302734" xlink:href="#DejaVuSans-49"/>
    <use x="123.925781" xlink:href="#DejaVuSans-95"/>
    <use x="173.925781" xlink:href="#DejaVuSans-56"/>
    <use x="237.548828" xlink:href="#DejaVuSans-48"/>
    <use x="301.171875" xlink:href="#DejaVuSans-95"/>
    <use x="351.171875" xlink:href="#DejaVuSans-50"/>
    <use x="414.794922" xlink:href="#DejaVuSans-48"/>
    <use x="478.417969" xlink:href="#DejaVuSans-44"/>
    <use x="510.205078" xlink:href="#DejaVuSans-32"/>
    <use x="541.992188" xlink:href="#DejaVuSans-82"/>
    <use x="611.443359" xlink:href="#DejaVuSans-97"/>
    <use x="672.722656" xlink:href="#DejaVuSans-119"/>
    <use x="754.509766" xlink:href="#DejaVuSans-32"/>
    <use x="786.296875" xlink:href="#DejaVuSans-118"/>
    <use x="845.476562" xlink:href="#DejaVuSans-115"/>
    <use x="897.576172" xlink:href="#DejaVuSans-32"/>
    <use x="929.363281" xlink:href="#DejaVuSans-70"/>
    <use x="986.773438" xlink:href="#DejaVuSans-105"/>
    <use x="1014.556641" xlink:href="#DejaVuSans-108"/>
    <use x="1042.339844" xlink:href="#DejaVuSans-116"/>
    <use x="1081.548828" xlink:href="#DejaVuSans-114"/>
    <use x="1122.662109" xlink:href="#DejaVuSans-97"/>
    <use x="1183.941406" xlink:href="#DejaVuSans-100"/>
    <use x="1247.417969" xlink:href="#DejaVuSans-111"/>
    <use x="1308.599609" xlink:href="#DejaVuSans-115"/>
    <use x="1360.699219" xlink:href="#DejaVuSans-32"/>
    <use x="1392.486328" xlink:href="#DejaVuSans-76"/>
    <use x="1448.199219" xlink:href="#DejaVuSans-97"/>
    <use x="1509.478516" xlink:href="#DejaVuSans-117"/>
    <use x="1572.857422" xlink:href="#DejaVuSans-114"/>
    <use x="1613.970703" xlink:href="#DejaVuSans-97"/>
   </g>
  </g>
 </g>
 <defs>
  <clipPath id="p52ef986f2b">
   <rect height="247.090909" width="368.888816" x="249.191956" y="86.4"/>
  </clipPath>
  <clipPath id="pd3562c2bbb">
   <rect height="247.090909" width="492.560302" x="796.083485" y="86.4"/>
  </clipPath>
  <clipPath id="p4c2d4b8dba">
   <rect height="247.090909" width="367.769094" x="249.751817" y="382.909091"/>
  </clipPath>
  <clipPath id="pfef5807776">
   <rect height="247.090909" width="492.254519" x="796.236377" y="382.909091"/>
  </clipPath>
 </defs>
</svg>
