<?xml version="1.0" encoding="utf-8" standalone="no"?>
<!DOCTYPE svg PUBLIC "-//W3C//DTD SVG 1.1//EN"
  "http://www.w3.org/Graphics/SVG/1.1/DTD/svg11.dtd">
<!-- Created with matplotlib (https://matplotlib.org/) -->
<svg height="1440pt" version="1.1" viewBox="0 0 1440 1440" width="1440pt" xmlns="http://www.w3.org/2000/svg" xmlns:xlink="http://www.w3.org/1999/xlink">
 <defs>
  <style type="text/css">
*{stroke-linecap:butt;stroke-linejoin:round;}
  </style>
 </defs>
 <g id="figure_1">
  <g id="patch_1">
   <path d="M 0 1440 
L 1440 1440 
L 1440 0 
L 0 0 
z
" style="fill:#ffffff;"/>
  </g>
  <g id="axes_1">
   <g id="patch_2">
    <path clip-path="url(#p092159812c)" d="M 355.701303 430.070336 
C 339.081884 419.82693 325.357916 405.497819 315.840711 388.452138 
C 306.323506 371.406457 301.326157 352.204966 301.326157 332.682353 
C 301.326157 313.15974 306.323506 293.958249 315.840711 276.912568 
C 325.357916 259.866887 339.081884 245.537776 355.701303 235.29437 
C 339.655261 228.576077 322.194789 225.926485 304.878032 227.582042 
C 287.561275 229.237598 270.919132 235.147546 256.43672 244.78449 
C 241.954309 254.421435 230.075633 267.489927 221.860727 282.823754 
C 213.64582 298.157581 209.346536 315.286637 209.346536 332.682353 
C 209.346536 350.078069 213.64582 367.207125 221.860727 382.540952 
C 230.075633 397.874779 241.954309 410.943271 256.43672 420.580215 
C 270.919132 430.21716 287.561275 436.127108 304.878032 437.782664 
C 322.194789 439.43822 339.655261 436.788629 355.701303 430.070336 
" style="fill:#ff0000;opacity:0.4;"/>
   </g>
   <g id="patch_3">
    <path clip-path="url(#p092159812c)" d="M 484.354436 241.152785 
C 498.565388 251.808006 510.101482 265.627858 518.045914 281.514044 
C 525.990346 297.40023 530.126935 314.920458 530.126935 332.682353 
C 530.126935 350.444247 525.990346 367.964476 518.045914 383.850662 
C 510.101482 399.736848 498.565388 413.5567 484.354436 424.21192 
C 501.014987 435.616205 520.47735 442.258024 540.633885 443.418114 
C 560.790419 444.578205 580.886274 440.213122 598.745207 430.795573 
C 616.604139 421.378025 631.557342 407.260694 641.985488 389.972389 
C 652.413633 372.684084 657.926191 352.872244 657.926191 332.682353 
C 657.926191 312.492462 652.413633 292.680622 641.985488 275.392317 
C 631.557342 258.104012 616.604139 243.986681 598.745207 234.569132 
C 580.886274 225.151584 560.790419 220.786501 540.633885 221.946591 
C 520.47735 223.106682 501.014987 229.748501 484.354436 241.152785 
" style="fill:#008000;opacity:0.4;"/>
   </g>
   <g id="patch_4">
    <path clip-path="url(#p092159812c)" d="M 355.701303 430.070336 
C 375.25281 442.120939 397.987423 448.009067 420.930548 446.964317 
C 443.873673 445.919567 465.979057 437.989582 484.354436 424.21192 
C 469.476615 414.02793 457.303797 400.368353 448.893957 384.420383 
C 440.484116 368.472412 436.088163 350.711862 436.088163 332.682353 
C 436.088163 314.652844 440.484116 296.892294 448.893957 280.944323 
C 457.303797 264.996353 469.476615 251.336776 484.354436 241.152785 
C 465.979057 227.375123 443.873673 219.445139 420.930548 218.400389 
C 397.987423 217.355639 375.25281 223.243766 355.701303 235.29437 
C 374.897301 243.331515 391.295187 256.867585 402.823935 274.193001 
C 414.352683 291.518416 420.505609 311.871729 420.505609 332.682353 
C 420.505609 353.492976 414.352683 373.84629 402.823935 391.171705 
C 391.295187 408.49712 374.897301 422.033191 355.701303 430.070336 
" style="fill:#0000ff;opacity:0.4;"/>
   </g>
   <g id="patch_5">
    <path clip-path="url(#p092159812c)" d="M 355.701303 430.070336 
C 374.897301 422.033191 391.295187 408.49712 402.823935 391.171705 
C 414.352683 373.84629 420.505609 353.492976 420.505609 332.682353 
C 420.505609 311.871729 414.352683 291.518416 402.823935 274.193001 
C 391.295187 256.867585 374.897301 243.331515 355.701303 235.29437 
C 339.081884 245.537776 325.357916 259.866887 315.840711 276.912568 
C 306.323506 293.958249 301.326157 313.15974 301.326157 332.682353 
C 301.326157 352.204966 306.323506 371.406457 315.840711 388.452138 
C 325.357916 405.497819 339.081884 419.82693 355.701303 430.070336 
" style="fill:#b200b2;opacity:0.4;"/>
   </g>
   <g id="patch_6">
    <path clip-path="url(#p092159812c)" d="M 484.354436 241.152785 
C 469.476615 251.336776 457.303797 264.996353 448.893957 280.944323 
C 440.484116 296.892294 436.088163 314.652844 436.088163 332.682353 
C 436.088163 350.711862 440.484116 368.472412 448.893957 384.420383 
C 457.303797 400.368353 469.476615 414.02793 484.354436 424.21192 
C 498.565388 413.5567 510.101482 399.736848 518.045914 383.850662 
C 525.990346 367.964476 530.126935 350.444247 530.126935 332.682353 
C 530.126935 314.920458 525.990346 297.40023 518.045914 281.514044 
C 510.101482 265.627858 498.565388 251.808006 484.354436 241.152785 
" style="fill:#0059b2;opacity:0.4;"/>
   </g>
   <g id="text_1">
    <!-- 142 -->
    <defs>
     <path d="M 12.40625 8.296875 
L 28.515625 8.296875 
L 28.515625 63.921875 
L 10.984375 60.40625 
L 10.984375 69.390625 
L 28.421875 72.90625 
L 38.28125 72.90625 
L 38.28125 8.296875 
L 54.390625 8.296875 
L 54.390625 0 
L 12.40625 0 
z
" id="DejaVuSans-49"/>
     <path d="M 37.796875 64.3125 
L 12.890625 25.390625 
L 37.796875 25.390625 
z
M 35.203125 72.90625 
L 47.609375 72.90625 
L 47.609375 25.390625 
L 58.015625 25.390625 
L 58.015625 17.1875 
L 47.609375 17.1875 
L 47.609375 0 
L 37.796875 0 
L 37.796875 17.1875 
L 4.890625 17.1875 
L 4.890625 26.703125 
z
" id="DejaVuSans-52"/>
     <path d="M 19.1875 8.296875 
L 53.609375 8.296875 
L 53.609375 0 
L 7.328125 0 
L 7.328125 8.296875 
Q 12.9375 14.109375 22.625 23.890625 
Q 32.328125 33.6875 34.8125 36.53125 
Q 39.546875 41.84375 41.421875 45.53125 
Q 43.3125 49.21875 43.3125 52.78125 
Q 43.3125 58.59375 39.234375 62.25 
Q 35.15625 65.921875 28.609375 65.921875 
Q 23.96875 65.921875 18.8125 64.3125 
Q 13.671875 62.703125 7.8125 59.421875 
L 7.8125 69.390625 
Q 13.765625 71.78125 18.9375 73 
Q 24.125 74.21875 28.421875 74.21875 
Q 39.75 74.21875 46.484375 68.546875 
Q 53.21875 62.890625 53.21875 53.421875 
Q 53.21875 48.921875 51.53125 44.890625 
Q 49.859375 40.875 45.40625 35.40625 
Q 44.1875 33.984375 37.640625 27.21875 
Q 31.109375 20.453125 19.1875 8.296875 
z
" id="DejaVuSans-50"/>
    </defs>
    <g transform="translate(245.792596 335.441728)scale(0.1 -0.1)">
     <use xlink:href="#DejaVuSans-49"/>
     <use x="63.623047" xlink:href="#DejaVuSans-52"/>
     <use x="127.246094" xlink:href="#DejaVuSans-50"/>
    </g>
   </g>
   <g id="text_2">
    <!-- 205 -->
    <defs>
     <path d="M 31.78125 66.40625 
Q 24.171875 66.40625 20.328125 58.90625 
Q 16.5 51.421875 16.5 36.375 
Q 16.5 21.390625 20.328125 13.890625 
Q 24.171875 6.390625 31.78125 6.390625 
Q 39.453125 6.390625 43.28125 13.890625 
Q 47.125 21.390625 47.125 36.375 
Q 47.125 51.421875 43.28125 58.90625 
Q 39.453125 66.40625 31.78125 66.40625 
z
M 31.78125 74.21875 
Q 44.046875 74.21875 50.515625 64.515625 
Q 56.984375 54.828125 56.984375 36.375 
Q 56.984375 17.96875 50.515625 8.265625 
Q 44.046875 -1.421875 31.78125 -1.421875 
Q 19.53125 -1.421875 13.0625 8.265625 
Q 6.59375 17.96875 6.59375 36.375 
Q 6.59375 54.828125 13.0625 64.515625 
Q 19.53125 74.21875 31.78125 74.21875 
z
" id="DejaVuSans-48"/>
     <path d="M 10.796875 72.90625 
L 49.515625 72.90625 
L 49.515625 64.59375 
L 19.828125 64.59375 
L 19.828125 46.734375 
Q 21.96875 47.46875 24.109375 47.828125 
Q 26.265625 48.1875 28.421875 48.1875 
Q 40.625 48.1875 47.75 41.5 
Q 54.890625 34.8125 54.890625 23.390625 
Q 54.890625 11.625 47.5625 5.09375 
Q 40.234375 -1.421875 26.90625 -1.421875 
Q 22.3125 -1.421875 17.546875 -0.640625 
Q 12.796875 0.140625 7.71875 1.703125 
L 7.71875 11.625 
Q 12.109375 9.234375 16.796875 8.0625 
Q 21.484375 6.890625 26.703125 6.890625 
Q 35.15625 6.890625 40.078125 11.328125 
Q 45.015625 15.765625 45.015625 23.390625 
Q 45.015625 31 40.078125 35.4375 
Q 35.15625 39.890625 26.703125 39.890625 
Q 22.75 39.890625 18.8125 39.015625 
Q 14.890625 38.140625 10.796875 36.28125 
z
" id="DejaVuSans-53"/>
    </defs>
    <g transform="translate(584.482813 335.441728)scale(0.1 -0.1)">
     <use xlink:href="#DejaVuSans-50"/>
     <use x="63.623047" xlink:href="#DejaVuSans-48"/>
     <use x="127.246094" xlink:href="#DejaVuSans-53"/>
    </g>
   </g>
   <g id="text_3">
    <!-- 96 -->
    <defs>
     <path d="M 10.984375 1.515625 
L 10.984375 10.5 
Q 14.703125 8.734375 18.5 7.8125 
Q 22.3125 6.890625 25.984375 6.890625 
Q 35.75 6.890625 40.890625 13.453125 
Q 46.046875 20.015625 46.78125 33.40625 
Q 43.953125 29.203125 39.59375 26.953125 
Q 35.25 24.703125 29.984375 24.703125 
Q 19.046875 24.703125 12.671875 31.3125 
Q 6.296875 37.9375 6.296875 49.421875 
Q 6.296875 60.640625 12.9375 67.421875 
Q 19.578125 74.21875 30.609375 74.21875 
Q 43.265625 74.21875 49.921875 64.515625 
Q 56.59375 54.828125 56.59375 36.375 
Q 56.59375 19.140625 48.40625 8.859375 
Q 40.234375 -1.421875 26.421875 -1.421875 
Q 22.703125 -1.421875 18.890625 -0.6875 
Q 15.09375 0.046875 10.984375 1.515625 
z
M 30.609375 32.421875 
Q 37.25 32.421875 41.125 36.953125 
Q 45.015625 41.5 45.015625 49.421875 
Q 45.015625 57.28125 41.125 61.84375 
Q 37.25 66.40625 30.609375 66.40625 
Q 23.96875 66.40625 20.09375 61.84375 
Q 16.21875 57.28125 16.21875 49.421875 
Q 16.21875 41.5 20.09375 36.953125 
Q 23.96875 32.421875 30.609375 32.421875 
z
" id="DejaVuSans-57"/>
     <path d="M 33.015625 40.375 
Q 26.375 40.375 22.484375 35.828125 
Q 18.609375 31.296875 18.609375 23.390625 
Q 18.609375 15.53125 22.484375 10.953125 
Q 26.375 6.390625 33.015625 6.390625 
Q 39.65625 6.390625 43.53125 10.953125 
Q 47.40625 15.53125 47.40625 23.390625 
Q 47.40625 31.296875 43.53125 35.828125 
Q 39.65625 40.375 33.015625 40.375 
z
M 52.59375 71.296875 
L 52.59375 62.3125 
Q 48.875 64.0625 45.09375 64.984375 
Q 41.3125 65.921875 37.59375 65.921875 
Q 27.828125 65.921875 22.671875 59.328125 
Q 17.53125 52.734375 16.796875 39.40625 
Q 19.671875 43.65625 24.015625 45.921875 
Q 28.375 48.1875 33.59375 48.1875 
Q 44.578125 48.1875 50.953125 41.515625 
Q 57.328125 34.859375 57.328125 23.390625 
Q 57.328125 12.15625 50.6875 5.359375 
Q 44.046875 -1.421875 33.015625 -1.421875 
Q 20.359375 -1.421875 13.671875 8.265625 
Q 6.984375 17.96875 6.984375 36.375 
Q 6.984375 53.65625 15.1875 63.9375 
Q 23.390625 74.21875 37.203125 74.21875 
Q 40.921875 74.21875 44.703125 73.484375 
Q 48.484375 72.75 52.59375 71.296875 
z
" id="DejaVuSans-54"/>
    </defs>
    <g transform="translate(418.822475 335.441728)scale(0.1 -0.1)">
     <use xlink:href="#DejaVuSans-57"/>
     <use x="63.623047" xlink:href="#DejaVuSans-54"/>
    </g>
   </g>
   <g id="text_4">
    <!-- 128 -->
    <defs>
     <path d="M 31.78125 34.625 
Q 24.75 34.625 20.71875 30.859375 
Q 16.703125 27.09375 16.703125 20.515625 
Q 16.703125 13.921875 20.71875 10.15625 
Q 24.75 6.390625 31.78125 6.390625 
Q 38.8125 6.390625 42.859375 10.171875 
Q 46.921875 13.96875 46.921875 20.515625 
Q 46.921875 27.09375 42.890625 30.859375 
Q 38.875 34.625 31.78125 34.625 
z
M 21.921875 38.8125 
Q 15.578125 40.375 12.03125 44.71875 
Q 8.5 49.078125 8.5 55.328125 
Q 8.5 64.0625 14.71875 69.140625 
Q 20.953125 74.21875 31.78125 74.21875 
Q 42.671875 74.21875 48.875 69.140625 
Q 55.078125 64.0625 55.078125 55.328125 
Q 55.078125 49.078125 51.53125 44.71875 
Q 48 40.375 41.703125 38.8125 
Q 48.828125 37.15625 52.796875 32.3125 
Q 56.78125 27.484375 56.78125 20.515625 
Q 56.78125 9.90625 50.3125 4.234375 
Q 43.84375 -1.421875 31.78125 -1.421875 
Q 19.734375 -1.421875 13.25 4.234375 
Q 6.78125 9.90625 6.78125 20.515625 
Q 6.78125 27.484375 10.78125 32.3125 
Q 14.796875 37.15625 21.921875 38.8125 
z
M 18.3125 54.390625 
Q 18.3125 48.734375 21.84375 45.5625 
Q 25.390625 42.390625 31.78125 42.390625 
Q 38.140625 42.390625 41.71875 45.5625 
Q 45.3125 48.734375 45.3125 54.390625 
Q 45.3125 60.0625 41.71875 63.234375 
Q 38.140625 66.40625 31.78125 66.40625 
Q 25.390625 66.40625 21.84375 63.234375 
Q 18.3125 60.0625 18.3125 54.390625 
z
" id="DejaVuSans-56"/>
    </defs>
    <g transform="translate(351.372133 335.441728)scale(0.1 -0.1)">
     <use xlink:href="#DejaVuSans-49"/>
     <use x="63.623047" xlink:href="#DejaVuSans-50"/>
     <use x="127.246094" xlink:href="#DejaVuSans-56"/>
    </g>
   </g>
   <g id="text_5">
    <!-- 93 -->
    <defs>
     <path d="M 40.578125 39.3125 
Q 47.65625 37.796875 51.625 33 
Q 55.609375 28.21875 55.609375 21.1875 
Q 55.609375 10.40625 48.1875 4.484375 
Q 40.765625 -1.421875 27.09375 -1.421875 
Q 22.515625 -1.421875 17.65625 -0.515625 
Q 12.796875 0.390625 7.625 2.203125 
L 7.625 11.71875 
Q 11.71875 9.328125 16.59375 8.109375 
Q 21.484375 6.890625 26.8125 6.890625 
Q 36.078125 6.890625 40.9375 10.546875 
Q 45.796875 14.203125 45.796875 21.1875 
Q 45.796875 27.640625 41.28125 31.265625 
Q 36.765625 34.90625 28.71875 34.90625 
L 20.21875 34.90625 
L 20.21875 43.015625 
L 29.109375 43.015625 
Q 36.375 43.015625 40.234375 45.921875 
Q 44.09375 48.828125 44.09375 54.296875 
Q 44.09375 59.90625 40.109375 62.90625 
Q 36.140625 65.921875 28.71875 65.921875 
Q 24.65625 65.921875 20.015625 65.03125 
Q 15.375 64.15625 9.8125 62.3125 
L 9.8125 71.09375 
Q 15.4375 72.65625 20.34375 73.4375 
Q 25.25 74.21875 29.59375 74.21875 
Q 40.828125 74.21875 47.359375 69.109375 
Q 53.90625 64.015625 53.90625 55.328125 
Q 53.90625 49.265625 50.4375 45.09375 
Q 46.96875 40.921875 40.578125 39.3125 
z
" id="DejaVuSans-51"/>
    </defs>
    <g transform="translate(476.745049 335.441728)scale(0.1 -0.1)">
     <use xlink:href="#DejaVuSans-57"/>
     <use x="63.623047" xlink:href="#DejaVuSans-51"/>
    </g>
   </g>
   <g id="text_6">
    <!-- TOP -->
    <defs>
     <path d="M -0.296875 72.90625 
L 61.375 72.90625 
L 61.375 64.59375 
L 35.5 64.59375 
L 35.5 0 
L 25.59375 0 
L 25.59375 64.59375 
L -0.296875 64.59375 
z
" id="DejaVuSans-84"/>
     <path d="M 39.40625 66.21875 
Q 28.65625 66.21875 22.328125 58.203125 
Q 16.015625 50.203125 16.015625 36.375 
Q 16.015625 22.609375 22.328125 14.59375 
Q 28.65625 6.59375 39.40625 6.59375 
Q 50.140625 6.59375 56.421875 14.59375 
Q 62.703125 22.609375 62.703125 36.375 
Q 62.703125 50.203125 56.421875 58.203125 
Q 50.140625 66.21875 39.40625 66.21875 
z
M 39.40625 74.21875 
Q 54.734375 74.21875 63.90625 63.9375 
Q 73.09375 53.65625 73.09375 36.375 
Q 73.09375 19.140625 63.90625 8.859375 
Q 54.734375 -1.421875 39.40625 -1.421875 
Q 24.03125 -1.421875 14.8125 8.828125 
Q 5.609375 19.09375 5.609375 36.375 
Q 5.609375 53.65625 14.8125 63.9375 
Q 24.03125 74.21875 39.40625 74.21875 
z
" id="DejaVuSans-79"/>
     <path d="M 19.671875 64.796875 
L 19.671875 37.40625 
L 32.078125 37.40625 
Q 38.96875 37.40625 42.71875 40.96875 
Q 46.484375 44.53125 46.484375 51.125 
Q 46.484375 57.671875 42.71875 61.234375 
Q 38.96875 64.796875 32.078125 64.796875 
z
M 9.8125 72.90625 
L 32.078125 72.90625 
Q 44.34375 72.90625 50.609375 67.359375 
Q 56.890625 61.8125 56.890625 51.125 
Q 56.890625 40.328125 50.609375 34.8125 
Q 44.34375 29.296875 32.078125 29.296875 
L 19.671875 29.296875 
L 19.671875 0 
L 9.8125 0 
z
" id="DejaVuSans-80"/>
    </defs>
    <g transform="translate(302.920448 458.409979)scale(0.12 -0.12)">
     <use xlink:href="#DejaVuSans-84"/>
     <use x="61.083984" xlink:href="#DejaVuSans-79"/>
     <use x="139.794922" xlink:href="#DejaVuSans-80"/>
    </g>
   </g>
   <g id="text_7">
    <!-- BTM -->
    <defs>
     <path d="M 19.671875 34.8125 
L 19.671875 8.109375 
L 35.5 8.109375 
Q 43.453125 8.109375 47.28125 11.40625 
Q 51.125 14.703125 51.125 21.484375 
Q 51.125 28.328125 47.28125 31.5625 
Q 43.453125 34.8125 35.5 34.8125 
z
M 19.671875 64.796875 
L 19.671875 42.828125 
L 34.28125 42.828125 
Q 41.5 42.828125 45.03125 45.53125 
Q 48.578125 48.25 48.578125 53.8125 
Q 48.578125 59.328125 45.03125 62.0625 
Q 41.5 64.796875 34.28125 64.796875 
z
M 9.8125 72.90625 
L 35.015625 72.90625 
Q 46.296875 72.90625 52.390625 68.21875 
Q 58.5 63.53125 58.5 54.890625 
Q 58.5 48.1875 55.375 44.234375 
Q 52.25 40.28125 46.1875 39.3125 
Q 53.46875 37.75 57.5 32.78125 
Q 61.53125 27.828125 61.53125 20.40625 
Q 61.53125 10.640625 54.890625 5.3125 
Q 48.25 0 35.984375 0 
L 9.8125 0 
z
" id="DejaVuSans-66"/>
     <path d="M 9.8125 72.90625 
L 24.515625 72.90625 
L 43.109375 23.296875 
L 61.8125 72.90625 
L 76.515625 72.90625 
L 76.515625 0 
L 66.890625 0 
L 66.890625 64.015625 
L 48.09375 14.015625 
L 38.1875 14.015625 
L 19.390625 64.015625 
L 19.390625 0 
L 9.8125 0 
z
" id="DejaVuSans-77"/>
    </defs>
    <g transform="translate(534.049052 463.749457)scale(0.12 -0.12)">
     <use xlink:href="#DejaVuSans-66"/>
     <use x="68.603516" xlink:href="#DejaVuSans-84"/>
     <use x="129.6875" xlink:href="#DejaVuSans-77"/>
    </g>
   </g>
   <g id="text_8">
    <!-- BURGOS -->
    <defs>
     <path d="M 8.6875 72.90625 
L 18.609375 72.90625 
L 18.609375 28.609375 
Q 18.609375 16.890625 22.84375 11.734375 
Q 27.09375 6.59375 36.625 6.59375 
Q 46.09375 6.59375 50.34375 11.734375 
Q 54.59375 16.890625 54.59375 28.609375 
L 54.59375 72.90625 
L 64.5 72.90625 
L 64.5 27.390625 
Q 64.5 13.140625 57.4375 5.859375 
Q 50.390625 -1.421875 36.625 -1.421875 
Q 22.796875 -1.421875 15.734375 5.859375 
Q 8.6875 13.140625 8.6875 27.390625 
z
" id="DejaVuSans-85"/>
     <path d="M 44.390625 34.1875 
Q 47.5625 33.109375 50.5625 29.59375 
Q 53.5625 26.078125 56.59375 19.921875 
L 66.609375 0 
L 56 0 
L 46.6875 18.703125 
Q 43.0625 26.03125 39.671875 28.421875 
Q 36.28125 30.8125 30.421875 30.8125 
L 19.671875 30.8125 
L 19.671875 0 
L 9.8125 0 
L 9.8125 72.90625 
L 32.078125 72.90625 
Q 44.578125 72.90625 50.734375 67.671875 
Q 56.890625 62.453125 56.890625 51.90625 
Q 56.890625 45.015625 53.6875 40.46875 
Q 50.484375 35.9375 44.390625 34.1875 
z
M 19.671875 64.796875 
L 19.671875 38.921875 
L 32.078125 38.921875 
Q 39.203125 38.921875 42.84375 42.21875 
Q 46.484375 45.515625 46.484375 51.90625 
Q 46.484375 58.296875 42.84375 61.546875 
Q 39.203125 64.796875 32.078125 64.796875 
z
" id="DejaVuSans-82"/>
     <path d="M 59.515625 10.40625 
L 59.515625 29.984375 
L 43.40625 29.984375 
L 43.40625 38.09375 
L 69.28125 38.09375 
L 69.28125 6.78125 
Q 63.578125 2.734375 56.6875 0.65625 
Q 49.8125 -1.421875 42 -1.421875 
Q 24.90625 -1.421875 15.25 8.5625 
Q 5.609375 18.5625 5.609375 36.375 
Q 5.609375 54.25 15.25 64.234375 
Q 24.90625 74.21875 42 74.21875 
Q 49.125 74.21875 55.546875 72.453125 
Q 61.96875 70.703125 67.390625 67.28125 
L 67.390625 56.78125 
Q 61.921875 61.421875 55.765625 63.765625 
Q 49.609375 66.109375 42.828125 66.109375 
Q 29.4375 66.109375 22.71875 58.640625 
Q 16.015625 51.171875 16.015625 36.375 
Q 16.015625 21.625 22.71875 14.15625 
Q 29.4375 6.6875 42.828125 6.6875 
Q 48.046875 6.6875 52.140625 7.59375 
Q 56.25 8.5 59.515625 10.40625 
z
" id="DejaVuSans-71"/>
     <path d="M 53.515625 70.515625 
L 53.515625 60.890625 
Q 47.90625 63.578125 42.921875 64.890625 
Q 37.9375 66.21875 33.296875 66.21875 
Q 25.25 66.21875 20.875 63.09375 
Q 16.5 59.96875 16.5 54.203125 
Q 16.5 49.359375 19.40625 46.890625 
Q 22.3125 44.4375 30.421875 42.921875 
L 36.375 41.703125 
Q 47.40625 39.59375 52.65625 34.296875 
Q 57.90625 29 57.90625 20.125 
Q 57.90625 9.515625 50.796875 4.046875 
Q 43.703125 -1.421875 29.984375 -1.421875 
Q 24.8125 -1.421875 18.96875 -0.25 
Q 13.140625 0.921875 6.890625 3.21875 
L 6.890625 13.375 
Q 12.890625 10.015625 18.65625 8.296875 
Q 24.421875 6.59375 29.984375 6.59375 
Q 38.421875 6.59375 43.015625 9.90625 
Q 47.609375 13.234375 47.609375 19.390625 
Q 47.609375 24.75 44.3125 27.78125 
Q 41.015625 30.8125 33.5 32.328125 
L 27.484375 33.5 
Q 16.453125 35.6875 11.515625 40.375 
Q 6.59375 45.0625 6.59375 53.421875 
Q 6.59375 63.09375 13.40625 68.65625 
Q 20.21875 74.21875 32.171875 74.21875 
Q 37.3125 74.21875 42.625 73.28125 
Q 47.953125 72.359375 53.515625 70.515625 
z
" id="DejaVuSans-83"/>
    </defs>
    <g transform="translate(389.868421 467.230831)scale(0.12 -0.12)">
     <use xlink:href="#DejaVuSans-66"/>
     <use x="68.603516" xlink:href="#DejaVuSans-85"/>
     <use x="141.796875" xlink:href="#DejaVuSans-82"/>
     <use x="211.279297" xlink:href="#DejaVuSans-71"/>
     <use x="288.769531" xlink:href="#DejaVuSans-79"/>
     <use x="367.480469" xlink:href="#DejaVuSans-83"/>
    </g>
   </g>
   <g id="text_9">
    <!-- BURGOS vs MIX P150 -->
    <defs>
     <path id="DejaVuSans-32"/>
     <path d="M 2.984375 54.6875 
L 12.5 54.6875 
L 29.59375 8.796875 
L 46.6875 54.6875 
L 56.203125 54.6875 
L 35.6875 0 
L 23.484375 0 
z
" id="DejaVuSans-118"/>
     <path d="M 44.28125 53.078125 
L 44.28125 44.578125 
Q 40.484375 46.53125 36.375 47.5 
Q 32.28125 48.484375 27.875 48.484375 
Q 21.1875 48.484375 17.84375 46.4375 
Q 14.5 44.390625 14.5 40.28125 
Q 14.5 37.15625 16.890625 35.375 
Q 19.28125 33.59375 26.515625 31.984375 
L 29.59375 31.296875 
Q 39.15625 29.25 43.1875 25.515625 
Q 47.21875 21.78125 47.21875 15.09375 
Q 47.21875 7.46875 41.1875 3.015625 
Q 35.15625 -1.421875 24.609375 -1.421875 
Q 20.21875 -1.421875 15.453125 -0.5625 
Q 10.6875 0.296875 5.421875 2 
L 5.421875 11.28125 
Q 10.40625 8.6875 15.234375 7.390625 
Q 20.0625 6.109375 24.8125 6.109375 
Q 31.15625 6.109375 34.5625 8.28125 
Q 37.984375 10.453125 37.984375 14.40625 
Q 37.984375 18.0625 35.515625 20.015625 
Q 33.0625 21.96875 24.703125 23.78125 
L 21.578125 24.515625 
Q 13.234375 26.265625 9.515625 29.90625 
Q 5.8125 33.546875 5.8125 39.890625 
Q 5.8125 47.609375 11.28125 51.796875 
Q 16.75 56 26.8125 56 
Q 31.78125 56 36.171875 55.265625 
Q 40.578125 54.546875 44.28125 53.078125 
z
" id="DejaVuSans-115"/>
     <path d="M 9.8125 72.90625 
L 19.671875 72.90625 
L 19.671875 0 
L 9.8125 0 
z
" id="DejaVuSans-73"/>
     <path d="M 6.296875 72.90625 
L 16.890625 72.90625 
L 35.015625 45.796875 
L 53.21875 72.90625 
L 63.8125 72.90625 
L 40.375 37.890625 
L 65.375 0 
L 54.78125 0 
L 34.28125 31 
L 13.625 0 
L 2.984375 0 
L 29 38.921875 
z
" id="DejaVuSans-88"/>
    </defs>
    <g transform="translate(369.253551 182.935428)scale(0.12 -0.12)">
     <use xlink:href="#DejaVuSans-66"/>
     <use x="68.603516" xlink:href="#DejaVuSans-85"/>
     <use x="141.796875" xlink:href="#DejaVuSans-82"/>
     <use x="211.279297" xlink:href="#DejaVuSans-71"/>
     <use x="288.769531" xlink:href="#DejaVuSans-79"/>
     <use x="367.480469" xlink:href="#DejaVuSans-83"/>
     <use x="430.957031" xlink:href="#DejaVuSans-32"/>
     <use x="462.744141" xlink:href="#DejaVuSans-118"/>
     <use x="521.923828" xlink:href="#DejaVuSans-115"/>
     <use x="574.023438" xlink:href="#DejaVuSans-32"/>
     <use x="605.810547" xlink:href="#DejaVuSans-77"/>
     <use x="692.089844" xlink:href="#DejaVuSans-73"/>
     <use x="721.582031" xlink:href="#DejaVuSans-88"/>
     <use x="790.087891" xlink:href="#DejaVuSans-32"/>
     <use x="821.875" xlink:href="#DejaVuSans-80"/>
     <use x="882.177734" xlink:href="#DejaVuSans-49"/>
     <use x="945.800781" xlink:href="#DejaVuSans-53"/>
     <use x="1009.423828" xlink:href="#DejaVuSans-48"/>
    </g>
   </g>
  </g>
  <g id="axes_2">
   <g id="patch_7">
    <path clip-path="url(#p0c0377da97)" d="M 972.242871 425.537159 
C 958.527386 414.26081 947.479171 400.084428 939.89467 384.02996 
C 932.310169 367.975492 928.37612 350.438214 928.37612 332.682353 
C 928.37612 314.926492 932.310169 297.389214 939.89467 281.334746 
C 947.479171 265.280278 958.527386 251.103896 972.242871 239.827547 
C 956.245061 231.388538 938.334573 227.225384 920.25479 227.743321 
C 902.175008 228.261258 884.532223 233.442917 869.043762 242.783923 
C 853.555301 252.124928 840.740559 265.312036 831.846904 281.06163 
C 822.95325 296.811224 818.278927 314.595153 818.278927 332.682353 
C 818.278927 350.769553 822.95325 368.553482 831.846904 384.303076 
C 840.740559 400.05267 853.555301 413.239778 869.043762 422.580783 
C 884.532223 431.921789 902.175008 437.103448 920.25479 437.621385 
C 938.334573 438.139322 956.245061 433.976168 972.242871 425.537159 
" style="fill:#ff0000;opacity:0.4;"/>
   </g>
   <g id="patch_8">
    <path clip-path="url(#p0c0377da97)" d="M 1112.995645 231.187139 
C 1130.090302 242.035785 1144.170256 257.029455 1153.92406 274.7716 
C 1163.677865 292.513744 1168.792985 312.435862 1168.792985 332.682353 
C 1168.792985 352.928844 1163.677865 372.850962 1153.92406 390.593106 
C 1144.170256 408.335251 1130.090302 423.328921 1112.995645 434.177566 
C 1129.766265 441.309357 1148.045966 444.174542 1166.194392 442.516008 
C 1184.342818 440.857473 1201.800373 434.726361 1217.000476 424.672855 
C 1232.200579 414.619348 1244.674543 400.953443 1253.302998 384.901469 
C 1261.931453 368.849495 1266.448346 350.906406 1266.448346 332.682353 
C 1266.448346 314.4583 1261.931453 296.515211 1253.302998 280.463237 
C 1244.674543 264.411263 1232.200579 250.745357 1217.000476 240.691851 
C 1201.800373 230.638345 1184.342818 224.507233 1166.194392 222.848698 
C 1148.045966 221.190164 1129.766265 224.055348 1112.995645 231.187139 
" style="fill:#008000;opacity:0.4;"/>
   </g>
   <g id="patch_9">
    <path clip-path="url(#p0c0377da97)" d="M 972.242871 425.537159 
C 991.800655 441.616823 1015.947527 451.113575 1041.219168 452.664928 
C 1066.490808 454.216281 1091.617953 447.74432 1112.995645 434.177566 
C 1093.086361 425.711042 1076.101544 411.57067 1064.166499 393.525828 
C 1052.231453 375.480987 1045.865655 354.317085 1045.865655 332.682353 
C 1045.865655 311.047621 1052.231453 289.883719 1064.166499 271.838878 
C 1076.101544 253.794036 1093.086361 239.653664 1112.995645 231.187139 
C 1091.617953 217.620386 1066.490808 211.148424 1041.219168 212.699778 
C 1015.947527 214.251131 991.800655 223.747883 972.242871 239.827547 
C 989.142424 248.742234 1003.291914 262.103612 1013.15944 278.465105 
C 1023.026966 294.826598 1028.243093 313.575639 1028.243093 332.682353 
C 1028.243093 351.789067 1023.026966 370.538108 1013.15944 386.899601 
C 1003.291914 403.261094 989.142424 416.622472 972.242871 425.537159 
" style="fill:#0000ff;opacity:0.4;"/>
   </g>
   <g id="patch_10">
    <path clip-path="url(#p0c0377da97)" d="M 972.242871 425.537159 
C 989.142424 416.622472 1003.291914 403.261094 1013.15944 386.899601 
C 1023.026966 370.538108 1028.243093 351.789067 1028.243093 332.682353 
C 1028.243093 313.575639 1023.026966 294.826598 1013.15944 278.465105 
C 1003.291914 262.103612 989.142424 248.742234 972.242871 239.827547 
C 958.527386 251.103896 947.479171 265.280278 939.89467 281.334746 
C 932.310169 297.389214 928.37612 314.926492 928.37612 332.682353 
C 928.37612 350.438214 932.310169 367.975492 939.89467 384.02996 
C 947.479171 400.084428 958.527386 414.26081 972.242871 425.537159 
" style="fill:#b200b2;opacity:0.4;"/>
   </g>
   <g id="patch_11">
    <path clip-path="url(#p0c0377da97)" d="M 1112.995645 231.187139 
C 1093.086361 239.653664 1076.101544 253.794036 1064.166499 271.838878 
C 1052.231453 289.883719 1045.865655 311.047621 1045.865655 332.682353 
C 1045.865655 354.317085 1052.231453 375.480987 1064.166499 393.525828 
C 1076.101544 411.57067 1093.086361 425.711042 1112.995645 434.177566 
C 1130.090302 423.328921 1144.170256 408.335251 1153.92406 390.593106 
C 1163.677865 372.850962 1168.792985 352.928844 1168.792985 332.682353 
C 1168.792985 312.435862 1163.677865 292.513744 1153.92406 274.7716 
C 1144.170256 257.029455 1130.090302 242.035785 1112.995645 231.187139 
" style="fill:#0059b2;opacity:0.4;"/>
   </g>
   <g id="text_10">
    <!-- 168 -->
    <g transform="translate(863.783773 335.441728)scale(0.1 -0.1)">
     <use xlink:href="#DejaVuSans-49"/>
     <use x="63.623047" xlink:href="#DejaVuSans-54"/>
     <use x="127.246094" xlink:href="#DejaVuSans-56"/>
    </g>
   </g>
   <g id="text_11">
    <!-- 159 -->
    <g transform="translate(1208.076915 335.441728)scale(0.1 -0.1)">
     <use xlink:href="#DejaVuSans-49"/>
     <use x="63.623047" xlink:href="#DejaVuSans-53"/>
     <use x="127.246094" xlink:href="#DejaVuSans-57"/>
    </g>
   </g>
   <g id="text_12">
    <!-- 113 -->
    <g transform="translate(1029.208375 335.441728)scale(0.1 -0.1)">
     <use xlink:href="#DejaVuSans-49"/>
     <use x="63.623047" xlink:href="#DejaVuSans-49"/>
     <use x="127.246094" xlink:href="#DejaVuSans-51"/>
    </g>
   </g>
   <g id="text_13">
    <!-- 102 -->
    <g transform="translate(968.765856 335.441728)scale(0.1 -0.1)">
     <use xlink:href="#DejaVuSans-49"/>
     <use x="63.623047" xlink:href="#DejaVuSans-48"/>
     <use x="127.246094" xlink:href="#DejaVuSans-50"/>
    </g>
   </g>
   <g id="text_14">
    <!-- 139 -->
    <g transform="translate(1097.78557 335.441728)scale(0.1 -0.1)">
     <use xlink:href="#DejaVuSans-49"/>
     <use x="63.623047" xlink:href="#DejaVuSans-51"/>
     <use x="127.246094" xlink:href="#DejaVuSans-57"/>
    </g>
   </g>
   <g id="text_15">
    <!-- TOP -->
    <g transform="translate(911.255385 457.96529)scale(0.12 -0.12)">
     <use xlink:href="#DejaVuSans-84"/>
     <use x="61.083984" xlink:href="#DejaVuSans-79"/>
     <use x="139.794922" xlink:href="#DejaVuSans-80"/>
    </g>
   </g>
   <g id="text_16">
    <!-- BTM -->
    <g transform="translate(1143.198875 463.274552)scale(0.12 -0.12)">
     <use xlink:href="#DejaVuSans-66"/>
     <use x="68.603516" xlink:href="#DejaVuSans-84"/>
     <use x="129.6875" xlink:href="#DejaVuSans-77"/>
    </g>
   </g>
   <g id="text_17">
    <!-- PAREDES -->
    <defs>
     <path d="M 34.1875 63.1875 
L 20.796875 26.90625 
L 47.609375 26.90625 
z
M 28.609375 72.90625 
L 39.796875 72.90625 
L 67.578125 0 
L 57.328125 0 
L 50.6875 18.703125 
L 17.828125 18.703125 
L 11.1875 0 
L 0.78125 0 
z
" id="DejaVuSans-65"/>
     <path d="M 9.8125 72.90625 
L 55.90625 72.90625 
L 55.90625 64.59375 
L 19.671875 64.59375 
L 19.671875 43.015625 
L 54.390625 43.015625 
L 54.390625 34.71875 
L 19.671875 34.71875 
L 19.671875 8.296875 
L 56.78125 8.296875 
L 56.78125 0 
L 9.8125 0 
z
" id="DejaVuSans-69"/>
     <path d="M 19.671875 64.796875 
L 19.671875 8.109375 
L 31.59375 8.109375 
Q 46.6875 8.109375 53.6875 14.9375 
Q 60.6875 21.78125 60.6875 36.53125 
Q 60.6875 51.171875 53.6875 57.984375 
Q 46.6875 64.796875 31.59375 64.796875 
z
M 9.8125 72.90625 
L 30.078125 72.90625 
Q 51.265625 72.90625 61.171875 64.09375 
Q 71.09375 55.28125 71.09375 36.53125 
Q 71.09375 17.671875 61.125 8.828125 
Q 51.171875 0 30.078125 0 
L 9.8125 0 
z
" id="DejaVuSans-68"/>
    </defs>
    <g transform="translate(1020.687365 473.191639)scale(0.12 -0.12)">
     <use xlink:href="#DejaVuSans-80"/>
     <use x="60.208984" xlink:href="#DejaVuSans-65"/>
     <use x="128.617188" xlink:href="#DejaVuSans-82"/>
     <use x="198.099609" xlink:href="#DejaVuSans-69"/>
     <use x="261.283203" xlink:href="#DejaVuSans-68"/>
     <use x="338.285156" xlink:href="#DejaVuSans-69"/>
     <use x="401.46875" xlink:href="#DejaVuSans-83"/>
    </g>
   </g>
   <g id="text_18">
    <!-- PAREDES vs MIX P150 -->
    <g transform="translate(975.941761 176.922266)scale(0.12 -0.12)">
     <use xlink:href="#DejaVuSans-80"/>
     <use x="60.208984" xlink:href="#DejaVuSans-65"/>
     <use x="128.617188" xlink:href="#DejaVuSans-82"/>
     <use x="198.099609" xlink:href="#DejaVuSans-69"/>
     <use x="261.283203" xlink:href="#DejaVuSans-68"/>
     <use x="338.285156" xlink:href="#DejaVuSans-69"/>
     <use x="401.46875" xlink:href="#DejaVuSans-83"/>
     <use x="464.945312" xlink:href="#DejaVuSans-32"/>
     <use x="496.732422" xlink:href="#DejaVuSans-118"/>
     <use x="555.912109" xlink:href="#DejaVuSans-115"/>
     <use x="608.011719" xlink:href="#DejaVuSans-32"/>
     <use x="639.798828" xlink:href="#DejaVuSans-77"/>
     <use x="726.078125" xlink:href="#DejaVuSans-73"/>
     <use x="755.570312" xlink:href="#DejaVuSans-88"/>
     <use x="824.076172" xlink:href="#DejaVuSans-32"/>
     <use x="855.863281" xlink:href="#DejaVuSans-80"/>
     <use x="916.166016" xlink:href="#DejaVuSans-49"/>
     <use x="979.789062" xlink:href="#DejaVuSans-53"/>
     <use x="1043.412109" xlink:href="#DejaVuSans-48"/>
    </g>
   </g>
  </g>
  <g id="axes_3">
   <g id="patch_12">
    <path clip-path="url(#p6cf0229492)" d="M 345.380059 843.590066 
C 317.690704 835.753795 293.303444 819.085857 275.945388 796.133615 
C 258.587332 773.181374 249.190223 745.176857 249.190223 716.4 
C 249.190223 687.623143 258.587332 659.618626 275.945388 636.666385 
C 293.303444 613.714143 317.690704 597.046205 345.380059 589.209934 
C 312.572626 590.573086 281.532134 604.57827 258.800815 628.273691 
C 236.069496 651.969112 223.365009 683.56426 223.365009 716.4 
C 223.365009 749.23574 236.069496 780.830888 258.800815 804.526309 
C 281.532134 828.22173 312.572626 842.226914 345.380059 843.590066 
" style="fill:#ff0000;opacity:0.4;"/>
   </g>
   <g id="patch_13">
    <path clip-path="url(#p6cf0229492)" d="M 508.633229 680.643629 
C 511.903047 692.280965 513.561163 704.312019 513.561163 716.4 
C 513.561163 728.487981 511.903047 740.519035 508.633229 752.156371 
C 512.552479 759.052101 517.578957 765.256768 523.51123 770.521723 
C 529.443503 775.786677 536.201254 780.040638 543.513668 783.113129 
C 550.826083 786.18562 558.59416 788.035043 566.506596 788.587283 
C 574.419031 789.139523 582.368701 788.387103 590.037024 786.360177 
C 597.705347 784.333251 604.988503 781.05926 611.594623 776.669409 
C 618.200743 772.279558 624.040386 766.833281 628.879532 760.548834 
C 633.718679 754.264387 637.49181 747.226855 640.047722 739.718265 
C 642.603633 732.209674 643.907718 724.331684 643.907718 716.4 
C 643.907718 708.468316 642.603633 700.590326 640.047722 693.081735 
C 637.49181 685.573145 633.718679 678.535613 628.879532 672.251166 
C 624.040386 665.966719 618.200743 660.520442 611.594623 656.130591 
C 604.988503 651.74074 597.705347 648.466749 590.037024 646.439823 
C 582.368701 644.412897 574.419031 643.660477 566.506596 644.212717 
C 558.59416 644.764957 550.826083 646.61438 543.513668 649.686871 
C 536.201254 652.759362 529.443503 657.013323 523.51123 662.278277 
C 517.578957 667.543232 512.552479 673.747899 508.633229 680.643629 
" style="fill:#008000;opacity:0.4;"/>
   </g>
   <g id="patch_14">
    <path clip-path="url(#p6cf0229492)" d="M 345.380059 843.590066 
C 362.10263 848.322665 379.595544 849.711183 396.855317 847.675968 
C 414.11509 845.640753 430.805252 840.221481 445.968369 831.729028 
C 461.131487 823.236575 474.471961 811.836499 485.224516 798.182765 
C 495.97707 784.529031 503.932088 768.887813 508.633229 752.156371 
C 502.43918 741.258242 499.181942 728.935368 499.181942 716.4 
C 499.181942 703.864632 502.43918 691.541758 508.633229 680.643629 
C 503.932088 663.912187 495.97707 648.270969 485.224516 634.617235 
C 474.471961 620.963501 461.131487 609.563425 445.968369 601.070972 
C 430.805252 592.578519 414.11509 587.159247 396.855317 585.124032 
C 379.595544 583.088817 362.10263 584.477335 345.380059 589.209934 
C 362.526978 588.497478 379.642223 591.259774 395.6944 597.330363 
C 411.746577 603.400952 426.406633 612.655393 438.791128 624.535996 
C 451.175622 636.416599 461.030686 650.679825 467.762436 666.466148 
C 474.494186 682.25247 477.964629 699.238286 477.964629 716.4 
C 477.964629 733.561714 474.494186 750.54753 467.762436 766.333852 
C 461.030686 782.120175 451.175622 796.383401 438.791128 808.264004 
C 426.406633 820.144607 411.746577 829.399048 395.6944 835.469637 
C 379.642223 841.540226 362.526978 844.302522 345.380059 843.590066 
" style="fill:#0000ff;opacity:0.4;"/>
   </g>
   <g id="patch_15">
    <path clip-path="url(#p6cf0229492)" d="M 345.380059 843.590066 
C 362.526978 844.302522 379.642223 841.540226 395.6944 835.469637 
C 411.746577 829.399048 426.406633 820.144607 438.791128 808.264004 
C 451.175622 796.383401 461.030686 782.120175 467.762436 766.333852 
C 474.494186 750.54753 477.964629 733.561714 477.964629 716.4 
C 477.964629 699.238286 474.494186 682.25247 467.762436 666.466148 
C 461.030686 650.679825 451.175622 636.416599 438.791128 624.535996 
C 426.406633 612.655393 411.746577 603.400952 395.6944 597.330363 
C 379.642223 591.259774 362.526978 588.497478 345.380059 589.209934 
C 317.690704 597.046205 293.303444 613.714143 275.945388 636.666385 
C 258.587332 659.618626 249.190223 687.623143 249.190223 716.4 
C 249.190223 745.176857 258.587332 773.181374 275.945388 796.133615 
C 293.303444 819.085857 317.690704 835.753795 345.380059 843.590066 
" style="fill:#b200b2;opacity:0.4;"/>
   </g>
   <g id="patch_16">
    <path clip-path="url(#p6cf0229492)" d="M 508.633229 680.643629 
C 502.43918 691.541758 499.181942 703.864632 499.181942 716.4 
C 499.181942 728.935368 502.43918 741.258242 508.633229 752.156371 
C 511.903047 740.519035 513.561163 728.487981 513.561163 716.4 
C 513.561163 704.312019 511.903047 692.280965 508.633229 680.643629 
" style="fill:#0059b2;opacity:0.4;"/>
   </g>
   <g id="text_19">
    <!-- 35 -->
    <g transform="translate(229.915116 719.159375)scale(0.1 -0.1)">
     <use xlink:href="#DejaVuSans-51"/>
     <use x="63.623047" xlink:href="#DejaVuSans-53"/>
    </g>
   </g>
   <g id="text_20">
    <!-- 91 -->
    <g transform="translate(572.371941 719.159375)scale(0.1 -0.1)">
     <use xlink:href="#DejaVuSans-57"/>
     <use x="63.623047" xlink:href="#DejaVuSans-49"/>
    </g>
   </g>
   <g id="text_21">
    <!-- 54 -->
    <g transform="translate(460.971151 719.159375)scale(0.1 -0.1)">
     <use xlink:href="#DejaVuSans-53"/>
     <use x="63.623047" xlink:href="#DejaVuSans-52"/>
    </g>
   </g>
   <g id="text_22">
    <!-- 259 -->
    <g transform="translate(354.033676 719.159375)scale(0.1 -0.1)">
     <use xlink:href="#DejaVuSans-50"/>
     <use x="63.623047" xlink:href="#DejaVuSans-53"/>
     <use x="127.246094" xlink:href="#DejaVuSans-57"/>
    </g>
   </g>
   <g id="text_23">
    <!-- 4 -->
    <g transform="translate(503.190303 719.159375)scale(0.1 -0.1)">
     <use xlink:href="#DejaVuSans-52"/>
    </g>
   </g>
   <g id="text_24">
    <!-- TOP -->
    <g transform="translate(338.659194 863.87954)scale(0.12 -0.12)">
     <use xlink:href="#DejaVuSans-84"/>
     <use x="61.083984" xlink:href="#DejaVuSans-79"/>
     <use x="139.794922" xlink:href="#DejaVuSans-80"/>
    </g>
   </g>
   <g id="text_25">
    <!-- BTM -->
    <g transform="translate(558.586705 808.942619)scale(0.12 -0.12)">
     <use xlink:href="#DejaVuSans-66"/>
     <use x="68.603516" xlink:href="#DejaVuSans-84"/>
     <use x="129.6875" xlink:href="#DejaVuSans-77"/>
    </g>
   </g>
   <g id="text_26">
    <!-- BURGOS -->
    <g transform="translate(355.517568 868.765201)scale(0.12 -0.12)">
     <use xlink:href="#DejaVuSans-66"/>
     <use x="68.603516" xlink:href="#DejaVuSans-85"/>
     <use x="141.796875" xlink:href="#DejaVuSans-82"/>
     <use x="211.279297" xlink:href="#DejaVuSans-71"/>
     <use x="288.769531" xlink:href="#DejaVuSans-79"/>
     <use x="367.480469" xlink:href="#DejaVuSans-83"/>
    </g>
   </g>
   <g id="text_27">
    <!-- BURGOS vs MIX P180 -->
    <g transform="translate(369.253551 550.517647)scale(0.12 -0.12)">
     <use xlink:href="#DejaVuSans-66"/>
     <use x="68.603516" xlink:href="#DejaVuSans-85"/>
     <use x="141.796875" xlink:href="#DejaVuSans-82"/>
     <use x="211.279297" xlink:href="#DejaVuSans-71"/>
     <use x="288.769531" xlink:href="#DejaVuSans-79"/>
     <use x="367.480469" xlink:href="#DejaVuSans-83"/>
     <use x="430.957031" xlink:href="#DejaVuSans-32"/>
     <use x="462.744141" xlink:href="#DejaVuSans-118"/>
     <use x="521.923828" xlink:href="#DejaVuSans-115"/>
     <use x="574.023438" xlink:href="#DejaVuSans-32"/>
     <use x="605.810547" xlink:href="#DejaVuSans-77"/>
     <use x="692.089844" xlink:href="#DejaVuSans-73"/>
     <use x="721.582031" xlink:href="#DejaVuSans-88"/>
     <use x="790.087891" xlink:href="#DejaVuSans-32"/>
     <use x="821.875" xlink:href="#DejaVuSans-80"/>
     <use x="882.177734" xlink:href="#DejaVuSans-49"/>
     <use x="945.800781" xlink:href="#DejaVuSans-56"/>
     <use x="1009.423828" xlink:href="#DejaVuSans-48"/>
    </g>
   </g>
  </g>
  <g id="axes_4">
   <g id="patch_17">
    <path clip-path="url(#pd6051bab88)" d="M 997.738758 735.146959 
C 996.578699 728.965394 995.994912 722.689474 995.994912 716.4 
C 995.994912 710.110526 996.578699 703.834606 997.738758 697.653041 
C 995.437552 686.518309 991.105694 675.901865 984.960257 666.335705 
C 978.81482 656.769545 970.960198 648.416175 961.789992 641.694186 
C 952.619786 634.972197 942.289774 629.995779 931.3176 627.014304 
C 920.345425 624.032828 908.917477 623.096943 897.606417 624.253546 
C 886.295357 625.410148 875.29333 628.639591 865.151657 633.780045 
C 855.009983 638.920499 845.900942 645.88464 838.280995 654.323491 
C 830.661048 662.762343 824.659637 672.53255 820.577497 683.144522 
C 816.495358 693.756494 814.401834 705.02996 814.401834 716.4 
C 814.401834 727.77004 816.495358 739.043506 820.577497 749.655478 
C 824.659637 760.26745 830.661048 770.037657 838.280995 778.476509 
C 845.900942 786.91536 855.009983 793.879501 865.151657 799.019955 
C 875.29333 804.160409 886.295357 807.389852 897.606417 808.546454 
C 908.917477 809.703057 920.345425 808.767172 931.3176 805.785696 
C 942.289774 802.804221 952.619786 797.827803 961.789992 791.105814 
C 970.960198 784.383825 978.81482 776.030455 984.960257 766.464295 
C 991.105694 756.898135 995.437552 746.281691 997.738758 735.146959 
" style="fill:#ff0000;opacity:0.4;"/>
   </g>
   <g id="patch_18">
    <path clip-path="url(#pd6051bab88)" d="M 1189.137003 672.149428 
C 1195.809092 685.946066 1199.275203 701.074727 1199.275203 716.4 
C 1199.275203 731.725273 1195.809092 746.853934 1189.137003 760.650572 
C 1197.088411 765.778069 1206.276785 768.668822 1215.731653 769.017512 
C 1225.186522 769.366202 1234.562864 767.160105 1242.870357 762.632227 
C 1251.17785 758.104349 1258.113343 751.419919 1262.944312 743.284942 
C 1267.775281 735.149964 1270.325439 725.861296 1270.325439 716.4 
C 1270.325439 706.938704 1267.775281 697.650036 1262.944312 689.515058 
C 1258.113343 681.380081 1251.17785 674.695651 1242.870357 670.167773 
C 1234.562864 665.639895 1225.186522 663.433798 1215.731653 663.782488 
C 1206.276785 664.131178 1197.088411 667.021931 1189.137003 672.149428 
" style="fill:#008000;opacity:0.4;"/>
   </g>
   <g id="patch_19">
    <path clip-path="url(#pd6051bab88)" d="M 997.738758 735.146959 
C 1001.6849 756.174636 1012.171404 775.428962 1027.695599 790.150873 
C 1043.219793 804.872784 1063.002966 814.32381 1084.210272 817.149662 
C 1105.417578 819.975513 1126.985234 816.03444 1145.822685 805.891182 
C 1164.660137 795.747924 1179.822476 779.91128 1189.137003 760.650572 
C 1181.738336 755.879513 1175.653052 749.328199 1171.439929 741.598201 
C 1167.226807 733.868203 1165.018874 725.203594 1165.018874 716.4 
C 1165.018874 707.596406 1167.226807 698.931797 1171.439929 691.201799 
C 1175.653052 683.471801 1181.738336 676.920487 1189.137003 672.149428 
C 1179.822476 652.88872 1164.660137 637.052076 1145.822685 626.908818 
C 1126.985234 616.76556 1105.417578 612.824487 1084.210272 615.650338 
C 1063.002966 618.47619 1043.219793 627.927216 1027.695599 642.649127 
C 1012.171404 657.371038 1001.6849 676.625364 997.738758 697.653041 
C 999.013402 703.820598 999.655712 710.102105 999.655712 716.4 
C 999.655712 722.697895 999.013402 728.979402 997.738758 735.146959 
" style="fill:#0000ff;opacity:0.4;"/>
   </g>
   <g id="patch_20">
    <path clip-path="url(#pd6051bab88)" d="M 997.738758 735.146959 
C 999.013402 728.979402 999.655712 722.697895 999.655712 716.4 
C 999.655712 710.102105 999.013402 703.820598 997.738758 697.653041 
C 996.578699 703.834606 995.994912 710.110526 995.994912 716.4 
C 995.994912 722.689474 996.578699 728.965394 997.738758 735.146959 
" style="fill:#b200b2;opacity:0.4;"/>
   </g>
   <g id="patch_21">
    <path clip-path="url(#pd6051bab88)" d="M 1189.137003 672.149428 
C 1181.738336 676.920487 1175.653052 683.471801 1171.439929 691.201799 
C 1167.226807 698.931797 1165.018874 707.596406 1165.018874 716.4 
C 1165.018874 725.203594 1167.226807 733.868203 1171.439929 741.598201 
C 1175.653052 749.328199 1181.738336 755.879513 1189.137003 760.650572 
C 1195.809092 746.853934 1199.275203 731.725273 1199.275203 716.4 
C 1199.275203 701.074727 1195.809092 685.946066 1189.137003 672.149428 
" style="fill:#0059b2;opacity:0.4;"/>
   </g>
   <g id="text_28">
    <!-- 293 -->
    <g transform="translate(895.654623 719.159375)scale(0.1 -0.1)">
     <use xlink:href="#DejaVuSans-50"/>
     <use x="63.623047" xlink:href="#DejaVuSans-57"/>
     <use x="127.246094" xlink:href="#DejaVuSans-51"/>
    </g>
   </g>
   <g id="text_29">
    <!-- 72 -->
    <defs>
     <path d="M 8.203125 72.90625 
L 55.078125 72.90625 
L 55.078125 68.703125 
L 28.609375 0 
L 18.3125 0 
L 43.21875 64.59375 
L 8.203125 64.59375 
z
" id="DejaVuSans-55"/>
    </defs>
    <g transform="translate(1228.437821 719.159375)scale(0.1 -0.1)">
     <use xlink:href="#DejaVuSans-55"/>
     <use x="63.623047" xlink:href="#DejaVuSans-50"/>
    </g>
   </g>
   <g id="text_30">
    <!-- 330 -->
    <g transform="translate(1091.772057 719.159375)scale(0.1 -0.1)">
     <use xlink:href="#DejaVuSans-51"/>
     <use x="63.623047" xlink:href="#DejaVuSans-51"/>
     <use x="127.246094" xlink:href="#DejaVuSans-48"/>
    </g>
   </g>
   <g id="text_31">
    <!-- 1 -->
    <g transform="translate(994.644062 719.159375)scale(0.1 -0.1)">
     <use xlink:href="#DejaVuSans-49"/>
    </g>
   </g>
   <g id="text_32">
    <!-- 23 -->
    <g transform="translate(1175.784539 719.159375)scale(0.1 -0.1)">
     <use xlink:href="#DejaVuSans-50"/>
     <use x="63.623047" xlink:href="#DejaVuSans-51"/>
    </g>
   </g>
   <g id="text_33">
    <!-- TOP -->
    <g transform="translate(895.023148 826.375743)scale(0.12 -0.12)">
     <use xlink:href="#DejaVuSans-84"/>
     <use x="61.083984" xlink:href="#DejaVuSans-79"/>
     <use x="139.794922" xlink:href="#DejaVuSans-80"/>
    </g>
   </g>
   <g id="text_34">
    <!-- BTM -->
    <g transform="translate(1204.714032 786.402086)scale(0.12 -0.12)">
     <use xlink:href="#DejaVuSans-66"/>
     <use x="68.603516" xlink:href="#DejaVuSans-84"/>
     <use x="129.6875" xlink:href="#DejaVuSans-77"/>
    </g>
   </g>
   <g id="text_35">
    <!-- PAREDES -->
    <g transform="translate(1069.73787 835.388949)scale(0.12 -0.12)">
     <use xlink:href="#DejaVuSans-80"/>
     <use x="60.208984" xlink:href="#DejaVuSans-65"/>
     <use x="128.617188" xlink:href="#DejaVuSans-82"/>
     <use x="198.099609" xlink:href="#DejaVuSans-69"/>
     <use x="261.283203" xlink:href="#DejaVuSans-68"/>
     <use x="338.285156" xlink:href="#DejaVuSans-69"/>
     <use x="401.46875" xlink:href="#DejaVuSans-83"/>
    </g>
   </g>
   <g id="text_36">
    <!-- PAREDES vs MIX P180 -->
    <g transform="translate(975.941761 583.085293)scale(0.12 -0.12)">
     <use xlink:href="#DejaVuSans-80"/>
     <use x="60.208984" xlink:href="#DejaVuSans-65"/>
     <use x="128.617188" xlink:href="#DejaVuSans-82"/>
     <use x="198.099609" xlink:href="#DejaVuSans-69"/>
     <use x="261.283203" xlink:href="#DejaVuSans-68"/>
     <use x="338.285156" xlink:href="#DejaVuSans-69"/>
     <use x="401.46875" xlink:href="#DejaVuSans-83"/>
     <use x="464.945312" xlink:href="#DejaVuSans-32"/>
     <use x="496.732422" xlink:href="#DejaVuSans-118"/>
     <use x="555.912109" xlink:href="#DejaVuSans-115"/>
     <use x="608.011719" xlink:href="#DejaVuSans-32"/>
     <use x="639.798828" xlink:href="#DejaVuSans-77"/>
     <use x="726.078125" xlink:href="#DejaVuSans-73"/>
     <use x="755.570312" xlink:href="#DejaVuSans-88"/>
     <use x="824.076172" xlink:href="#DejaVuSans-32"/>
     <use x="855.863281" xlink:href="#DejaVuSans-80"/>
     <use x="916.166016" xlink:href="#DejaVuSans-49"/>
     <use x="979.789062" xlink:href="#DejaVuSans-56"/>
     <use x="1043.412109" xlink:href="#DejaVuSans-48"/>
    </g>
   </g>
  </g>
  <g id="axes_5">
   <g id="patch_22">
    <path clip-path="url(#p564c990bad)" d="M 349.649042 1224.603024 
C 324.220215 1215.192046 302.275376 1198.211686 286.783144 1175.95899 
C 271.290912 1153.706294 262.982853 1127.232066 262.982853 1100.117647 
C 262.982853 1073.003228 271.290912 1046.529 286.783144 1024.276304 
C 302.275376 1002.023608 324.220215 985.043249 349.649042 975.63227 
C 317.204859 976.475013 286.341852 989.968961 263.692527 1013.214246 
C 241.043201 1036.459531 228.355204 1067.662521 228.355204 1100.117647 
C 228.355204 1132.572774 241.043201 1163.775763 263.692527 1187.021048 
C 286.341852 1210.266333 317.204859 1223.760281 349.649042 1224.603024 
" style="fill:#ff0000;opacity:0.4;"/>
   </g>
   <g id="patch_23">
    <path clip-path="url(#p564c990bad)" d="M 526.667191 1078.393017 
C 527.858416 1085.573236 528.457057 1092.839284 528.457057 1100.117647 
C 528.457057 1107.39601 527.858416 1114.662058 526.667191 1121.842277 
C 529.171014 1128.068564 532.732488 1133.815383 537.194011 1138.828425 
C 541.655533 1143.841467 546.950308 1148.045678 552.844028 1151.255013 
C 558.737749 1154.464348 565.142177 1156.630757 571.773902 1157.658372 
C 578.405627 1158.685988 585.165362 1158.559424 591.753972 1157.284282 
C 598.342582 1156.00914 604.661426 1153.60451 610.43088 1150.176804 
C 616.200334 1146.749097 621.33402 1142.349632 625.604761 1137.173094 
C 629.875503 1131.996557 633.219359 1126.120448 635.488356 1119.804799 
C 637.757354 1113.48915 638.917523 1106.828517 638.917523 1100.117647 
C 638.917523 1093.406777 637.757354 1086.746144 635.488356 1080.430495 
C 633.219359 1074.114846 629.875503 1068.238737 625.604761 1063.0622 
C 621.33402 1057.885662 616.200334 1053.486197 610.43088 1050.05849 
C 604.661426 1046.630784 598.342582 1044.226154 591.753972 1042.951012 
C 585.165362 1041.67587 578.405627 1041.549306 571.773902 1042.576922 
C 565.142177 1043.604537 558.737749 1045.770947 552.844028 1048.980281 
C 546.950308 1052.189616 541.655533 1056.393828 537.194011 1061.406869 
C 532.732488 1066.419911 529.171014 1072.16673 526.667191 1078.393017 
" style="fill:#008000;opacity:0.4;"/>
   </g>
   <g id="patch_24">
    <path clip-path="url(#p564c990bad)" d="M 349.649042 1224.603024 
C 367.989142 1231.39053 387.604612 1234.041913 407.088559 1232.367007 
C 426.572505 1230.6921 445.447697 1224.731929 462.360336 1214.913979 
C 479.272974 1205.096029 493.808809 1191.660776 504.925276 1175.571846 
C 516.041742 1159.482917 523.466559 1141.134385 526.667191 1121.842277 
C 523.889999 1114.9362 522.462664 1107.561215 522.462664 1100.117647 
C 522.462664 1092.674079 523.889999 1085.299094 526.667191 1078.393017 
C 523.466559 1059.100909 516.041742 1040.752377 504.925276 1024.663448 
C 493.808809 1008.574518 479.272974 995.139265 462.360336 985.321315 
C 445.447697 975.503365 426.572505 969.543194 407.088559 967.868288 
C 387.604612 966.193381 367.989142 968.844765 349.649042 975.63227 
C 366.268336 975.200581 382.80704 978.101344 398.287438 984.163075 
C 413.767836 990.224806 427.878744 999.325653 439.785971 1010.927604 
C 451.693197 1022.529554 461.157386 1036.399389 467.619043 1051.717165 
C 474.0807 1067.034942 477.409936 1083.492747 477.409936 1100.117647 
C 477.409936 1116.742547 474.0807 1133.200352 467.619043 1148.518129 
C 461.157386 1163.835906 451.693197 1177.70574 439.785971 1189.30769 
C 427.878744 1200.909641 413.767836 1210.010488 398.287438 1216.072219 
C 382.80704 1222.13395 366.268336 1225.034713 349.649042 1224.603024 
" style="fill:#0000ff;opacity:0.4;"/>
   </g>
   <g id="patch_25">
    <path clip-path="url(#p564c990bad)" d="M 349.649042 1224.603024 
C 366.268336 1225.034713 382.80704 1222.13395 398.287438 1216.072219 
C 413.767836 1210.010488 427.878744 1200.909641 439.785971 1189.30769 
C 451.693197 1177.70574 461.157386 1163.835906 467.619043 1148.518129 
C 474.0807 1133.200352 477.409936 1116.742547 477.409936 1100.117647 
C 477.409936 1083.492747 474.0807 1067.034942 467.619043 1051.717165 
C 461.157386 1036.399389 451.693197 1022.529554 439.785971 1010.927604 
C 427.878744 999.325653 413.767836 990.224806 398.287438 984.163075 
C 382.80704 978.101344 366.268336 975.200581 349.649042 975.63227 
C 324.220215 985.043249 302.275376 1002.023608 286.783144 1024.276304 
C 271.290912 1046.529 262.982853 1073.003228 262.982853 1100.117647 
C 262.982853 1127.232066 271.290912 1153.706294 286.783144 1175.95899 
C 302.275376 1198.211686 324.220215 1215.192046 349.649042 1224.603024 
" style="fill:#b200b2;opacity:0.4;"/>
   </g>
   <g id="patch_26">
    <path clip-path="url(#p564c990bad)" d="M 526.667191 1078.393017 
C 523.889999 1085.299094 522.462664 1092.674079 522.462664 1100.117647 
C 522.462664 1107.561215 523.889999 1114.9362 526.667191 1121.842277 
C 527.858416 1114.662058 528.457057 1107.39601 528.457057 1100.117647 
C 528.457057 1092.839284 527.858416 1085.573236 526.667191 1078.393017 
" style="fill:#0059b2;opacity:0.4;"/>
   </g>
   <g id="text_37">
    <!-- 45 -->
    <g transform="translate(239.306529 1102.877022)scale(0.1 -0.1)">
     <use xlink:href="#DejaVuSans-52"/>
     <use x="63.623047" xlink:href="#DejaVuSans-53"/>
    </g>
   </g>
   <g id="text_38">
    <!-- 60 -->
    <g transform="translate(577.32479 1102.877022)scale(0.1 -0.1)">
     <use xlink:href="#DejaVuSans-54"/>
     <use x="63.623047" xlink:href="#DejaVuSans-48"/>
    </g>
   </g>
   <g id="text_39">
    <!-- 82 -->
    <g transform="translate(468.567656 1102.877022)scale(0.1 -0.1)">
     <use xlink:href="#DejaVuSans-56"/>
     <use x="63.623047" xlink:href="#DejaVuSans-50"/>
    </g>
   </g>
   <g id="text_40">
    <!-- 234 -->
    <g transform="translate(360.652645 1102.877022)scale(0.1 -0.1)">
     <use xlink:href="#DejaVuSans-50"/>
     <use x="63.623047" xlink:href="#DejaVuSans-51"/>
     <use x="127.246094" xlink:href="#DejaVuSans-52"/>
    </g>
   </g>
   <g id="text_41">
    <!-- 1 -->
    <g transform="translate(522.278611 1102.877022)scale(0.1 -0.1)">
     <use xlink:href="#DejaVuSans-49"/>
    </g>
   </g>
   <g id="text_42">
    <!-- TOP -->
    <g transform="translate(340.876945 1244.279535)scale(0.12 -0.12)">
     <use xlink:href="#DejaVuSans-84"/>
     <use x="61.083984" xlink:href="#DejaVuSans-79"/>
     <use x="139.794922" xlink:href="#DejaVuSans-80"/>
    </g>
   </g>
   <g id="text_43">
    <!-- BTM -->
    <g transform="translate(567.731969 1177.979598)scale(0.12 -0.12)">
     <use xlink:href="#DejaVuSans-66"/>
     <use x="68.603516" xlink:href="#DejaVuSans-84"/>
     <use x="129.6875" xlink:href="#DejaVuSans-77"/>
    </g>
   </g>
   <g id="text_44">
    <!-- BURGOS -->
    <g transform="translate(369.86183 1252.489271)scale(0.12 -0.12)">
     <use xlink:href="#DejaVuSans-66"/>
     <use x="68.603516" xlink:href="#DejaVuSans-85"/>
     <use x="141.796875" xlink:href="#DejaVuSans-82"/>
     <use x="211.279297" xlink:href="#DejaVuSans-71"/>
     <use x="288.769531" xlink:href="#DejaVuSans-79"/>
     <use x="367.480469" xlink:href="#DejaVuSans-83"/>
    </g>
   </g>
   <g id="text_45">
    <!-- BURGOS vs MIX P190 -->
    <g transform="translate(369.253551 934.235294)scale(0.12 -0.12)">
     <use xlink:href="#DejaVuSans-66"/>
     <use x="68.603516" xlink:href="#DejaVuSans-85"/>
     <use x="141.796875" xlink:href="#DejaVuSans-82"/>
     <use x="211.279297" xlink:href="#DejaVuSans-71"/>
     <use x="288.769531" xlink:href="#DejaVuSans-79"/>
     <use x="367.480469" xlink:href="#DejaVuSans-83"/>
     <use x="430.957031" xlink:href="#DejaVuSans-32"/>
     <use x="462.744141" xlink:href="#DejaVuSans-118"/>
     <use x="521.923828" xlink:href="#DejaVuSans-115"/>
     <use x="574.023438" xlink:href="#DejaVuSans-32"/>
     <use x="605.810547" xlink:href="#DejaVuSans-77"/>
     <use x="692.089844" xlink:href="#DejaVuSans-73"/>
     <use x="721.582031" xlink:href="#DejaVuSans-88"/>
     <use x="790.087891" xlink:href="#DejaVuSans-32"/>
     <use x="821.875" xlink:href="#DejaVuSans-80"/>
     <use x="882.177734" xlink:href="#DejaVuSans-49"/>
     <use x="945.800781" xlink:href="#DejaVuSans-57"/>
     <use x="1009.423828" xlink:href="#DejaVuSans-48"/>
    </g>
   </g>
  </g>
  <g id="axes_6">
   <g id="patch_27">
    <path clip-path="url(#p70607dd09c)" d="M 1183.54417 1188.032664 
C 1206.859505 1188.032664 1229.223043 1178.769383 1245.709475 1162.282952 
C 1262.195906 1145.79652 1271.459187 1123.432982 1271.459187 1100.117647 
C 1271.459187 1076.802312 1262.195906 1054.438774 1245.709475 1037.952342 
C 1229.223043 1021.465911 1206.859505 1012.20263 1183.54417 1012.20263 
C 1160.228835 1012.20263 1137.865297 1021.465911 1121.378865 1037.952342 
C 1104.892434 1054.438774 1095.629153 1076.802312 1095.629153 1100.117647 
C 1095.629153 1123.432982 1104.892434 1145.79652 1121.378865 1162.282952 
C 1137.865297 1178.769383 1160.228835 1188.032664 1183.54417 1188.032664 
z
" style="fill:#ff0000;opacity:0.4;"/>
   </g>
   <g id="patch_28">
    <path clip-path="url(#p70607dd09c)" d="M 890.676631 1119.408351 
C 889.414962 1113.055634 888.77956 1106.594437 888.77956 1100.117647 
C 888.77956 1093.640857 889.414962 1087.17966 890.676631 1080.826943 
C 888.539226 1076.804847 885.748135 1073.16581 882.417624 1070.05881 
C 879.087112 1066.95181 875.263257 1064.419832 871.102603 1062.566533 
C 866.941949 1060.713234 862.502059 1059.564255 857.964697 1059.166633 
C 853.427335 1058.769011 848.855276 1059.128247 844.435694 1060.229635 
C 840.016112 1061.331023 835.810154 1063.159325 831.990005 1065.639692 
C 828.169856 1068.120059 824.78837 1071.218176 821.983979 1074.807208 
C 819.179589 1078.39624 816.991094 1082.426534 815.508089 1086.733093 
C 814.025084 1091.039652 813.268086 1095.562896 813.268086 1100.117647 
C 813.268086 1104.672398 814.025084 1109.195642 815.508089 1113.502201 
C 816.991094 1117.80876 819.179589 1121.839054 821.983979 1125.428086 
C 824.78837 1129.017119 828.169856 1132.115235 831.990005 1134.595602 
C 835.810154 1137.075969 840.016112 1138.904271 844.435694 1140.005659 
C 848.855276 1141.107047 853.427335 1141.466284 857.964697 1141.068661 
C 862.502059 1140.671039 866.941949 1139.52206 871.102603 1137.668761 
C 875.263257 1135.815462 879.087112 1133.283484 882.417624 1130.176484 
C 885.748135 1127.069484 888.539226 1123.430447 890.676631 1119.408351 
" style="fill:#008000;opacity:0.4;"/>
   </g>
   <g id="patch_29">
    <path clip-path="url(#p70607dd09c)" d="M 890.676631 1080.826943 
C 893.833092 1086.766666 895.483997 1093.391315 895.483997 1100.117647 
C 895.483997 1106.84398 893.833092 1113.468629 890.676631 1119.408351 
C 893.050862 1131.363009 897.611825 1142.77727 904.129771 1153.076163 
C 910.647717 1163.375057 919.011333 1172.382701 928.799321 1179.645354 
C 938.587308 1186.908007 949.632509 1192.301639 961.378545 1195.554557 
C 973.12458 1198.807475 985.370854 1199.864126 997.500486 1198.671284 
C 1009.630117 1197.478442 1021.435958 1194.056477 1032.323315 1188.577765 
C 1043.210672 1183.099053 1052.993612 1175.657157 1061.179341 1166.626948 
C 1069.365069 1157.596739 1075.813791 1147.132432 1080.200666 1135.761146 
C 1084.587542 1124.38986 1086.837651 1112.30579 1086.837651 1100.117647 
C 1086.837651 1087.929504 1084.587542 1075.845434 1080.200666 1064.474148 
C 1075.813791 1053.102862 1069.365069 1042.638555 1061.179341 1033.608346 
C 1052.993612 1024.578137 1043.210672 1017.136241 1032.323315 1011.657529 
C 1021.435958 1006.178817 1009.630117 1002.756852 997.500486 1001.56401 
C 985.370854 1000.371168 973.12458 1001.427819 961.378545 1004.680737 
C 949.632509 1007.933655 938.587308 1013.327287 928.799321 1020.58994 
C 919.011333 1027.852593 910.647717 1036.860237 904.129771 1047.159131 
C 897.611825 1057.458024 893.050862 1068.872285 890.676631 1080.826943 
" style="fill:#0000ff;opacity:0.4;"/>
   </g>
   <g id="patch_30">
    <path clip-path="url(#p70607dd09c)" d="M 890.676631 1119.408351 
C 893.833092 1113.468629 895.483997 1106.84398 895.483997 1100.117647 
C 895.483997 1093.391315 893.833092 1086.766666 890.676631 1080.826943 
C 889.414962 1087.17966 888.77956 1093.640857 888.77956 1100.117647 
C 888.77956 1106.594437 889.414962 1113.055634 890.676631 1119.408351 
" style="fill:#0059b2;opacity:0.4;"/>
   </g>
   <g id="text_46">
    <!-- 279 -->
    <g transform="translate(1174.00042 1102.877022)scale(0.1 -0.1)">
     <use xlink:href="#DejaVuSans-50"/>
     <use x="63.623047" xlink:href="#DejaVuSans-55"/>
     <use x="127.246094" xlink:href="#DejaVuSans-57"/>
    </g>
   </g>
   <g id="text_47">
    <!-- 59 -->
    <g transform="translate(844.661323 1102.877022)scale(0.1 -0.1)">
     <use xlink:href="#DejaVuSans-53"/>
     <use x="63.623047" xlink:href="#DejaVuSans-57"/>
    </g>
   </g>
   <g id="text_48">
    <!-- 352 -->
    <g transform="translate(981.617074 1102.877022)scale(0.1 -0.1)">
     <use xlink:href="#DejaVuSans-51"/>
     <use x="63.623047" xlink:href="#DejaVuSans-53"/>
     <use x="127.246094" xlink:href="#DejaVuSans-50"/>
    </g>
   </g>
   <g id="text_49">
    <!-- 2 -->
    <g transform="translate(888.950529 1102.877022)scale(0.1 -0.1)">
     <use xlink:href="#DejaVuSans-50"/>
    </g>
   </g>
   <g id="text_50">
    <!-- TOP -->
    <g transform="translate(1171.538545 1204.752523)scale(0.12 -0.12)">
     <use xlink:href="#DejaVuSans-84"/>
     <use x="61.083984" xlink:href="#DejaVuSans-79"/>
     <use x="139.794922" xlink:href="#DejaVuSans-80"/>
    </g>
   </g>
   <g id="text_51">
    <!-- BTM -->
    <g transform="translate(841.417916 1157.945462)scale(0.12 -0.12)">
     <use xlink:href="#DejaVuSans-66"/>
     <use x="68.603516" xlink:href="#DejaVuSans-84"/>
     <use x="129.6875" xlink:href="#DejaVuSans-77"/>
    </g>
   </g>
   <g id="text_52">
    <!-- PAREDES -->
    <g transform="translate(959.911418 1215.866552)scale(0.12 -0.12)">
     <use xlink:href="#DejaVuSans-80"/>
     <use x="60.208984" xlink:href="#DejaVuSans-65"/>
     <use x="128.617188" xlink:href="#DejaVuSans-82"/>
     <use x="198.099609" xlink:href="#DejaVuSans-69"/>
     <use x="261.283203" xlink:href="#DejaVuSans-68"/>
     <use x="338.285156" xlink:href="#DejaVuSans-69"/>
     <use x="401.46875" xlink:href="#DejaVuSans-83"/>
    </g>
   </g>
   <g id="text_53">
    <!-- PAREDES vs MIX P190 -->
    <g transform="translate(975.941761 970.547788)scale(0.12 -0.12)">
     <use xlink:href="#DejaVuSans-80"/>
     <use x="60.208984" xlink:href="#DejaVuSans-65"/>
     <use x="128.617188" xlink:href="#DejaVuSans-82"/>
     <use x="198.099609" xlink:href="#DejaVuSans-69"/>
     <use x="261.283203" xlink:href="#DejaVuSans-68"/>
     <use x="338.285156" xlink:href="#DejaVuSans-69"/>
     <use x="401.46875" xlink:href="#DejaVuSans-83"/>
     <use x="464.945312" xlink:href="#DejaVuSans-32"/>
     <use x="496.732422" xlink:href="#DejaVuSans-118"/>
     <use x="555.912109" xlink:href="#DejaVuSans-115"/>
     <use x="608.011719" xlink:href="#DejaVuSans-32"/>
     <use x="639.798828" xlink:href="#DejaVuSans-77"/>
     <use x="726.078125" xlink:href="#DejaVuSans-73"/>
     <use x="755.570312" xlink:href="#DejaVuSans-88"/>
     <use x="824.076172" xlink:href="#DejaVuSans-32"/>
     <use x="855.863281" xlink:href="#DejaVuSans-80"/>
     <use x="916.166016" xlink:href="#DejaVuSans-49"/>
     <use x="979.789062" xlink:href="#DejaVuSans-57"/>
     <use x="1043.412109" xlink:href="#DejaVuSans-48"/>
    </g>
   </g>
  </g>
  <g id="text_54">
   <!-- P1_80_20, Raw vs Filtrados Laura -->
   <defs>
    <path d="M 50.984375 -16.609375 
L 50.984375 -23.578125 
L -0.984375 -23.578125 
L -0.984375 -16.609375 
z
" id="DejaVuSans-95"/>
    <path d="M 11.71875 12.40625 
L 22.015625 12.40625 
L 22.015625 4 
L 14.015625 -11.625 
L 7.71875 -11.625 
L 11.71875 4 
z
" id="DejaVuSans-44"/>
    <path d="M 34.28125 27.484375 
Q 23.390625 27.484375 19.1875 25 
Q 14.984375 22.515625 14.984375 16.5 
Q 14.984375 11.71875 18.140625 8.90625 
Q 21.296875 6.109375 26.703125 6.109375 
Q 34.1875 6.109375 38.703125 11.40625 
Q 43.21875 16.703125 43.21875 25.484375 
L 43.21875 27.484375 
z
M 52.203125 31.203125 
L 52.203125 0 
L 43.21875 0 
L 43.21875 8.296875 
Q 40.140625 3.328125 35.546875 0.953125 
Q 30.953125 -1.421875 24.3125 -1.421875 
Q 15.921875 -1.421875 10.953125 3.296875 
Q 6 8.015625 6 15.921875 
Q 6 25.140625 12.171875 29.828125 
Q 18.359375 34.515625 30.609375 34.515625 
L 43.21875 34.515625 
L 43.21875 35.40625 
Q 43.21875 41.609375 39.140625 45 
Q 35.0625 48.390625 27.6875 48.390625 
Q 23 48.390625 18.546875 47.265625 
Q 14.109375 46.140625 10.015625 43.890625 
L 10.015625 52.203125 
Q 14.9375 54.109375 19.578125 55.046875 
Q 24.21875 56 28.609375 56 
Q 40.484375 56 46.34375 49.84375 
Q 52.203125 43.703125 52.203125 31.203125 
z
" id="DejaVuSans-97"/>
    <path d="M 4.203125 54.6875 
L 13.1875 54.6875 
L 24.421875 12.015625 
L 35.59375 54.6875 
L 46.1875 54.6875 
L 57.421875 12.015625 
L 68.609375 54.6875 
L 77.59375 54.6875 
L 63.28125 0 
L 52.6875 0 
L 40.921875 44.828125 
L 29.109375 0 
L 18.5 0 
z
" id="DejaVuSans-119"/>
    <path d="M 9.8125 72.90625 
L 51.703125 72.90625 
L 51.703125 64.59375 
L 19.671875 64.59375 
L 19.671875 43.109375 
L 48.578125 43.109375 
L 48.578125 34.8125 
L 19.671875 34.8125 
L 19.671875 0 
L 9.8125 0 
z
" id="DejaVuSans-70"/>
    <path d="M 9.421875 54.6875 
L 18.40625 54.6875 
L 18.40625 0 
L 9.421875 0 
z
M 9.421875 75.984375 
L 18.40625 75.984375 
L 18.40625 64.59375 
L 9.421875 64.59375 
z
" id="DejaVuSans-105"/>
    <path d="M 9.421875 75.984375 
L 18.40625 75.984375 
L 18.40625 0 
L 9.421875 0 
z
" id="DejaVuSans-108"/>
    <path d="M 18.3125 70.21875 
L 18.3125 54.6875 
L 36.8125 54.6875 
L 36.8125 47.703125 
L 18.3125 47.703125 
L 18.3125 18.015625 
Q 18.3125 11.328125 20.140625 9.421875 
Q 21.96875 7.515625 27.59375 7.515625 
L 36.8125 7.515625 
L 36.8125 0 
L 27.59375 0 
Q 17.1875 0 13.234375 3.875 
Q 9.28125 7.765625 9.28125 18.015625 
L 9.28125 47.703125 
L 2.6875 47.703125 
L 2.6875 54.6875 
L 9.28125 54.6875 
L 9.28125 70.21875 
z
" id="DejaVuSans-116"/>
    <path d="M 41.109375 46.296875 
Q 39.59375 47.171875 37.8125 47.578125 
Q 36.03125 48 33.890625 48 
Q 26.265625 48 22.1875 43.046875 
Q 18.109375 38.09375 18.109375 28.8125 
L 18.109375 0 
L 9.078125 0 
L 9.078125 54.6875 
L 18.109375 54.6875 
L 18.109375 46.1875 
Q 20.953125 51.171875 25.484375 53.578125 
Q 30.03125 56 36.53125 56 
Q 37.453125 56 38.578125 55.875 
Q 39.703125 55.765625 41.0625 55.515625 
z
" id="DejaVuSans-114"/>
    <path d="M 45.40625 46.390625 
L 45.40625 75.984375 
L 54.390625 75.984375 
L 54.390625 0 
L 45.40625 0 
L 45.40625 8.203125 
Q 42.578125 3.328125 38.25 0.953125 
Q 33.9375 -1.421875 27.875 -1.421875 
Q 17.96875 -1.421875 11.734375 6.484375 
Q 5.515625 14.40625 5.515625 27.296875 
Q 5.515625 40.1875 11.734375 48.09375 
Q 17.96875 56 27.875 56 
Q 33.9375 56 38.25 53.625 
Q 42.578125 51.265625 45.40625 46.390625 
z
M 14.796875 27.296875 
Q 14.796875 17.390625 18.875 11.75 
Q 22.953125 6.109375 30.078125 6.109375 
Q 37.203125 6.109375 41.296875 11.75 
Q 45.40625 17.390625 45.40625 27.296875 
Q 45.40625 37.203125 41.296875 42.84375 
Q 37.203125 48.484375 30.078125 48.484375 
Q 22.953125 48.484375 18.875 42.84375 
Q 14.796875 37.203125 14.796875 27.296875 
z
" id="DejaVuSans-100"/>
    <path d="M 30.609375 48.390625 
Q 23.390625 48.390625 19.1875 42.75 
Q 14.984375 37.109375 14.984375 27.296875 
Q 14.984375 17.484375 19.15625 11.84375 
Q 23.34375 6.203125 30.609375 6.203125 
Q 37.796875 6.203125 41.984375 11.859375 
Q 46.1875 17.53125 46.1875 27.296875 
Q 46.1875 37.015625 41.984375 42.703125 
Q 37.796875 48.390625 30.609375 48.390625 
z
M 30.609375 56 
Q 42.328125 56 49.015625 48.375 
Q 55.71875 40.765625 55.71875 27.296875 
Q 55.71875 13.875 49.015625 6.21875 
Q 42.328125 -1.421875 30.609375 -1.421875 
Q 18.84375 -1.421875 12.171875 6.21875 
Q 5.515625 13.875 5.515625 27.296875 
Q 5.515625 40.765625 12.171875 48.375 
Q 18.84375 56 30.609375 56 
z
" id="DejaVuSans-111"/>
    <path d="M 9.8125 72.90625 
L 19.671875 72.90625 
L 19.671875 8.296875 
L 55.171875 8.296875 
L 55.171875 0 
L 9.8125 0 
z
" id="DejaVuSans-76"/>
    <path d="M 8.5 21.578125 
L 8.5 54.6875 
L 17.484375 54.6875 
L 17.484375 21.921875 
Q 17.484375 14.15625 20.5 10.265625 
Q 23.53125 6.390625 29.59375 6.390625 
Q 36.859375 6.390625 41.078125 11.03125 
Q 45.3125 15.671875 45.3125 23.6875 
L 45.3125 54.6875 
L 54.296875 54.6875 
L 54.296875 0 
L 45.3125 0 
L 45.3125 8.40625 
Q 42.046875 3.421875 37.71875 1 
Q 33.40625 -1.421875 27.6875 -1.421875 
Q 18.265625 -1.421875 13.375 4.4375 
Q 8.5 10.296875 8.5 21.578125 
z
M 31.109375 56 
z
" id="DejaVuSans-117"/>
   </defs>
   <g transform="translate(585.9825 25.0275)scale(0.16 -0.16)">
    <use xlink:href="#DejaVuSans-80"/>
    <use x="60.302734" xlink:href="#DejaVuSans-49"/>
    <use x="123.925781" xlink:href="#DejaVuSans-95"/>
    <use x="173.925781" xlink:href="#DejaVuSans-56"/>
    <use x="237.548828" xlink:href="#DejaVuSans-48"/>
    <use x="301.171875" xlink:href="#DejaVuSans-95"/>
    <use x="351.171875" xlink:href="#DejaVuSans-50"/>
    <use x="414.794922" xlink:href="#DejaVuSans-48"/>
    <use x="478.417969" xlink:href="#DejaVuSans-44"/>
    <use x="510.205078" xlink:href="#DejaVuSans-32"/>
    <use x="541.992188" xlink:href="#DejaVuSans-82"/>
    <use x="611.443359" xlink:href="#DejaVuSans-97"/>
    <use x="672.722656" xlink:href="#DejaVuSans-119"/>
    <use x="754.509766" xlink:href="#DejaVuSans-32"/>
    <use x="786.296875" xlink:href="#DejaVuSans-118"/>
    <use x="845.476562" xlink:href="#DejaVuSans-115"/>
    <use x="897.576172" xlink:href="#DejaVuSans-32"/>
    <use x="929.363281" xlink:href="#DejaVuSans-70"/>
    <use x="986.773438" xlink:href="#DejaVuSans-105"/>
    <use x="1014.556641" xlink:href="#DejaVuSans-108"/>
    <use x="1042.339844" xlink:href="#DejaVuSans-116"/>
    <use x="1081.548828" xlink:href="#DejaVuSans-114"/>
    <use x="1122.662109" xlink:href="#DejaVuSans-97"/>
    <use x="1183.941406" xlink:href="#DejaVuSans-100"/>
    <use x="1247.417969" xlink:href="#DejaVuSans-111"/>
    <use x="1308.599609" xlink:href="#DejaVuSans-115"/>
    <use x="1360.699219" xlink:href="#DejaVuSans-32"/>
    <use x="1392.486328" xlink:href="#DejaVuSans-76"/>
    <use x="1448.199219" xlink:href="#DejaVuSans-97"/>
    <use x="1509.478516" xlink:href="#DejaVuSans-117"/>
    <use x="1572.857422" xlink:href="#DejaVuSans-114"/>
    <use x="1613.970703" xlink:href="#DejaVuSans-97"/>
   </g>
  </g>
 </g>
 <defs>
  <clipPath id="p092159812c">
   <rect height="287.49385" width="507.272727" x="180" y="188.935428"/>
  </clipPath>
  <clipPath id="p0c0377da97">
   <rect height="299.520173" width="507.272727" x="788.727273" y="182.922266"/>
  </clipPath>
  <clipPath id="p6cf0229492">
   <rect height="319.764706" width="475.936475" x="195.668126" y="556.517647"/>
  </clipPath>
  <clipPath id="pd6051bab88">
   <rect height="254.629413" width="507.272727" x="788.727273" y="589.085293"/>
  </clipPath>
  <clipPath id="p564c990bad">
   <rect height="319.764706" width="464.852821" x="201.209953" y="940.235294"/>
  </clipPath>
  <clipPath id="p70607dd09c">
   <rect height="247.139717" width="507.272727" x="788.727273" y="976.547788"/>
  </clipPath>
 </defs>
</svg>
