<?xml version="1.0" encoding="utf-8" standalone="no"?>
<!DOCTYPE svg PUBLIC "-//W3C//DTD SVG 1.1//EN"
  "http://www.w3.org/Graphics/SVG/1.1/DTD/svg11.dtd">
<!-- Created with matplotlib (https://matplotlib.org/) -->
<svg height="1440pt" version="1.1" viewBox="0 0 1440 1440" width="1440pt" xmlns="http://www.w3.org/2000/svg" xmlns:xlink="http://www.w3.org/1999/xlink">
 <defs>
  <style type="text/css">
*{stroke-linecap:butt;stroke-linejoin:round;}
  </style>
 </defs>
 <g id="figure_1">
  <g id="patch_1">
   <path d="M 0 1440 
L 1440 1440 
L 1440 0 
L 0 0 
z
" style="fill:#ffffff;"/>
  </g>
  <g id="axes_1">
   <g id="patch_2">
    <path clip-path="url(#pf7a3a1f139)" d="M 399.639562 434.554355 
C 374.427075 431.970249 351.050201 420.11613 334.067062 401.303366 
C 317.083923 382.490603 307.675064 358.02692 307.675064 332.682353 
C 307.675064 307.337786 317.083923 282.874103 334.067062 264.06134 
C 351.050201 245.248576 374.427075 233.394457 399.639562 230.81035 
C 381.189892 218.472204 359.730422 211.374782 337.562429 210.279201 
C 315.394436 209.18362 293.339716 214.130494 273.763379 224.589328 
C 254.187042 235.048162 237.814806 250.631235 226.402404 269.667445 
C 214.990002 288.703654 208.960504 310.487304 208.960504 332.682353 
C 208.960504 354.877402 214.990002 376.661052 226.402404 395.697261 
C 237.814806 414.733471 254.187042 430.316543 273.763379 440.775378 
C 293.339716 451.234212 315.394436 456.181086 337.562429 455.085505 
C 359.730422 453.989923 381.189892 446.892502 399.639562 434.554355 
" style="fill:#ff0000;opacity:0.4;"/>
   </g>
   <g id="patch_3">
    <path clip-path="url(#pf7a3a1f139)" d="M 487.237379 265.349028 
C 503.512291 283.998299 512.486422 307.930221 512.486422 332.682353 
C 512.486422 357.434485 503.512291 381.366407 487.237379 400.015678 
C 493.959772 407.232589 501.725199 413.402261 510.274966 418.319157 
C 518.824732 423.236053 528.062832 426.844961 537.681509 429.025656 
C 547.300186 431.206351 557.191431 431.934345 567.02573 431.185385 
C 576.860029 430.436425 586.526951 428.218922 595.704455 424.60675 
C 604.88196 420.994577 613.46699 416.028296 621.173549 409.873352 
C 628.880107 403.718408 635.621655 396.443916 641.173606 388.292216 
C 646.725557 380.140515 651.025568 371.203144 653.930389 361.777838 
C 656.83521 352.352532 658.312223 342.54513 658.312223 332.682353 
C 658.312223 322.819575 656.83521 313.012174 653.930389 303.586868 
C 651.025568 294.161562 646.725557 285.22419 641.173606 277.07249 
C 635.621655 268.92079 628.880107 261.646298 621.173549 255.491354 
C 613.46699 249.33641 604.88196 244.370129 595.704455 240.757956 
C 586.526951 237.145784 576.860029 234.928281 567.02573 234.179321 
C 557.191431 233.430361 547.300186 234.158355 537.681509 236.33905 
C 528.062832 238.519744 518.824732 242.128653 510.274966 247.045549 
C 501.725199 251.962445 493.959772 258.132116 487.237379 265.349028 
" style="fill:#008000;opacity:0.4;"/>
   </g>
   <g id="patch_4">
    <path clip-path="url(#pf7a3a1f139)" d="M 399.639562 434.554355 
C 415.937984 436.224832 432.401776 433.959812 447.643598 427.95016 
C 462.885419 421.940508 476.464774 412.359907 487.237379 400.015678 
C 470.210862 381.736639 460.735665 357.662857 460.735665 332.682353 
C 460.735665 307.701849 470.210862 283.628067 487.237379 265.349028 
C 476.464774 253.004799 462.885419 243.424197 447.643598 237.414546 
C 432.401776 231.404894 415.937984 229.139874 399.639562 230.81035 
C 416.384792 242.008659 430.113462 257.16487 439.606075 274.932682 
C 449.098688 292.700493 454.065596 312.537755 454.065596 332.682353 
C 454.065596 352.826951 449.098688 372.664213 439.606075 390.432024 
C 430.113462 408.199835 416.384792 423.356047 399.639562 434.554355 
" style="fill:#0000ff;opacity:0.4;"/>
   </g>
   <g id="patch_5">
    <path clip-path="url(#pf7a3a1f139)" d="M 399.639562 434.554355 
C 416.384792 423.356047 430.113462 408.199835 439.606075 390.432024 
C 449.098688 372.664213 454.065596 352.826951 454.065596 332.682353 
C 454.065596 312.537755 449.098688 292.700493 439.606075 274.932682 
C 430.113462 257.16487 416.384792 242.008659 399.639562 230.81035 
C 374.427075 233.394457 351.050201 245.248576 334.067062 264.06134 
C 317.083923 282.874103 307.675064 307.337786 307.675064 332.682353 
C 307.675064 358.02692 317.083923 382.490603 334.067062 401.303366 
C 351.050201 420.11613 374.427075 431.970249 399.639562 434.554355 
" style="fill:#b200b2;opacity:0.4;"/>
   </g>
   <g id="patch_6">
    <path clip-path="url(#pf7a3a1f139)" d="M 487.237379 265.349028 
C 470.210862 283.628067 460.735665 307.701849 460.735665 332.682353 
C 460.735665 357.662857 470.210862 381.736639 487.237379 400.015678 
C 503.512291 381.366407 512.486422 357.434485 512.486422 332.682353 
C 512.486422 307.930221 503.512291 283.998299 487.237379 265.349028 
" style="fill:#0059b2;opacity:0.4;"/>
   </g>
   <g id="text_1">
    <!-- 241 -->
    <defs>
     <path d="M 19.1875 8.296875 
L 53.609375 8.296875 
L 53.609375 0 
L 7.328125 0 
L 7.328125 8.296875 
Q 12.9375 14.109375 22.625 23.890625 
Q 32.328125 33.6875 34.8125 36.53125 
Q 39.546875 41.84375 41.421875 45.53125 
Q 43.3125 49.21875 43.3125 52.78125 
Q 43.3125 58.59375 39.234375 62.25 
Q 35.15625 65.921875 28.609375 65.921875 
Q 23.96875 65.921875 18.8125 64.3125 
Q 13.671875 62.703125 7.8125 59.421875 
L 7.8125 69.390625 
Q 13.765625 71.78125 18.9375 73 
Q 24.125 74.21875 28.421875 74.21875 
Q 39.75 74.21875 46.484375 68.546875 
Q 53.21875 62.890625 53.21875 53.421875 
Q 53.21875 48.921875 51.53125 44.890625 
Q 49.859375 40.875 45.40625 35.40625 
Q 44.1875 33.984375 37.640625 27.21875 
Q 31.109375 20.453125 19.1875 8.296875 
z
" id="DejaVuSans-50"/>
     <path d="M 37.796875 64.3125 
L 12.890625 25.390625 
L 37.796875 25.390625 
z
M 35.203125 72.90625 
L 47.609375 72.90625 
L 47.609375 25.390625 
L 58.015625 25.390625 
L 58.015625 17.1875 
L 47.609375 17.1875 
L 47.609375 0 
L 37.796875 0 
L 37.796875 17.1875 
L 4.890625 17.1875 
L 4.890625 26.703125 
z
" id="DejaVuSans-52"/>
     <path d="M 12.40625 8.296875 
L 28.515625 8.296875 
L 28.515625 63.921875 
L 10.984375 60.40625 
L 10.984375 69.390625 
L 28.421875 72.90625 
L 38.28125 72.90625 
L 38.28125 8.296875 
L 54.390625 8.296875 
L 54.390625 0 
L 12.40625 0 
z
" id="DejaVuSans-49"/>
    </defs>
    <g transform="translate(248.774034 335.441728)scale(0.1 -0.1)">
     <use xlink:href="#DejaVuSans-50"/>
     <use x="63.623047" xlink:href="#DejaVuSans-52"/>
     <use x="127.246094" xlink:href="#DejaVuSans-49"/>
    </g>
   </g>
   <g id="text_2">
    <!-- 249 -->
    <defs>
     <path d="M 10.984375 1.515625 
L 10.984375 10.5 
Q 14.703125 8.734375 18.5 7.8125 
Q 22.3125 6.890625 25.984375 6.890625 
Q 35.75 6.890625 40.890625 13.453125 
Q 46.046875 20.015625 46.78125 33.40625 
Q 43.953125 29.203125 39.59375 26.953125 
Q 35.25 24.703125 29.984375 24.703125 
Q 19.046875 24.703125 12.671875 31.3125 
Q 6.296875 37.9375 6.296875 49.421875 
Q 6.296875 60.640625 12.9375 67.421875 
Q 19.578125 74.21875 30.609375 74.21875 
Q 43.265625 74.21875 49.921875 64.515625 
Q 56.59375 54.828125 56.59375 36.375 
Q 56.59375 19.140625 48.40625 8.859375 
Q 40.234375 -1.421875 26.421875 -1.421875 
Q 22.703125 -1.421875 18.890625 -0.6875 
Q 15.09375 0.046875 10.984375 1.515625 
z
M 30.609375 32.421875 
Q 37.25 32.421875 41.125 36.953125 
Q 45.015625 41.5 45.015625 49.421875 
Q 45.015625 57.28125 41.125 61.84375 
Q 37.25 66.40625 30.609375 66.40625 
Q 23.96875 66.40625 20.09375 61.84375 
Q 16.21875 57.28125 16.21875 49.421875 
Q 16.21875 41.5 20.09375 36.953125 
Q 23.96875 32.421875 30.609375 32.421875 
z
" id="DejaVuSans-57"/>
    </defs>
    <g transform="translate(575.855573 335.441728)scale(0.1 -0.1)">
     <use xlink:href="#DejaVuSans-50"/>
     <use x="63.623047" xlink:href="#DejaVuSans-52"/>
     <use x="127.246094" xlink:href="#DejaVuSans-57"/>
    </g>
   </g>
   <g id="text_3">
    <!-- 58 -->
    <defs>
     <path d="M 10.796875 72.90625 
L 49.515625 72.90625 
L 49.515625 64.59375 
L 19.828125 64.59375 
L 19.828125 46.734375 
Q 21.96875 47.46875 24.109375 47.828125 
Q 26.265625 48.1875 28.421875 48.1875 
Q 40.625 48.1875 47.75 41.5 
Q 54.890625 34.8125 54.890625 23.390625 
Q 54.890625 11.625 47.5625 5.09375 
Q 40.234375 -1.421875 26.90625 -1.421875 
Q 22.3125 -1.421875 17.546875 -0.640625 
Q 12.796875 0.140625 7.71875 1.703125 
L 7.71875 11.625 
Q 12.109375 9.234375 16.796875 8.0625 
Q 21.484375 6.890625 26.703125 6.890625 
Q 35.15625 6.890625 40.078125 11.328125 
Q 45.015625 15.765625 45.015625 23.390625 
Q 45.015625 31 40.078125 35.4375 
Q 35.15625 39.890625 26.703125 39.890625 
Q 22.75 39.890625 18.8125 39.015625 
Q 14.890625 38.140625 10.796875 36.28125 
z
" id="DejaVuSans-53"/>
     <path d="M 31.78125 34.625 
Q 24.75 34.625 20.71875 30.859375 
Q 16.703125 27.09375 16.703125 20.515625 
Q 16.703125 13.921875 20.71875 10.15625 
Q 24.75 6.390625 31.78125 6.390625 
Q 38.8125 6.390625 42.859375 10.171875 
Q 46.921875 13.96875 46.921875 20.515625 
Q 46.921875 27.09375 42.890625 30.859375 
Q 38.875 34.625 31.78125 34.625 
z
M 21.921875 38.8125 
Q 15.578125 40.375 12.03125 44.71875 
Q 8.5 49.078125 8.5 55.328125 
Q 8.5 64.0625 14.71875 69.140625 
Q 20.953125 74.21875 31.78125 74.21875 
Q 42.671875 74.21875 48.875 69.140625 
Q 55.078125 64.0625 55.078125 55.328125 
Q 55.078125 49.078125 51.53125 44.71875 
Q 48 40.375 41.703125 38.8125 
Q 48.828125 37.15625 52.796875 32.3125 
Q 56.78125 27.484375 56.78125 20.515625 
Q 56.78125 9.90625 50.3125 4.234375 
Q 43.84375 -1.421875 31.78125 -1.421875 
Q 19.734375 -1.421875 13.25 4.234375 
Q 6.78125 9.90625 6.78125 20.515625 
Q 6.78125 27.484375 10.78125 32.3125 
Q 14.796875 37.15625 21.921875 38.8125 
z
M 18.3125 54.390625 
Q 18.3125 48.734375 21.84375 45.5625 
Q 25.390625 42.390625 31.78125 42.390625 
Q 38.140625 42.390625 41.71875 45.5625 
Q 45.3125 48.734375 45.3125 54.390625 
Q 45.3125 60.0625 41.71875 63.234375 
Q 38.140625 66.40625 31.78125 66.40625 
Q 25.390625 66.40625 21.84375 63.234375 
Q 18.3125 60.0625 18.3125 54.390625 
z
" id="DejaVuSans-56"/>
    </defs>
    <g transform="translate(447.281184 335.441728)scale(0.1 -0.1)">
     <use xlink:href="#DejaVuSans-53"/>
     <use x="63.623047" xlink:href="#DejaVuSans-56"/>
    </g>
   </g>
   <g id="text_4">
    <!-- 213 -->
    <defs>
     <path d="M 40.578125 39.3125 
Q 47.65625 37.796875 51.625 33 
Q 55.609375 28.21875 55.609375 21.1875 
Q 55.609375 10.40625 48.1875 4.484375 
Q 40.765625 -1.421875 27.09375 -1.421875 
Q 22.515625 -1.421875 17.65625 -0.515625 
Q 12.796875 0.390625 7.625 2.203125 
L 7.625 11.71875 
Q 11.71875 9.328125 16.59375 8.109375 
Q 21.484375 6.890625 26.8125 6.890625 
Q 36.078125 6.890625 40.9375 10.546875 
Q 45.796875 14.203125 45.796875 21.1875 
Q 45.796875 27.640625 41.28125 31.265625 
Q 36.765625 34.90625 28.71875 34.90625 
L 20.21875 34.90625 
L 20.21875 43.015625 
L 29.109375 43.015625 
Q 36.375 43.015625 40.234375 45.921875 
Q 44.09375 48.828125 44.09375 54.296875 
Q 44.09375 59.90625 40.109375 62.90625 
Q 36.140625 65.921875 28.71875 65.921875 
Q 24.65625 65.921875 20.015625 65.03125 
Q 15.375 64.15625 9.8125 62.3125 
L 9.8125 71.09375 
Q 15.4375 72.65625 20.34375 73.4375 
Q 25.25 74.21875 29.59375 74.21875 
Q 40.828125 74.21875 47.359375 69.109375 
Q 53.90625 64.015625 53.90625 55.328125 
Q 53.90625 49.265625 50.4375 45.09375 
Q 46.96875 40.921875 40.578125 39.3125 
z
" id="DejaVuSans-51"/>
    </defs>
    <g transform="translate(371.32658 335.441728)scale(0.1 -0.1)">
     <use xlink:href="#DejaVuSans-50"/>
     <use x="63.623047" xlink:href="#DejaVuSans-49"/>
     <use x="127.246094" xlink:href="#DejaVuSans-51"/>
    </g>
   </g>
   <g id="text_5">
    <!-- 46 -->
    <defs>
     <path d="M 33.015625 40.375 
Q 26.375 40.375 22.484375 35.828125 
Q 18.609375 31.296875 18.609375 23.390625 
Q 18.609375 15.53125 22.484375 10.953125 
Q 26.375 6.390625 33.015625 6.390625 
Q 39.65625 6.390625 43.53125 10.953125 
Q 47.40625 15.53125 47.40625 23.390625 
Q 47.40625 31.296875 43.53125 35.828125 
Q 39.65625 40.375 33.015625 40.375 
z
M 52.59375 71.296875 
L 52.59375 62.3125 
Q 48.875 64.0625 45.09375 64.984375 
Q 41.3125 65.921875 37.59375 65.921875 
Q 27.828125 65.921875 22.671875 59.328125 
Q 17.53125 52.734375 16.796875 39.40625 
Q 19.671875 43.65625 24.015625 45.921875 
Q 28.375 48.1875 33.59375 48.1875 
Q 44.578125 48.1875 50.953125 41.515625 
Q 57.328125 34.859375 57.328125 23.390625 
Q 57.328125 12.15625 50.6875 5.359375 
Q 44.046875 -1.421875 33.015625 -1.421875 
Q 20.359375 -1.421875 13.671875 8.265625 
Q 6.984375 17.96875 6.984375 36.375 
Q 6.984375 53.65625 15.1875 63.9375 
Q 23.390625 74.21875 37.203125 74.21875 
Q 40.921875 74.21875 44.703125 73.484375 
Q 48.484375 72.75 52.59375 71.296875 
z
" id="DejaVuSans-54"/>
    </defs>
    <g transform="translate(480.248544 335.441728)scale(0.1 -0.1)">
     <use xlink:href="#DejaVuSans-52"/>
     <use x="63.623047" xlink:href="#DejaVuSans-54"/>
    </g>
   </g>
   <g id="text_6">
    <!-- TOP -->
    <defs>
     <path d="M -0.296875 72.90625 
L 61.375 72.90625 
L 61.375 64.59375 
L 35.5 64.59375 
L 35.5 0 
L 25.59375 0 
L 25.59375 64.59375 
L -0.296875 64.59375 
z
" id="DejaVuSans-84"/>
     <path d="M 39.40625 66.21875 
Q 28.65625 66.21875 22.328125 58.203125 
Q 16.015625 50.203125 16.015625 36.375 
Q 16.015625 22.609375 22.328125 14.59375 
Q 28.65625 6.59375 39.40625 6.59375 
Q 50.140625 6.59375 56.421875 14.59375 
Q 62.703125 22.609375 62.703125 36.375 
Q 62.703125 50.203125 56.421875 58.203125 
Q 50.140625 66.21875 39.40625 66.21875 
z
M 39.40625 74.21875 
Q 54.734375 74.21875 63.90625 63.9375 
Q 73.09375 53.65625 73.09375 36.375 
Q 73.09375 19.140625 63.90625 8.859375 
Q 54.734375 -1.421875 39.40625 -1.421875 
Q 24.03125 -1.421875 14.8125 8.828125 
Q 5.609375 19.09375 5.609375 36.375 
Q 5.609375 53.65625 14.8125 63.9375 
Q 24.03125 74.21875 39.40625 74.21875 
z
" id="DejaVuSans-79"/>
     <path d="M 19.671875 64.796875 
L 19.671875 37.40625 
L 32.078125 37.40625 
Q 38.96875 37.40625 42.71875 40.96875 
Q 46.484375 44.53125 46.484375 51.125 
Q 46.484375 57.671875 42.71875 61.234375 
Q 38.96875 64.796875 32.078125 64.796875 
z
M 9.8125 72.90625 
L 32.078125 72.90625 
Q 44.34375 72.90625 50.609375 67.359375 
Q 56.890625 61.8125 56.890625 51.125 
Q 56.890625 40.328125 50.609375 34.8125 
Q 44.34375 29.296875 32.078125 29.296875 
L 19.671875 29.296875 
L 19.671875 0 
L 9.8125 0 
z
" id="DejaVuSans-80"/>
    </defs>
    <g transform="translate(319.507425 475.144574)scale(0.12 -0.12)">
     <use xlink:href="#DejaVuSans-84"/>
     <use x="61.083984" xlink:href="#DejaVuSans-79"/>
     <use x="139.794922" xlink:href="#DejaVuSans-80"/>
    </g>
   </g>
   <g id="text_7">
    <!-- BTM -->
    <defs>
     <path d="M 19.671875 34.8125 
L 19.671875 8.109375 
L 35.5 8.109375 
Q 43.453125 8.109375 47.28125 11.40625 
Q 51.125 14.703125 51.125 21.484375 
Q 51.125 28.328125 47.28125 31.5625 
Q 43.453125 34.8125 35.5 34.8125 
z
M 19.671875 64.796875 
L 19.671875 42.828125 
L 34.28125 42.828125 
Q 41.5 42.828125 45.03125 45.53125 
Q 48.578125 48.25 48.578125 53.8125 
Q 48.578125 59.328125 45.03125 62.0625 
Q 41.5 64.796875 34.28125 64.796875 
z
M 9.8125 72.90625 
L 35.015625 72.90625 
Q 46.296875 72.90625 52.390625 68.21875 
Q 58.5 63.53125 58.5 54.890625 
Q 58.5 48.1875 55.375 44.234375 
Q 52.25 40.28125 46.1875 39.3125 
Q 53.46875 37.75 57.5 32.78125 
Q 61.53125 27.828125 61.53125 20.40625 
Q 61.53125 10.640625 54.890625 5.3125 
Q 48.25 0 35.984375 0 
L 9.8125 0 
z
" id="DejaVuSans-66"/>
     <path d="M 9.8125 72.90625 
L 24.515625 72.90625 
L 43.109375 23.296875 
L 61.8125 72.90625 
L 76.515625 72.90625 
L 76.515625 0 
L 66.890625 0 
L 66.890625 64.015625 
L 48.09375 14.015625 
L 38.1875 14.015625 
L 19.390625 64.015625 
L 19.390625 0 
L 9.8125 0 
z
" id="DejaVuSans-77"/>
    </defs>
    <g transform="translate(546.565819 451.380307)scale(0.12 -0.12)">
     <use xlink:href="#DejaVuSans-66"/>
     <use x="68.603516" xlink:href="#DejaVuSans-84"/>
     <use x="129.6875" xlink:href="#DejaVuSans-77"/>
    </g>
   </g>
   <g id="text_8">
    <!-- BURGOS -->
    <defs>
     <path d="M 8.6875 72.90625 
L 18.609375 72.90625 
L 18.609375 28.609375 
Q 18.609375 16.890625 22.84375 11.734375 
Q 27.09375 6.59375 36.625 6.59375 
Q 46.09375 6.59375 50.34375 11.734375 
Q 54.59375 16.890625 54.59375 28.609375 
L 54.59375 72.90625 
L 64.5 72.90625 
L 64.5 27.390625 
Q 64.5 13.140625 57.4375 5.859375 
Q 50.390625 -1.421875 36.625 -1.421875 
Q 22.796875 -1.421875 15.734375 5.859375 
Q 8.6875 13.140625 8.6875 27.390625 
z
" id="DejaVuSans-85"/>
     <path d="M 44.390625 34.1875 
Q 47.5625 33.109375 50.5625 29.59375 
Q 53.5625 26.078125 56.59375 19.921875 
L 66.609375 0 
L 56 0 
L 46.6875 18.703125 
Q 43.0625 26.03125 39.671875 28.421875 
Q 36.28125 30.8125 30.421875 30.8125 
L 19.671875 30.8125 
L 19.671875 0 
L 9.8125 0 
L 9.8125 72.90625 
L 32.078125 72.90625 
Q 44.578125 72.90625 50.734375 67.671875 
Q 56.890625 62.453125 56.890625 51.90625 
Q 56.890625 45.015625 53.6875 40.46875 
Q 50.484375 35.9375 44.390625 34.1875 
z
M 19.671875 64.796875 
L 19.671875 38.921875 
L 32.078125 38.921875 
Q 39.203125 38.921875 42.84375 42.21875 
Q 46.484375 45.515625 46.484375 51.90625 
Q 46.484375 58.296875 42.84375 61.546875 
Q 39.203125 64.796875 32.078125 64.796875 
z
" id="DejaVuSans-82"/>
     <path d="M 59.515625 10.40625 
L 59.515625 29.984375 
L 43.40625 29.984375 
L 43.40625 38.09375 
L 69.28125 38.09375 
L 69.28125 6.78125 
Q 63.578125 2.734375 56.6875 0.65625 
Q 49.8125 -1.421875 42 -1.421875 
Q 24.90625 -1.421875 15.25 8.5625 
Q 5.609375 18.5625 5.609375 36.375 
Q 5.609375 54.25 15.25 64.234375 
Q 24.90625 74.21875 42 74.21875 
Q 49.125 74.21875 55.546875 72.453125 
Q 61.96875 70.703125 67.390625 67.28125 
L 67.390625 56.78125 
Q 61.921875 61.421875 55.765625 63.765625 
Q 49.609375 66.109375 42.828125 66.109375 
Q 29.4375 66.109375 22.71875 58.640625 
Q 16.015625 51.171875 16.015625 36.375 
Q 16.015625 21.625 22.71875 14.15625 
Q 29.4375 6.6875 42.828125 6.6875 
Q 48.046875 6.6875 52.140625 7.59375 
Q 56.25 8.5 59.515625 10.40625 
z
" id="DejaVuSans-71"/>
     <path d="M 53.515625 70.515625 
L 53.515625 60.890625 
Q 47.90625 63.578125 42.921875 64.890625 
Q 37.9375 66.21875 33.296875 66.21875 
Q 25.25 66.21875 20.875 63.09375 
Q 16.5 59.96875 16.5 54.203125 
Q 16.5 49.359375 19.40625 46.890625 
Q 22.3125 44.4375 30.421875 42.921875 
L 36.375 41.703125 
Q 47.40625 39.59375 52.65625 34.296875 
Q 57.90625 29 57.90625 20.125 
Q 57.90625 9.515625 50.796875 4.046875 
Q 43.703125 -1.421875 29.984375 -1.421875 
Q 24.8125 -1.421875 18.96875 -0.25 
Q 13.140625 0.921875 6.890625 3.21875 
L 6.890625 13.375 
Q 12.890625 10.015625 18.65625 8.296875 
Q 24.421875 6.59375 29.984375 6.59375 
Q 38.421875 6.59375 43.015625 9.90625 
Q 47.609375 13.234375 47.609375 19.390625 
Q 47.609375 24.75 44.3125 27.78125 
Q 41.015625 30.8125 33.5 32.328125 
L 27.484375 33.5 
Q 16.453125 35.6875 11.515625 40.375 
Q 6.59375 45.0625 6.59375 53.421875 
Q 6.59375 63.09375 13.40625 68.65625 
Q 20.21875 74.21875 32.171875 74.21875 
Q 37.3125 74.21875 42.625 73.28125 
Q 47.953125 72.359375 53.515625 70.515625 
z
" id="DejaVuSans-83"/>
    </defs>
    <g transform="translate(384.222618 454.997707)scale(0.12 -0.12)">
     <use xlink:href="#DejaVuSans-66"/>
     <use x="68.603516" xlink:href="#DejaVuSans-85"/>
     <use x="141.796875" xlink:href="#DejaVuSans-82"/>
     <use x="211.279297" xlink:href="#DejaVuSans-71"/>
     <use x="288.769531" xlink:href="#DejaVuSans-79"/>
     <use x="367.480469" xlink:href="#DejaVuSans-83"/>
    </g>
   </g>
   <g id="text_9">
    <!-- BURGOS vs MIX P150 -->
    <defs>
     <path id="DejaVuSans-32"/>
     <path d="M 2.984375 54.6875 
L 12.5 54.6875 
L 29.59375 8.796875 
L 46.6875 54.6875 
L 56.203125 54.6875 
L 35.6875 0 
L 23.484375 0 
z
" id="DejaVuSans-118"/>
     <path d="M 44.28125 53.078125 
L 44.28125 44.578125 
Q 40.484375 46.53125 36.375 47.5 
Q 32.28125 48.484375 27.875 48.484375 
Q 21.1875 48.484375 17.84375 46.4375 
Q 14.5 44.390625 14.5 40.28125 
Q 14.5 37.15625 16.890625 35.375 
Q 19.28125 33.59375 26.515625 31.984375 
L 29.59375 31.296875 
Q 39.15625 29.25 43.1875 25.515625 
Q 47.21875 21.78125 47.21875 15.09375 
Q 47.21875 7.46875 41.1875 3.015625 
Q 35.15625 -1.421875 24.609375 -1.421875 
Q 20.21875 -1.421875 15.453125 -0.5625 
Q 10.6875 0.296875 5.421875 2 
L 5.421875 11.28125 
Q 10.40625 8.6875 15.234375 7.390625 
Q 20.0625 6.109375 24.8125 6.109375 
Q 31.15625 6.109375 34.5625 8.28125 
Q 37.984375 10.453125 37.984375 14.40625 
Q 37.984375 18.0625 35.515625 20.015625 
Q 33.0625 21.96875 24.703125 23.78125 
L 21.578125 24.515625 
Q 13.234375 26.265625 9.515625 29.90625 
Q 5.8125 33.546875 5.8125 39.890625 
Q 5.8125 47.609375 11.28125 51.796875 
Q 16.75 56 26.8125 56 
Q 31.78125 56 36.171875 55.265625 
Q 40.578125 54.546875 44.28125 53.078125 
z
" id="DejaVuSans-115"/>
     <path d="M 9.8125 72.90625 
L 19.671875 72.90625 
L 19.671875 0 
L 9.8125 0 
z
" id="DejaVuSans-73"/>
     <path d="M 6.296875 72.90625 
L 16.890625 72.90625 
L 35.015625 45.796875 
L 53.21875 72.90625 
L 63.8125 72.90625 
L 40.375 37.890625 
L 65.375 0 
L 54.78125 0 
L 34.28125 31 
L 13.625 0 
L 2.984375 0 
L 29 38.921875 
z
" id="DejaVuSans-88"/>
     <path d="M 31.78125 66.40625 
Q 24.171875 66.40625 20.328125 58.90625 
Q 16.5 51.421875 16.5 36.375 
Q 16.5 21.390625 20.328125 13.890625 
Q 24.171875 6.390625 31.78125 6.390625 
Q 39.453125 6.390625 43.28125 13.890625 
Q 47.125 21.390625 47.125 36.375 
Q 47.125 51.421875 43.28125 58.90625 
Q 39.453125 66.40625 31.78125 66.40625 
z
M 31.78125 74.21875 
Q 44.046875 74.21875 50.515625 64.515625 
Q 56.984375 54.828125 56.984375 36.375 
Q 56.984375 17.96875 50.515625 8.265625 
Q 44.046875 -1.421875 31.78125 -1.421875 
Q 19.53125 -1.421875 13.0625 8.265625 
Q 6.59375 17.96875 6.59375 36.375 
Q 6.59375 54.828125 13.0625 64.515625 
Q 19.53125 74.21875 31.78125 74.21875 
z
" id="DejaVuSans-48"/>
    </defs>
    <g transform="translate(369.253551 175.169303)scale(0.12 -0.12)">
     <use xlink:href="#DejaVuSans-66"/>
     <use x="68.603516" xlink:href="#DejaVuSans-85"/>
     <use x="141.796875" xlink:href="#DejaVuSans-82"/>
     <use x="211.279297" xlink:href="#DejaVuSans-71"/>
     <use x="288.769531" xlink:href="#DejaVuSans-79"/>
     <use x="367.480469" xlink:href="#DejaVuSans-83"/>
     <use x="430.957031" xlink:href="#DejaVuSans-32"/>
     <use x="462.744141" xlink:href="#DejaVuSans-118"/>
     <use x="521.923828" xlink:href="#DejaVuSans-115"/>
     <use x="574.023438" xlink:href="#DejaVuSans-32"/>
     <use x="605.810547" xlink:href="#DejaVuSans-77"/>
     <use x="692.089844" xlink:href="#DejaVuSans-73"/>
     <use x="721.582031" xlink:href="#DejaVuSans-88"/>
     <use x="790.087891" xlink:href="#DejaVuSans-32"/>
     <use x="821.875" xlink:href="#DejaVuSans-80"/>
     <use x="882.177734" xlink:href="#DejaVuSans-49"/>
     <use x="945.800781" xlink:href="#DejaVuSans-53"/>
     <use x="1009.423828" xlink:href="#DejaVuSans-48"/>
    </g>
   </g>
  </g>
  <g id="axes_2">
   <g id="patch_7">
    <path clip-path="url(#p81252733bd)" d="M 1004.850318 438.769887 
C 980.994709 433.085799 959.739766 419.518033 944.54099 400.272354 
C 929.342214 381.026675 921.070438 357.20579 921.070438 332.682353 
C 921.070438 308.158916 929.342214 284.33803 944.54099 265.092352 
C 959.739766 245.846673 980.994709 232.278907 1004.850318 226.594819 
C 986.104255 215.420904 964.72719 209.412861 942.90474 209.184961 
C 921.082289 208.95706 899.584412 214.517343 880.609076 225.297319 
C 861.633739 236.077295 845.850448 251.696616 834.872904 270.558344 
C 823.895359 289.420073 818.110881 310.858713 818.110881 332.682353 
C 818.110881 354.505993 823.895359 375.944633 834.872904 394.806362 
C 845.850448 413.66809 861.633739 429.287411 880.609076 440.067387 
C 899.584412 450.847363 921.082289 456.407646 942.90474 456.179745 
C 964.72719 455.951845 986.104255 449.943802 1004.850318 438.769887 
" style="fill:#ff0000;opacity:0.4;"/>
   </g>
   <g id="patch_8">
    <path clip-path="url(#p81252733bd)" d="M 1105.832479 254.181863 
C 1116.380581 264.354285 1124.770981 276.549153 1130.501323 290.036325 
C 1136.231665 303.523498 1139.185255 318.028322 1139.185255 332.682353 
C 1139.185255 347.336384 1136.231665 361.841208 1130.501323 375.328381 
C 1124.770981 388.815553 1116.380581 401.010421 1105.832479 411.182843 
C 1120.53567 422.650993 1138.169258 429.760835 1156.715071 431.698644 
C 1175.260884 433.636453 1193.983331 430.325369 1210.739617 422.144347 
C 1227.495904 413.963325 1241.62142 401.236852 1251.499491 385.42148 
C 1261.377562 369.606109 1266.616391 351.329129 1266.616391 332.682353 
C 1266.616391 314.035577 1261.377562 295.758597 1251.499491 279.943226 
C 1241.62142 264.127854 1227.495904 251.401381 1210.739617 243.220359 
C 1193.983331 235.039337 1175.260884 231.728253 1156.715071 233.666062 
C 1138.169258 235.603871 1120.53567 242.713713 1105.832479 254.181863 
" style="fill:#008000;opacity:0.4;"/>
   </g>
   <g id="patch_9">
    <path clip-path="url(#p81252733bd)" d="M 1004.850318 438.769887 
C 1022.644302 443.009668 1041.222279 442.70523 1058.867792 437.8847 
C 1076.513304 433.064171 1092.66565 423.880726 1105.832479 411.182843 
C 1093.896869 401.873342 1084.240169 389.96317 1077.59906 376.360917 
C 1070.957951 362.758664 1067.505716 347.819249 1067.505716 332.682353 
C 1067.505716 317.545457 1070.957951 302.606042 1077.59906 289.003789 
C 1084.240169 275.401536 1093.896869 263.491364 1105.832479 254.181863 
C 1092.66565 241.48398 1076.513304 232.300535 1058.867792 227.480005 
C 1041.222279 222.659476 1022.644302 222.355037 1004.850318 226.594819 
C 1023.22087 237.544904 1038.436005 253.081188 1049.000042 271.67642 
C 1059.564079 290.271653 1065.119135 311.295873 1065.119135 332.682353 
C 1065.119135 354.068833 1059.564079 375.093053 1049.000042 393.688285 
C 1038.436005 412.283518 1023.22087 427.819802 1004.850318 438.769887 
" style="fill:#0000ff;opacity:0.4;"/>
   </g>
   <g id="patch_10">
    <path clip-path="url(#p81252733bd)" d="M 1004.850318 438.769887 
C 1023.22087 427.819802 1038.436005 412.283518 1049.000042 393.688285 
C 1059.564079 375.093053 1065.119135 354.068833 1065.119135 332.682353 
C 1065.119135 311.295873 1059.564079 290.271653 1049.000042 271.67642 
C 1038.436005 253.081188 1023.22087 237.544904 1004.850318 226.594819 
C 980.994709 232.278907 959.739766 245.846673 944.54099 265.092352 
C 929.342214 284.33803 921.070438 308.158916 921.070438 332.682353 
C 921.070438 357.20579 929.342214 381.026675 944.54099 400.272354 
C 959.739766 419.518033 980.994709 433.085799 1004.850318 438.769887 
" style="fill:#b200b2;opacity:0.4;"/>
   </g>
   <g id="patch_11">
    <path clip-path="url(#p81252733bd)" d="M 1105.832479 254.181863 
C 1093.896869 263.491364 1084.240169 275.401536 1077.59906 289.003789 
C 1070.957951 302.606042 1067.505716 317.545457 1067.505716 332.682353 
C 1067.505716 347.819249 1070.957951 362.758664 1077.59906 376.360917 
C 1084.240169 389.96317 1093.896869 401.873342 1105.832479 411.182843 
C 1116.380581 401.010421 1124.770981 388.815553 1130.501323 375.328381 
C 1136.231665 361.841208 1139.185255 347.336384 1139.185255 332.682353 
C 1139.185255 318.028322 1136.231665 303.523498 1130.501323 290.036325 
C 1124.770981 276.549153 1116.380581 264.354285 1105.832479 254.181863 
" style="fill:#0059b2;opacity:0.4;"/>
   </g>
   <g id="text_10">
    <!-- 243 -->
    <g transform="translate(860.04691 335.441728)scale(0.1 -0.1)">
     <use xlink:href="#DejaVuSans-50"/>
     <use x="63.623047" xlink:href="#DejaVuSans-52"/>
     <use x="127.246094" xlink:href="#DejaVuSans-51"/>
    </g>
   </g>
   <g id="text_11">
    <!-- 221 -->
    <g transform="translate(1193.357073 335.441728)scale(0.1 -0.1)">
     <use xlink:href="#DejaVuSans-50"/>
     <use x="63.623047" xlink:href="#DejaVuSans-50"/>
     <use x="127.246094" xlink:href="#DejaVuSans-49"/>
    </g>
   </g>
   <g id="text_12">
    <!-- 69 -->
    <g transform="translate(1057.366555 335.441728)scale(0.1 -0.1)">
     <use xlink:href="#DejaVuSans-54"/>
     <use x="63.623047" xlink:href="#DejaVuSans-57"/>
    </g>
   </g>
   <g id="text_13">
    <!-- 211 -->
    <g transform="translate(983.551037 335.441728)scale(0.1 -0.1)">
     <use xlink:href="#DejaVuSans-50"/>
     <use x="63.623047" xlink:href="#DejaVuSans-49"/>
     <use x="127.246094" xlink:href="#DejaVuSans-49"/>
    </g>
   </g>
   <g id="text_14">
    <!-- 74 -->
    <defs>
     <path d="M 8.203125 72.90625 
L 55.078125 72.90625 
L 55.078125 68.703125 
L 28.609375 0 
L 18.3125 0 
L 43.21875 64.59375 
L 8.203125 64.59375 
z
" id="DejaVuSans-55"/>
    </defs>
    <g transform="translate(1096.982985 335.441728)scale(0.1 -0.1)">
     <use xlink:href="#DejaVuSans-55"/>
     <use x="63.623047" xlink:href="#DejaVuSans-52"/>
    </g>
   </g>
   <g id="text_15">
    <!-- TOP -->
    <g transform="translate(929.609383 476.375167)scale(0.12 -0.12)">
     <use xlink:href="#DejaVuSans-84"/>
     <use x="61.083984" xlink:href="#DejaVuSans-79"/>
     <use x="139.794922" xlink:href="#DejaVuSans-80"/>
    </g>
   </g>
   <g id="text_16">
    <!-- BTM -->
    <g transform="translate(1154.102928 452.426378)scale(0.12 -0.12)">
     <use xlink:href="#DejaVuSans-66"/>
     <use x="68.603516" xlink:href="#DejaVuSans-84"/>
     <use x="129.6875" xlink:href="#DejaVuSans-77"/>
    </g>
   </g>
   <g id="text_17">
    <!-- PAREDES -->
    <defs>
     <path d="M 34.1875 63.1875 
L 20.796875 26.90625 
L 47.609375 26.90625 
z
M 28.609375 72.90625 
L 39.796875 72.90625 
L 67.578125 0 
L 57.328125 0 
L 50.6875 18.703125 
L 17.828125 18.703125 
L 11.1875 0 
L 0.78125 0 
z
" id="DejaVuSans-65"/>
     <path d="M 9.8125 72.90625 
L 55.90625 72.90625 
L 55.90625 64.59375 
L 19.671875 64.59375 
L 19.671875 43.015625 
L 54.390625 43.015625 
L 54.390625 34.71875 
L 19.671875 34.71875 
L 19.671875 8.296875 
L 56.78125 8.296875 
L 56.78125 0 
L 9.8125 0 
z
" id="DejaVuSans-69"/>
     <path d="M 19.671875 64.796875 
L 19.671875 8.109375 
L 31.59375 8.109375 
Q 46.6875 8.109375 53.6875 14.9375 
Q 60.6875 21.78125 60.6875 36.53125 
Q 60.6875 51.171875 53.6875 57.984375 
Q 46.6875 64.796875 31.59375 64.796875 
z
M 9.8125 72.90625 
L 30.078125 72.90625 
Q 51.265625 72.90625 61.171875 64.09375 
Q 71.09375 55.28125 71.09375 36.53125 
Q 71.09375 17.671875 61.125 8.828125 
Q 51.171875 0 30.078125 0 
L 9.8125 0 
z
" id="DejaVuSans-68"/>
    </defs>
    <g transform="translate(1002.230659 461.928449)scale(0.12 -0.12)">
     <use xlink:href="#DejaVuSans-80"/>
     <use x="60.208984" xlink:href="#DejaVuSans-65"/>
     <use x="128.617188" xlink:href="#DejaVuSans-82"/>
     <use x="198.099609" xlink:href="#DejaVuSans-69"/>
     <use x="261.283203" xlink:href="#DejaVuSans-68"/>
     <use x="338.285156" xlink:href="#DejaVuSans-69"/>
     <use x="401.46875" xlink:href="#DejaVuSans-83"/>
    </g>
   </g>
   <g id="text_18">
    <!-- PAREDES vs MIX P150 -->
    <g transform="translate(975.941761 173.794618)scale(0.12 -0.12)">
     <use xlink:href="#DejaVuSans-80"/>
     <use x="60.208984" xlink:href="#DejaVuSans-65"/>
     <use x="128.617188" xlink:href="#DejaVuSans-82"/>
     <use x="198.099609" xlink:href="#DejaVuSans-69"/>
     <use x="261.283203" xlink:href="#DejaVuSans-68"/>
     <use x="338.285156" xlink:href="#DejaVuSans-69"/>
     <use x="401.46875" xlink:href="#DejaVuSans-83"/>
     <use x="464.945312" xlink:href="#DejaVuSans-32"/>
     <use x="496.732422" xlink:href="#DejaVuSans-118"/>
     <use x="555.912109" xlink:href="#DejaVuSans-115"/>
     <use x="608.011719" xlink:href="#DejaVuSans-32"/>
     <use x="639.798828" xlink:href="#DejaVuSans-77"/>
     <use x="726.078125" xlink:href="#DejaVuSans-73"/>
     <use x="755.570312" xlink:href="#DejaVuSans-88"/>
     <use x="824.076172" xlink:href="#DejaVuSans-32"/>
     <use x="855.863281" xlink:href="#DejaVuSans-80"/>
     <use x="916.166016" xlink:href="#DejaVuSans-49"/>
     <use x="979.789062" xlink:href="#DejaVuSans-53"/>
     <use x="1043.412109" xlink:href="#DejaVuSans-48"/>
    </g>
   </g>
  </g>
  <g id="axes_3">
   <g id="patch_12">
    <path clip-path="url(#pb0c24c7291)" d="M 329.610518 619.721519 
C 351.338524 624.915052 370.693914 637.284855 384.533262 654.822001 
C 398.372611 672.359147 405.903842 694.059923 405.903842 716.4 
C 405.903842 738.740077 398.372611 760.440853 384.533262 777.977999 
C 370.693914 795.515145 351.338524 807.884948 329.610518 813.078481 
C 342.477064 813.348741 355.269053 811.047767 367.234909 806.310749 
C 379.200766 801.573731 390.101463 794.495296 399.296547 785.491325 
C 408.491631 776.487354 415.797422 765.737709 420.784681 753.87397 
C 425.771939 742.010231 428.34104 729.269384 428.34104 716.4 
C 428.34104 703.530616 425.771939 690.789769 420.784681 678.92603 
C 415.797422 667.062291 408.491631 656.312646 399.296547 647.308675 
C 390.101463 638.304704 379.200766 631.226269 367.234909 626.489251 
C 355.269053 621.752233 342.477064 619.451259 329.610518 619.721519 
" style="fill:#ff0000;opacity:0.4;"/>
   </g>
   <g id="patch_13">
    <path clip-path="url(#pb0c24c7291)" d="M 549.776645 826.796004 
C 579.054007 826.796004 607.136186 815.163985 627.838408 794.461763 
C 648.54063 773.759542 660.172649 745.677363 660.172649 716.4 
C 660.172649 687.122637 648.54063 659.040458 627.838408 638.338237 
C 607.136186 617.636015 579.054007 606.003996 549.776645 606.003996 
C 520.499282 606.003996 492.417103 617.636015 471.714882 638.338237 
C 451.01266 659.040458 439.380641 687.122637 439.380641 716.4 
C 439.380641 745.677363 451.01266 773.759542 471.714882 794.461763 
C 492.417103 815.163985 520.499282 826.796004 549.776645 826.796004 
z
" style="fill:#008000;opacity:0.4;"/>
   </g>
   <g id="patch_14">
    <path clip-path="url(#pb0c24c7291)" d="M 329.610518 813.078481 
C 304.330583 812.54748 280.240732 802.121631 262.549909 784.055313 
C 244.859086 765.988994 234.941428 741.685511 234.941428 716.4 
C 234.941428 691.114489 244.859086 666.811006 262.549909 648.744687 
C 280.240732 630.678369 304.330583 620.25252 329.610518 619.721519 
C 315.003636 616.230111 299.793657 616.094049 285.126652 619.323585 
C 270.459647 622.553121 256.713493 629.065049 244.923961 638.368698 
C 233.134429 647.672346 223.605262 659.528017 217.054481 673.042388 
C 210.5037 686.556758 207.100078 701.381647 207.100078 716.4 
C 207.100078 731.418353 210.5037 746.243242 217.054481 759.757612 
C 223.605262 773.271983 233.134429 785.127654 244.923961 794.431302 
C 256.713493 803.734951 270.459647 810.246879 285.126652 813.476415 
C 299.793657 816.705951 315.003636 816.569889 329.610518 813.078481 
" style="fill:#0000ff;opacity:0.4;"/>
   </g>
   <g id="patch_15">
    <path clip-path="url(#pb0c24c7291)" d="M 329.610518 619.721519 
C 304.330583 620.25252 280.240732 630.678369 262.549909 648.744687 
C 244.859086 666.811006 234.941428 691.114489 234.941428 716.4 
C 234.941428 741.685511 244.859086 765.988994 262.549909 784.055313 
C 280.240732 802.121631 304.330583 812.54748 329.610518 813.078481 
C 351.338524 807.884948 370.693914 795.515145 384.533262 777.977999 
C 398.372611 760.440853 405.903842 738.740077 405.903842 716.4 
C 405.903842 694.059923 398.372611 672.359147 384.533262 654.822001 
C 370.693914 637.284855 351.338524 624.915052 329.610518 619.721519 
" style="fill:#b200b2;opacity:0.4;"/>
   </g>
   <g id="text_19">
    <!-- 42 -->
    <g transform="translate(410.759941 719.159375)scale(0.1 -0.1)">
     <use xlink:href="#DejaVuSans-52"/>
     <use x="63.623047" xlink:href="#DejaVuSans-50"/>
    </g>
   </g>
   <g id="text_20">
    <!-- 391 -->
    <g transform="translate(540.232895 719.159375)scale(0.1 -0.1)">
     <use xlink:href="#DejaVuSans-51"/>
     <use x="63.623047" xlink:href="#DejaVuSans-57"/>
     <use x="127.246094" xlink:href="#DejaVuSans-49"/>
    </g>
   </g>
   <g id="text_21">
    <!-- 59 -->
    <g transform="translate(214.658253 719.159375)scale(0.1 -0.1)">
     <use xlink:href="#DejaVuSans-53"/>
     <use x="63.623047" xlink:href="#DejaVuSans-57"/>
    </g>
   </g>
   <g id="text_22">
    <!-- 258 -->
    <g transform="translate(310.878885 719.159375)scale(0.1 -0.1)">
     <use xlink:href="#DejaVuSans-50"/>
     <use x="63.623047" xlink:href="#DejaVuSans-53"/>
     <use x="127.246094" xlink:href="#DejaVuSans-56"/>
    </g>
   </g>
   <g id="text_23">
    <!-- TOP -->
    <g transform="translate(319.635609 832.434521)scale(0.12 -0.12)">
     <use xlink:href="#DejaVuSans-84"/>
     <use x="61.083984" xlink:href="#DejaVuSans-79"/>
     <use x="139.794922" xlink:href="#DejaVuSans-80"/>
    </g>
   </g>
   <g id="text_24">
    <!-- BTM -->
    <g transform="translate(536.81852 846.130719)scale(0.12 -0.12)">
     <use xlink:href="#DejaVuSans-66"/>
     <use x="68.603516" xlink:href="#DejaVuSans-84"/>
     <use x="129.6875" xlink:href="#DejaVuSans-77"/>
    </g>
   </g>
   <g id="text_25">
    <!-- BURGOS -->
    <g transform="translate(280.643835 835.136597)scale(0.12 -0.12)">
     <use xlink:href="#DejaVuSans-66"/>
     <use x="68.603516" xlink:href="#DejaVuSans-85"/>
     <use x="141.796875" xlink:href="#DejaVuSans-82"/>
     <use x="211.279297" xlink:href="#DejaVuSans-71"/>
     <use x="288.769531" xlink:href="#DejaVuSans-79"/>
     <use x="367.480469" xlink:href="#DejaVuSans-83"/>
    </g>
   </g>
   <g id="text_26">
    <!-- BURGOS vs MIX P180 -->
    <g transform="translate(369.253551 572.903918)scale(0.12 -0.12)">
     <use xlink:href="#DejaVuSans-66"/>
     <use x="68.603516" xlink:href="#DejaVuSans-85"/>
     <use x="141.796875" xlink:href="#DejaVuSans-82"/>
     <use x="211.279297" xlink:href="#DejaVuSans-71"/>
     <use x="288.769531" xlink:href="#DejaVuSans-79"/>
     <use x="367.480469" xlink:href="#DejaVuSans-83"/>
     <use x="430.957031" xlink:href="#DejaVuSans-32"/>
     <use x="462.744141" xlink:href="#DejaVuSans-118"/>
     <use x="521.923828" xlink:href="#DejaVuSans-115"/>
     <use x="574.023438" xlink:href="#DejaVuSans-32"/>
     <use x="605.810547" xlink:href="#DejaVuSans-77"/>
     <use x="692.089844" xlink:href="#DejaVuSans-73"/>
     <use x="721.582031" xlink:href="#DejaVuSans-88"/>
     <use x="790.087891" xlink:href="#DejaVuSans-32"/>
     <use x="821.875" xlink:href="#DejaVuSans-80"/>
     <use x="882.177734" xlink:href="#DejaVuSans-49"/>
     <use x="945.800781" xlink:href="#DejaVuSans-56"/>
     <use x="1009.423828" xlink:href="#DejaVuSans-48"/>
    </g>
   </g>
  </g>
  <g id="axes_4">
   <g id="patch_16">
    <path clip-path="url(#pf3a2ccb5f4)" d="M 1002.611503 735.318043 
C 1001.438733 729.080313 1000.848535 722.74702 1000.848535 716.4 
C 1000.848535 710.05298 1001.438733 703.719687 1002.611503 697.481957 
C 1000.287936 686.141202 995.894775 675.324965 989.652416 665.575881 
C 983.410057 655.826797 975.424667 647.310672 966.096862 640.454746 
C 956.769056 633.59882 946.257475 628.519695 935.089469 625.472183 
C 923.921464 622.424671 912.286971 621.460601 900.769677 622.628341 
C 889.252383 623.79608 878.048165 627.075768 867.719124 632.302868 
C 857.390082 637.529968 848.111884 644.61558 840.350005 653.20423 
C 832.588127 661.792881 826.474574 671.738499 822.316057 682.542129 
C 818.15754 693.345758 816.024783 704.823659 816.024783 716.4 
C 816.024783 727.976341 818.15754 739.454242 822.316057 750.257871 
C 826.474574 761.061501 832.588127 771.007119 840.350005 779.59577 
C 848.111884 788.18442 857.390082 795.270032 867.719124 800.497132 
C 878.048165 805.724232 889.252383 809.00392 900.769677 810.171659 
C 912.286971 811.339399 923.921464 810.375329 935.089469 807.327817 
C 946.257475 804.280305 956.769056 799.20118 966.096862 792.345254 
C 975.424667 785.489328 983.410057 776.973203 989.652416 767.224119 
C 995.894775 757.475035 1000.287936 746.658798 1002.611503 735.318043 
" style="fill:#ff0000;opacity:0.4;"/>
   </g>
   <g id="patch_17">
    <path clip-path="url(#pf3a2ccb5f4)" d="M 1122.699972 615.883426 
C 1146.036835 620.403092 1167.086682 632.911821 1182.212848 651.24855 
C 1197.339015 669.585279 1205.617185 692.629502 1205.617185 716.4 
C 1205.617185 740.170498 1197.339015 763.214721 1182.212848 781.55145 
C 1167.086682 799.888179 1146.036835 812.396908 1122.699972 816.916574 
C 1138.992972 823.141021 1156.557686 825.311671 1173.875811 823.24089 
C 1191.193937 821.170109 1207.751675 814.919334 1222.117769 805.028885 
C 1236.483862 795.138436 1248.232092 781.901746 1256.346937 766.462999 
C 1264.461783 751.024252 1268.70249 733.841491 1268.70249 716.4 
C 1268.70249 698.958509 1264.461783 681.775748 1256.346937 666.337001 
C 1248.232092 650.898254 1236.483862 637.661564 1222.117769 627.771115 
C 1207.751675 617.880666 1191.193937 611.629891 1173.875811 609.55911 
C 1156.557686 607.488329 1138.992972 609.658979 1122.699972 615.883426 
" style="fill:#008000;opacity:0.4;"/>
   </g>
   <g id="patch_18">
    <path clip-path="url(#pf3a2ccb5f4)" d="M 1002.611503 735.318043 
C 1005.104487 748.577739 1010.194067 761.214813 1017.586962 772.50107 
C 1024.979856 783.787327 1034.531282 793.501736 1045.69085 801.084515 
C 1056.850418 808.667294 1069.399577 813.969941 1082.615198 816.686898 
C 1095.830819 819.403856 1109.454085 819.481913 1122.699972 816.916574 
C 1102.346509 809.1409 1084.826934 795.363588 1072.471636 777.417248 
C 1060.116338 759.470907 1053.498552 738.188174 1053.498552 716.4 
C 1053.498552 694.611826 1060.116338 673.329093 1072.471636 655.382752 
C 1084.826934 637.436412 1102.346509 623.6591 1122.699972 615.883426 
C 1109.454085 613.318087 1095.830819 613.396144 1082.615198 616.113102 
C 1069.399577 618.830059 1056.850418 624.132706 1045.69085 631.715485 
C 1034.531282 639.298264 1024.979856 649.012673 1017.586962 660.29893 
C 1010.194067 671.585187 1005.104487 684.222261 1002.611503 697.481957 
C 1003.886966 703.707178 1004.529605 710.04546 1004.529605 716.4 
C 1004.529605 722.75454 1003.886966 729.092822 1002.611503 735.318043 
" style="fill:#0000ff;opacity:0.4;"/>
   </g>
   <g id="patch_19">
    <path clip-path="url(#pf3a2ccb5f4)" d="M 1002.611503 735.318043 
C 1003.886966 729.092822 1004.529605 722.75454 1004.529605 716.4 
C 1004.529605 710.04546 1003.886966 703.707178 1002.611503 697.481957 
C 1001.438733 703.719687 1000.848535 710.05298 1000.848535 716.4 
C 1000.848535 722.74702 1001.438733 729.080313 1002.611503 735.318043 
" style="fill:#b200b2;opacity:0.4;"/>
   </g>
   <g id="patch_20">
    <path clip-path="url(#pf3a2ccb5f4)" d="M 1122.699972 615.883426 
C 1102.346509 623.6591 1084.826934 637.436412 1072.471636 655.382752 
C 1060.116338 673.329093 1053.498552 694.611826 1053.498552 716.4 
C 1053.498552 738.188174 1060.116338 759.470907 1072.471636 777.417248 
C 1084.826934 795.363588 1102.346509 809.1409 1122.699972 816.916574 
C 1146.036835 812.396908 1167.086682 799.888179 1182.212848 781.55145 
C 1197.339015 763.214721 1205.617185 740.170498 1205.617185 716.4 
C 1205.617185 692.629502 1197.339015 669.585279 1182.212848 651.24855 
C 1167.086682 632.911821 1146.036835 620.403092 1122.699972 615.883426 
" style="fill:#0059b2;opacity:0.4;"/>
   </g>
   <g id="text_27">
    <!-- 299 -->
    <g transform="translate(898.892909 719.159375)scale(0.1 -0.1)">
     <use xlink:href="#DejaVuSans-50"/>
     <use x="63.623047" xlink:href="#DejaVuSans-57"/>
     <use x="127.246094" xlink:href="#DejaVuSans-57"/>
    </g>
   </g>
   <g id="text_28">
    <!-- 148 -->
    <g transform="translate(1227.616088 719.159375)scale(0.1 -0.1)">
     <use xlink:href="#DejaVuSans-49"/>
     <use x="63.623047" xlink:href="#DejaVuSans-52"/>
     <use x="127.246094" xlink:href="#DejaVuSans-56"/>
    </g>
   </g>
   <g id="text_29">
    <!-- 110 -->
    <g transform="translate(1036.514651 719.159375)scale(0.1 -0.1)">
     <use xlink:href="#DejaVuSans-49"/>
     <use x="63.623047" xlink:href="#DejaVuSans-49"/>
     <use x="127.246094" xlink:href="#DejaVuSans-48"/>
    </g>
   </g>
   <g id="text_30">
    <!-- 1 -->
    <g transform="translate(999.50782 719.159375)scale(0.1 -0.1)">
     <use xlink:href="#DejaVuSans-49"/>
    </g>
   </g>
   <g id="text_31">
    <!-- 243 -->
    <g transform="translate(1120.014118 719.159375)scale(0.1 -0.1)">
     <use xlink:href="#DejaVuSans-50"/>
     <use x="63.623047" xlink:href="#DejaVuSans-52"/>
     <use x="127.246094" xlink:href="#DejaVuSans-51"/>
    </g>
   </g>
   <g id="text_32">
    <!-- TOP -->
    <g transform="translate(898.271569 829.911826)scale(0.12 -0.12)">
     <use xlink:href="#DejaVuSans-84"/>
     <use x="61.083984" xlink:href="#DejaVuSans-79"/>
     <use x="139.794922" xlink:href="#DejaVuSans-80"/>
    </g>
   </g>
   <g id="text_33">
    <!-- BTM -->
    <g transform="translate(1148.142396 843.261384)scale(0.12 -0.12)">
     <use xlink:href="#DejaVuSans-66"/>
     <use x="68.603516" xlink:href="#DejaVuSans-84"/>
     <use x="129.6875" xlink:href="#DejaVuSans-77"/>
    </g>
   </g>
   <g id="text_34">
    <!-- PAREDES -->
    <g transform="translate(1075.335673 838.04374)scale(0.12 -0.12)">
     <use xlink:href="#DejaVuSans-80"/>
     <use x="60.208984" xlink:href="#DejaVuSans-65"/>
     <use x="128.617188" xlink:href="#DejaVuSans-82"/>
     <use x="198.099609" xlink:href="#DejaVuSans-69"/>
     <use x="261.283203" xlink:href="#DejaVuSans-68"/>
     <use x="338.285156" xlink:href="#DejaVuSans-69"/>
     <use x="401.46875" xlink:href="#DejaVuSans-83"/>
    </g>
   </g>
   <g id="text_35">
    <!-- PAREDES vs MIX P180 -->
    <g transform="translate(975.941761 575.500521)scale(0.12 -0.12)">
     <use xlink:href="#DejaVuSans-80"/>
     <use x="60.208984" xlink:href="#DejaVuSans-65"/>
     <use x="128.617188" xlink:href="#DejaVuSans-82"/>
     <use x="198.099609" xlink:href="#DejaVuSans-69"/>
     <use x="261.283203" xlink:href="#DejaVuSans-68"/>
     <use x="338.285156" xlink:href="#DejaVuSans-69"/>
     <use x="401.46875" xlink:href="#DejaVuSans-83"/>
     <use x="464.945312" xlink:href="#DejaVuSans-32"/>
     <use x="496.732422" xlink:href="#DejaVuSans-118"/>
     <use x="555.912109" xlink:href="#DejaVuSans-115"/>
     <use x="608.011719" xlink:href="#DejaVuSans-32"/>
     <use x="639.798828" xlink:href="#DejaVuSans-77"/>
     <use x="726.078125" xlink:href="#DejaVuSans-73"/>
     <use x="755.570312" xlink:href="#DejaVuSans-88"/>
     <use x="824.076172" xlink:href="#DejaVuSans-32"/>
     <use x="855.863281" xlink:href="#DejaVuSans-80"/>
     <use x="916.166016" xlink:href="#DejaVuSans-49"/>
     <use x="979.789062" xlink:href="#DejaVuSans-56"/>
     <use x="1043.412109" xlink:href="#DejaVuSans-48"/>
    </g>
   </g>
  </g>
  <g id="axes_5">
   <g id="patch_21">
    <path clip-path="url(#p7093eeeb95)" d="M 354.283622 997.486149 
C 375.264133 1005.229295 393.374181 1019.222774 406.16035 1037.570855 
C 418.946519 1055.918935 425.804112 1077.753878 425.804112 1100.117647 
C 425.804112 1122.481416 418.946519 1144.316359 406.16035 1162.664439 
C 393.374181 1181.01252 375.264133 1195.005999 354.283622 1202.749145 
C 381.447677 1202.680158 407.503188 1191.829423 426.686731 1172.597098 
C 445.870274 1153.364773 456.654803 1127.28179 456.654803 1100.117647 
C 456.654803 1072.953505 445.870274 1046.870521 426.686731 1027.638196 
C 407.503188 1008.405872 381.447677 997.555136 354.283622 997.486149 
" style="fill:#ff0000;opacity:0.4;"/>
   </g>
   <g id="patch_22">
    <path clip-path="url(#p7093eeeb95)" d="M 563.307619 1197.074753 
C 589.020944 1197.074753 613.68458 1186.85874 631.866646 1168.676674 
C 650.048713 1150.494607 660.264725 1125.830972 660.264725 1100.117647 
C 660.264725 1074.404322 650.048713 1049.740687 631.866646 1031.55862 
C 613.68458 1013.376554 589.020944 1003.160541 563.307619 1003.160541 
C 537.594294 1003.160541 512.930659 1013.376554 494.748593 1031.55862 
C 476.566526 1049.740687 466.350514 1074.404322 466.350514 1100.117647 
C 466.350514 1125.830972 476.566526 1150.494607 494.748593 1168.676674 
C 512.930659 1186.85874 537.594294 1197.074753 563.307619 1197.074753 
z
" style="fill:#008000;opacity:0.4;"/>
   </g>
   <g id="patch_23">
    <path clip-path="url(#p7093eeeb95)" d="M 354.283622 1202.749145 
C 340.784248 1202.783429 327.409803 1200.153969 314.92815 1195.011731 
C 302.446497 1189.869492 291.101166 1182.314805 281.543523 1172.781404 
C 271.98588 1163.248003 264.402404 1151.921895 259.228483 1139.453342 
C 254.054562 1126.984789 251.391144 1113.617065 251.391144 1100.117647 
C 251.391144 1086.61823 254.054562 1073.250505 259.228483 1060.781952 
C 264.402404 1048.313399 271.98588 1036.987291 281.543523 1027.45389 
C 291.101166 1017.920489 302.446497 1010.365802 314.92815 1005.223563 
C 327.409803 1000.081325 340.784248 997.451865 354.283622 997.486149 
C 337.746412 991.382864 319.976458 989.366051 302.492096 991.608034 
C 285.007735 993.850017 268.321545 1000.28507 253.859265 1010.363354 
C 239.396984 1020.441638 227.582594 1033.867695 219.425565 1049.494347 
C 211.268536 1065.120999 207.008002 1082.49013 207.008002 1100.117647 
C 207.008002 1117.745165 211.268536 1135.114295 219.425565 1150.740947 
C 227.582594 1166.367599 239.396984 1179.793656 253.859265 1189.87194 
C 268.321545 1199.950224 285.007735 1206.385277 302.492096 1208.62726 
C 319.976458 1210.869243 337.746412 1208.85243 354.283622 1202.749145 
" style="fill:#0000ff;opacity:0.4;"/>
   </g>
   <g id="patch_24">
    <path clip-path="url(#p7093eeeb95)" d="M 354.283622 997.486149 
C 340.784248 997.451865 327.409803 1000.081325 314.92815 1005.223563 
C 302.446497 1010.365802 291.101166 1017.920489 281.543523 1027.45389 
C 271.98588 1036.987291 264.402404 1048.313399 259.228483 1060.781952 
C 254.054562 1073.250505 251.391144 1086.61823 251.391144 1100.117647 
C 251.391144 1113.617065 254.054562 1126.984789 259.228483 1139.453342 
C 264.402404 1151.921895 271.98588 1163.248003 281.543523 1172.781404 
C 291.101166 1182.314805 302.446497 1189.869492 314.92815 1195.011731 
C 327.409803 1200.153969 340.784248 1202.783429 354.283622 1202.749145 
C 375.264133 1195.005999 393.374181 1181.01252 406.16035 1162.664439 
C 418.946519 1144.316359 425.804112 1122.481416 425.804112 1100.117647 
C 425.804112 1077.753878 418.946519 1055.918935 406.16035 1037.570855 
C 393.374181 1019.222774 375.264133 1005.229295 354.283622 997.486149 
" style="fill:#b200b2;opacity:0.4;"/>
   </g>
   <g id="text_36">
    <!-- 49 -->
    <g transform="translate(434.866958 1102.877022)scale(0.1 -0.1)">
     <use xlink:href="#DejaVuSans-52"/>
     <use x="63.623047" xlink:href="#DejaVuSans-57"/>
    </g>
   </g>
   <g id="text_37">
    <!-- 249 -->
    <g transform="translate(553.763869 1102.877022)scale(0.1 -0.1)">
     <use xlink:href="#DejaVuSans-50"/>
     <use x="63.623047" xlink:href="#DejaVuSans-52"/>
     <use x="127.246094" xlink:href="#DejaVuSans-57"/>
    </g>
   </g>
   <g id="text_38">
    <!-- 87 -->
    <g transform="translate(222.837073 1102.877022)scale(0.1 -0.1)">
     <use xlink:href="#DejaVuSans-56"/>
     <use x="63.623047" xlink:href="#DejaVuSans-55"/>
    </g>
   </g>
   <g id="text_39">
    <!-- 230 -->
    <g transform="translate(329.053878 1102.877022)scale(0.1 -0.1)">
     <use xlink:href="#DejaVuSans-50"/>
     <use x="63.623047" xlink:href="#DejaVuSans-51"/>
     <use x="127.246094" xlink:href="#DejaVuSans-48"/>
    </g>
   </g>
   <g id="text_40">
    <!-- TOP -->
    <g transform="translate(342.017349 1222.167168)scale(0.12 -0.12)">
     <use xlink:href="#DejaVuSans-84"/>
     <use x="61.083984" xlink:href="#DejaVuSans-79"/>
     <use x="139.794922" xlink:href="#DejaVuSans-80"/>
    </g>
   </g>
   <g id="text_41">
    <!-- BTM -->
    <g transform="translate(550.349494 1216.492444)scale(0.12 -0.12)">
     <use xlink:href="#DejaVuSans-66"/>
     <use x="68.603516" xlink:href="#DejaVuSans-84"/>
     <use x="129.6875" xlink:href="#DejaVuSans-77"/>
    </g>
   </g>
   <g id="text_42">
    <!-- BURGOS -->
    <g transform="translate(290.547932 1228.933393)scale(0.12 -0.12)">
     <use xlink:href="#DejaVuSans-66"/>
     <use x="68.603516" xlink:href="#DejaVuSans-85"/>
     <use x="141.796875" xlink:href="#DejaVuSans-82"/>
     <use x="211.279297" xlink:href="#DejaVuSans-71"/>
     <use x="288.769531" xlink:href="#DejaVuSans-79"/>
     <use x="367.480469" xlink:href="#DejaVuSans-83"/>
    </g>
   </g>
   <g id="text_43">
    <!-- BURGOS vs MIX P190 -->
    <g transform="translate(369.253551 957.71159)scale(0.12 -0.12)">
     <use xlink:href="#DejaVuSans-66"/>
     <use x="68.603516" xlink:href="#DejaVuSans-85"/>
     <use x="141.796875" xlink:href="#DejaVuSans-82"/>
     <use x="211.279297" xlink:href="#DejaVuSans-71"/>
     <use x="288.769531" xlink:href="#DejaVuSans-79"/>
     <use x="367.480469" xlink:href="#DejaVuSans-83"/>
     <use x="430.957031" xlink:href="#DejaVuSans-32"/>
     <use x="462.744141" xlink:href="#DejaVuSans-118"/>
     <use x="521.923828" xlink:href="#DejaVuSans-115"/>
     <use x="574.023438" xlink:href="#DejaVuSans-32"/>
     <use x="605.810547" xlink:href="#DejaVuSans-77"/>
     <use x="692.089844" xlink:href="#DejaVuSans-73"/>
     <use x="721.582031" xlink:href="#DejaVuSans-88"/>
     <use x="790.087891" xlink:href="#DejaVuSans-32"/>
     <use x="821.875" xlink:href="#DejaVuSans-80"/>
     <use x="882.177734" xlink:href="#DejaVuSans-49"/>
     <use x="945.800781" xlink:href="#DejaVuSans-57"/>
     <use x="1009.423828" xlink:href="#DejaVuSans-48"/>
    </g>
   </g>
  </g>
  <g id="axes_6">
   <g id="patch_25">
    <path clip-path="url(#p4519f0295f)" d="M 1189.266532 1181.953737 
C 1210.969717 1181.953737 1231.786917 1173.33097 1247.133386 1157.984501 
C 1262.479855 1142.638032 1271.102622 1121.820832 1271.102622 1100.117647 
C 1271.102622 1078.414462 1262.479855 1057.597262 1247.133386 1042.250793 
C 1231.786917 1026.904324 1210.969717 1018.281557 1189.266532 1018.281557 
C 1167.563348 1018.281557 1146.746147 1026.904324 1131.399678 1042.250793 
C 1116.053209 1057.597262 1107.430442 1078.414462 1107.430442 1100.117647 
C 1107.430442 1121.820832 1116.053209 1142.638032 1131.399678 1157.984501 
C 1146.746147 1173.33097 1167.563348 1181.953737 1189.266532 1181.953737 
z
" style="fill:#ff0000;opacity:0.4;"/>
   </g>
   <g id="patch_26">
    <path clip-path="url(#p4519f0295f)" d="M 938.148701 1161.338311 
C 923.165655 1144.471798 914.883567 1122.678031 914.883567 1100.117647 
C 914.883567 1077.557263 923.165655 1055.763496 938.148701 1038.896983 
C 926.710557 1030.075986 913.026015 1024.634613 898.653756 1023.192642 
C 884.281496 1021.75067 869.788724 1024.365008 856.826176 1030.737879 
C 843.863629 1037.110751 832.942877 1046.990649 825.307802 1059.252246 
C 817.672728 1071.513843 813.624651 1085.673232 813.624651 1100.117647 
C 813.624651 1114.562062 817.672728 1128.721451 825.307802 1140.983048 
C 832.942877 1153.244645 843.863629 1163.124543 856.826176 1169.497415 
C 869.788724 1175.870286 884.281496 1178.484624 898.653756 1177.042652 
C 913.026015 1175.600681 926.710557 1170.159308 938.148701 1161.338311 
" style="fill:#008000;opacity:0.4;"/>
   </g>
   <g id="patch_27">
    <path clip-path="url(#p4519f0295f)" d="M 938.148701 1038.896983 
C 947.513693 1046.119185 955.097828 1055.394868 960.315623 1066.007968 
C 965.533419 1076.621067 968.247061 1088.291267 968.247061 1100.117647 
C 968.247061 1111.944028 965.533419 1123.614227 960.315623 1134.227326 
C 955.097828 1144.840426 947.513693 1154.11611 938.148701 1161.338311 
C 944.321374 1168.286929 951.509608 1174.262201 959.469215 1179.061144 
C 967.428822 1183.860087 976.068639 1187.427738 985.095169 1189.642902 
C 994.121699 1191.858066 1003.43156 1192.695373 1012.70849 1192.126379 
C 1021.985421 1191.557385 1031.123172 1189.588607 1039.81133 1186.286925 
C 1048.499488 1182.985243 1056.638547 1178.388472 1063.952019 1172.652766 
C 1071.26549 1166.917059 1077.669613 1160.10811 1082.946836 1152.45722 
C 1088.224059 1144.80633 1092.313941 1136.401127 1095.077548 1127.527138 
C 1097.841154 1118.65315 1099.246834 1109.412011 1099.246834 1100.117647 
C 1099.246834 1090.823283 1097.841154 1081.582145 1095.077548 1072.708156 
C 1092.313941 1063.834167 1088.224059 1055.428964 1082.946836 1047.778074 
C 1077.669613 1040.127184 1071.26549 1033.318235 1063.952019 1027.582529 
C 1056.638547 1021.846822 1048.499488 1017.250051 1039.81133 1013.948369 
C 1031.123172 1010.646687 1021.985421 1008.677909 1012.70849 1008.108915 
C 1003.43156 1007.539921 994.121699 1008.377228 985.095169 1010.592392 
C 976.068639 1012.807556 967.428822 1016.375207 959.469215 1021.17415 
C 951.509608 1025.973093 944.321374 1031.948365 938.148701 1038.896983 
" style="fill:#0000ff;opacity:0.4;"/>
   </g>
   <g id="patch_28">
    <path clip-path="url(#p4519f0295f)" d="M 938.148701 1161.338311 
C 947.513693 1154.11611 955.097828 1144.840426 960.315623 1134.227326 
C 965.533419 1123.614227 968.247061 1111.944028 968.247061 1100.117647 
C 968.247061 1088.291267 965.533419 1076.621067 960.315623 1066.007968 
C 955.097828 1055.394868 947.513693 1046.119185 938.148701 1038.896983 
C 923.165655 1055.763496 914.883567 1077.557263 914.883567 1100.117647 
C 914.883567 1122.678031 923.165655 1144.471798 938.148701 1161.338311 
" style="fill:#0059b2;opacity:0.4;"/>
   </g>
   <g id="text_44">
    <!-- 279 -->
    <g transform="translate(1179.722782 1102.877022)scale(0.1 -0.1)">
     <use xlink:href="#DejaVuSans-50"/>
     <use x="63.623047" xlink:href="#DejaVuSans-55"/>
     <use x="127.246094" xlink:href="#DejaVuSans-57"/>
    </g>
   </g>
   <g id="text_45">
    <!-- 189 -->
    <g transform="translate(854.710359 1102.877022)scale(0.1 -0.1)">
     <use xlink:href="#DejaVuSans-49"/>
     <use x="63.623047" xlink:href="#DejaVuSans-56"/>
     <use x="127.246094" xlink:href="#DejaVuSans-57"/>
    </g>
   </g>
   <g id="text_46">
    <!-- 294 -->
    <g transform="translate(1024.203197 1102.877022)scale(0.1 -0.1)">
     <use xlink:href="#DejaVuSans-50"/>
     <use x="63.623047" xlink:href="#DejaVuSans-57"/>
     <use x="127.246094" xlink:href="#DejaVuSans-52"/>
    </g>
   </g>
   <g id="text_47">
    <!-- 60 -->
    <g transform="translate(935.202814 1102.877022)scale(0.1 -0.1)">
     <use xlink:href="#DejaVuSans-54"/>
     <use x="63.623047" xlink:href="#DejaVuSans-48"/>
    </g>
   </g>
   <g id="text_48">
    <!-- TOP -->
    <g transform="translate(1177.260907 1199.449493)scale(0.12 -0.12)">
     <use xlink:href="#DejaVuSans-84"/>
     <use x="61.083984" xlink:href="#DejaVuSans-79"/>
     <use x="139.794922" xlink:href="#DejaVuSans-80"/>
    </g>
   </g>
   <g id="text_49">
    <!-- BTM -->
    <g transform="translate(877.977731 1194.924608)scale(0.12 -0.12)">
     <use xlink:href="#DejaVuSans-66"/>
     <use x="68.603516" xlink:href="#DejaVuSans-84"/>
     <use x="129.6875" xlink:href="#DejaVuSans-77"/>
    </g>
   </g>
   <g id="text_50">
    <!-- PAREDES -->
    <g transform="translate(979.168013 1209.795036)scale(0.12 -0.12)">
     <use xlink:href="#DejaVuSans-80"/>
     <use x="60.208984" xlink:href="#DejaVuSans-65"/>
     <use x="128.617188" xlink:href="#DejaVuSans-82"/>
     <use x="198.099609" xlink:href="#DejaVuSans-69"/>
     <use x="261.283203" xlink:href="#DejaVuSans-68"/>
     <use x="338.285156" xlink:href="#DejaVuSans-69"/>
     <use x="401.46875" xlink:href="#DejaVuSans-83"/>
    </g>
   </g>
   <g id="text_51">
    <!-- PAREDES vs MIX P190 -->
    <g transform="translate(975.941761 977.038636)scale(0.12 -0.12)">
     <use xlink:href="#DejaVuSans-80"/>
     <use x="60.208984" xlink:href="#DejaVuSans-65"/>
     <use x="128.617188" xlink:href="#DejaVuSans-82"/>
     <use x="198.099609" xlink:href="#DejaVuSans-69"/>
     <use x="261.283203" xlink:href="#DejaVuSans-68"/>
     <use x="338.285156" xlink:href="#DejaVuSans-69"/>
     <use x="401.46875" xlink:href="#DejaVuSans-83"/>
     <use x="464.945312" xlink:href="#DejaVuSans-32"/>
     <use x="496.732422" xlink:href="#DejaVuSans-118"/>
     <use x="555.912109" xlink:href="#DejaVuSans-115"/>
     <use x="608.011719" xlink:href="#DejaVuSans-32"/>
     <use x="639.798828" xlink:href="#DejaVuSans-77"/>
     <use x="726.078125" xlink:href="#DejaVuSans-73"/>
     <use x="755.570312" xlink:href="#DejaVuSans-88"/>
     <use x="824.076172" xlink:href="#DejaVuSans-32"/>
     <use x="855.863281" xlink:href="#DejaVuSans-80"/>
     <use x="916.166016" xlink:href="#DejaVuSans-49"/>
     <use x="979.789062" xlink:href="#DejaVuSans-57"/>
     <use x="1043.412109" xlink:href="#DejaVuSans-48"/>
    </g>
   </g>
  </g>
  <g id="text_52">
   <!-- P1_80_20, Raw vs Filtrados Laura -->
   <defs>
    <path d="M 50.984375 -16.609375 
L 50.984375 -23.578125 
L -0.984375 -23.578125 
L -0.984375 -16.609375 
z
" id="DejaVuSans-95"/>
    <path d="M 11.71875 12.40625 
L 22.015625 12.40625 
L 22.015625 4 
L 14.015625 -11.625 
L 7.71875 -11.625 
L 11.71875 4 
z
" id="DejaVuSans-44"/>
    <path d="M 34.28125 27.484375 
Q 23.390625 27.484375 19.1875 25 
Q 14.984375 22.515625 14.984375 16.5 
Q 14.984375 11.71875 18.140625 8.90625 
Q 21.296875 6.109375 26.703125 6.109375 
Q 34.1875 6.109375 38.703125 11.40625 
Q 43.21875 16.703125 43.21875 25.484375 
L 43.21875 27.484375 
z
M 52.203125 31.203125 
L 52.203125 0 
L 43.21875 0 
L 43.21875 8.296875 
Q 40.140625 3.328125 35.546875 0.953125 
Q 30.953125 -1.421875 24.3125 -1.421875 
Q 15.921875 -1.421875 10.953125 3.296875 
Q 6 8.015625 6 15.921875 
Q 6 25.140625 12.171875 29.828125 
Q 18.359375 34.515625 30.609375 34.515625 
L 43.21875 34.515625 
L 43.21875 35.40625 
Q 43.21875 41.609375 39.140625 45 
Q 35.0625 48.390625 27.6875 48.390625 
Q 23 48.390625 18.546875 47.265625 
Q 14.109375 46.140625 10.015625 43.890625 
L 10.015625 52.203125 
Q 14.9375 54.109375 19.578125 55.046875 
Q 24.21875 56 28.609375 56 
Q 40.484375 56 46.34375 49.84375 
Q 52.203125 43.703125 52.203125 31.203125 
z
" id="DejaVuSans-97"/>
    <path d="M 4.203125 54.6875 
L 13.1875 54.6875 
L 24.421875 12.015625 
L 35.59375 54.6875 
L 46.1875 54.6875 
L 57.421875 12.015625 
L 68.609375 54.6875 
L 77.59375 54.6875 
L 63.28125 0 
L 52.6875 0 
L 40.921875 44.828125 
L 29.109375 0 
L 18.5 0 
z
" id="DejaVuSans-119"/>
    <path d="M 9.8125 72.90625 
L 51.703125 72.90625 
L 51.703125 64.59375 
L 19.671875 64.59375 
L 19.671875 43.109375 
L 48.578125 43.109375 
L 48.578125 34.8125 
L 19.671875 34.8125 
L 19.671875 0 
L 9.8125 0 
z
" id="DejaVuSans-70"/>
    <path d="M 9.421875 54.6875 
L 18.40625 54.6875 
L 18.40625 0 
L 9.421875 0 
z
M 9.421875 75.984375 
L 18.40625 75.984375 
L 18.40625 64.59375 
L 9.421875 64.59375 
z
" id="DejaVuSans-105"/>
    <path d="M 9.421875 75.984375 
L 18.40625 75.984375 
L 18.40625 0 
L 9.421875 0 
z
" id="DejaVuSans-108"/>
    <path d="M 18.3125 70.21875 
L 18.3125 54.6875 
L 36.8125 54.6875 
L 36.8125 47.703125 
L 18.3125 47.703125 
L 18.3125 18.015625 
Q 18.3125 11.328125 20.140625 9.421875 
Q 21.96875 7.515625 27.59375 7.515625 
L 36.8125 7.515625 
L 36.8125 0 
L 27.59375 0 
Q 17.1875 0 13.234375 3.875 
Q 9.28125 7.765625 9.28125 18.015625 
L 9.28125 47.703125 
L 2.6875 47.703125 
L 2.6875 54.6875 
L 9.28125 54.6875 
L 9.28125 70.21875 
z
" id="DejaVuSans-116"/>
    <path d="M 41.109375 46.296875 
Q 39.59375 47.171875 37.8125 47.578125 
Q 36.03125 48 33.890625 48 
Q 26.265625 48 22.1875 43.046875 
Q 18.109375 38.09375 18.109375 28.8125 
L 18.109375 0 
L 9.078125 0 
L 9.078125 54.6875 
L 18.109375 54.6875 
L 18.109375 46.1875 
Q 20.953125 51.171875 25.484375 53.578125 
Q 30.03125 56 36.53125 56 
Q 37.453125 56 38.578125 55.875 
Q 39.703125 55.765625 41.0625 55.515625 
z
" id="DejaVuSans-114"/>
    <path d="M 45.40625 46.390625 
L 45.40625 75.984375 
L 54.390625 75.984375 
L 54.390625 0 
L 45.40625 0 
L 45.40625 8.203125 
Q 42.578125 3.328125 38.25 0.953125 
Q 33.9375 -1.421875 27.875 -1.421875 
Q 17.96875 -1.421875 11.734375 6.484375 
Q 5.515625 14.40625 5.515625 27.296875 
Q 5.515625 40.1875 11.734375 48.09375 
Q 17.96875 56 27.875 56 
Q 33.9375 56 38.25 53.625 
Q 42.578125 51.265625 45.40625 46.390625 
z
M 14.796875 27.296875 
Q 14.796875 17.390625 18.875 11.75 
Q 22.953125 6.109375 30.078125 6.109375 
Q 37.203125 6.109375 41.296875 11.75 
Q 45.40625 17.390625 45.40625 27.296875 
Q 45.40625 37.203125 41.296875 42.84375 
Q 37.203125 48.484375 30.078125 48.484375 
Q 22.953125 48.484375 18.875 42.84375 
Q 14.796875 37.203125 14.796875 27.296875 
z
" id="DejaVuSans-100"/>
    <path d="M 30.609375 48.390625 
Q 23.390625 48.390625 19.1875 42.75 
Q 14.984375 37.109375 14.984375 27.296875 
Q 14.984375 17.484375 19.15625 11.84375 
Q 23.34375 6.203125 30.609375 6.203125 
Q 37.796875 6.203125 41.984375 11.859375 
Q 46.1875 17.53125 46.1875 27.296875 
Q 46.1875 37.015625 41.984375 42.703125 
Q 37.796875 48.390625 30.609375 48.390625 
z
M 30.609375 56 
Q 42.328125 56 49.015625 48.375 
Q 55.71875 40.765625 55.71875 27.296875 
Q 55.71875 13.875 49.015625 6.21875 
Q 42.328125 -1.421875 30.609375 -1.421875 
Q 18.84375 -1.421875 12.171875 6.21875 
Q 5.515625 13.875 5.515625 27.296875 
Q 5.515625 40.765625 12.171875 48.375 
Q 18.84375 56 30.609375 56 
z
" id="DejaVuSans-111"/>
    <path d="M 9.8125 72.90625 
L 19.671875 72.90625 
L 19.671875 8.296875 
L 55.171875 8.296875 
L 55.171875 0 
L 9.8125 0 
z
" id="DejaVuSans-76"/>
    <path d="M 8.5 21.578125 
L 8.5 54.6875 
L 17.484375 54.6875 
L 17.484375 21.921875 
Q 17.484375 14.15625 20.5 10.265625 
Q 23.53125 6.390625 29.59375 6.390625 
Q 36.859375 6.390625 41.078125 11.03125 
Q 45.3125 15.671875 45.3125 23.6875 
L 45.3125 54.6875 
L 54.296875 54.6875 
L 54.296875 0 
L 45.3125 0 
L 45.3125 8.40625 
Q 42.046875 3.421875 37.71875 1 
Q 33.40625 -1.421875 27.6875 -1.421875 
Q 18.265625 -1.421875 13.375 4.4375 
Q 8.5 10.296875 8.5 21.578125 
z
M 31.109375 56 
z
" id="DejaVuSans-117"/>
   </defs>
   <g transform="translate(585.9825 25.0275)scale(0.16 -0.16)">
    <use xlink:href="#DejaVuSans-80"/>
    <use x="60.302734" xlink:href="#DejaVuSans-49"/>
    <use x="123.925781" xlink:href="#DejaVuSans-95"/>
    <use x="173.925781" xlink:href="#DejaVuSans-56"/>
    <use x="237.548828" xlink:href="#DejaVuSans-48"/>
    <use x="301.171875" xlink:href="#DejaVuSans-95"/>
    <use x="351.171875" xlink:href="#DejaVuSans-50"/>
    <use x="414.794922" xlink:href="#DejaVuSans-48"/>
    <use x="478.417969" xlink:href="#DejaVuSans-44"/>
    <use x="510.205078" xlink:href="#DejaVuSans-32"/>
    <use x="541.992188" xlink:href="#DejaVuSans-82"/>
    <use x="611.443359" xlink:href="#DejaVuSans-97"/>
    <use x="672.722656" xlink:href="#DejaVuSans-119"/>
    <use x="754.509766" xlink:href="#DejaVuSans-32"/>
    <use x="786.296875" xlink:href="#DejaVuSans-118"/>
    <use x="845.476562" xlink:href="#DejaVuSans-115"/>
    <use x="897.576172" xlink:href="#DejaVuSans-32"/>
    <use x="929.363281" xlink:href="#DejaVuSans-70"/>
    <use x="986.773438" xlink:href="#DejaVuSans-105"/>
    <use x="1014.556641" xlink:href="#DejaVuSans-108"/>
    <use x="1042.339844" xlink:href="#DejaVuSans-116"/>
    <use x="1081.548828" xlink:href="#DejaVuSans-114"/>
    <use x="1122.662109" xlink:href="#DejaVuSans-97"/>
    <use x="1183.941406" xlink:href="#DejaVuSans-100"/>
    <use x="1247.417969" xlink:href="#DejaVuSans-111"/>
    <use x="1308.599609" xlink:href="#DejaVuSans-115"/>
    <use x="1360.699219" xlink:href="#DejaVuSans-32"/>
    <use x="1392.486328" xlink:href="#DejaVuSans-76"/>
    <use x="1448.199219" xlink:href="#DejaVuSans-97"/>
    <use x="1509.478516" xlink:href="#DejaVuSans-117"/>
    <use x="1572.857422" xlink:href="#DejaVuSans-114"/>
    <use x="1613.970703" xlink:href="#DejaVuSans-97"/>
   </g>
  </g>
 </g>
 <defs>
  <clipPath id="pf7a3a1f139">
   <rect height="303.0261" width="507.272727" x="180" y="181.169303"/>
  </clipPath>
  <clipPath id="p81252733bd">
   <rect height="305.775471" width="507.272727" x="788.727273" y="179.794618"/>
  </clipPath>
  <clipPath id="pb0c24c7291">
   <rect height="274.992165" width="507.272727" x="180" y="578.903918"/>
  </clipPath>
  <clipPath id="pf3a2ccb5f4">
   <rect height="269.798958" width="507.272727" x="788.727273" y="581.500521"/>
  </clipPath>
  <clipPath id="p7093eeeb95">
   <rect height="272.812114" width="507.272727" x="180" y="963.71159"/>
  </clipPath>
  <clipPath id="p4519f0295f">
   <rect height="234.158023" width="507.272727" x="788.727273" y="983.038636"/>
  </clipPath>
 </defs>
</svg>
