<?xml version="1.0" encoding="utf-8" standalone="no"?>
<!DOCTYPE svg PUBLIC "-//W3C//DTD SVG 1.1//EN"
  "http://www.w3.org/Graphics/SVG/1.1/DTD/svg11.dtd">
<!-- Created with matplotlib (https://matplotlib.org/) -->
<svg height="1440pt" version="1.1" viewBox="0 0 1440 1440" width="1440pt" xmlns="http://www.w3.org/2000/svg" xmlns:xlink="http://www.w3.org/1999/xlink">
 <defs>
  <style type="text/css">
*{stroke-linecap:butt;stroke-linejoin:round;}
  </style>
 </defs>
 <g id="figure_1">
  <g id="patch_1">
   <path d="M 0 1440 
L 1440 1440 
L 1440 0 
L 0 0 
z
" style="fill:#ffffff;"/>
  </g>
  <g id="axes_1">
   <g id="patch_2">
    <path clip-path="url(#p309d4ef72d)" d="M 417.311177 302.210129 
C 414.010418 291.165509 408.936944 280.730212 402.289372 271.312757 
C 395.6418 261.895303 387.508023 253.620207 378.206459 246.81142 
C 368.904895 240.002634 358.558529 234.750181 347.572397 231.259685 
C 336.586265 227.769189 325.105623 226.0868 313.579915 226.278379 
C 302.054206 226.469958 290.635821 228.532972 279.771763 232.38666 
C 268.907705 236.240348 258.741617 241.833756 249.671479 248.947915 
C 240.601341 256.062073 232.747077 264.602921 226.416162 274.236103 
C 220.085248 283.869284 215.36139 294.467431 212.429517 305.61565 
C 209.497644 316.763869 208.396521 328.31476 209.169254 339.816131 
C 209.941986 351.317502 212.578358 362.617286 216.975162 373.273119 
C 221.371965 383.928952 227.471066 393.799946 235.033698 402.499674 
C 242.59633 411.199401 251.522501 418.612836 261.462772 424.449759 
C 271.403044 430.286681 282.225987 434.469917 293.507907 436.835702 
C 304.789827 439.201487 316.381557 439.71854 327.829307 438.366621 
C 339.277057 437.014702 350.429466 433.811685 360.849944 428.882961 
C 371.270421 423.954237 380.821188 417.364973 389.128354 409.373124 
C 386.259868 404.951868 384.723083 399.797298 384.702148 394.527073 
C 384.681212 389.256848 386.176997 384.090232 389.010266 379.646326 
C 391.843535 375.20242 395.896412 371.666111 400.683252 369.461145 
C 405.470092 367.256179 410.791741 366.474292 416.010521 367.209176 
C 416.24079 366.537831 416.464338 365.864199 416.681131 365.188382 
C 416.897923 364.512565 417.107949 363.834596 417.311177 363.154577 
C 414.753085 353.199176 413.458753 342.961158 413.458753 332.682353 
C 413.458753 322.403548 414.753085 312.16553 417.311177 302.210129 
" style="fill:#ff0000;opacity:0.4;"/>
   </g>
   <g id="patch_3">
    <path clip-path="url(#p309d4ef72d)" d="M 417.311177 363.154577 
C 417.506625 363.915205 417.709386 364.673935 417.919432 365.430663 
C 418.129478 366.18739 418.3468 366.942078 418.571367 367.694624 
C 422.475738 368.628555 426.12841 370.406903 429.271645 372.904184 
C 432.414881 375.401465 434.972968 378.557527 436.765403 382.149673 
C 438.557839 385.741819 439.541449 389.683525 439.646829 393.696658 
C 439.752208 397.70979 438.976819 401.697685 437.375373 405.37895 
C 445.566989 416.481017 455.576503 426.119074 466.980266 433.885194 
C 478.38403 441.651315 491.018855 447.434367 504.34998 450.989584 
C 517.681105 454.544801 531.51776 455.82131 545.274316 454.765081 
C 559.030873 453.708852 572.510473 450.335001 585.142601 444.786324 
C 597.774728 439.237648 609.378617 431.593547 619.463137 422.177555 
C 629.547658 412.761563 637.968501 401.708423 644.369258 389.485953 
C 650.770016 377.263484 655.059092 364.046589 657.054956 350.394666 
C 659.050819 336.742743 658.724908 322.851153 656.091016 309.307849 
C 653.457125 295.764546 648.552944 282.763334 641.58604 270.854484 
C 634.619137 258.945633 625.689208 248.29956 615.174208 239.366855 
C 604.659208 230.434149 592.709606 223.342638 579.831165 218.392466 
C 566.952723 213.442293 553.329733 210.704297 539.538779 210.294362 
C 525.747825 209.884426 511.986257 211.808418 498.836526 215.984904 
C 485.686795 220.161389 473.337074 226.530604 462.310059 234.822975 
C 451.283044 243.115345 441.736532 253.212206 434.074575 264.686214 
C 426.412617 276.160223 420.744856 288.847184 417.311177 302.210129 
C 420.26614 312.097681 421.767222 322.362688 421.767222 332.682353 
C 421.767222 343.002018 420.26614 353.267024 417.311177 363.154577 
" style="fill:#008000;opacity:0.4;"/>
   </g>
   <g id="patch_4">
    <path clip-path="url(#p309d4ef72d)" d="M 417.311177 363.154577 
C 420.26614 353.267024 421.767222 343.002018 421.767222 332.682353 
C 421.767222 322.362688 420.26614 312.097681 417.311177 302.210129 
C 414.753085 312.16553 413.458753 322.403548 413.458753 332.682353 
C 413.458753 342.961158 414.753085 353.199176 417.311177 363.154577 
" style="fill:#b25900;opacity:0.4;"/>
   </g>
   <g id="patch_5">
    <path clip-path="url(#p309d4ef72d)" d="M 389.128354 409.373124 
C 391.831123 413.538957 395.613307 416.895217 400.070968 419.083453 
C 404.52863 421.27169 409.497217 422.211126 414.446083 421.801429 
C 419.394949 421.391733 424.141409 419.648028 428.178541 416.756542 
C 432.215673 413.865056 435.394449 409.932527 437.375373 405.37895 
C 433.184478 399.699046 429.492584 393.667364 426.340966 387.351336 
C 423.189347 381.035309 420.589793 374.458562 418.571367 367.694624 
C 418.148699 367.593521 417.723691 367.50246 417.296703 367.421518 
C 416.869715 367.340576 416.440867 367.269775 416.010521 367.209176 
C 413.277875 375.176126 409.609043 382.790565 405.081113 389.892501 
C 400.553182 396.994437 395.19809 403.533778 389.128354 409.373124 
" style="fill:#0000ff;opacity:0.4;"/>
   </g>
   <g id="patch_6">
    <path clip-path="url(#p309d4ef72d)" d="M 389.128354 409.373124 
C 395.19809 403.533778 400.553182 396.994437 405.081113 389.892501 
C 409.609043 382.790565 413.277875 375.176126 416.010521 367.209176 
C 410.791741 366.474292 405.470092 367.256179 400.683252 369.461145 
C 395.896412 371.666111 391.843535 375.20242 389.010266 379.646326 
C 386.176997 384.090232 384.681212 389.256848 384.702148 394.527073 
C 384.723083 399.797298 386.259868 404.951868 389.128354 409.373124 
" style="fill:#b200b2;opacity:0.4;"/>
   </g>
   <g id="patch_7">
    <path clip-path="url(#p309d4ef72d)" d="M 418.571367 367.694624 
C 420.589793 374.458562 423.189347 381.035309 426.340966 387.351336 
C 429.492584 393.667364 433.184478 399.699046 437.375373 405.37895 
C 438.976819 401.697685 439.752208 397.70979 439.646829 393.696658 
C 439.541449 389.683525 438.557839 385.741819 436.765403 382.149673 
C 434.972968 378.557527 432.414881 375.401465 429.271645 372.904184 
C 426.12841 370.406903 422.475738 368.628555 418.571367 367.694624 
" style="fill:#0059b2;opacity:0.4;"/>
   </g>
   <g id="text_1">
    <!-- 102 -->
    <defs>
     <path d="M 12.40625 8.296875 
L 28.515625 8.296875 
L 28.515625 63.921875 
L 10.984375 60.40625 
L 10.984375 69.390625 
L 28.421875 72.90625 
L 38.28125 72.90625 
L 38.28125 8.296875 
L 54.390625 8.296875 
L 54.390625 0 
L 12.40625 0 
z
" id="DejaVuSans-49"/>
     <path d="M 31.78125 66.40625 
Q 24.171875 66.40625 20.328125 58.90625 
Q 16.5 51.421875 16.5 36.375 
Q 16.5 21.390625 20.328125 13.890625 
Q 24.171875 6.390625 31.78125 6.390625 
Q 39.453125 6.390625 43.28125 13.890625 
Q 47.125 21.390625 47.125 36.375 
Q 47.125 51.421875 43.28125 58.90625 
Q 39.453125 66.40625 31.78125 66.40625 
z
M 31.78125 74.21875 
Q 44.046875 74.21875 50.515625 64.515625 
Q 56.984375 54.828125 56.984375 36.375 
Q 56.984375 17.96875 50.515625 8.265625 
Q 44.046875 -1.421875 31.78125 -1.421875 
Q 19.53125 -1.421875 13.0625 8.265625 
Q 6.59375 17.96875 6.59375 36.375 
Q 6.59375 54.828125 13.0625 64.515625 
Q 19.53125 74.21875 31.78125 74.21875 
z
" id="DejaVuSans-48"/>
     <path d="M 19.1875 8.296875 
L 53.609375 8.296875 
L 53.609375 0 
L 7.328125 0 
L 7.328125 8.296875 
Q 12.9375 14.109375 22.625 23.890625 
Q 32.328125 33.6875 34.8125 36.53125 
Q 39.546875 41.84375 41.421875 45.53125 
Q 43.3125 49.21875 43.3125 52.78125 
Q 43.3125 58.59375 39.234375 62.25 
Q 35.15625 65.921875 28.609375 65.921875 
Q 23.96875 65.921875 18.8125 64.3125 
Q 13.671875 62.703125 7.8125 59.421875 
L 7.8125 69.390625 
Q 13.765625 71.78125 18.9375 73 
Q 24.125 74.21875 28.421875 74.21875 
Q 39.75 74.21875 46.484375 68.546875 
Q 53.21875 62.890625 53.21875 53.421875 
Q 53.21875 48.921875 51.53125 44.890625 
Q 49.859375 40.875 45.40625 35.40625 
Q 44.1875 33.984375 37.640625 27.21875 
Q 31.109375 20.453125 19.1875 8.296875 
z
" id="DejaVuSans-50"/>
    </defs>
    <g transform="translate(266.872257 331.481246)scale(0.1 -0.1)">
     <use xlink:href="#DejaVuSans-49"/>
     <use x="63.623047" xlink:href="#DejaVuSans-48"/>
     <use x="127.246094" xlink:href="#DejaVuSans-50"/>
    </g>
   </g>
   <g id="text_2">
    <!-- 137 -->
    <defs>
     <path d="M 40.578125 39.3125 
Q 47.65625 37.796875 51.625 33 
Q 55.609375 28.21875 55.609375 21.1875 
Q 55.609375 10.40625 48.1875 4.484375 
Q 40.765625 -1.421875 27.09375 -1.421875 
Q 22.515625 -1.421875 17.65625 -0.515625 
Q 12.796875 0.390625 7.625 2.203125 
L 7.625 11.71875 
Q 11.71875 9.328125 16.59375 8.109375 
Q 21.484375 6.890625 26.8125 6.890625 
Q 36.078125 6.890625 40.9375 10.546875 
Q 45.796875 14.203125 45.796875 21.1875 
Q 45.796875 27.640625 41.28125 31.265625 
Q 36.765625 34.90625 28.71875 34.90625 
L 20.21875 34.90625 
L 20.21875 43.015625 
L 29.109375 43.015625 
Q 36.375 43.015625 40.234375 45.921875 
Q 44.09375 48.828125 44.09375 54.296875 
Q 44.09375 59.90625 40.109375 62.90625 
Q 36.140625 65.921875 28.71875 65.921875 
Q 24.65625 65.921875 20.015625 65.03125 
Q 15.375 64.15625 9.8125 62.3125 
L 9.8125 71.09375 
Q 15.4375 72.65625 20.34375 73.4375 
Q 25.25 74.21875 29.59375 74.21875 
Q 40.828125 74.21875 47.359375 69.109375 
Q 53.90625 64.015625 53.90625 55.328125 
Q 53.90625 49.265625 50.4375 45.09375 
Q 46.96875 40.921875 40.578125 39.3125 
z
" id="DejaVuSans-51"/>
     <path d="M 8.203125 72.90625 
L 55.078125 72.90625 
L 55.078125 68.703125 
L 28.609375 0 
L 18.3125 0 
L 43.21875 64.59375 
L 8.203125 64.59375 
z
" id="DejaVuSans-55"/>
    </defs>
    <g transform="translate(578.484093 330.483784)scale(0.1 -0.1)">
     <use xlink:href="#DejaVuSans-49"/>
     <use x="63.623047" xlink:href="#DejaVuSans-51"/>
     <use x="127.246094" xlink:href="#DejaVuSans-55"/>
    </g>
   </g>
   <g id="text_3">
    <!-- 1 -->
    <g transform="translate(414.431737 335.441728)scale(0.1 -0.1)">
     <use xlink:href="#DejaVuSans-49"/>
    </g>
   </g>
   <g id="text_4">
    <!-- 4 -->
    <defs>
     <path d="M 37.796875 64.3125 
L 12.890625 25.390625 
L 37.796875 25.390625 
z
M 35.203125 72.90625 
L 47.609375 72.90625 
L 47.609375 25.390625 
L 58.015625 25.390625 
L 58.015625 17.1875 
L 47.609375 17.1875 
L 47.609375 0 
L 37.796875 0 
L 37.796875 17.1875 
L 4.890625 17.1875 
L 4.890625 26.703125 
z
" id="DejaVuSans-52"/>
    </defs>
    <g transform="translate(411.245407 414.073028)scale(0.1 -0.1)">
     <use xlink:href="#DejaVuSans-52"/>
    </g>
   </g>
   <g id="text_5">
    <!-- 2 -->
    <g transform="translate(393.864439 387.528788)scale(0.1 -0.1)">
     <use xlink:href="#DejaVuSans-50"/>
    </g>
   </g>
   <g id="text_6">
    <!-- 1 -->
    <g transform="translate(428.371935 387.509879)scale(0.1 -0.1)">
     <use xlink:href="#DejaVuSans-49"/>
    </g>
   </g>
   <g id="text_7">
    <!-- TOP -->
    <defs>
     <path d="M -0.296875 72.90625 
L 61.375 72.90625 
L 61.375 64.59375 
L 35.5 64.59375 
L 35.5 0 
L 25.59375 0 
L 25.59375 64.59375 
L -0.296875 64.59375 
z
" id="DejaVuSans-84"/>
     <path d="M 39.40625 66.21875 
Q 28.65625 66.21875 22.328125 58.203125 
Q 16.015625 50.203125 16.015625 36.375 
Q 16.015625 22.609375 22.328125 14.59375 
Q 28.65625 6.59375 39.40625 6.59375 
Q 50.140625 6.59375 56.421875 14.59375 
Q 62.703125 22.609375 62.703125 36.375 
Q 62.703125 50.203125 56.421875 58.203125 
Q 50.140625 66.21875 39.40625 66.21875 
z
M 39.40625 74.21875 
Q 54.734375 74.21875 63.90625 63.9375 
Q 73.09375 53.65625 73.09375 36.375 
Q 73.09375 19.140625 63.90625 8.859375 
Q 54.734375 -1.421875 39.40625 -1.421875 
Q 24.03125 -1.421875 14.8125 8.828125 
Q 5.609375 19.09375 5.609375 36.375 
Q 5.609375 53.65625 14.8125 63.9375 
Q 24.03125 74.21875 39.40625 74.21875 
z
" id="DejaVuSans-79"/>
     <path d="M 19.671875 64.796875 
L 19.671875 37.40625 
L 32.078125 37.40625 
Q 38.96875 37.40625 42.71875 40.96875 
Q 46.484375 44.53125 46.484375 51.125 
Q 46.484375 57.671875 42.71875 61.234375 
Q 38.96875 64.796875 32.078125 64.796875 
z
M 9.8125 72.90625 
L 32.078125 72.90625 
Q 44.34375 72.90625 50.609375 67.359375 
Q 56.890625 61.8125 56.890625 51.125 
Q 56.890625 40.328125 50.609375 34.8125 
Q 44.34375 29.296875 32.078125 29.296875 
L 19.671875 29.296875 
L 19.671875 0 
L 9.8125 0 
z
" id="DejaVuSans-80"/>
    </defs>
    <g transform="translate(238.127964 226.263681)scale(0.12 -0.12)">
     <use xlink:href="#DejaVuSans-84"/>
     <use x="61.083984" xlink:href="#DejaVuSans-79"/>
     <use x="139.794922" xlink:href="#DejaVuSans-80"/>
    </g>
   </g>
   <g id="text_8">
    <!-- BTM -->
    <defs>
     <path d="M 19.671875 34.8125 
L 19.671875 8.109375 
L 35.5 8.109375 
Q 43.453125 8.109375 47.28125 11.40625 
Q 51.125 14.703125 51.125 21.484375 
Q 51.125 28.328125 47.28125 31.5625 
Q 43.453125 34.8125 35.5 34.8125 
z
M 19.671875 64.796875 
L 19.671875 42.828125 
L 34.28125 42.828125 
Q 41.5 42.828125 45.03125 45.53125 
Q 48.578125 48.25 48.578125 53.8125 
Q 48.578125 59.328125 45.03125 62.0625 
Q 41.5 64.796875 34.28125 64.796875 
z
M 9.8125 72.90625 
L 35.015625 72.90625 
Q 46.296875 72.90625 52.390625 68.21875 
Q 58.5 63.53125 58.5 54.890625 
Q 58.5 48.1875 55.375 44.234375 
Q 52.25 40.28125 46.1875 39.3125 
Q 53.46875 37.75 57.5 32.78125 
Q 61.53125 27.828125 61.53125 20.40625 
Q 61.53125 10.640625 54.890625 5.3125 
Q 48.25 0 35.984375 0 
L 9.8125 0 
z
" id="DejaVuSans-66"/>
     <path d="M 9.8125 72.90625 
L 24.515625 72.90625 
L 43.109375 23.296875 
L 61.8125 72.90625 
L 76.515625 72.90625 
L 76.515625 0 
L 66.890625 0 
L 66.890625 64.015625 
L 48.09375 14.015625 
L 38.1875 14.015625 
L 19.390625 64.015625 
L 19.390625 0 
L 9.8125 0 
z
" id="DejaVuSans-77"/>
    </defs>
    <g transform="translate(597.121825 210.240305)scale(0.12 -0.12)">
     <use xlink:href="#DejaVuSans-66"/>
     <use x="68.603516" xlink:href="#DejaVuSans-84"/>
     <use x="129.6875" xlink:href="#DejaVuSans-77"/>
    </g>
   </g>
   <g id="text_9">
    <!-- BURGOS -->
    <defs>
     <path d="M 8.6875 72.90625 
L 18.609375 72.90625 
L 18.609375 28.609375 
Q 18.609375 16.890625 22.84375 11.734375 
Q 27.09375 6.59375 36.625 6.59375 
Q 46.09375 6.59375 50.34375 11.734375 
Q 54.59375 16.890625 54.59375 28.609375 
L 54.59375 72.90625 
L 64.5 72.90625 
L 64.5 27.390625 
Q 64.5 13.140625 57.4375 5.859375 
Q 50.390625 -1.421875 36.625 -1.421875 
Q 22.796875 -1.421875 15.734375 5.859375 
Q 8.6875 13.140625 8.6875 27.390625 
z
" id="DejaVuSans-85"/>
     <path d="M 44.390625 34.1875 
Q 47.5625 33.109375 50.5625 29.59375 
Q 53.5625 26.078125 56.59375 19.921875 
L 66.609375 0 
L 56 0 
L 46.6875 18.703125 
Q 43.0625 26.03125 39.671875 28.421875 
Q 36.28125 30.8125 30.421875 30.8125 
L 19.671875 30.8125 
L 19.671875 0 
L 9.8125 0 
L 9.8125 72.90625 
L 32.078125 72.90625 
Q 44.578125 72.90625 50.734375 67.671875 
Q 56.890625 62.453125 56.890625 51.90625 
Q 56.890625 45.015625 53.6875 40.46875 
Q 50.484375 35.9375 44.390625 34.1875 
z
M 19.671875 64.796875 
L 19.671875 38.921875 
L 32.078125 38.921875 
Q 39.203125 38.921875 42.84375 42.21875 
Q 46.484375 45.515625 46.484375 51.90625 
Q 46.484375 58.296875 42.84375 61.546875 
Q 39.203125 64.796875 32.078125 64.796875 
z
" id="DejaVuSans-82"/>
     <path d="M 59.515625 10.40625 
L 59.515625 29.984375 
L 43.40625 29.984375 
L 43.40625 38.09375 
L 69.28125 38.09375 
L 69.28125 6.78125 
Q 63.578125 2.734375 56.6875 0.65625 
Q 49.8125 -1.421875 42 -1.421875 
Q 24.90625 -1.421875 15.25 8.5625 
Q 5.609375 18.5625 5.609375 36.375 
Q 5.609375 54.25 15.25 64.234375 
Q 24.90625 74.21875 42 74.21875 
Q 49.125 74.21875 55.546875 72.453125 
Q 61.96875 70.703125 67.390625 67.28125 
L 67.390625 56.78125 
Q 61.921875 61.421875 55.765625 63.765625 
Q 49.609375 66.109375 42.828125 66.109375 
Q 29.4375 66.109375 22.71875 58.640625 
Q 16.015625 51.171875 16.015625 36.375 
Q 16.015625 21.625 22.71875 14.15625 
Q 29.4375 6.6875 42.828125 6.6875 
Q 48.046875 6.6875 52.140625 7.59375 
Q 56.25 8.5 59.515625 10.40625 
z
" id="DejaVuSans-71"/>
     <path d="M 53.515625 70.515625 
L 53.515625 60.890625 
Q 47.90625 63.578125 42.921875 64.890625 
Q 37.9375 66.21875 33.296875 66.21875 
Q 25.25 66.21875 20.875 63.09375 
Q 16.5 59.96875 16.5 54.203125 
Q 16.5 49.359375 19.40625 46.890625 
Q 22.3125 44.4375 30.421875 42.921875 
L 36.375 41.703125 
Q 47.40625 39.59375 52.65625 34.296875 
Q 57.90625 29 57.90625 20.125 
Q 57.90625 9.515625 50.796875 4.046875 
Q 43.703125 -1.421875 29.984375 -1.421875 
Q 24.8125 -1.421875 18.96875 -0.25 
Q 13.140625 0.921875 6.890625 3.21875 
L 6.890625 13.375 
Q 12.890625 10.015625 18.65625 8.296875 
Q 24.421875 6.59375 29.984375 6.59375 
Q 38.421875 6.59375 43.015625 9.90625 
Q 47.609375 13.234375 47.609375 19.390625 
Q 47.609375 24.75 44.3125 27.78125 
Q 41.015625 30.8125 33.5 32.328125 
L 27.484375 33.5 
Q 16.453125 35.6875 11.515625 40.375 
Q 6.59375 45.0625 6.59375 53.421875 
Q 6.59375 63.09375 13.40625 68.65625 
Q 20.21875 74.21875 32.171875 74.21875 
Q 37.3125 74.21875 42.625 73.28125 
Q 47.953125 72.359375 53.515625 70.515625 
z
" id="DejaVuSans-83"/>
    </defs>
    <g transform="translate(386.320989 433.760949)scale(0.12 -0.12)">
     <use xlink:href="#DejaVuSans-66"/>
     <use x="68.603516" xlink:href="#DejaVuSans-85"/>
     <use x="141.796875" xlink:href="#DejaVuSans-82"/>
     <use x="211.279297" xlink:href="#DejaVuSans-71"/>
     <use x="288.769531" xlink:href="#DejaVuSans-79"/>
     <use x="367.480469" xlink:href="#DejaVuSans-83"/>
    </g>
   </g>
   <g id="text_10">
    <!-- BURGOS vs MIX P150 -->
    <defs>
     <path id="DejaVuSans-32"/>
     <path d="M 2.984375 54.6875 
L 12.5 54.6875 
L 29.59375 8.796875 
L 46.6875 54.6875 
L 56.203125 54.6875 
L 35.6875 0 
L 23.484375 0 
z
" id="DejaVuSans-118"/>
     <path d="M 44.28125 53.078125 
L 44.28125 44.578125 
Q 40.484375 46.53125 36.375 47.5 
Q 32.28125 48.484375 27.875 48.484375 
Q 21.1875 48.484375 17.84375 46.4375 
Q 14.5 44.390625 14.5 40.28125 
Q 14.5 37.15625 16.890625 35.375 
Q 19.28125 33.59375 26.515625 31.984375 
L 29.59375 31.296875 
Q 39.15625 29.25 43.1875 25.515625 
Q 47.21875 21.78125 47.21875 15.09375 
Q 47.21875 7.46875 41.1875 3.015625 
Q 35.15625 -1.421875 24.609375 -1.421875 
Q 20.21875 -1.421875 15.453125 -0.5625 
Q 10.6875 0.296875 5.421875 2 
L 5.421875 11.28125 
Q 10.40625 8.6875 15.234375 7.390625 
Q 20.0625 6.109375 24.8125 6.109375 
Q 31.15625 6.109375 34.5625 8.28125 
Q 37.984375 10.453125 37.984375 14.40625 
Q 37.984375 18.0625 35.515625 20.015625 
Q 33.0625 21.96875 24.703125 23.78125 
L 21.578125 24.515625 
Q 13.234375 26.265625 9.515625 29.90625 
Q 5.8125 33.546875 5.8125 39.890625 
Q 5.8125 47.609375 11.28125 51.796875 
Q 16.75 56 26.8125 56 
Q 31.78125 56 36.171875 55.265625 
Q 40.578125 54.546875 44.28125 53.078125 
z
" id="DejaVuSans-115"/>
     <path d="M 9.8125 72.90625 
L 19.671875 72.90625 
L 19.671875 0 
L 9.8125 0 
z
" id="DejaVuSans-73"/>
     <path d="M 6.296875 72.90625 
L 16.890625 72.90625 
L 35.015625 45.796875 
L 53.21875 72.90625 
L 63.8125 72.90625 
L 40.375 37.890625 
L 65.375 0 
L 54.78125 0 
L 34.28125 31 
L 13.625 0 
L 2.984375 0 
L 29 38.921875 
z
" id="DejaVuSans-88"/>
     <path d="M 10.796875 72.90625 
L 49.515625 72.90625 
L 49.515625 64.59375 
L 19.828125 64.59375 
L 19.828125 46.734375 
Q 21.96875 47.46875 24.109375 47.828125 
Q 26.265625 48.1875 28.421875 48.1875 
Q 40.625 48.1875 47.75 41.5 
Q 54.890625 34.8125 54.890625 23.390625 
Q 54.890625 11.625 47.5625 5.09375 
Q 40.234375 -1.421875 26.90625 -1.421875 
Q 22.3125 -1.421875 17.546875 -0.640625 
Q 12.796875 0.140625 7.71875 1.703125 
L 7.71875 11.625 
Q 12.109375 9.234375 16.796875 8.0625 
Q 21.484375 6.890625 26.703125 6.890625 
Q 35.15625 6.890625 40.078125 11.328125 
Q 45.015625 15.765625 45.015625 23.390625 
Q 45.015625 31 40.078125 35.4375 
Q 35.15625 39.890625 26.703125 39.890625 
Q 22.75 39.890625 18.8125 39.015625 
Q 14.890625 38.140625 10.796875 36.28125 
z
" id="DejaVuSans-53"/>
    </defs>
    <g transform="translate(369.253551 175.310427)scale(0.12 -0.12)">
     <use xlink:href="#DejaVuSans-66"/>
     <use x="68.603516" xlink:href="#DejaVuSans-85"/>
     <use x="141.796875" xlink:href="#DejaVuSans-82"/>
     <use x="211.279297" xlink:href="#DejaVuSans-71"/>
     <use x="288.769531" xlink:href="#DejaVuSans-79"/>
     <use x="367.480469" xlink:href="#DejaVuSans-83"/>
     <use x="430.957031" xlink:href="#DejaVuSans-32"/>
     <use x="462.744141" xlink:href="#DejaVuSans-118"/>
     <use x="521.923828" xlink:href="#DejaVuSans-115"/>
     <use x="574.023438" xlink:href="#DejaVuSans-32"/>
     <use x="605.810547" xlink:href="#DejaVuSans-77"/>
     <use x="692.089844" xlink:href="#DejaVuSans-73"/>
     <use x="721.582031" xlink:href="#DejaVuSans-88"/>
     <use x="790.087891" xlink:href="#DejaVuSans-32"/>
     <use x="821.875" xlink:href="#DejaVuSans-80"/>
     <use x="882.177734" xlink:href="#DejaVuSans-49"/>
     <use x="945.800781" xlink:href="#DejaVuSans-53"/>
     <use x="1009.423828" xlink:href="#DejaVuSans-48"/>
    </g>
   </g>
  </g>
  <g id="axes_2">
   <g id="patch_8">
    <path clip-path="url(#pd61f1ea74c)" d="M 1026.049716 302.231158 
C 1022.856804 291.547404 1018.003325 281.432005 1011.667443 272.256281 
C 1005.331562 263.080558 997.591764 254.958176 988.732166 248.187295 
C 979.872569 241.416414 970.002921 236.08091 959.485521 232.37664 
C 948.968122 228.672371 937.933258 226.645223 926.786001 226.369611 
C 915.638744 226.093999 904.517183 227.573336 893.829573 230.753319 
C 883.141963 233.933302 873.020698 238.774537 863.837315 245.099312 
C 854.653931 251.424086 846.52219 259.154049 839.740594 268.005448 
C 832.958998 276.856846 827.611555 286.720031 823.894562 297.23294 
C 820.177569 307.74585 818.137071 318.778253 817.847971 329.925168 
C 817.55887 341.072084 819.024749 352.195426 822.191798 362.886877 
C 825.358846 373.578327 830.187831 383.705442 836.501489 392.896471 
C 842.815146 402.087501 850.535265 410.22859 859.378451 417.020891 
C 868.221637 423.813193 878.078344 429.172566 888.586748 432.902277 
C 899.095152 436.631988 910.125078 438.685834 921.271636 438.988422 
C 932.418193 439.29101 943.543301 437.838592 954.238576 434.684483 
C 964.93385 431.530373 975.066801 426.713646 984.265464 420.411114 
C 979.134406 414.230288 976.220075 406.504526 975.990564 398.474726 
C 975.761054 390.444926 978.229347 382.565316 982.998992 376.101504 
C 987.768636 369.637693 994.569823 364.955324 1002.310158 362.806471 
C 1010.050494 360.657617 1018.292124 361.163836 1025.711293 364.243818 
C 1025.768707 364.059083 1025.825615 363.874191 1025.88202 363.689144 
C 1025.938424 363.504098 1025.994323 363.318899 1026.049716 363.133547 
C 1023.49339 353.185017 1022.19995 342.954064 1022.19995 332.682353 
C 1022.19995 322.410641 1023.49339 312.179689 1026.049716 302.231158 
" style="fill:#ff0000;opacity:0.4;"/>
   </g>
   <g id="patch_9">
    <path clip-path="url(#pd61f1ea74c)" d="M 1026.049716 363.133547 
C 1026.110383 363.369647 1026.171756 363.605565 1026.233833 363.841298 
C 1026.29591 364.077031 1026.358692 364.312578 1026.422176 364.547936 
C 1034.193693 367.971938 1040.506118 374.041282 1044.232508 381.67242 
C 1047.958897 389.303559 1048.863465 398.013634 1046.78472 406.247654 
C 1055.059769 417.2457 1065.131501 426.769091 1076.575104 434.416142 
C 1088.018707 442.063194 1100.670993 447.724858 1113.998304 451.162333 
C 1127.325615 454.599807 1141.137902 455.764073 1154.852579 454.606024 
C 1168.567256 453.447974 1181.98875 449.984122 1194.550959 444.36057 
C 1207.113169 438.737018 1218.636955 431.033957 1228.636257 421.576294 
C 1238.63556 412.118631 1246.967788 401.041233 1253.281499 388.811331 
C 1259.59521 376.581429 1263.800369 363.373423 1265.719608 349.744411 
C 1267.638846 336.115399 1267.244796 322.259732 1264.554077 308.761825 
C 1261.863358 295.263919 1256.914341 282.316255 1249.915769 270.46495 
C 1242.917197 258.613644 1233.968871 248.027699 1223.448219 239.153617 
C 1212.927568 230.279534 1200.984618 223.243859 1188.123108 218.343349 
C 1175.261598 213.442838 1161.664935 210.747373 1147.906609 210.370646 
C 1134.148283 209.993919 1120.424491 211.941302 1107.314084 216.130656 
C 1094.203678 220.32001 1081.893613 226.691595 1070.903115 234.976664 
C 1059.912616 243.261734 1050.398408 253.342143 1042.76179 264.792711 
C 1035.125172 276.243279 1029.475042 288.90072 1026.049716 302.231158 
C 1029.002639 312.111887 1030.502686 322.36981 1030.502686 332.682353 
C 1030.502686 342.994896 1029.002639 353.252819 1026.049716 363.133547 
" style="fill:#008000;opacity:0.4;"/>
   </g>
   <g id="patch_10">
    <path clip-path="url(#pd61f1ea74c)" d="M 1026.049716 363.133547 
C 1029.002639 353.252819 1030.502686 342.994896 1030.502686 332.682353 
C 1030.502686 322.36981 1029.002639 312.111887 1026.049716 302.231158 
C 1023.49339 312.179689 1022.19995 322.410641 1022.19995 332.682353 
C 1022.19995 342.954064 1023.49339 353.185017 1026.049716 363.133547 
" style="fill:#b25900;opacity:0.4;"/>
   </g>
   <g id="patch_11">
    <path clip-path="url(#pd61f1ea74c)" d="M 984.265464 420.411114 
C 988.504604 425.517545 994.076085 429.351779 1000.359892 431.487128 
C 1006.643699 433.622478 1013.397757 433.976681 1019.870448 432.510321 
C 1026.34314 431.043962 1032.285114 427.813529 1037.035125 423.178517 
C 1041.785137 418.543505 1045.160198 412.682471 1046.78472 406.247654 
C 1042.102732 400.025006 1038.025469 393.369574 1034.608448 386.37198 
C 1031.191428 379.374387 1028.450229 372.066536 1026.422176 364.547936 
C 1026.304245 364.495977 1026.186036 364.444653 1026.067552 364.393966 
C 1025.949069 364.343278 1025.830315 364.293228 1025.711293 364.243818 
C 1022.185176 375.589639 1016.78249 386.264741 1009.728066 395.82488 
C 1002.673643 405.385019 994.066716 413.695714 984.265464 420.411114 
" style="fill:#0000ff;opacity:0.4;"/>
   </g>
   <g id="patch_12">
    <path clip-path="url(#pd61f1ea74c)" d="M 984.265464 420.411114 
C 994.066716 413.695714 1002.673643 405.385019 1009.728066 395.82488 
C 1016.78249 386.264741 1022.185176 375.589639 1025.711293 364.243818 
C 1018.292124 361.163836 1010.050494 360.657617 1002.310158 362.806471 
C 994.569823 364.955324 987.768636 369.637693 982.998992 376.101504 
C 978.229347 382.565316 975.761054 390.444926 975.990564 398.474726 
C 976.220075 406.504526 979.134406 414.230288 984.265464 420.411114 
" style="fill:#b200b2;opacity:0.4;"/>
   </g>
   <g id="patch_13">
    <path clip-path="url(#pd61f1ea74c)" d="M 1026.422176 364.547936 
C 1028.450229 372.066536 1031.191428 379.374387 1034.608448 386.37198 
C 1038.025469 393.369574 1042.102732 400.025006 1046.78472 406.247654 
C 1048.863465 398.013634 1047.958897 389.303559 1044.232508 381.67242 
C 1040.506118 374.041282 1034.193693 367.971938 1026.422176 364.547936 
" style="fill:#0059b2;opacity:0.4;"/>
   </g>
   <g id="text_11">
    <!-- 100 -->
    <g transform="translate(878.389923 327.833321)scale(0.1 -0.1)">
     <use xlink:href="#DejaVuSans-49"/>
     <use x="63.623047" xlink:href="#DejaVuSans-48"/>
     <use x="127.246094" xlink:href="#DejaVuSans-48"/>
    </g>
   </g>
   <g id="text_12">
    <!-- 138 -->
    <defs>
     <path d="M 31.78125 34.625 
Q 24.75 34.625 20.71875 30.859375 
Q 16.703125 27.09375 16.703125 20.515625 
Q 16.703125 13.921875 20.71875 10.15625 
Q 24.75 6.390625 31.78125 6.390625 
Q 38.8125 6.390625 42.859375 10.171875 
Q 46.921875 13.96875 46.921875 20.515625 
Q 46.921875 27.09375 42.890625 30.859375 
Q 38.875 34.625 31.78125 34.625 
z
M 21.921875 38.8125 
Q 15.578125 40.375 12.03125 44.71875 
Q 8.5 49.078125 8.5 55.328125 
Q 8.5 64.0625 14.71875 69.140625 
Q 20.953125 74.21875 31.78125 74.21875 
Q 42.671875 74.21875 48.875 69.140625 
Q 55.078125 64.0625 55.078125 55.328125 
Q 55.078125 49.078125 51.53125 44.71875 
Q 48 40.375 41.703125 38.8125 
Q 48.828125 37.15625 52.796875 32.3125 
Q 56.78125 27.484375 56.78125 20.515625 
Q 56.78125 9.90625 50.3125 4.234375 
Q 43.84375 -1.421875 31.78125 -1.421875 
Q 19.734375 -1.421875 13.25 4.234375 
Q 6.78125 9.90625 6.78125 20.515625 
Q 6.78125 27.484375 10.78125 32.3125 
Q 14.796875 37.15625 21.921875 38.8125 
z
M 18.3125 54.390625 
Q 18.3125 48.734375 21.84375 45.5625 
Q 25.390625 42.390625 31.78125 42.390625 
Q 38.140625 42.390625 41.71875 45.5625 
Q 45.3125 48.734375 45.3125 54.390625 
Q 45.3125 60.0625 41.71875 63.234375 
Q 38.140625 66.40625 31.78125 66.40625 
Q 25.390625 66.40625 21.84375 63.234375 
Q 18.3125 60.0625 18.3125 54.390625 
z
" id="DejaVuSans-56"/>
    </defs>
    <g transform="translate(1194.336926 327.349472)scale(0.1 -0.1)">
     <use xlink:href="#DejaVuSans-49"/>
     <use x="63.623047" xlink:href="#DejaVuSans-51"/>
     <use x="127.246094" xlink:href="#DejaVuSans-56"/>
    </g>
   </g>
   <g id="text_13">
    <!-- 0 -->
    <g transform="translate(1023.170068 335.441728)scale(0.1 -0.1)">
     <use xlink:href="#DejaVuSans-48"/>
    </g>
   </g>
   <g id="text_14">
    <!-- 7 -->
    <g transform="translate(1016.375728 421.948381)scale(0.1 -0.1)">
     <use xlink:href="#DejaVuSans-55"/>
    </g>
   </g>
   <g id="text_15">
    <!-- 4 -->
    <g transform="translate(993.182279 388.722567)scale(0.1 -0.1)">
     <use xlink:href="#DejaVuSans-52"/>
    </g>
   </g>
   <g id="text_16">
    <!-- 0 -->
    <g transform="translate(1036.239228 386.781575)scale(0.1 -0.1)">
     <use xlink:href="#DejaVuSans-48"/>
    </g>
   </g>
   <g id="text_17">
    <!-- 1 -->
    <g transform="translate(1022.879812 366.734475)scale(0.1 -0.1)">
     <use xlink:href="#DejaVuSans-49"/>
    </g>
   </g>
   <g id="text_18">
    <!-- TOP -->
    <g transform="translate(846.973588 226.337121)scale(0.12 -0.12)">
     <use xlink:href="#DejaVuSans-84"/>
     <use x="61.083984" xlink:href="#DejaVuSans-79"/>
     <use x="139.794922" xlink:href="#DejaVuSans-80"/>
    </g>
   </g>
   <g id="text_19">
    <!-- BTM -->
    <g transform="translate(1205.736275 210.324803)scale(0.12 -0.12)">
     <use xlink:href="#DejaVuSans-66"/>
     <use x="68.603516" xlink:href="#DejaVuSans-84"/>
     <use x="129.6875" xlink:href="#DejaVuSans-77"/>
    </g>
   </g>
   <g id="text_20">
    <!-- PAREDES -->
    <defs>
     <path d="M 34.1875 63.1875 
L 20.796875 26.90625 
L 47.609375 26.90625 
z
M 28.609375 72.90625 
L 39.796875 72.90625 
L 67.578125 0 
L 57.328125 0 
L 50.6875 18.703125 
L 17.828125 18.703125 
L 11.1875 0 
L 0.78125 0 
z
" id="DejaVuSans-65"/>
     <path d="M 9.8125 72.90625 
L 55.90625 72.90625 
L 55.90625 64.59375 
L 19.671875 64.59375 
L 19.671875 43.015625 
L 54.390625 43.015625 
L 54.390625 34.71875 
L 19.671875 34.71875 
L 19.671875 8.296875 
L 56.78125 8.296875 
L 56.78125 0 
L 9.8125 0 
z
" id="DejaVuSans-69"/>
     <path d="M 19.671875 64.796875 
L 19.671875 8.109375 
L 31.59375 8.109375 
Q 46.6875 8.109375 53.6875 14.9375 
Q 60.6875 21.78125 60.6875 36.53125 
Q 60.6875 51.171875 53.6875 57.984375 
Q 46.6875 64.796875 31.59375 64.796875 
z
M 9.8125 72.90625 
L 30.078125 72.90625 
Q 51.265625 72.90625 61.171875 64.09375 
Q 71.09375 55.28125 71.09375 36.53125 
Q 71.09375 17.671875 61.125 8.828125 
Q 51.171875 0 30.078125 0 
L 9.8125 0 
z
" id="DejaVuSans-68"/>
    </defs>
    <g transform="translate(984.029951 446.112075)scale(0.12 -0.12)">
     <use xlink:href="#DejaVuSans-80"/>
     <use x="60.208984" xlink:href="#DejaVuSans-65"/>
     <use x="128.617188" xlink:href="#DejaVuSans-82"/>
     <use x="198.099609" xlink:href="#DejaVuSans-69"/>
     <use x="261.283203" xlink:href="#DejaVuSans-68"/>
     <use x="338.285156" xlink:href="#DejaVuSans-69"/>
     <use x="401.46875" xlink:href="#DejaVuSans-83"/>
    </g>
   </g>
   <g id="text_21">
    <!-- PAREDES vs MIX P150 -->
    <g transform="translate(975.941761 175.239853)scale(0.12 -0.12)">
     <use xlink:href="#DejaVuSans-80"/>
     <use x="60.208984" xlink:href="#DejaVuSans-65"/>
     <use x="128.617188" xlink:href="#DejaVuSans-82"/>
     <use x="198.099609" xlink:href="#DejaVuSans-69"/>
     <use x="261.283203" xlink:href="#DejaVuSans-68"/>
     <use x="338.285156" xlink:href="#DejaVuSans-69"/>
     <use x="401.46875" xlink:href="#DejaVuSans-83"/>
     <use x="464.945312" xlink:href="#DejaVuSans-32"/>
     <use x="496.732422" xlink:href="#DejaVuSans-118"/>
     <use x="555.912109" xlink:href="#DejaVuSans-115"/>
     <use x="608.011719" xlink:href="#DejaVuSans-32"/>
     <use x="639.798828" xlink:href="#DejaVuSans-77"/>
     <use x="726.078125" xlink:href="#DejaVuSans-73"/>
     <use x="755.570312" xlink:href="#DejaVuSans-88"/>
     <use x="824.076172" xlink:href="#DejaVuSans-32"/>
     <use x="855.863281" xlink:href="#DejaVuSans-80"/>
     <use x="916.166016" xlink:href="#DejaVuSans-49"/>
     <use x="979.789062" xlink:href="#DejaVuSans-53"/>
     <use x="1043.412109" xlink:href="#DejaVuSans-48"/>
    </g>
   </g>
  </g>
  <g id="axes_3">
   <g id="patch_14">
    <path clip-path="url(#pdbdbad62ef)" d="M 240.999145 694.029952 
C 245.284304 695.990766 248.917139 699.14218 251.46342 703.107508 
C 254.009701 707.072836 255.363767 711.68753 255.363767 716.4 
C 255.363767 721.11247 254.009701 725.727164 251.46342 729.692492 
C 248.917139 733.65782 245.284304 736.809234 240.999145 738.770048 
C 243.709435 749.762486 248.395016 760.171415 254.827063 769.488503 
C 261.25911 778.805591 269.331185 786.876657 278.649076 793.307539 
C 287.966968 799.738422 298.376483 804.422703 309.369259 807.131618 
C 320.362036 809.840534 331.756163 810.529257 342.995195 809.164153 
C 354.234228 807.799048 365.132179 804.402707 375.156835 799.140993 
C 385.181491 793.879279 394.166961 786.839264 401.674429 778.364757 
C 409.181897 769.890249 415.087128 760.121486 419.101732 749.535537 
C 423.116337 738.949588 425.17388 727.721632 425.17388 716.4 
C 425.17388 705.078368 423.116337 693.850412 419.101732 683.264463 
C 415.087128 672.678514 409.181897 662.909751 401.674429 654.435243 
C 394.166961 645.960736 385.181491 638.920721 375.156835 633.659007 
C 365.132179 628.397293 354.234228 625.000952 342.995195 623.635847 
C 331.756163 622.270743 320.362036 622.959466 309.369259 625.668382 
C 298.376483 628.377297 287.966968 633.061578 278.649076 639.492461 
C 269.331185 645.923343 261.25911 653.994409 254.827063 663.311497 
C 248.395016 672.628585 243.709435 683.037514 240.999145 694.029952 
" style="fill:#ff0000;opacity:0.4;"/>
   </g>
   <g id="patch_15">
    <path clip-path="url(#pdbdbad62ef)" d="M 548.759725 828.750768 
C 578.555497 828.750768 607.134923 816.912783 628.203715 795.84399 
C 649.272508 774.775198 661.110493 746.195772 661.110493 716.4 
C 661.110493 686.604228 649.272508 658.024802 628.203715 636.95601 
C 607.134923 615.887217 578.555497 604.049232 548.759725 604.049232 
C 518.963953 604.049232 490.384528 615.887217 469.315735 636.95601 
C 448.246943 658.024802 436.408957 686.604228 436.408957 716.4 
C 436.408957 746.195772 448.246943 774.775198 469.315735 795.84399 
C 490.384528 816.912783 518.963953 828.750768 548.759725 828.750768 
z
" style="fill:#008000;opacity:0.4;"/>
   </g>
   <g id="patch_16">
    <path clip-path="url(#pdbdbad62ef)" d="M 240.999145 738.770048 
C 239.194391 731.450295 238.282057 723.938961 238.282057 716.4 
C 238.282057 708.861039 239.194391 701.349705 240.999145 694.029952 
C 237.251612 692.315146 233.132566 691.569224 229.021671 691.86094 
C 224.910775 692.152655 220.938337 693.472761 217.470508 695.699581 
C 214.002679 697.9264 211.149382 700.989346 209.173614 704.606099 
C 207.197846 708.222852 206.162234 712.278767 206.162234 716.4 
C 206.162234 720.521233 207.197846 724.577148 209.173614 728.193901 
C 211.149382 731.810654 214.002679 734.8736 217.470508 737.100419 
C 220.938337 739.327239 224.910775 740.647345 229.021671 740.93906 
C 233.132566 741.230776 237.251612 740.484854 240.999145 738.770048 
" style="fill:#0000ff;opacity:0.4;"/>
   </g>
   <g id="patch_17">
    <path clip-path="url(#pdbdbad62ef)" d="M 240.999145 694.029952 
C 239.194391 701.349705 238.282057 708.861039 238.282057 716.4 
C 238.282057 723.938961 239.194391 731.450295 240.999145 738.770048 
C 245.284304 736.809234 248.917139 733.65782 251.46342 729.692492 
C 254.009701 725.727164 255.363767 721.11247 255.363767 716.4 
C 255.363767 711.68753 254.009701 707.072836 251.46342 703.107508 
C 248.917139 699.14218 245.284304 695.990766 240.999145 694.029952 
" style="fill:#b200b2;opacity:0.4;"/>
   </g>
   <g id="text_22">
    <!-- 99 -->
    <defs>
     <path d="M 10.984375 1.515625 
L 10.984375 10.5 
Q 14.703125 8.734375 18.5 7.8125 
Q 22.3125 6.890625 25.984375 6.890625 
Q 35.75 6.890625 40.890625 13.453125 
Q 46.046875 20.015625 46.78125 33.40625 
Q 43.953125 29.203125 39.59375 26.953125 
Q 35.25 24.703125 29.984375 24.703125 
Q 19.046875 24.703125 12.671875 31.3125 
Q 6.296875 37.9375 6.296875 49.421875 
Q 6.296875 60.640625 12.9375 67.421875 
Q 19.578125 74.21875 30.609375 74.21875 
Q 43.265625 74.21875 49.921875 64.515625 
Q 56.59375 54.828125 56.59375 36.375 
Q 56.59375 19.140625 48.40625 8.859375 
Q 40.234375 -1.421875 26.421875 -1.421875 
Q 22.703125 -1.421875 18.890625 -0.6875 
Q 15.09375 0.046875 10.984375 1.515625 
z
M 30.609375 32.421875 
Q 37.25 32.421875 41.125 36.953125 
Q 45.015625 41.5 45.015625 49.421875 
Q 45.015625 57.28125 41.125 61.84375 
Q 37.25 66.40625 30.609375 66.40625 
Q 23.96875 66.40625 20.09375 61.84375 
Q 16.21875 57.28125 16.21875 49.421875 
Q 16.21875 41.5 20.09375 36.953125 
Q 23.96875 32.421875 30.609375 32.421875 
z
" id="DejaVuSans-57"/>
    </defs>
    <g transform="translate(333.906324 719.159375)scale(0.1 -0.1)">
     <use xlink:href="#DejaVuSans-57"/>
     <use x="63.623047" xlink:href="#DejaVuSans-57"/>
    </g>
   </g>
   <g id="text_23">
    <!-- 146 -->
    <defs>
     <path d="M 33.015625 40.375 
Q 26.375 40.375 22.484375 35.828125 
Q 18.609375 31.296875 18.609375 23.390625 
Q 18.609375 15.53125 22.484375 10.953125 
Q 26.375 6.390625 33.015625 6.390625 
Q 39.65625 6.390625 43.53125 10.953125 
Q 47.40625 15.53125 47.40625 23.390625 
Q 47.40625 31.296875 43.53125 35.828125 
Q 39.65625 40.375 33.015625 40.375 
z
M 52.59375 71.296875 
L 52.59375 62.3125 
Q 48.875 64.0625 45.09375 64.984375 
Q 41.3125 65.921875 37.59375 65.921875 
Q 27.828125 65.921875 22.671875 59.328125 
Q 17.53125 52.734375 16.796875 39.40625 
Q 19.671875 43.65625 24.015625 45.921875 
Q 28.375 48.1875 33.59375 48.1875 
Q 44.578125 48.1875 50.953125 41.515625 
Q 57.328125 34.859375 57.328125 23.390625 
Q 57.328125 12.15625 50.6875 5.359375 
Q 44.046875 -1.421875 33.015625 -1.421875 
Q 20.359375 -1.421875 13.671875 8.265625 
Q 6.984375 17.96875 6.984375 36.375 
Q 6.984375 53.65625 15.1875 63.9375 
Q 23.390625 74.21875 37.203125 74.21875 
Q 40.921875 74.21875 44.703125 73.484375 
Q 48.484375 72.75 52.59375 71.296875 
z
" id="DejaVuSans-54"/>
    </defs>
    <g transform="translate(539.215975 719.159375)scale(0.1 -0.1)">
     <use xlink:href="#DejaVuSans-49"/>
     <use x="63.623047" xlink:href="#DejaVuSans-52"/>
     <use x="127.246094" xlink:href="#DejaVuSans-54"/>
    </g>
   </g>
   <g id="text_24">
    <!-- 5 -->
    <g transform="translate(219.040895 719.159375)scale(0.1 -0.1)">
     <use xlink:href="#DejaVuSans-53"/>
    </g>
   </g>
   <g id="text_25">
    <!-- 2 -->
    <g transform="translate(243.641662 719.159375)scale(0.1 -0.1)">
     <use xlink:href="#DejaVuSans-50"/>
    </g>
   </g>
   <g id="text_26">
    <!-- TOP -->
    <g transform="translate(319.722343 826.643952)scale(0.12 -0.12)">
     <use xlink:href="#DejaVuSans-84"/>
     <use x="61.083984" xlink:href="#DejaVuSans-79"/>
     <use x="139.794922" xlink:href="#DejaVuSans-80"/>
    </g>
   </g>
   <g id="text_27">
    <!-- BTM -->
    <g transform="translate(535.8016 845.548808)scale(0.12 -0.12)">
     <use xlink:href="#DejaVuSans-66"/>
     <use x="68.603516" xlink:href="#DejaVuSans-84"/>
     <use x="129.6875" xlink:href="#DejaVuSans-77"/>
    </g>
   </g>
   <g id="text_28">
    <!-- BURGOS -->
    <g transform="translate(204.904875 757.798806)scale(0.12 -0.12)">
     <use xlink:href="#DejaVuSans-66"/>
     <use x="68.603516" xlink:href="#DejaVuSans-85"/>
     <use x="141.796875" xlink:href="#DejaVuSans-82"/>
     <use x="211.279297" xlink:href="#DejaVuSans-71"/>
     <use x="288.769531" xlink:href="#DejaVuSans-79"/>
     <use x="367.480469" xlink:href="#DejaVuSans-83"/>
    </g>
   </g>
   <g id="text_29">
    <!-- BURGOS vs MIX P180 -->
    <g transform="translate(369.253551 571.886998)scale(0.12 -0.12)">
     <use xlink:href="#DejaVuSans-66"/>
     <use x="68.603516" xlink:href="#DejaVuSans-85"/>
     <use x="141.796875" xlink:href="#DejaVuSans-82"/>
     <use x="211.279297" xlink:href="#DejaVuSans-71"/>
     <use x="288.769531" xlink:href="#DejaVuSans-79"/>
     <use x="367.480469" xlink:href="#DejaVuSans-83"/>
     <use x="430.957031" xlink:href="#DejaVuSans-32"/>
     <use x="462.744141" xlink:href="#DejaVuSans-118"/>
     <use x="521.923828" xlink:href="#DejaVuSans-115"/>
     <use x="574.023438" xlink:href="#DejaVuSans-32"/>
     <use x="605.810547" xlink:href="#DejaVuSans-77"/>
     <use x="692.089844" xlink:href="#DejaVuSans-73"/>
     <use x="721.582031" xlink:href="#DejaVuSans-88"/>
     <use x="790.087891" xlink:href="#DejaVuSans-32"/>
     <use x="821.875" xlink:href="#DejaVuSans-80"/>
     <use x="882.177734" xlink:href="#DejaVuSans-49"/>
     <use x="945.800781" xlink:href="#DejaVuSans-56"/>
     <use x="1009.423828" xlink:href="#DejaVuSans-48"/>
    </g>
   </g>
  </g>
  <g id="axes_4">
   <g id="patch_18">
    <path clip-path="url(#p9b74c95938)" d="M 1002.539538 742.086555 
C 998.677439 739.01151 995.558131 735.104664 993.414429 730.657615 
C 991.270727 726.210565 990.157326 721.336771 990.157326 716.4 
C 990.157326 711.463229 991.270727 706.589435 993.414429 702.142385 
C 995.558131 697.695336 998.677439 693.78849 1002.539538 690.713445 
C 999.461199 679.720529 994.431652 669.369975 987.691295 660.156508 
C 980.950938 650.943041 972.608899 643.015829 963.0639 636.753769 
C 953.518902 630.491709 942.925481 625.996185 931.78997 623.482069 
C 920.654459 620.967954 909.157145 620.47595 897.847563 622.029575 
C 886.537982 623.583199 875.599238 627.157299 865.55417 632.581043 
C 855.509102 638.004786 846.520342 645.190362 839.017525 653.794322 
C 831.514708 662.398282 825.619307 672.281325 821.613103 682.971073 
C 817.606899 693.660821 815.554754 704.984205 815.554754 716.4 
C 815.554754 727.815795 817.606899 739.139179 821.613103 749.828927 
C 825.619307 760.518675 831.514708 770.401718 839.017525 779.005678 
C 846.520342 787.609638 855.509102 794.795214 865.55417 800.218957 
C 875.599238 805.642701 886.537982 809.216801 897.847563 810.770425 
C 909.157145 812.32405 920.654459 811.832046 931.78997 809.317931 
C 942.925481 806.803815 953.518902 802.308291 963.0639 796.046231 
C 972.608899 789.784171 980.950938 781.856959 987.691295 772.643492 
C 994.431652 763.430025 999.461199 753.079471 1002.539538 742.086555 
" style="fill:#ff0000;opacity:0.4;"/>
   </g>
   <g id="patch_19">
    <path clip-path="url(#p9b74c95938)" d="M 1043.0973 690.441669 
C 1047.058979 693.51016 1050.266127 697.445245 1052.472277 701.944515 
C 1054.678428 706.443786 1055.825582 711.388958 1055.825582 716.4 
C 1055.825582 721.411042 1054.678428 726.356214 1052.472277 730.855485 
C 1050.266127 735.354755 1047.058979 739.28984 1043.0973 742.358331 
C 1046.256615 755.934444 1051.868018 768.820434 1059.65501 780.381354 
C 1067.442002 791.942274 1077.274546 801.985066 1088.668151 810.014877 
C 1100.061756 818.044689 1112.826159 823.927429 1126.3324 827.37323 
C 1139.838642 830.819032 1153.86118 831.770351 1167.709064 830.180315 
C 1181.556948 828.590278 1194.99893 824.485436 1207.372664 818.068053 
C 1219.746399 811.65067 1230.845256 803.027911 1240.122345 792.624656 
C 1249.399435 782.221401 1256.699839 770.211376 1261.663833 757.186367 
C 1266.627828 744.161357 1269.172519 730.33887 1269.172519 716.4 
C 1269.172519 702.46113 1266.627828 688.638643 1261.663833 675.613633 
C 1256.699839 662.588624 1249.399435 650.578599 1240.122345 640.175344 
C 1230.845256 629.772089 1219.746399 621.14933 1207.372664 614.731947 
C 1194.99893 608.314564 1181.556948 604.209722 1167.709064 602.619685 
C 1153.86118 601.029649 1139.838642 601.980968 1126.3324 605.42677 
C 1112.826159 608.872571 1100.061756 614.755311 1088.668151 622.785123 
C 1077.274546 630.814934 1067.442002 640.857726 1059.65501 652.418646 
C 1051.868018 663.979566 1046.256615 676.865556 1043.0973 690.441669 
" style="fill:#008000;opacity:0.4;"/>
   </g>
   <g id="patch_20">
    <path clip-path="url(#p9b74c95938)" d="M 1002.539538 742.086555 
C 1008.291692 746.666483 1015.418848 749.184122 1022.771439 749.233391 
C 1030.124029 749.28266 1037.284285 746.860761 1043.0973 742.358331 
C 1041.116759 733.847615 1040.116721 725.138125 1040.116721 716.4 
C 1040.116721 707.661875 1041.116759 698.952385 1043.0973 690.441669 
C 1037.284285 685.939239 1030.124029 683.51734 1022.771439 683.566609 
C 1015.418848 683.615878 1008.291692 686.133517 1002.539538 690.713445 
C 1004.880947 699.074743 1006.068163 707.717057 1006.068163 716.4 
C 1006.068163 725.082943 1004.880947 733.725257 1002.539538 742.086555 
" style="fill:#0000ff;opacity:0.4;"/>
   </g>
   <g id="patch_21">
    <path clip-path="url(#p9b74c95938)" d="M 1002.539538 742.086555 
C 1004.880947 733.725257 1006.068163 725.082943 1006.068163 716.4 
C 1006.068163 707.717057 1004.880947 699.074743 1002.539538 690.713445 
C 998.677439 693.78849 995.558131 697.695336 993.414429 702.142385 
C 991.270727 706.589435 990.157326 711.463229 990.157326 716.4 
C 990.157326 721.336771 991.270727 726.210565 993.414429 730.657615 
C 995.558131 735.104664 998.677439 739.01151 1002.539538 742.086555 
" style="fill:#b200b2;opacity:0.4;"/>
   </g>
   <g id="patch_22">
    <path clip-path="url(#p9b74c95938)" d="M 1043.0973 690.441669 
C 1041.116759 698.952385 1040.116721 707.661875 1040.116721 716.4 
C 1040.116721 725.138125 1041.116759 733.847615 1043.0973 742.358331 
C 1047.058979 739.28984 1050.266127 735.354755 1052.472277 730.855485 
C 1054.678428 726.356214 1055.825582 721.411042 1055.825582 716.4 
C 1055.825582 711.388958 1054.678428 706.443786 1052.472277 701.944515 
C 1050.266127 697.445245 1047.058979 693.51016 1043.0973 690.441669 
" style="fill:#0059b2;opacity:0.4;"/>
   </g>
   <g id="text_30">
    <!-- 99 -->
    <g transform="translate(896.49354 719.159375)scale(0.1 -0.1)">
     <use xlink:href="#DejaVuSans-57"/>
     <use x="63.623047" xlink:href="#DejaVuSans-57"/>
    </g>
   </g>
   <g id="text_31">
    <!-- 144 -->
    <g transform="translate(1152.955301 719.159375)scale(0.1 -0.1)">
     <use xlink:href="#DejaVuSans-49"/>
     <use x="63.623047" xlink:href="#DejaVuSans-52"/>
     <use x="127.246094" xlink:href="#DejaVuSans-52"/>
    </g>
   </g>
   <g id="text_32">
    <!-- 8 -->
    <g transform="translate(1019.265752 719.159375)scale(0.1 -0.1)">
     <use xlink:href="#DejaVuSans-56"/>
    </g>
   </g>
   <g id="text_33">
    <!-- 2 -->
    <g transform="translate(994.931494 719.159375)scale(0.1 -0.1)">
     <use xlink:href="#DejaVuSans-50"/>
    </g>
   </g>
   <g id="text_34">
    <!-- 2 -->
    <g transform="translate(1044.789902 719.159375)scale(0.1 -0.1)">
     <use xlink:href="#DejaVuSans-50"/>
    </g>
   </g>
   <g id="text_35">
    <!-- TOP -->
    <g transform="translate(898.805833 828.862121)scale(0.12 -0.12)">
     <use xlink:href="#DejaVuSans-84"/>
     <use x="61.083984" xlink:href="#DejaVuSans-79"/>
     <use x="139.794922" xlink:href="#DejaVuSans-80"/>
    </g>
   </g>
   <g id="text_36">
    <!-- BTM -->
    <g transform="translate(1141.686495 848.133315)scale(0.12 -0.12)">
     <use xlink:href="#DejaVuSans-66"/>
     <use x="68.603516" xlink:href="#DejaVuSans-84"/>
     <use x="129.6875" xlink:href="#DejaVuSans-77"/>
    </g>
   </g>
   <g id="text_37">
    <!-- PAREDES -->
    <g transform="translate(995.094267 766.439544)scale(0.12 -0.12)">
     <use xlink:href="#DejaVuSans-80"/>
     <use x="60.208984" xlink:href="#DejaVuSans-65"/>
     <use x="128.617188" xlink:href="#DejaVuSans-82"/>
     <use x="198.099609" xlink:href="#DejaVuSans-69"/>
     <use x="261.283203" xlink:href="#DejaVuSans-68"/>
     <use x="338.285156" xlink:href="#DejaVuSans-69"/>
     <use x="401.46875" xlink:href="#DejaVuSans-83"/>
    </g>
   </g>
   <g id="text_38">
    <!-- PAREDES vs MIX P180 -->
    <g transform="translate(975.941761 569.04462)scale(0.12 -0.12)">
     <use xlink:href="#DejaVuSans-80"/>
     <use x="60.208984" xlink:href="#DejaVuSans-65"/>
     <use x="128.617188" xlink:href="#DejaVuSans-82"/>
     <use x="198.099609" xlink:href="#DejaVuSans-69"/>
     <use x="261.283203" xlink:href="#DejaVuSans-68"/>
     <use x="338.285156" xlink:href="#DejaVuSans-69"/>
     <use x="401.46875" xlink:href="#DejaVuSans-83"/>
     <use x="464.945312" xlink:href="#DejaVuSans-32"/>
     <use x="496.732422" xlink:href="#DejaVuSans-118"/>
     <use x="555.912109" xlink:href="#DejaVuSans-115"/>
     <use x="608.011719" xlink:href="#DejaVuSans-32"/>
     <use x="639.798828" xlink:href="#DejaVuSans-77"/>
     <use x="726.078125" xlink:href="#DejaVuSans-73"/>
     <use x="755.570312" xlink:href="#DejaVuSans-88"/>
     <use x="824.076172" xlink:href="#DejaVuSans-32"/>
     <use x="855.863281" xlink:href="#DejaVuSans-80"/>
     <use x="916.166016" xlink:href="#DejaVuSans-49"/>
     <use x="979.789062" xlink:href="#DejaVuSans-56"/>
     <use x="1043.412109" xlink:href="#DejaVuSans-48"/>
    </g>
   </g>
  </g>
  <g id="axes_5">
   <g id="patch_23">
    <path clip-path="url(#pd04d2571db)" d="M 429.183871 1125.967545 
C 435.025092 1148.996437 448.502969 1169.379196 467.405896 1183.771177 
C 486.308822 1198.163159 509.543033 1205.731612 533.295985 1205.234616 
C 557.048937 1204.737621 579.946234 1196.203933 598.230618 1181.033862 
C 616.515001 1165.86379 629.128498 1144.935108 634.001336 1121.68204 
C 628.957262 1120.75807 624.393823 1118.092988 621.110663 1114.153793 
C 617.827503 1110.214598 616.028286 1105.245648 616.028286 1100.117647 
C 616.028286 1094.989646 617.827503 1090.020696 621.110663 1086.081501 
C 624.393823 1082.142306 628.957262 1079.477224 634.001336 1078.553254 
C 629.128498 1055.300186 616.515001 1034.371504 598.230618 1019.201432 
C 579.946234 1004.031361 557.048937 995.497674 533.295985 995.000678 
C 509.543033 994.503682 486.308822 1002.072136 467.405896 1016.464117 
C 448.502969 1030.856098 435.025092 1051.238857 429.183871 1074.267749 
C 431.185686 1082.738632 432.196765 1091.413446 432.196765 1100.117647 
C 432.196765 1108.821848 431.185686 1117.496662 429.183871 1125.967545 
" style="fill:#ff0000;opacity:0.4;"/>
   </g>
   <g id="patch_24">
    <path clip-path="url(#pd04d2571db)" d="M 429.183871 1125.967545 
C 427.040678 1117.518047 425.95659 1108.834716 425.95659 1100.117647 
C 425.95659 1091.400578 427.040678 1082.717247 429.183871 1074.267749 
C 426.041464 1060.970334 420.50051 1048.356687 412.8334 1037.046894 
C 405.166291 1025.737101 395.500759 1015.919579 384.311959 1008.076956 
C 373.123159 1000.234333 360.597493 994.497264 347.350722 991.147783 
C 334.10395 987.798301 320.356759 986.892209 306.784959 988.474049 
C 293.213159 990.055889 280.042851 994.099308 267.921485 1000.405532 
C 255.800119 1006.711757 244.929633 1015.175727 235.844419 1025.381356 
C 226.759204 1035.586985 219.610618 1047.36425 214.750083 1060.134183 
C 209.889549 1072.904116 207.39804 1086.453973 207.39804 1100.117647 
C 207.39804 1113.781321 209.889549 1127.331179 214.750083 1140.101111 
C 219.610618 1152.871044 226.759204 1164.648309 235.844419 1174.853938 
C 244.929633 1185.059567 255.800119 1193.523537 267.921485 1199.829762 
C 280.042851 1206.135986 293.213159 1210.179406 306.784959 1211.761245 
C 320.356759 1213.343085 334.10395 1212.436993 347.350722 1209.087511 
C 360.597493 1205.73803 373.123159 1200.000961 384.311959 1192.158338 
C 395.500759 1184.315715 405.166291 1174.498193 412.8334 1163.1884 
C 420.50051 1151.878607 426.041464 1139.26496 429.183871 1125.967545 
" style="fill:#008000;opacity:0.4;"/>
   </g>
   <g id="patch_25">
    <path clip-path="url(#pd04d2571db)" d="M 429.183871 1074.267749 
C 427.040678 1082.717247 425.95659 1091.400578 425.95659 1100.117647 
C 425.95659 1108.834716 427.040678 1117.518047 429.183871 1125.967545 
C 431.185686 1117.496662 432.196765 1108.821848 432.196765 1100.117647 
C 432.196765 1091.413446 431.185686 1082.738632 429.183871 1074.267749 
" style="fill:#b25900;opacity:0.4;"/>
   </g>
   <g id="patch_26">
    <path clip-path="url(#pd04d2571db)" d="M 634.001336 1078.553254 
C 635.48749 1085.645146 636.236543 1092.871711 636.236543 1100.117647 
C 636.236543 1107.363583 635.48749 1114.590148 634.001336 1121.68204 
C 637.162207 1122.261046 640.412066 1122.138061 643.520136 1121.321818 
C 646.628206 1120.505575 649.519134 1119.015864 651.987633 1116.95847 
C 654.456131 1114.901077 656.442352 1112.325881 657.805252 1109.415751 
C 659.168151 1106.505621 659.874687 1103.331111 659.874687 1100.117647 
C 659.874687 1096.904183 659.168151 1093.729673 657.805252 1090.819543 
C 656.442352 1087.909413 654.456131 1085.334217 651.987633 1083.276824 
C 649.519134 1081.21943 646.628206 1079.729719 643.520136 1078.913476 
C 640.412066 1078.097233 637.162207 1077.974248 634.001336 1078.553254 
" style="fill:#0000ff;opacity:0.4;"/>
   </g>
   <g id="patch_27">
    <path clip-path="url(#pd04d2571db)" d="M 634.001336 1121.68204 
C 635.48749 1114.590148 636.236543 1107.363583 636.236543 1100.117647 
C 636.236543 1092.871711 635.48749 1085.645146 634.001336 1078.553254 
C 628.957262 1079.477224 624.393823 1082.142306 621.110663 1086.081501 
C 617.827503 1090.020696 616.028286 1094.989646 616.028286 1100.117647 
C 616.028286 1105.245648 617.827503 1110.214598 621.110663 1114.153793 
C 624.393823 1118.092988 628.957262 1120.75807 634.001336 1121.68204 
" style="fill:#b200b2;opacity:0.4;"/>
   </g>
   <g id="text_39">
    <!-- 157 -->
    <g transform="translate(544.991661 1102.877022)scale(0.1 -0.1)">
     <use xlink:href="#DejaVuSans-49"/>
     <use x="63.623047" xlink:href="#DejaVuSans-53"/>
     <use x="127.246094" xlink:href="#DejaVuSans-55"/>
    </g>
   </g>
   <g id="text_40">
    <!-- 183 -->
    <g transform="translate(307.133565 1102.877022)scale(0.1 -0.1)">
     <use xlink:href="#DejaVuSans-49"/>
     <use x="63.623047" xlink:href="#DejaVuSans-56"/>
     <use x="127.246094" xlink:href="#DejaVuSans-51"/>
    </g>
   </g>
   <g id="text_41">
    <!-- 1 -->
    <g transform="translate(425.895428 1102.877022)scale(0.1 -0.1)">
     <use xlink:href="#DejaVuSans-49"/>
    </g>
   </g>
   <g id="text_42">
    <!-- 4 -->
    <g transform="translate(644.874365 1102.877022)scale(0.1 -0.1)">
     <use xlink:href="#DejaVuSans-52"/>
    </g>
   </g>
   <g id="text_43">
    <!-- 3 -->
    <g transform="translate(622.951164 1102.877022)scale(0.1 -0.1)">
     <use xlink:href="#DejaVuSans-51"/>
    </g>
   </g>
   <g id="text_44">
    <!-- TOP -->
    <g transform="translate(519.090941 1222.357833)scale(0.12 -0.12)">
     <use xlink:href="#DejaVuSans-84"/>
     <use x="61.083984" xlink:href="#DejaVuSans-79"/>
     <use x="139.794922" xlink:href="#DejaVuSans-80"/>
    </g>
   </g>
   <g id="text_45">
    <!-- BTM -->
    <g transform="translate(306.839278 1229.617219)scale(0.12 -0.12)">
     <use xlink:href="#DejaVuSans-66"/>
     <use x="68.603516" xlink:href="#DejaVuSans-84"/>
     <use x="129.6875" xlink:href="#DejaVuSans-77"/>
    </g>
   </g>
   <g id="text_46">
    <!-- BURGOS -->
    <g transform="translate(612.093362 1139.141057)scale(0.12 -0.12)">
     <use xlink:href="#DejaVuSans-66"/>
     <use x="68.603516" xlink:href="#DejaVuSans-85"/>
     <use x="141.796875" xlink:href="#DejaVuSans-82"/>
     <use x="211.279297" xlink:href="#DejaVuSans-71"/>
     <use x="288.769531" xlink:href="#DejaVuSans-79"/>
     <use x="367.480469" xlink:href="#DejaVuSans-83"/>
    </g>
   </g>
   <g id="text_47">
    <!-- BURGOS vs MIX P190 -->
    <g transform="translate(369.253551 954.320244)scale(0.12 -0.12)">
     <use xlink:href="#DejaVuSans-66"/>
     <use x="68.603516" xlink:href="#DejaVuSans-85"/>
     <use x="141.796875" xlink:href="#DejaVuSans-82"/>
     <use x="211.279297" xlink:href="#DejaVuSans-71"/>
     <use x="288.769531" xlink:href="#DejaVuSans-79"/>
     <use x="367.480469" xlink:href="#DejaVuSans-83"/>
     <use x="430.957031" xlink:href="#DejaVuSans-32"/>
     <use x="462.744141" xlink:href="#DejaVuSans-118"/>
     <use x="521.923828" xlink:href="#DejaVuSans-115"/>
     <use x="574.023438" xlink:href="#DejaVuSans-32"/>
     <use x="605.810547" xlink:href="#DejaVuSans-77"/>
     <use x="692.089844" xlink:href="#DejaVuSans-73"/>
     <use x="721.582031" xlink:href="#DejaVuSans-88"/>
     <use x="790.087891" xlink:href="#DejaVuSans-32"/>
     <use x="821.875" xlink:href="#DejaVuSans-80"/>
     <use x="882.177734" xlink:href="#DejaVuSans-49"/>
     <use x="945.800781" xlink:href="#DejaVuSans-57"/>
     <use x="1009.423828" xlink:href="#DejaVuSans-48"/>
    </g>
   </g>
  </g>
  <g id="axes_6">
   <g id="patch_28">
    <path clip-path="url(#p2d8dbd840a)" d="M 1034.640771 1073.017515 
C 1031.62292 1061.119702 1026.638761 1049.809125 1019.894378 1039.553459 
C 1013.149996 1029.297793 1004.739646 1020.240364 995.011084 1012.755683 
C 985.282521 1005.271002 974.371706 999.463669 962.729783 995.573809 
C 951.08786 991.683949 938.87753 989.765924 926.603669 989.899041 
C 914.329808 990.032158 902.163949 992.214557 890.60913 996.355999 
C 879.054311 1000.497441 868.272015 1006.540047 858.708073 1014.233966 
C 849.144131 1021.927886 840.932203 1031.165593 834.411837 1041.565122 
C 827.891472 1051.964652 823.153795 1063.380668 820.394702 1075.341135 
C 817.635608 1087.301603 816.893657 1099.63937 818.199527 1111.844291 
C 819.505398 1124.049211 822.840839 1135.950716 828.067936 1147.056698 
C 833.295034 1158.16268 840.340736 1168.317929 848.913716 1177.10254 
C 857.486696 1185.887152 867.467142 1193.178358 878.442379 1198.67468 
C 889.417616 1204.171002 901.234261 1207.795626 913.403714 1209.39868 
C 925.573168 1211.001734 937.925357 1210.560815 949.949539 1208.094153 
C 961.973722 1205.627492 973.501855 1201.169561 984.057268 1194.904688 
C 994.612682 1188.639815 1004.04786 1180.655556 1011.972673 1171.282044 
C 1010.046148 1167.095055 1009.107042 1162.520898 1009.228028 1157.91354 
C 1009.349014 1153.306183 1010.526887 1148.787616 1012.670501 1144.707505 
C 1014.814114 1140.627394 1017.866709 1137.093771 1021.592064 1134.380081 
C 1025.317418 1131.66639 1029.616894 1129.844486 1034.157781 1129.055352 
C 1034.240917 1128.749791 1034.322736 1128.443873 1034.403235 1128.137606 
C 1034.483735 1127.83134 1034.562914 1127.524728 1034.640771 1127.217779 
C 1032.542138 1118.337201 1031.482158 1109.242828 1031.482158 1100.117647 
C 1031.482158 1090.992466 1032.542138 1081.898093 1034.640771 1073.017515 
" style="fill:#ff0000;opacity:0.4;"/>
   </g>
   <g id="patch_29">
    <path clip-path="url(#p2d8dbd840a)" d="M 1034.640771 1127.217779 
C 1034.707674 1127.500886 1034.775625 1127.783743 1034.844622 1128.066347 
C 1034.91362 1128.34895 1034.983664 1128.631297 1035.054753 1128.913381 
C 1041.175522 1128.039054 1047.419537 1129.072002 1052.932639 1131.870923 
C 1058.445742 1134.669844 1062.964531 1139.101013 1065.870852 1144.55826 
C 1068.777173 1150.015508 1069.932171 1156.238103 1069.177845 1162.374817 
C 1068.423519 1168.51153 1065.795909 1174.269166 1061.654464 1178.860101 
C 1070.400623 1188.597122 1080.708261 1196.80926 1092.153336 1203.158681 
C 1103.598411 1209.508101 1116.021797 1213.906523 1128.912411 1216.173003 
C 1141.803026 1218.439483 1154.981645 1218.542509 1167.906119 1216.477841 
C 1180.830593 1214.413173 1193.321226 1210.209519 1204.864171 1204.039811 
C 1216.407116 1197.870102 1226.841885 1189.82012 1235.739207 1180.221029 
C 1244.636528 1170.621938 1251.872698 1159.607199 1257.150031 1147.629944 
C 1262.427364 1135.652689 1265.672485 1122.879443 1266.751896 1109.83568 
C 1267.831307 1096.791917 1266.73 1083.658991 1263.49328 1070.977173 
C 1260.256561 1058.295354 1254.929431 1046.240964 1247.731042 1035.309904 
C 1240.532652 1024.378844 1231.563086 1014.723094 1221.191339 1006.739879 
C 1210.819591 998.756663 1199.189866 992.556976 1186.780595 988.395864 
C 1174.371323 984.234752 1161.355036 982.17007 1148.267208 982.286754 
C 1135.179379 982.403439 1122.201974 984.69987 1109.868866 989.081573 
C 1097.535758 993.463276 1086.01842 999.869332 1075.790659 1008.036203 
C 1065.562898 1016.203075 1056.766917 1026.017214 1049.764569 1037.074881 
C 1042.762221 1048.132548 1037.650863 1060.280003 1034.640771 1073.017515 
C 1036.88762 1081.875674 1038.02414 1090.978976 1038.02414 1100.117647 
C 1038.02414 1109.256318 1036.88762 1118.35962 1034.640771 1127.217779 
" style="fill:#008000;opacity:0.4;"/>
   </g>
   <g id="patch_30">
    <path clip-path="url(#p2d8dbd840a)" d="M 1034.640771 1127.217779 
C 1036.88762 1118.35962 1038.02414 1109.256318 1038.02414 1100.117647 
C 1038.02414 1090.978976 1036.88762 1081.875674 1034.640771 1073.017515 
C 1032.542138 1081.898093 1031.482158 1090.992466 1031.482158 1100.117647 
C 1031.482158 1109.242828 1032.542138 1118.337201 1034.640771 1127.217779 
" style="fill:#b25900;opacity:0.4;"/>
   </g>
   <g id="patch_31">
    <path clip-path="url(#p2d8dbd840a)" d="M 1011.972673 1171.282044 
C 1014.054825 1175.807263 1017.228361 1179.745471 1021.207505 1182.742032 
C 1025.186648 1185.738593 1029.848261 1187.700778 1034.772567 1188.451892 
C 1039.696873 1189.203005 1044.731486 1188.719804 1049.423039 1187.0458 
C 1054.114592 1185.371797 1058.317903 1182.558793 1061.654464 1178.860101 
C 1055.282077 1171.765779 1049.794369 1163.92407 1045.311862 1155.507191 
C 1040.829355 1147.090313 1037.385104 1138.160336 1035.054753 1128.913381 
C 1034.904911 1128.934786 1034.755233 1128.95732 1034.605732 1128.980983 
C 1034.45623 1129.004646 1034.306909 1129.029436 1034.157781 1129.055352 
C 1032.051931 1136.795271 1029.107488 1144.282246 1025.376803 1151.383157 
C 1021.646119 1158.484067 1017.151436 1165.156577 1011.972673 1171.282044 
" style="fill:#0000ff;opacity:0.4;"/>
   </g>
   <g id="patch_32">
    <path clip-path="url(#p2d8dbd840a)" d="M 1011.972673 1171.282044 
C 1017.151436 1165.156577 1021.646119 1158.484067 1025.376803 1151.383157 
C 1029.107488 1144.282246 1032.051931 1136.795271 1034.157781 1129.055352 
C 1029.616894 1129.844486 1025.317418 1131.66639 1021.592064 1134.380081 
C 1017.866709 1137.093771 1014.814114 1140.627394 1012.670501 1144.707505 
C 1010.526887 1148.787616 1009.349014 1153.306183 1009.228028 1157.91354 
C 1009.107042 1162.520898 1010.046148 1167.095055 1011.972673 1171.282044 
" style="fill:#b200b2;opacity:0.4;"/>
   </g>
   <g id="patch_33">
    <path clip-path="url(#p2d8dbd840a)" d="M 1035.054753 1128.913381 
C 1037.385104 1138.160336 1040.829355 1147.090313 1045.311862 1155.507191 
C 1049.794369 1163.92407 1055.282077 1171.765779 1061.654464 1178.860101 
C 1065.795909 1174.269166 1068.423519 1168.51153 1069.177845 1162.374817 
C 1069.932171 1156.238103 1068.777173 1150.015508 1065.870852 1144.55826 
C 1062.964531 1139.101013 1058.445742 1134.669844 1052.932639 1131.870923 
C 1047.419537 1129.072002 1041.175522 1128.039054 1035.054753 1128.913381 
" style="fill:#0059b2;opacity:0.4;"/>
   </g>
   <g id="text_48">
    <!-- 159 -->
    <g transform="translate(870.178847 1096.329581)scale(0.1 -0.1)">
     <use xlink:href="#DejaVuSans-49"/>
     <use x="63.623047" xlink:href="#DejaVuSans-53"/>
     <use x="127.246094" xlink:href="#DejaVuSans-57"/>
    </g>
   </g>
   <g id="text_49">
    <!-- 180 -->
    <g transform="translate(1181.595281 1097.336532)scale(0.1 -0.1)">
     <use xlink:href="#DejaVuSans-49"/>
     <use x="63.623047" xlink:href="#DejaVuSans-56"/>
     <use x="127.246094" xlink:href="#DejaVuSans-48"/>
    </g>
   </g>
   <g id="text_50">
    <!-- 0 -->
    <g transform="translate(1031.571899 1102.877022)scale(0.1 -0.1)">
     <use xlink:href="#DejaVuSans-48"/>
    </g>
   </g>
   <g id="text_51">
    <!-- 7 -->
    <g transform="translate(1031.935531 1179.618231)scale(0.1 -0.1)">
     <use xlink:href="#DejaVuSans-55"/>
    </g>
   </g>
   <g id="text_52">
    <!-- 1 -->
    <g transform="translate(1015.842402 1150.804706)scale(0.1 -0.1)">
     <use xlink:href="#DejaVuSans-49"/>
    </g>
   </g>
   <g id="text_53">
    <!-- 3 -->
    <g transform="translate(1052.410107 1152.792101)scale(0.1 -0.1)">
     <use xlink:href="#DejaVuSans-51"/>
    </g>
   </g>
   <g id="text_54">
    <!-- 1 -->
    <g transform="translate(1031.436518 1131.154879)scale(0.1 -0.1)">
     <use xlink:href="#DejaVuSans-49"/>
    </g>
   </g>
   <g id="text_55">
    <!-- TOP -->
    <g transform="translate(848.675258 989.892559)scale(0.12 -0.12)">
     <use xlink:href="#DejaVuSans-84"/>
     <use x="61.083984" xlink:href="#DejaVuSans-79"/>
     <use x="139.794922" xlink:href="#DejaVuSans-80"/>
    </g>
   </g>
   <g id="text_56">
    <!-- BTM -->
    <g transform="translate(1208.235521 982.282072)scale(0.12 -0.12)">
     <use xlink:href="#DejaVuSans-66"/>
     <use x="68.603516" xlink:href="#DejaVuSans-84"/>
     <use x="129.6875" xlink:href="#DejaVuSans-77"/>
    </g>
   </g>
   <g id="text_57">
    <!-- PAREDES -->
    <g transform="translate(1011.412962 1200.923339)scale(0.12 -0.12)">
     <use xlink:href="#DejaVuSans-80"/>
     <use x="60.208984" xlink:href="#DejaVuSans-65"/>
     <use x="128.617188" xlink:href="#DejaVuSans-82"/>
     <use x="198.099609" xlink:href="#DejaVuSans-69"/>
     <use x="261.283203" xlink:href="#DejaVuSans-68"/>
     <use x="338.285156" xlink:href="#DejaVuSans-69"/>
     <use x="401.46875" xlink:href="#DejaVuSans-83"/>
    </g>
   </g>
   <g id="text_58">
    <!-- PAREDES vs MIX P190 -->
    <g transform="translate(975.941761 947.43538)scale(0.12 -0.12)">
     <use xlink:href="#DejaVuSans-80"/>
     <use x="60.208984" xlink:href="#DejaVuSans-65"/>
     <use x="128.617188" xlink:href="#DejaVuSans-82"/>
     <use x="198.099609" xlink:href="#DejaVuSans-69"/>
     <use x="261.283203" xlink:href="#DejaVuSans-68"/>
     <use x="338.285156" xlink:href="#DejaVuSans-69"/>
     <use x="401.46875" xlink:href="#DejaVuSans-83"/>
     <use x="464.945312" xlink:href="#DejaVuSans-32"/>
     <use x="496.732422" xlink:href="#DejaVuSans-118"/>
     <use x="555.912109" xlink:href="#DejaVuSans-115"/>
     <use x="608.011719" xlink:href="#DejaVuSans-32"/>
     <use x="639.798828" xlink:href="#DejaVuSans-77"/>
     <use x="726.078125" xlink:href="#DejaVuSans-73"/>
     <use x="755.570312" xlink:href="#DejaVuSans-88"/>
     <use x="824.076172" xlink:href="#DejaVuSans-32"/>
     <use x="855.863281" xlink:href="#DejaVuSans-80"/>
     <use x="916.166016" xlink:href="#DejaVuSans-49"/>
     <use x="979.789062" xlink:href="#DejaVuSans-57"/>
     <use x="1043.412109" xlink:href="#DejaVuSans-48"/>
    </g>
   </g>
  </g>
  <g id="text_59">
   <!-- P1_80_20, Raw vs Filtrados Laura -->
   <defs>
    <path d="M 50.984375 -16.609375 
L 50.984375 -23.578125 
L -0.984375 -23.578125 
L -0.984375 -16.609375 
z
" id="DejaVuSans-95"/>
    <path d="M 11.71875 12.40625 
L 22.015625 12.40625 
L 22.015625 4 
L 14.015625 -11.625 
L 7.71875 -11.625 
L 11.71875 4 
z
" id="DejaVuSans-44"/>
    <path d="M 34.28125 27.484375 
Q 23.390625 27.484375 19.1875 25 
Q 14.984375 22.515625 14.984375 16.5 
Q 14.984375 11.71875 18.140625 8.90625 
Q 21.296875 6.109375 26.703125 6.109375 
Q 34.1875 6.109375 38.703125 11.40625 
Q 43.21875 16.703125 43.21875 25.484375 
L 43.21875 27.484375 
z
M 52.203125 31.203125 
L 52.203125 0 
L 43.21875 0 
L 43.21875 8.296875 
Q 40.140625 3.328125 35.546875 0.953125 
Q 30.953125 -1.421875 24.3125 -1.421875 
Q 15.921875 -1.421875 10.953125 3.296875 
Q 6 8.015625 6 15.921875 
Q 6 25.140625 12.171875 29.828125 
Q 18.359375 34.515625 30.609375 34.515625 
L 43.21875 34.515625 
L 43.21875 35.40625 
Q 43.21875 41.609375 39.140625 45 
Q 35.0625 48.390625 27.6875 48.390625 
Q 23 48.390625 18.546875 47.265625 
Q 14.109375 46.140625 10.015625 43.890625 
L 10.015625 52.203125 
Q 14.9375 54.109375 19.578125 55.046875 
Q 24.21875 56 28.609375 56 
Q 40.484375 56 46.34375 49.84375 
Q 52.203125 43.703125 52.203125 31.203125 
z
" id="DejaVuSans-97"/>
    <path d="M 4.203125 54.6875 
L 13.1875 54.6875 
L 24.421875 12.015625 
L 35.59375 54.6875 
L 46.1875 54.6875 
L 57.421875 12.015625 
L 68.609375 54.6875 
L 77.59375 54.6875 
L 63.28125 0 
L 52.6875 0 
L 40.921875 44.828125 
L 29.109375 0 
L 18.5 0 
z
" id="DejaVuSans-119"/>
    <path d="M 9.8125 72.90625 
L 51.703125 72.90625 
L 51.703125 64.59375 
L 19.671875 64.59375 
L 19.671875 43.109375 
L 48.578125 43.109375 
L 48.578125 34.8125 
L 19.671875 34.8125 
L 19.671875 0 
L 9.8125 0 
z
" id="DejaVuSans-70"/>
    <path d="M 9.421875 54.6875 
L 18.40625 54.6875 
L 18.40625 0 
L 9.421875 0 
z
M 9.421875 75.984375 
L 18.40625 75.984375 
L 18.40625 64.59375 
L 9.421875 64.59375 
z
" id="DejaVuSans-105"/>
    <path d="M 9.421875 75.984375 
L 18.40625 75.984375 
L 18.40625 0 
L 9.421875 0 
z
" id="DejaVuSans-108"/>
    <path d="M 18.3125 70.21875 
L 18.3125 54.6875 
L 36.8125 54.6875 
L 36.8125 47.703125 
L 18.3125 47.703125 
L 18.3125 18.015625 
Q 18.3125 11.328125 20.140625 9.421875 
Q 21.96875 7.515625 27.59375 7.515625 
L 36.8125 7.515625 
L 36.8125 0 
L 27.59375 0 
Q 17.1875 0 13.234375 3.875 
Q 9.28125 7.765625 9.28125 18.015625 
L 9.28125 47.703125 
L 2.6875 47.703125 
L 2.6875 54.6875 
L 9.28125 54.6875 
L 9.28125 70.21875 
z
" id="DejaVuSans-116"/>
    <path d="M 41.109375 46.296875 
Q 39.59375 47.171875 37.8125 47.578125 
Q 36.03125 48 33.890625 48 
Q 26.265625 48 22.1875 43.046875 
Q 18.109375 38.09375 18.109375 28.8125 
L 18.109375 0 
L 9.078125 0 
L 9.078125 54.6875 
L 18.109375 54.6875 
L 18.109375 46.1875 
Q 20.953125 51.171875 25.484375 53.578125 
Q 30.03125 56 36.53125 56 
Q 37.453125 56 38.578125 55.875 
Q 39.703125 55.765625 41.0625 55.515625 
z
" id="DejaVuSans-114"/>
    <path d="M 45.40625 46.390625 
L 45.40625 75.984375 
L 54.390625 75.984375 
L 54.390625 0 
L 45.40625 0 
L 45.40625 8.203125 
Q 42.578125 3.328125 38.25 0.953125 
Q 33.9375 -1.421875 27.875 -1.421875 
Q 17.96875 -1.421875 11.734375 6.484375 
Q 5.515625 14.40625 5.515625 27.296875 
Q 5.515625 40.1875 11.734375 48.09375 
Q 17.96875 56 27.875 56 
Q 33.9375 56 38.25 53.625 
Q 42.578125 51.265625 45.40625 46.390625 
z
M 14.796875 27.296875 
Q 14.796875 17.390625 18.875 11.75 
Q 22.953125 6.109375 30.078125 6.109375 
Q 37.203125 6.109375 41.296875 11.75 
Q 45.40625 17.390625 45.40625 27.296875 
Q 45.40625 37.203125 41.296875 42.84375 
Q 37.203125 48.484375 30.078125 48.484375 
Q 22.953125 48.484375 18.875 42.84375 
Q 14.796875 37.203125 14.796875 27.296875 
z
" id="DejaVuSans-100"/>
    <path d="M 30.609375 48.390625 
Q 23.390625 48.390625 19.1875 42.75 
Q 14.984375 37.109375 14.984375 27.296875 
Q 14.984375 17.484375 19.15625 11.84375 
Q 23.34375 6.203125 30.609375 6.203125 
Q 37.796875 6.203125 41.984375 11.859375 
Q 46.1875 17.53125 46.1875 27.296875 
Q 46.1875 37.015625 41.984375 42.703125 
Q 37.796875 48.390625 30.609375 48.390625 
z
M 30.609375 56 
Q 42.328125 56 49.015625 48.375 
Q 55.71875 40.765625 55.71875 27.296875 
Q 55.71875 13.875 49.015625 6.21875 
Q 42.328125 -1.421875 30.609375 -1.421875 
Q 18.84375 -1.421875 12.171875 6.21875 
Q 5.515625 13.875 5.515625 27.296875 
Q 5.515625 40.765625 12.171875 48.375 
Q 18.84375 56 30.609375 56 
z
" id="DejaVuSans-111"/>
    <path d="M 9.8125 72.90625 
L 19.671875 72.90625 
L 19.671875 8.296875 
L 55.171875 8.296875 
L 55.171875 0 
L 9.8125 0 
z
" id="DejaVuSans-76"/>
    <path d="M 8.5 21.578125 
L 8.5 54.6875 
L 17.484375 54.6875 
L 17.484375 21.921875 
Q 17.484375 14.15625 20.5 10.265625 
Q 23.53125 6.390625 29.59375 6.390625 
Q 36.859375 6.390625 41.078125 11.03125 
Q 45.3125 15.671875 45.3125 23.6875 
L 45.3125 54.6875 
L 54.296875 54.6875 
L 54.296875 0 
L 45.3125 0 
L 45.3125 8.40625 
Q 42.046875 3.421875 37.71875 1 
Q 33.40625 -1.421875 27.6875 -1.421875 
Q 18.265625 -1.421875 13.375 4.4375 
Q 8.5 10.296875 8.5 21.578125 
z
M 31.109375 56 
z
" id="DejaVuSans-117"/>
   </defs>
   <g transform="translate(585.9825 25.0275)scale(0.16 -0.16)">
    <use xlink:href="#DejaVuSans-80"/>
    <use x="60.302734" xlink:href="#DejaVuSans-49"/>
    <use x="123.925781" xlink:href="#DejaVuSans-95"/>
    <use x="173.925781" xlink:href="#DejaVuSans-56"/>
    <use x="237.548828" xlink:href="#DejaVuSans-48"/>
    <use x="301.171875" xlink:href="#DejaVuSans-95"/>
    <use x="351.171875" xlink:href="#DejaVuSans-50"/>
    <use x="414.794922" xlink:href="#DejaVuSans-48"/>
    <use x="478.417969" xlink:href="#DejaVuSans-44"/>
    <use x="510.205078" xlink:href="#DejaVuSans-32"/>
    <use x="541.992188" xlink:href="#DejaVuSans-82"/>
    <use x="611.443359" xlink:href="#DejaVuSans-97"/>
    <use x="672.722656" xlink:href="#DejaVuSans-119"/>
    <use x="754.509766" xlink:href="#DejaVuSans-32"/>
    <use x="786.296875" xlink:href="#DejaVuSans-118"/>
    <use x="845.476562" xlink:href="#DejaVuSans-115"/>
    <use x="897.576172" xlink:href="#DejaVuSans-32"/>
    <use x="929.363281" xlink:href="#DejaVuSans-70"/>
    <use x="986.773438" xlink:href="#DejaVuSans-105"/>
    <use x="1014.556641" xlink:href="#DejaVuSans-108"/>
    <use x="1042.339844" xlink:href="#DejaVuSans-116"/>
    <use x="1081.548828" xlink:href="#DejaVuSans-114"/>
    <use x="1122.662109" xlink:href="#DejaVuSans-97"/>
    <use x="1183.941406" xlink:href="#DejaVuSans-100"/>
    <use x="1247.417969" xlink:href="#DejaVuSans-111"/>
    <use x="1308.599609" xlink:href="#DejaVuSans-115"/>
    <use x="1360.699219" xlink:href="#DejaVuSans-32"/>
    <use x="1392.486328" xlink:href="#DejaVuSans-76"/>
    <use x="1448.199219" xlink:href="#DejaVuSans-97"/>
    <use x="1509.478516" xlink:href="#DejaVuSans-117"/>
    <use x="1572.857422" xlink:href="#DejaVuSans-114"/>
    <use x="1613.970703" xlink:href="#DejaVuSans-97"/>
   </g>
  </g>
 </g>
 <defs>
  <clipPath id="p309d4ef72d">
   <rect height="302.743853" width="507.272727" x="180" y="181.310427"/>
  </clipPath>
  <clipPath id="pd61f1ea74c">
   <rect height="302.884999" width="507.272727" x="788.727273" y="181.239853"/>
  </clipPath>
  <clipPath id="pdbdbad62ef">
   <rect height="277.026004" width="507.272727" x="180" y="577.886998"/>
  </clipPath>
  <clipPath id="p9b74c95938">
   <rect height="282.71076" width="507.272727" x="788.727273" y="575.04462"/>
  </clipPath>
  <clipPath id="pd04d2571db">
   <rect height="279.594805" width="507.272727" x="180" y="960.320244"/>
  </clipPath>
  <clipPath id="p2d8dbd840a">
   <rect height="293.364534" width="507.272727" x="788.727273" y="953.43538"/>
  </clipPath>
 </defs>
</svg>
