<?xml version="1.0" encoding="utf-8" standalone="no"?>
<!DOCTYPE svg PUBLIC "-//W3C//DTD SVG 1.1//EN"
  "http://www.w3.org/Graphics/SVG/1.1/DTD/svg11.dtd">
<!-- Created with matplotlib (https://matplotlib.org/) -->
<svg height="720pt" version="1.1" viewBox="0 0 1440 720" width="1440pt" xmlns="http://www.w3.org/2000/svg" xmlns:xlink="http://www.w3.org/1999/xlink">
 <defs>
  <style type="text/css">
*{stroke-linecap:butt;stroke-linejoin:round;}
  </style>
 </defs>
 <g id="figure_1">
  <g id="patch_1">
   <path d="M 0 720 
L 1440 720 
L 1440 0 
L 0 0 
z
" style="fill:#ffffff;"/>
  </g>
  <g id="axes_1">
   <g id="patch_2">
    <path clip-path="url(#pd361837e34)" d="M 344.117647 111.330377 
C 326.531974 103.564354 306.680918 102.569136 288.406689 108.53735 
C 270.13246 114.505564 254.695376 127.0256 245.083313 143.674181 
C 235.47125 160.322762 232.347123 179.951688 236.315612 198.761741 
C 240.284102 217.571794 251.071514 234.265704 266.589924 245.612333 
C 265.118061 232.004388 267.254589 218.245777 272.783891 205.725019 
C 278.313193 193.204262 287.042786 182.35722 298.09168 174.278577 
C 299.563543 160.670632 304.592561 147.687061 312.671204 136.638166 
C 320.749847 125.589272 331.59689 116.859679 344.117647 111.330377 
" style="fill:#ff0000;opacity:0.4;"/>
   </g>
   <g id="patch_3">
    <path clip-path="url(#pd361837e34)" d="M 344.117647 111.330377 
C 356.638404 116.859679 367.485447 125.589272 375.56409 136.638166 
C 383.642733 147.687061 388.671751 160.670632 390.143614 174.278577 
C 401.192508 182.35722 409.922102 193.204262 415.451403 205.725019 
C 420.980705 218.245777 423.117233 232.004388 421.64537 245.612333 
C 437.16378 234.265704 447.951192 217.571794 451.919682 198.761741 
C 455.888171 179.951688 452.764044 160.322762 443.151981 143.674181 
C 433.539919 127.0256 418.102834 114.505564 399.828605 108.53735 
C 381.554376 102.569136 361.70332 103.564354 344.117647 111.330377 
" style="fill:#008000;opacity:0.4;"/>
   </g>
   <g id="patch_4">
    <path clip-path="url(#pd361837e34)" d="M 344.117647 111.330377 
C 331.59689 116.859679 320.749847 125.589272 312.671204 136.638166 
C 304.592561 147.687061 299.563543 160.670632 298.09168 174.278577 
C 311.447957 164.512839 327.57196 159.246872 344.117647 159.246872 
C 360.663334 159.246872 376.787337 164.512839 390.143614 174.278577 
C 388.671751 160.670632 383.642733 147.687061 375.56409 136.638166 
C 367.485447 125.589272 356.638404 116.859679 344.117647 111.330377 
" style="fill:#b25900;opacity:0.4;"/>
   </g>
   <g id="patch_5">
    <path clip-path="url(#pd361837e34)" d="M 266.589924 245.612333 
C 268.657187 264.724984 277.720831 282.414112 292.02657 295.255951 
C 306.33231 308.09779 324.893521 315.20668 344.117647 315.20668 
C 363.341773 315.20668 381.902985 308.09779 396.208724 295.255951 
C 410.514463 282.414112 419.578107 264.724984 421.64537 245.612333 
C 410.596476 253.690976 397.612905 258.719993 384.00496 260.191856 
C 370.397016 261.663719 356.638404 259.527191 344.117647 253.997889 
C 331.59689 259.527191 317.838279 261.663719 304.230334 260.191856 
C 290.622389 258.719993 277.638818 253.690976 266.589924 245.612333 
" style="fill:#0000ff;opacity:0.4;"/>
   </g>
   <g id="patch_6">
    <path clip-path="url(#pd361837e34)" d="M 266.589924 245.612333 
C 277.638818 253.690976 290.622389 258.719993 304.230334 260.191856 
C 317.838279 261.663719 331.59689 259.527191 344.117647 253.997889 
C 328.982132 247.313883 316.359669 235.98307 308.086826 221.654085 
C 299.813982 207.3251 296.312443 190.72832 298.09168 174.278577 
C 287.042786 182.35722 278.313193 193.204262 272.783891 205.725019 
C 267.254589 218.245777 265.118061 232.004388 266.589924 245.612333 
" style="fill:#b200b2;opacity:0.4;"/>
   </g>
   <g id="patch_7">
    <path clip-path="url(#pd361837e34)" d="M 390.143614 174.278577 
C 391.922852 190.72832 388.421312 207.3251 380.148468 221.654085 
C 371.875625 235.98307 359.253162 247.313883 344.117647 253.997889 
C 356.638404 259.527191 370.397016 261.663719 384.00496 260.191856 
C 397.612905 258.719993 410.596476 253.690976 421.64537 245.612333 
C 423.117233 232.004388 420.980705 218.245777 415.451403 205.725019 
C 409.922102 193.204262 401.192508 182.35722 390.143614 174.278577 
" style="fill:#0059b2;opacity:0.4;"/>
   </g>
   <g id="patch_8">
    <path clip-path="url(#pd361837e34)" d="M 298.09168 174.278577 
C 296.312443 190.72832 299.813982 207.3251 308.086826 221.654085 
C 316.359669 235.98307 328.982132 247.313883 344.117647 253.997889 
C 359.253162 247.313883 371.875625 235.98307 380.148468 221.654085 
C 388.421312 207.3251 391.922852 190.72832 390.143614 174.278577 
C 376.787337 164.512839 360.663334 159.246872 344.117647 159.246872 
C 327.57196 159.246872 311.447957 164.512839 298.09168 174.278577 
" style="fill:#663366;opacity:0.4;"/>
   </g>
   <g id="text_1">
    <!-- 95 -->
    <defs>
     <path d="M 10.984375 1.515625 
L 10.984375 10.5 
Q 14.703125 8.734375 18.5 7.8125 
Q 22.3125 6.890625 25.984375 6.890625 
Q 35.75 6.890625 40.890625 13.453125 
Q 46.046875 20.015625 46.78125 33.40625 
Q 43.953125 29.203125 39.59375 26.953125 
Q 35.25 24.703125 29.984375 24.703125 
Q 19.046875 24.703125 12.671875 31.3125 
Q 6.296875 37.9375 6.296875 49.421875 
Q 6.296875 60.640625 12.9375 67.421875 
Q 19.578125 74.21875 30.609375 74.21875 
Q 43.265625 74.21875 49.921875 64.515625 
Q 56.59375 54.828125 56.59375 36.375 
Q 56.59375 19.140625 48.40625 8.859375 
Q 40.234375 -1.421875 26.421875 -1.421875 
Q 22.703125 -1.421875 18.890625 -0.6875 
Q 15.09375 0.046875 10.984375 1.515625 
z
M 30.609375 32.421875 
Q 37.25 32.421875 41.125 36.953125 
Q 45.015625 41.5 45.015625 49.421875 
Q 45.015625 57.28125 41.125 61.84375 
Q 37.25 66.40625 30.609375 66.40625 
Q 23.96875 66.40625 20.09375 61.84375 
Q 16.21875 57.28125 16.21875 49.421875 
Q 16.21875 41.5 20.09375 36.953125 
Q 23.96875 32.421875 30.609375 32.421875 
z
" id="DejaVuSans-57"/>
     <path d="M 10.796875 72.90625 
L 49.515625 72.90625 
L 49.515625 64.59375 
L 19.828125 64.59375 
L 19.828125 46.734375 
Q 21.96875 47.46875 24.109375 47.828125 
Q 26.265625 48.1875 28.421875 48.1875 
Q 40.625 48.1875 47.75 41.5 
Q 54.890625 34.8125 54.890625 23.390625 
Q 54.890625 11.625 47.5625 5.09375 
Q 40.234375 -1.421875 26.90625 -1.421875 
Q 22.3125 -1.421875 17.546875 -0.640625 
Q 12.796875 0.140625 7.71875 1.703125 
L 7.71875 11.625 
Q 12.109375 9.234375 16.796875 8.0625 
Q 21.484375 6.890625 26.703125 6.890625 
Q 35.15625 6.890625 40.078125 11.328125 
Q 45.015625 15.765625 45.015625 23.390625 
Q 45.015625 31 40.078125 35.4375 
Q 35.15625 39.890625 26.703125 39.890625 
Q 22.75 39.890625 18.8125 39.015625 
Q 14.890625 38.140625 10.796875 36.28125 
z
" id="DejaVuSans-53"/>
    </defs>
    <g transform="translate(258.596487 157.908782)scale(0.1 -0.1)">
     <use xlink:href="#DejaVuSans-57"/>
     <use x="63.623047" xlink:href="#DejaVuSans-53"/>
    </g>
   </g>
   <g id="text_2">
    <!-- 247 -->
    <defs>
     <path d="M 19.1875 8.296875 
L 53.609375 8.296875 
L 53.609375 0 
L 7.328125 0 
L 7.328125 8.296875 
Q 12.9375 14.109375 22.625 23.890625 
Q 32.328125 33.6875 34.8125 36.53125 
Q 39.546875 41.84375 41.421875 45.53125 
Q 43.3125 49.21875 43.3125 52.78125 
Q 43.3125 58.59375 39.234375 62.25 
Q 35.15625 65.921875 28.609375 65.921875 
Q 23.96875 65.921875 18.8125 64.3125 
Q 13.671875 62.703125 7.8125 59.421875 
L 7.8125 69.390625 
Q 13.765625 71.78125 18.9375 73 
Q 24.125 74.21875 28.421875 74.21875 
Q 39.75 74.21875 46.484375 68.546875 
Q 53.21875 62.890625 53.21875 53.421875 
Q 53.21875 48.921875 51.53125 44.890625 
Q 49.859375 40.875 45.40625 35.40625 
Q 44.1875 33.984375 37.640625 27.21875 
Q 31.109375 20.453125 19.1875 8.296875 
z
" id="DejaVuSans-50"/>
     <path d="M 37.796875 64.3125 
L 12.890625 25.390625 
L 37.796875 25.390625 
z
M 35.203125 72.90625 
L 47.609375 72.90625 
L 47.609375 25.390625 
L 58.015625 25.390625 
L 58.015625 17.1875 
L 47.609375 17.1875 
L 47.609375 0 
L 37.796875 0 
L 37.796875 17.1875 
L 4.890625 17.1875 
L 4.890625 26.703125 
z
" id="DejaVuSans-52"/>
     <path d="M 8.203125 72.90625 
L 55.078125 72.90625 
L 55.078125 68.703125 
L 28.609375 0 
L 18.3125 0 
L 43.21875 64.59375 
L 8.203125 64.59375 
z
" id="DejaVuSans-55"/>
    </defs>
    <g transform="translate(413.732557 157.908782)scale(0.1 -0.1)">
     <use xlink:href="#DejaVuSans-50"/>
     <use x="63.623047" xlink:href="#DejaVuSans-52"/>
     <use x="127.246094" xlink:href="#DejaVuSans-55"/>
    </g>
   </g>
   <g id="text_3">
    <!-- 0 -->
    <defs>
     <path d="M 31.78125 66.40625 
Q 24.171875 66.40625 20.328125 58.90625 
Q 16.5 51.421875 16.5 36.375 
Q 16.5 21.390625 20.328125 13.890625 
Q 24.171875 6.390625 31.78125 6.390625 
Q 39.453125 6.390625 43.28125 13.890625 
Q 47.125 21.390625 47.125 36.375 
Q 47.125 51.421875 43.28125 58.90625 
Q 39.453125 66.40625 31.78125 66.40625 
z
M 31.78125 74.21875 
Q 44.046875 74.21875 50.515625 64.515625 
Q 56.984375 54.828125 56.984375 36.375 
Q 56.984375 17.96875 50.515625 8.265625 
Q 44.046875 -1.421875 31.78125 -1.421875 
Q 19.53125 -1.421875 13.0625 8.265625 
Q 6.59375 17.96875 6.59375 36.375 
Q 6.59375 54.828125 13.0625 64.515625 
Q 19.53125 74.21875 31.78125 74.21875 
z
" id="DejaVuSans-48"/>
    </defs>
    <g transform="translate(340.936397 147.901258)scale(0.1 -0.1)">
     <use xlink:href="#DejaVuSans-48"/>
    </g>
   </g>
   <g id="text_4">
    <!-- 11 -->
    <defs>
     <path d="M 12.40625 8.296875 
L 28.515625 8.296875 
L 28.515625 63.921875 
L 10.984375 60.40625 
L 10.984375 69.390625 
L 28.421875 72.90625 
L 38.28125 72.90625 
L 38.28125 8.296875 
L 54.390625 8.296875 
L 54.390625 0 
L 12.40625 0 
z
" id="DejaVuSans-49"/>
    </defs>
    <g transform="translate(337.755147 295.015603)scale(0.1 -0.1)">
     <use xlink:href="#DejaVuSans-49"/>
     <use x="63.623047" xlink:href="#DejaVuSans-49"/>
    </g>
   </g>
   <g id="text_5">
    <!-- 276 -->
    <defs>
     <path d="M 33.015625 40.375 
Q 26.375 40.375 22.484375 35.828125 
Q 18.609375 31.296875 18.609375 23.390625 
Q 18.609375 15.53125 22.484375 10.953125 
Q 26.375 6.390625 33.015625 6.390625 
Q 39.65625 6.390625 43.53125 10.953125 
Q 47.40625 15.53125 47.40625 23.390625 
Q 47.40625 31.296875 43.53125 35.828125 
Q 39.65625 40.375 33.015625 40.375 
z
M 52.59375 71.296875 
L 52.59375 62.3125 
Q 48.875 64.0625 45.09375 64.984375 
Q 41.3125 65.921875 37.59375 65.921875 
Q 27.828125 65.921875 22.671875 59.328125 
Q 17.53125 52.734375 16.796875 39.40625 
Q 19.671875 43.65625 24.015625 45.921875 
Q 28.375 48.1875 33.59375 48.1875 
Q 44.578125 48.1875 50.953125 41.515625 
Q 57.328125 34.859375 57.328125 23.390625 
Q 57.328125 12.15625 50.6875 5.359375 
Q 44.046875 -1.421875 33.015625 -1.421875 
Q 20.359375 -1.421875 13.671875 8.265625 
Q 6.984375 17.96875 6.984375 36.375 
Q 6.984375 53.65625 15.1875 63.9375 
Q 23.390625 74.21875 37.203125 74.21875 
Q 40.921875 74.21875 44.703125 73.484375 
Q 48.484375 72.75 52.59375 71.296875 
z
" id="DejaVuSans-54"/>
    </defs>
    <g transform="translate(286.327797 231.465955)scale(0.1 -0.1)">
     <use xlink:href="#DejaVuSans-50"/>
     <use x="63.623047" xlink:href="#DejaVuSans-55"/>
     <use x="127.246094" xlink:href="#DejaVuSans-54"/>
    </g>
   </g>
   <g id="text_6">
    <!-- 100 -->
    <g transform="translate(382.819997 231.465955)scale(0.1 -0.1)">
     <use xlink:href="#DejaVuSans-49"/>
     <use x="63.623047" xlink:href="#DejaVuSans-48"/>
     <use x="127.246094" xlink:href="#DejaVuSans-48"/>
    </g>
   </g>
   <g id="text_7">
    <!-- 0 -->
    <g transform="translate(340.936397 203.611056)scale(0.1 -0.1)">
     <use xlink:href="#DejaVuSans-48"/>
    </g>
   </g>
   <g id="text_8">
    <!-- TOP -->
    <defs>
     <path d="M -0.296875 72.90625 
L 61.375 72.90625 
L 61.375 64.59375 
L 35.5 64.59375 
L 35.5 0 
L 25.59375 0 
L 25.59375 64.59375 
L -0.296875 64.59375 
z
" id="DejaVuSans-84"/>
     <path d="M 39.40625 66.21875 
Q 28.65625 66.21875 22.328125 58.203125 
Q 16.015625 50.203125 16.015625 36.375 
Q 16.015625 22.609375 22.328125 14.59375 
Q 28.65625 6.59375 39.40625 6.59375 
Q 50.140625 6.59375 56.421875 14.59375 
Q 62.703125 22.609375 62.703125 36.375 
Q 62.703125 50.203125 56.421875 58.203125 
Q 50.140625 66.21875 39.40625 66.21875 
z
M 39.40625 74.21875 
Q 54.734375 74.21875 63.90625 63.9375 
Q 73.09375 53.65625 73.09375 36.375 
Q 73.09375 19.140625 63.90625 8.859375 
Q 54.734375 -1.421875 39.40625 -1.421875 
Q 24.03125 -1.421875 14.8125 8.828125 
Q 5.609375 19.09375 5.609375 36.375 
Q 5.609375 53.65625 14.8125 63.9375 
Q 24.03125 74.21875 39.40625 74.21875 
z
" id="DejaVuSans-79"/>
     <path d="M 19.671875 64.796875 
L 19.671875 37.40625 
L 32.078125 37.40625 
Q 38.96875 37.40625 42.71875 40.96875 
Q 46.484375 44.53125 46.484375 51.125 
Q 46.484375 57.671875 42.71875 61.234375 
Q 38.96875 64.796875 32.078125 64.796875 
z
M 9.8125 72.90625 
L 32.078125 72.90625 
Q 44.34375 72.90625 50.609375 67.359375 
Q 56.890625 61.8125 56.890625 51.125 
Q 56.890625 40.328125 50.609375 34.8125 
Q 44.34375 29.296875 32.078125 29.296875 
L 19.671875 29.296875 
L 19.671875 0 
L 9.8125 0 
z
" id="DejaVuSans-80"/>
    </defs>
    <g transform="translate(249.614689 104.684229)scale(0.12 -0.12)">
     <use xlink:href="#DejaVuSans-84"/>
     <use x="61.083984" xlink:href="#DejaVuSans-79"/>
     <use x="139.794922" xlink:href="#DejaVuSans-80"/>
    </g>
   </g>
   <g id="text_9">
    <!-- BTM -->
    <defs>
     <path d="M 19.671875 34.8125 
L 19.671875 8.109375 
L 35.5 8.109375 
Q 43.453125 8.109375 47.28125 11.40625 
Q 51.125 14.703125 51.125 21.484375 
Q 51.125 28.328125 47.28125 31.5625 
Q 43.453125 34.8125 35.5 34.8125 
z
M 19.671875 64.796875 
L 19.671875 42.828125 
L 34.28125 42.828125 
Q 41.5 42.828125 45.03125 45.53125 
Q 48.578125 48.25 48.578125 53.8125 
Q 48.578125 59.328125 45.03125 62.0625 
Q 41.5 64.796875 34.28125 64.796875 
z
M 9.8125 72.90625 
L 35.015625 72.90625 
Q 46.296875 72.90625 52.390625 68.21875 
Q 58.5 63.53125 58.5 54.890625 
Q 58.5 48.1875 55.375 44.234375 
Q 52.25 40.28125 46.1875 39.3125 
Q 53.46875 37.75 57.5 32.78125 
Q 61.53125 27.828125 61.53125 20.40625 
Q 61.53125 10.640625 54.890625 5.3125 
Q 48.25 0 35.984375 0 
L 9.8125 0 
z
" id="DejaVuSans-66"/>
     <path d="M 9.8125 72.90625 
L 24.515625 72.90625 
L 43.109375 23.296875 
L 61.8125 72.90625 
L 76.515625 72.90625 
L 76.515625 0 
L 66.890625 0 
L 66.890625 64.015625 
L 48.09375 14.015625 
L 38.1875 14.015625 
L 19.390625 64.015625 
L 19.390625 0 
L 9.8125 0 
z
" id="DejaVuSans-77"/>
    </defs>
    <g transform="translate(414.609356 104.684229)scale(0.12 -0.12)">
     <use xlink:href="#DejaVuSans-66"/>
     <use x="68.603516" xlink:href="#DejaVuSans-84"/>
     <use x="129.6875" xlink:href="#DejaVuSans-77"/>
    </g>
   </g>
   <g id="text_10">
    <!-- S2 -->
    <defs>
     <path d="M 53.515625 70.515625 
L 53.515625 60.890625 
Q 47.90625 63.578125 42.921875 64.890625 
Q 37.9375 66.21875 33.296875 66.21875 
Q 25.25 66.21875 20.875 63.09375 
Q 16.5 59.96875 16.5 54.203125 
Q 16.5 49.359375 19.40625 46.890625 
Q 22.3125 44.4375 30.421875 42.921875 
L 36.375 41.703125 
Q 47.40625 39.59375 52.65625 34.296875 
Q 57.90625 29 57.90625 20.125 
Q 57.90625 9.515625 50.796875 4.046875 
Q 43.703125 -1.421875 29.984375 -1.421875 
Q 24.8125 -1.421875 18.96875 -0.25 
Q 13.140625 0.921875 6.890625 3.21875 
L 6.890625 13.375 
Q 12.890625 10.015625 18.65625 8.296875 
Q 24.421875 6.59375 29.984375 6.59375 
Q 38.421875 6.59375 43.015625 9.90625 
Q 47.609375 13.234375 47.609375 19.390625 
Q 47.609375 24.75 44.3125 27.78125 
Q 41.015625 30.8125 33.5 32.328125 
L 27.484375 33.5 
Q 16.453125 35.6875 11.515625 40.375 
Q 6.59375 45.0625 6.59375 53.421875 
Q 6.59375 63.09375 13.40625 68.65625 
Q 20.21875 74.21875 32.171875 74.21875 
Q 37.3125 74.21875 42.625 73.28125 
Q 47.953125 72.359375 53.515625 70.515625 
z
" id="DejaVuSans-83"/>
    </defs>
    <g transform="translate(336.491085 332.122795)scale(0.12 -0.12)">
     <use xlink:href="#DejaVuSans-83"/>
     <use x="63.476562" xlink:href="#DejaVuSans-50"/>
    </g>
   </g>
   <g id="text_11">
    <!-- 17152627 -->
    <g transform="translate(313.577647 80.4)scale(0.12 -0.12)">
     <use xlink:href="#DejaVuSans-49"/>
     <use x="63.623047" xlink:href="#DejaVuSans-55"/>
     <use x="127.246094" xlink:href="#DejaVuSans-49"/>
     <use x="190.869141" xlink:href="#DejaVuSans-53"/>
     <use x="254.492188" xlink:href="#DejaVuSans-50"/>
     <use x="318.115234" xlink:href="#DejaVuSans-54"/>
     <use x="381.738281" xlink:href="#DejaVuSans-50"/>
     <use x="445.361328" xlink:href="#DejaVuSans-55"/>
    </g>
   </g>
  </g>
  <g id="axes_2">
   <g id="patch_9">
    <path clip-path="url(#pe891a74d35)" d="M 738 111.330377 
C 720.414327 103.564354 700.563271 102.569136 682.289042 108.53735 
C 664.014813 114.505564 648.577729 127.0256 638.965666 143.674181 
C 629.353603 160.322762 626.229476 179.951688 630.197965 198.761741 
C 634.166455 217.571794 644.953867 234.265704 660.472277 245.612333 
C 659.000414 232.004388 661.136942 218.245777 666.666244 205.725019 
C 672.195545 193.204262 680.925139 182.35722 691.974033 174.278577 
C 693.445896 160.670632 698.474914 147.687061 706.553557 136.638166 
C 714.6322 125.589272 725.479243 116.859679 738 111.330377 
" style="fill:#ff0000;opacity:0.4;"/>
   </g>
   <g id="patch_10">
    <path clip-path="url(#pe891a74d35)" d="M 738 111.330377 
C 750.520757 116.859679 761.3678 125.589272 769.446443 136.638166 
C 777.525086 147.687061 782.554104 160.670632 784.025967 174.278577 
C 795.074861 182.35722 803.804455 193.204262 809.333756 205.725019 
C 814.863058 218.245777 816.999586 232.004388 815.527723 245.612333 
C 831.046133 234.265704 841.833545 217.571794 845.802035 198.761741 
C 849.770524 179.951688 846.646397 160.322762 837.034334 143.674181 
C 827.422271 127.0256 811.985187 114.505564 793.710958 108.53735 
C 775.436729 102.569136 755.585673 103.564354 738 111.330377 
" style="fill:#008000;opacity:0.4;"/>
   </g>
   <g id="patch_11">
    <path clip-path="url(#pe891a74d35)" d="M 738 111.330377 
C 725.479243 116.859679 714.6322 125.589272 706.553557 136.638166 
C 698.474914 147.687061 693.445896 160.670632 691.974033 174.278577 
C 705.33031 164.512839 721.454313 159.246872 738 159.246872 
C 754.545687 159.246872 770.66969 164.512839 784.025967 174.278577 
C 782.554104 160.670632 777.525086 147.687061 769.446443 136.638166 
C 761.3678 125.589272 750.520757 116.859679 738 111.330377 
" style="fill:#b25900;opacity:0.4;"/>
   </g>
   <g id="patch_12">
    <path clip-path="url(#pe891a74d35)" d="M 660.472277 245.612333 
C 662.53954 264.724984 671.603184 282.414112 685.908923 295.255951 
C 700.214662 308.09779 718.775874 315.20668 738 315.20668 
C 757.224126 315.20668 775.785338 308.09779 790.091077 295.255951 
C 804.396816 282.414112 813.46046 264.724984 815.527723 245.612333 
C 804.478829 253.690976 791.495258 258.719993 777.887313 260.191856 
C 764.279368 261.663719 750.520757 259.527191 738 253.997889 
C 725.479243 259.527191 711.720632 261.663719 698.112687 260.191856 
C 684.504742 258.719993 671.521171 253.690976 660.472277 245.612333 
" style="fill:#0000ff;opacity:0.4;"/>
   </g>
   <g id="patch_13">
    <path clip-path="url(#pe891a74d35)" d="M 660.472277 245.612333 
C 671.521171 253.690976 684.504742 258.719993 698.112687 260.191856 
C 711.720632 261.663719 725.479243 259.527191 738 253.997889 
C 722.864485 247.313883 710.242022 235.98307 701.969179 221.654085 
C 693.696335 207.3251 690.194795 190.72832 691.974033 174.278577 
C 680.925139 182.35722 672.195545 193.204262 666.666244 205.725019 
C 661.136942 218.245777 659.000414 232.004388 660.472277 245.612333 
" style="fill:#b200b2;opacity:0.4;"/>
   </g>
   <g id="patch_14">
    <path clip-path="url(#pe891a74d35)" d="M 784.025967 174.278577 
C 785.805205 190.72832 782.303665 207.3251 774.030821 221.654085 
C 765.757978 235.98307 753.135515 247.313883 738 253.997889 
C 750.520757 259.527191 764.279368 261.663719 777.887313 260.191856 
C 791.495258 258.719993 804.478829 253.690976 815.527723 245.612333 
C 816.999586 232.004388 814.863058 218.245777 809.333756 205.725019 
C 803.804455 193.204262 795.074861 182.35722 784.025967 174.278577 
" style="fill:#0059b2;opacity:0.4;"/>
   </g>
   <g id="patch_15">
    <path clip-path="url(#pe891a74d35)" d="M 691.974033 174.278577 
C 690.194795 190.72832 693.696335 207.3251 701.969179 221.654085 
C 710.242022 235.98307 722.864485 247.313883 738 253.997889 
C 753.135515 247.313883 765.757978 235.98307 774.030821 221.654085 
C 782.303665 207.3251 785.805205 190.72832 784.025967 174.278577 
C 770.66969 164.512839 754.545687 159.246872 738 159.246872 
C 721.454313 159.246872 705.33031 164.512839 691.974033 174.278577 
" style="fill:#663366;opacity:0.4;"/>
   </g>
   <g id="text_12">
    <!-- 5 -->
    <g transform="translate(655.66009 157.908782)scale(0.1 -0.1)">
     <use xlink:href="#DejaVuSans-53"/>
    </g>
   </g>
   <g id="text_13">
    <!-- 334 -->
    <defs>
     <path d="M 40.578125 39.3125 
Q 47.65625 37.796875 51.625 33 
Q 55.609375 28.21875 55.609375 21.1875 
Q 55.609375 10.40625 48.1875 4.484375 
Q 40.765625 -1.421875 27.09375 -1.421875 
Q 22.515625 -1.421875 17.65625 -0.515625 
Q 12.796875 0.390625 7.625 2.203125 
L 7.625 11.71875 
Q 11.71875 9.328125 16.59375 8.109375 
Q 21.484375 6.890625 26.8125 6.890625 
Q 36.078125 6.890625 40.9375 10.546875 
Q 45.796875 14.203125 45.796875 21.1875 
Q 45.796875 27.640625 41.28125 31.265625 
Q 36.765625 34.90625 28.71875 34.90625 
L 20.21875 34.90625 
L 20.21875 43.015625 
L 29.109375 43.015625 
Q 36.375 43.015625 40.234375 45.921875 
Q 44.09375 48.828125 44.09375 54.296875 
Q 44.09375 59.90625 40.109375 62.90625 
Q 36.140625 65.921875 28.71875 65.921875 
Q 24.65625 65.921875 20.015625 65.03125 
Q 15.375 64.15625 9.8125 62.3125 
L 9.8125 71.09375 
Q 15.4375 72.65625 20.34375 73.4375 
Q 25.25 74.21875 29.59375 74.21875 
Q 40.828125 74.21875 47.359375 69.109375 
Q 53.90625 64.015625 53.90625 55.328125 
Q 53.90625 49.265625 50.4375 45.09375 
Q 46.96875 40.921875 40.578125 39.3125 
z
" id="DejaVuSans-51"/>
    </defs>
    <g transform="translate(807.61491 157.908782)scale(0.1 -0.1)">
     <use xlink:href="#DejaVuSans-51"/>
     <use x="63.623047" xlink:href="#DejaVuSans-51"/>
     <use x="127.246094" xlink:href="#DejaVuSans-52"/>
    </g>
   </g>
   <g id="text_14">
    <!-- 0 -->
    <g transform="translate(734.81875 147.901258)scale(0.1 -0.1)">
     <use xlink:href="#DejaVuSans-48"/>
    </g>
   </g>
   <g id="text_15">
    <!-- 10 -->
    <g transform="translate(731.6375 295.015603)scale(0.1 -0.1)">
     <use xlink:href="#DejaVuSans-49"/>
     <use x="63.623047" xlink:href="#DejaVuSans-48"/>
    </g>
   </g>
   <g id="text_16">
    <!-- 372 -->
    <g transform="translate(680.21015 231.465955)scale(0.1 -0.1)">
     <use xlink:href="#DejaVuSans-51"/>
     <use x="63.623047" xlink:href="#DejaVuSans-55"/>
     <use x="127.246094" xlink:href="#DejaVuSans-50"/>
    </g>
   </g>
   <g id="text_17">
    <!-- 5 -->
    <g transform="translate(783.06485 231.465955)scale(0.1 -0.1)">
     <use xlink:href="#DejaVuSans-53"/>
    </g>
   </g>
   <g id="text_18">
    <!-- 0 -->
    <g transform="translate(734.81875 203.611056)scale(0.1 -0.1)">
     <use xlink:href="#DejaVuSans-48"/>
    </g>
   </g>
   <g id="text_19">
    <!-- TOP -->
    <g transform="translate(643.497042 104.684229)scale(0.12 -0.12)">
     <use xlink:href="#DejaVuSans-84"/>
     <use x="61.083984" xlink:href="#DejaVuSans-79"/>
     <use x="139.794922" xlink:href="#DejaVuSans-80"/>
    </g>
   </g>
   <g id="text_20">
    <!-- BTM -->
    <g transform="translate(808.491708 104.684229)scale(0.12 -0.12)">
     <use xlink:href="#DejaVuSans-66"/>
     <use x="68.603516" xlink:href="#DejaVuSans-84"/>
     <use x="129.6875" xlink:href="#DejaVuSans-77"/>
    </g>
   </g>
   <g id="text_21">
    <!-- S2 -->
    <g transform="translate(730.373438 332.122795)scale(0.12 -0.12)">
     <use xlink:href="#DejaVuSans-83"/>
     <use x="63.476562" xlink:href="#DejaVuSans-50"/>
    </g>
   </g>
   <g id="text_22">
    <!-- 17160843 -->
    <defs>
     <path d="M 31.78125 34.625 
Q 24.75 34.625 20.71875 30.859375 
Q 16.703125 27.09375 16.703125 20.515625 
Q 16.703125 13.921875 20.71875 10.15625 
Q 24.75 6.390625 31.78125 6.390625 
Q 38.8125 6.390625 42.859375 10.171875 
Q 46.921875 13.96875 46.921875 20.515625 
Q 46.921875 27.09375 42.890625 30.859375 
Q 38.875 34.625 31.78125 34.625 
z
M 21.921875 38.8125 
Q 15.578125 40.375 12.03125 44.71875 
Q 8.5 49.078125 8.5 55.328125 
Q 8.5 64.0625 14.71875 69.140625 
Q 20.953125 74.21875 31.78125 74.21875 
Q 42.671875 74.21875 48.875 69.140625 
Q 55.078125 64.0625 55.078125 55.328125 
Q 55.078125 49.078125 51.53125 44.71875 
Q 48 40.375 41.703125 38.8125 
Q 48.828125 37.15625 52.796875 32.3125 
Q 56.78125 27.484375 56.78125 20.515625 
Q 56.78125 9.90625 50.3125 4.234375 
Q 43.84375 -1.421875 31.78125 -1.421875 
Q 19.734375 -1.421875 13.25 4.234375 
Q 6.78125 9.90625 6.78125 20.515625 
Q 6.78125 27.484375 10.78125 32.3125 
Q 14.796875 37.15625 21.921875 38.8125 
z
M 18.3125 54.390625 
Q 18.3125 48.734375 21.84375 45.5625 
Q 25.390625 42.390625 31.78125 42.390625 
Q 38.140625 42.390625 41.71875 45.5625 
Q 45.3125 48.734375 45.3125 54.390625 
Q 45.3125 60.0625 41.71875 63.234375 
Q 38.140625 66.40625 31.78125 66.40625 
Q 25.390625 66.40625 21.84375 63.234375 
Q 18.3125 60.0625 18.3125 54.390625 
z
" id="DejaVuSans-56"/>
    </defs>
    <g transform="translate(707.46 80.4)scale(0.12 -0.12)">
     <use xlink:href="#DejaVuSans-49"/>
     <use x="63.623047" xlink:href="#DejaVuSans-55"/>
     <use x="127.246094" xlink:href="#DejaVuSans-49"/>
     <use x="190.869141" xlink:href="#DejaVuSans-54"/>
     <use x="254.492188" xlink:href="#DejaVuSans-48"/>
     <use x="318.115234" xlink:href="#DejaVuSans-56"/>
     <use x="381.738281" xlink:href="#DejaVuSans-52"/>
     <use x="445.361328" xlink:href="#DejaVuSans-51"/>
    </g>
   </g>
  </g>
  <g id="axes_3">
   <g id="patch_16">
    <path clip-path="url(#p84dff9fa07)" d="M 1131.882353 111.330377 
C 1114.29668 103.564354 1094.445624 102.569136 1076.171395 108.53735 
C 1057.897166 114.505564 1042.460081 127.0256 1032.848019 143.674181 
C 1023.235956 160.322762 1020.111829 179.951688 1024.080318 198.761741 
C 1028.048808 217.571794 1038.83622 234.265704 1054.35463 245.612333 
C 1052.882767 232.004388 1055.019295 218.245777 1060.548597 205.725019 
C 1066.077898 193.204262 1074.807492 182.35722 1085.856386 174.278577 
C 1087.328249 160.670632 1092.357267 147.687061 1100.43591 136.638166 
C 1108.514553 125.589272 1119.361596 116.859679 1131.882353 111.330377 
" style="fill:#ff0000;opacity:0.4;"/>
   </g>
   <g id="patch_17">
    <path clip-path="url(#p84dff9fa07)" d="M 1131.882353 111.330377 
C 1144.40311 116.859679 1155.250153 125.589272 1163.328796 136.638166 
C 1171.407439 147.687061 1176.436457 160.670632 1177.90832 174.278577 
C 1188.957214 182.35722 1197.686807 193.204262 1203.216109 205.725019 
C 1208.745411 218.245777 1210.881939 232.004388 1209.410076 245.612333 
C 1224.928486 234.265704 1235.715898 217.571794 1239.684388 198.761741 
C 1243.652877 179.951688 1240.52875 160.322762 1230.916687 143.674181 
C 1221.304624 127.0256 1205.86754 114.505564 1187.593311 108.53735 
C 1169.319082 102.569136 1149.468026 103.564354 1131.882353 111.330377 
" style="fill:#008000;opacity:0.4;"/>
   </g>
   <g id="patch_18">
    <path clip-path="url(#p84dff9fa07)" d="M 1131.882353 111.330377 
C 1119.361596 116.859679 1108.514553 125.589272 1100.43591 136.638166 
C 1092.357267 147.687061 1087.328249 160.670632 1085.856386 174.278577 
C 1099.212663 164.512839 1115.336666 159.246872 1131.882353 159.246872 
C 1148.42804 159.246872 1164.552043 164.512839 1177.90832 174.278577 
C 1176.436457 160.670632 1171.407439 147.687061 1163.328796 136.638166 
C 1155.250153 125.589272 1144.40311 116.859679 1131.882353 111.330377 
" style="fill:#b25900;opacity:0.4;"/>
   </g>
   <g id="patch_19">
    <path clip-path="url(#p84dff9fa07)" d="M 1054.35463 245.612333 
C 1056.421893 264.724984 1065.485537 282.414112 1079.791276 295.255951 
C 1094.097015 308.09779 1112.658227 315.20668 1131.882353 315.20668 
C 1151.106479 315.20668 1169.66769 308.09779 1183.97343 295.255951 
C 1198.279169 282.414112 1207.342813 264.724984 1209.410076 245.612333 
C 1198.361182 253.690976 1185.377611 258.719993 1171.769666 260.191856 
C 1158.161721 261.663719 1144.40311 259.527191 1131.882353 253.997889 
C 1119.361596 259.527191 1105.602984 261.663719 1091.99504 260.191856 
C 1078.387095 258.719993 1065.403524 253.690976 1054.35463 245.612333 
" style="fill:#0000ff;opacity:0.4;"/>
   </g>
   <g id="patch_20">
    <path clip-path="url(#p84dff9fa07)" d="M 1054.35463 245.612333 
C 1065.403524 253.690976 1078.387095 258.719993 1091.99504 260.191856 
C 1105.602984 261.663719 1119.361596 259.527191 1131.882353 253.997889 
C 1116.746838 247.313883 1104.124375 235.98307 1095.851532 221.654085 
C 1087.578688 207.3251 1084.077148 190.72832 1085.856386 174.278577 
C 1074.807492 182.35722 1066.077898 193.204262 1060.548597 205.725019 
C 1055.019295 218.245777 1052.882767 232.004388 1054.35463 245.612333 
" style="fill:#b200b2;opacity:0.4;"/>
   </g>
   <g id="patch_21">
    <path clip-path="url(#p84dff9fa07)" d="M 1177.90832 174.278577 
C 1179.687557 190.72832 1176.186018 207.3251 1167.913174 221.654085 
C 1159.640331 235.98307 1147.017868 247.313883 1131.882353 253.997889 
C 1144.40311 259.527191 1158.161721 261.663719 1171.769666 260.191856 
C 1185.377611 258.719993 1198.361182 253.690976 1209.410076 245.612333 
C 1210.881939 232.004388 1208.745411 218.245777 1203.216109 205.725019 
C 1197.686807 193.204262 1188.957214 182.35722 1177.90832 174.278577 
" style="fill:#0059b2;opacity:0.4;"/>
   </g>
   <g id="patch_22">
    <path clip-path="url(#p84dff9fa07)" d="M 1085.856386 174.278577 
C 1084.077148 190.72832 1087.578688 207.3251 1095.851532 221.654085 
C 1104.124375 235.98307 1116.746838 247.313883 1131.882353 253.997889 
C 1147.017868 247.313883 1159.640331 235.98307 1167.913174 221.654085 
C 1176.186018 207.3251 1179.687557 190.72832 1177.90832 174.278577 
C 1164.552043 164.512839 1148.42804 159.246872 1131.882353 159.246872 
C 1115.336666 159.246872 1099.212663 164.512839 1085.856386 174.278577 
" style="fill:#663366;opacity:0.4;"/>
   </g>
   <g id="text_23">
    <!-- 97 -->
    <g transform="translate(1046.361193 157.908782)scale(0.1 -0.1)">
     <use xlink:href="#DejaVuSans-57"/>
     <use x="63.623047" xlink:href="#DejaVuSans-55"/>
    </g>
   </g>
   <g id="text_24">
    <!-- 243 -->
    <g transform="translate(1201.497263 157.908782)scale(0.1 -0.1)">
     <use xlink:href="#DejaVuSans-50"/>
     <use x="63.623047" xlink:href="#DejaVuSans-52"/>
     <use x="127.246094" xlink:href="#DejaVuSans-51"/>
    </g>
   </g>
   <g id="text_25">
    <!-- 0 -->
    <g transform="translate(1128.701103 147.901258)scale(0.1 -0.1)">
     <use xlink:href="#DejaVuSans-48"/>
    </g>
   </g>
   <g id="text_26">
    <!-- 10 -->
    <g transform="translate(1125.519853 295.015603)scale(0.1 -0.1)">
     <use xlink:href="#DejaVuSans-49"/>
     <use x="63.623047" xlink:href="#DejaVuSans-48"/>
    </g>
   </g>
   <g id="text_27">
    <!-- 267 -->
    <g transform="translate(1074.092503 231.465955)scale(0.1 -0.1)">
     <use xlink:href="#DejaVuSans-50"/>
     <use x="63.623047" xlink:href="#DejaVuSans-54"/>
     <use x="127.246094" xlink:href="#DejaVuSans-55"/>
    </g>
   </g>
   <g id="text_28">
    <!-- 110 -->
    <g transform="translate(1170.584703 231.465955)scale(0.1 -0.1)">
     <use xlink:href="#DejaVuSans-49"/>
     <use x="63.623047" xlink:href="#DejaVuSans-49"/>
     <use x="127.246094" xlink:href="#DejaVuSans-48"/>
    </g>
   </g>
   <g id="text_29">
    <!-- 0 -->
    <g transform="translate(1128.701103 203.611056)scale(0.1 -0.1)">
     <use xlink:href="#DejaVuSans-48"/>
    </g>
   </g>
   <g id="text_30">
    <!-- TOP -->
    <g transform="translate(1037.379394 104.684229)scale(0.12 -0.12)">
     <use xlink:href="#DejaVuSans-84"/>
     <use x="61.083984" xlink:href="#DejaVuSans-79"/>
     <use x="139.794922" xlink:href="#DejaVuSans-80"/>
    </g>
   </g>
   <g id="text_31">
    <!-- BTM -->
    <g transform="translate(1202.374061 104.684229)scale(0.12 -0.12)">
     <use xlink:href="#DejaVuSans-66"/>
     <use x="68.603516" xlink:href="#DejaVuSans-84"/>
     <use x="129.6875" xlink:href="#DejaVuSans-77"/>
    </g>
   </g>
   <g id="text_32">
    <!-- S2 -->
    <g transform="translate(1124.25579 332.122795)scale(0.12 -0.12)">
     <use xlink:href="#DejaVuSans-83"/>
     <use x="63.476562" xlink:href="#DejaVuSans-50"/>
    </g>
   </g>
   <g id="text_33">
    <!-- 17171479 -->
    <g transform="translate(1101.342353 80.4)scale(0.12 -0.12)">
     <use xlink:href="#DejaVuSans-49"/>
     <use x="63.623047" xlink:href="#DejaVuSans-55"/>
     <use x="127.246094" xlink:href="#DejaVuSans-49"/>
     <use x="190.869141" xlink:href="#DejaVuSans-55"/>
     <use x="254.492188" xlink:href="#DejaVuSans-49"/>
     <use x="318.115234" xlink:href="#DejaVuSans-52"/>
     <use x="381.738281" xlink:href="#DejaVuSans-55"/>
     <use x="445.361328" xlink:href="#DejaVuSans-57"/>
    </g>
   </g>
  </g>
  <g id="axes_4">
   <g id="patch_23">
    <path clip-path="url(#pf51679520e)" d="M 344.117647 407.839468 
C 326.531974 400.073445 306.680918 399.078227 288.406689 405.046441 
C 270.13246 411.014655 254.695376 423.534691 245.083313 440.183272 
C 235.47125 456.831853 232.347123 476.460779 236.315612 495.270832 
C 240.284102 514.080885 251.071514 530.774795 266.589924 542.121423 
C 265.118061 528.513479 267.254589 514.754868 272.783891 502.23411 
C 278.313193 489.713353 287.042786 478.866311 298.09168 470.787667 
C 299.563543 457.179723 304.592561 444.196152 312.671204 433.147257 
C 320.749847 422.098363 331.59689 413.36877 344.117647 407.839468 
" style="fill:#ff0000;opacity:0.4;"/>
   </g>
   <g id="patch_24">
    <path clip-path="url(#pf51679520e)" d="M 344.117647 407.839468 
C 356.638404 413.36877 367.485447 422.098363 375.56409 433.147257 
C 383.642733 444.196152 388.671751 457.179723 390.143614 470.787667 
C 401.192508 478.866311 409.922102 489.713353 415.451403 502.23411 
C 420.980705 514.754868 423.117233 528.513479 421.64537 542.121423 
C 437.16378 530.774795 447.951192 514.080885 451.919682 495.270832 
C 455.888171 476.460779 452.764044 456.831853 443.151981 440.183272 
C 433.539919 423.534691 418.102834 411.014655 399.828605 405.046441 
C 381.554376 399.078227 361.70332 400.073445 344.117647 407.839468 
" style="fill:#008000;opacity:0.4;"/>
   </g>
   <g id="patch_25">
    <path clip-path="url(#pf51679520e)" d="M 344.117647 407.839468 
C 331.59689 413.36877 320.749847 422.098363 312.671204 433.147257 
C 304.592561 444.196152 299.563543 457.179723 298.09168 470.787667 
C 311.447957 461.02193 327.57196 455.755963 344.117647 455.755963 
C 360.663334 455.755963 376.787337 461.02193 390.143614 470.787667 
C 388.671751 457.179723 383.642733 444.196152 375.56409 433.147257 
C 367.485447 422.098363 356.638404 413.36877 344.117647 407.839468 
" style="fill:#b25900;opacity:0.4;"/>
   </g>
   <g id="patch_26">
    <path clip-path="url(#pf51679520e)" d="M 266.589924 542.121423 
C 268.657187 561.234075 277.720831 578.923203 292.02657 591.765042 
C 306.33231 604.606881 324.893521 611.715771 344.117647 611.715771 
C 363.341773 611.715771 381.902985 604.606881 396.208724 591.765042 
C 410.514463 578.923203 419.578107 561.234075 421.64537 542.121423 
C 410.596476 550.200067 397.612905 555.229084 384.00496 556.700947 
C 370.397016 558.17281 356.638404 556.036282 344.117647 550.50698 
C 331.59689 556.036282 317.838279 558.17281 304.230334 556.700947 
C 290.622389 555.229084 277.638818 550.200067 266.589924 542.121423 
" style="fill:#0000ff;opacity:0.4;"/>
   </g>
   <g id="patch_27">
    <path clip-path="url(#pf51679520e)" d="M 266.589924 542.121423 
C 277.638818 550.200067 290.622389 555.229084 304.230334 556.700947 
C 317.838279 558.17281 331.59689 556.036282 344.117647 550.50698 
C 328.982132 543.822973 316.359669 532.492161 308.086826 518.163176 
C 299.813982 503.834191 296.312443 487.237411 298.09168 470.787667 
C 287.042786 478.866311 278.313193 489.713353 272.783891 502.23411 
C 267.254589 514.754868 265.118061 528.513479 266.589924 542.121423 
" style="fill:#b200b2;opacity:0.4;"/>
   </g>
   <g id="patch_28">
    <path clip-path="url(#pf51679520e)" d="M 390.143614 470.787667 
C 391.922852 487.237411 388.421312 503.834191 380.148468 518.163176 
C 371.875625 532.492161 359.253162 543.822973 344.117647 550.50698 
C 356.638404 556.036282 370.397016 558.17281 384.00496 556.700947 
C 397.612905 555.229084 410.596476 550.200067 421.64537 542.121423 
C 423.117233 528.513479 420.980705 514.754868 415.451403 502.23411 
C 409.922102 489.713353 401.192508 478.866311 390.143614 470.787667 
" style="fill:#0059b2;opacity:0.4;"/>
   </g>
   <g id="patch_29">
    <path clip-path="url(#pf51679520e)" d="M 298.09168 470.787667 
C 296.312443 487.237411 299.813982 503.834191 308.086826 518.163176 
C 316.359669 532.492161 328.982132 543.822973 344.117647 550.50698 
C 359.253162 543.822973 371.875625 532.492161 380.148468 518.163176 
C 388.421312 503.834191 391.922852 487.237411 390.143614 470.787667 
C 376.787337 461.02193 360.663334 455.755963 344.117647 455.755963 
C 327.57196 455.755963 311.447957 461.02193 298.09168 470.787667 
" style="fill:#663366;opacity:0.4;"/>
   </g>
   <g id="text_34">
    <!-- 277 -->
    <g transform="translate(255.415237 454.417873)scale(0.1 -0.1)">
     <use xlink:href="#DejaVuSans-50"/>
     <use x="63.623047" xlink:href="#DejaVuSans-55"/>
     <use x="127.246094" xlink:href="#DejaVuSans-55"/>
    </g>
   </g>
   <g id="text_35">
    <!-- 101 -->
    <g transform="translate(413.732557 454.417873)scale(0.1 -0.1)">
     <use xlink:href="#DejaVuSans-49"/>
     <use x="63.623047" xlink:href="#DejaVuSans-48"/>
     <use x="127.246094" xlink:href="#DejaVuSans-49"/>
    </g>
   </g>
   <g id="text_36">
    <!-- 0 -->
    <g transform="translate(340.936397 444.410349)scale(0.1 -0.1)">
     <use xlink:href="#DejaVuSans-48"/>
    </g>
   </g>
   <g id="text_37">
    <!-- 7 -->
    <g transform="translate(340.936397 591.524694)scale(0.1 -0.1)">
     <use xlink:href="#DejaVuSans-55"/>
    </g>
   </g>
   <g id="text_38">
    <!-- 94 -->
    <g transform="translate(289.509047 527.975045)scale(0.1 -0.1)">
     <use xlink:href="#DejaVuSans-57"/>
     <use x="63.623047" xlink:href="#DejaVuSans-52"/>
    </g>
   </g>
   <g id="text_39">
    <!-- 246 -->
    <g transform="translate(382.819997 527.975045)scale(0.1 -0.1)">
     <use xlink:href="#DejaVuSans-50"/>
     <use x="63.623047" xlink:href="#DejaVuSans-52"/>
     <use x="127.246094" xlink:href="#DejaVuSans-54"/>
    </g>
   </g>
   <g id="text_40">
    <!-- 0 -->
    <g transform="translate(340.936397 500.120147)scale(0.1 -0.1)">
     <use xlink:href="#DejaVuSans-48"/>
    </g>
   </g>
   <g id="text_41">
    <!-- TOP -->
    <g transform="translate(249.614689 401.19332)scale(0.12 -0.12)">
     <use xlink:href="#DejaVuSans-84"/>
     <use x="61.083984" xlink:href="#DejaVuSans-79"/>
     <use x="139.794922" xlink:href="#DejaVuSans-80"/>
    </g>
   </g>
   <g id="text_42">
    <!-- BTM -->
    <g transform="translate(414.609356 401.19332)scale(0.12 -0.12)">
     <use xlink:href="#DejaVuSans-66"/>
     <use x="68.603516" xlink:href="#DejaVuSans-84"/>
     <use x="129.6875" xlink:href="#DejaVuSans-77"/>
    </g>
   </g>
   <g id="text_43">
    <!-- S3 -->
    <g transform="translate(336.491085 628.631886)scale(0.12 -0.12)">
     <use xlink:href="#DejaVuSans-83"/>
     <use x="63.476562" xlink:href="#DejaVuSans-51"/>
    </g>
   </g>
   <g id="text_44">
    <!-- 17152627 -->
    <g transform="translate(313.577647 376.909091)scale(0.12 -0.12)">
     <use xlink:href="#DejaVuSans-49"/>
     <use x="63.623047" xlink:href="#DejaVuSans-55"/>
     <use x="127.246094" xlink:href="#DejaVuSans-49"/>
     <use x="190.869141" xlink:href="#DejaVuSans-53"/>
     <use x="254.492188" xlink:href="#DejaVuSans-50"/>
     <use x="318.115234" xlink:href="#DejaVuSans-54"/>
     <use x="381.738281" xlink:href="#DejaVuSans-50"/>
     <use x="445.361328" xlink:href="#DejaVuSans-55"/>
    </g>
   </g>
  </g>
  <g id="axes_5">
   <g id="patch_30">
    <path clip-path="url(#p2d20c731ca)" d="M 738 407.839468 
C 720.414327 400.073445 700.563271 399.078227 682.289042 405.046441 
C 664.014813 411.014655 648.577729 423.534691 638.965666 440.183272 
C 629.353603 456.831853 626.229476 476.460779 630.197965 495.270832 
C 634.166455 514.080885 644.953867 530.774795 660.472277 542.121423 
C 659.000414 528.513479 661.136942 514.754868 666.666244 502.23411 
C 672.195545 489.713353 680.925139 478.866311 691.974033 470.787667 
C 693.445896 457.179723 698.474914 444.196152 706.553557 433.147257 
C 714.6322 422.098363 725.479243 413.36877 738 407.839468 
" style="fill:#ff0000;opacity:0.4;"/>
   </g>
   <g id="patch_31">
    <path clip-path="url(#p2d20c731ca)" d="M 738 407.839468 
C 750.520757 413.36877 761.3678 422.098363 769.446443 433.147257 
C 777.525086 444.196152 782.554104 457.179723 784.025967 470.787667 
C 795.074861 478.866311 803.804455 489.713353 809.333756 502.23411 
C 814.863058 514.754868 816.999586 528.513479 815.527723 542.121423 
C 831.046133 530.774795 841.833545 514.080885 845.802035 495.270832 
C 849.770524 476.460779 846.646397 456.831853 837.034334 440.183272 
C 827.422271 423.534691 811.985187 411.014655 793.710958 405.046441 
C 775.436729 399.078227 755.585673 400.073445 738 407.839468 
" style="fill:#008000;opacity:0.4;"/>
   </g>
   <g id="patch_32">
    <path clip-path="url(#p2d20c731ca)" d="M 738 407.839468 
C 725.479243 413.36877 714.6322 422.098363 706.553557 433.147257 
C 698.474914 444.196152 693.445896 457.179723 691.974033 470.787667 
C 705.33031 461.02193 721.454313 455.755963 738 455.755963 
C 754.545687 455.755963 770.66969 461.02193 784.025967 470.787667 
C 782.554104 457.179723 777.525086 444.196152 769.446443 433.147257 
C 761.3678 422.098363 750.520757 413.36877 738 407.839468 
" style="fill:#b25900;opacity:0.4;"/>
   </g>
   <g id="patch_33">
    <path clip-path="url(#p2d20c731ca)" d="M 660.472277 542.121423 
C 662.53954 561.234075 671.603184 578.923203 685.908923 591.765042 
C 700.214662 604.606881 718.775874 611.715771 738 611.715771 
C 757.224126 611.715771 775.785338 604.606881 790.091077 591.765042 
C 804.396816 578.923203 813.46046 561.234075 815.527723 542.121423 
C 804.478829 550.200067 791.495258 555.229084 777.887313 556.700947 
C 764.279368 558.17281 750.520757 556.036282 738 550.50698 
C 725.479243 556.036282 711.720632 558.17281 698.112687 556.700947 
C 684.504742 555.229084 671.521171 550.200067 660.472277 542.121423 
" style="fill:#0000ff;opacity:0.4;"/>
   </g>
   <g id="patch_34">
    <path clip-path="url(#p2d20c731ca)" d="M 660.472277 542.121423 
C 671.521171 550.200067 684.504742 555.229084 698.112687 556.700947 
C 711.720632 558.17281 725.479243 556.036282 738 550.50698 
C 722.864485 543.822973 710.242022 532.492161 701.969179 518.163176 
C 693.696335 503.834191 690.194795 487.237411 691.974033 470.787667 
C 680.925139 478.866311 672.195545 489.713353 666.666244 502.23411 
C 661.136942 514.754868 659.000414 528.513479 660.472277 542.121423 
" style="fill:#b200b2;opacity:0.4;"/>
   </g>
   <g id="patch_35">
    <path clip-path="url(#p2d20c731ca)" d="M 784.025967 470.787667 
C 785.805205 487.237411 782.303665 503.834191 774.030821 518.163176 
C 765.757978 532.492161 753.135515 543.822973 738 550.50698 
C 750.520757 556.036282 764.279368 558.17281 777.887313 556.700947 
C 791.495258 555.229084 804.478829 550.200067 815.527723 542.121423 
C 816.999586 528.513479 814.863058 514.754868 809.333756 502.23411 
C 803.804455 489.713353 795.074861 478.866311 784.025967 470.787667 
" style="fill:#0059b2;opacity:0.4;"/>
   </g>
   <g id="patch_36">
    <path clip-path="url(#p2d20c731ca)" d="M 691.974033 470.787667 
C 690.194795 487.237411 693.696335 503.834191 701.969179 518.163176 
C 710.242022 532.492161 722.864485 543.822973 738 550.50698 
C 753.135515 543.822973 765.757978 532.492161 774.030821 518.163176 
C 782.303665 503.834191 785.805205 487.237411 784.025967 470.787667 
C 770.66969 461.02193 754.545687 455.755963 738 455.755963 
C 721.454313 455.755963 705.33031 461.02193 691.974033 470.787667 
" style="fill:#663366;opacity:0.4;"/>
   </g>
   <g id="text_45">
    <!-- 373 -->
    <g transform="translate(649.29759 454.417873)scale(0.1 -0.1)">
     <use xlink:href="#DejaVuSans-51"/>
     <use x="63.623047" xlink:href="#DejaVuSans-55"/>
     <use x="127.246094" xlink:href="#DejaVuSans-51"/>
    </g>
   </g>
   <g id="text_46">
    <!-- 6 -->
    <g transform="translate(813.97741 454.417873)scale(0.1 -0.1)">
     <use xlink:href="#DejaVuSans-54"/>
    </g>
   </g>
   <g id="text_47">
    <!-- 0 -->
    <g transform="translate(734.81875 444.410349)scale(0.1 -0.1)">
     <use xlink:href="#DejaVuSans-48"/>
    </g>
   </g>
   <g id="text_48">
    <!-- 10 -->
    <g transform="translate(731.6375 591.524694)scale(0.1 -0.1)">
     <use xlink:href="#DejaVuSans-49"/>
     <use x="63.623047" xlink:href="#DejaVuSans-48"/>
    </g>
   </g>
   <g id="text_49">
    <!-- 4 -->
    <g transform="translate(686.57265 527.975045)scale(0.1 -0.1)">
     <use xlink:href="#DejaVuSans-52"/>
    </g>
   </g>
   <g id="text_50">
    <!-- 333 -->
    <g transform="translate(776.70235 527.975045)scale(0.1 -0.1)">
     <use xlink:href="#DejaVuSans-51"/>
     <use x="63.623047" xlink:href="#DejaVuSans-51"/>
     <use x="127.246094" xlink:href="#DejaVuSans-51"/>
    </g>
   </g>
   <g id="text_51">
    <!-- 0 -->
    <g transform="translate(734.81875 500.120147)scale(0.1 -0.1)">
     <use xlink:href="#DejaVuSans-48"/>
    </g>
   </g>
   <g id="text_52">
    <!-- TOP -->
    <g transform="translate(643.497042 401.19332)scale(0.12 -0.12)">
     <use xlink:href="#DejaVuSans-84"/>
     <use x="61.083984" xlink:href="#DejaVuSans-79"/>
     <use x="139.794922" xlink:href="#DejaVuSans-80"/>
    </g>
   </g>
   <g id="text_53">
    <!-- BTM -->
    <g transform="translate(808.491708 401.19332)scale(0.12 -0.12)">
     <use xlink:href="#DejaVuSans-66"/>
     <use x="68.603516" xlink:href="#DejaVuSans-84"/>
     <use x="129.6875" xlink:href="#DejaVuSans-77"/>
    </g>
   </g>
   <g id="text_54">
    <!-- S3 -->
    <g transform="translate(730.373438 628.631886)scale(0.12 -0.12)">
     <use xlink:href="#DejaVuSans-83"/>
     <use x="63.476562" xlink:href="#DejaVuSans-51"/>
    </g>
   </g>
   <g id="text_55">
    <!-- 17160843 -->
    <g transform="translate(707.46 376.909091)scale(0.12 -0.12)">
     <use xlink:href="#DejaVuSans-49"/>
     <use x="63.623047" xlink:href="#DejaVuSans-55"/>
     <use x="127.246094" xlink:href="#DejaVuSans-49"/>
     <use x="190.869141" xlink:href="#DejaVuSans-54"/>
     <use x="254.492188" xlink:href="#DejaVuSans-48"/>
     <use x="318.115234" xlink:href="#DejaVuSans-56"/>
     <use x="381.738281" xlink:href="#DejaVuSans-52"/>
     <use x="445.361328" xlink:href="#DejaVuSans-51"/>
    </g>
   </g>
  </g>
  <g id="axes_6">
   <g id="patch_37">
    <path clip-path="url(#pe2d40e0934)" d="M 1131.882353 407.839468 
C 1114.29668 400.073445 1094.445624 399.078227 1076.171395 405.046441 
C 1057.897166 411.014655 1042.460081 423.534691 1032.848019 440.183272 
C 1023.235956 456.831853 1020.111829 476.460779 1024.080318 495.270832 
C 1028.048808 514.080885 1038.83622 530.774795 1054.35463 542.121423 
C 1052.882767 528.513479 1055.019295 514.754868 1060.548597 502.23411 
C 1066.077898 489.713353 1074.807492 478.866311 1085.856386 470.787667 
C 1087.328249 457.179723 1092.357267 444.196152 1100.43591 433.147257 
C 1108.514553 422.098363 1119.361596 413.36877 1131.882353 407.839468 
" style="fill:#ff0000;opacity:0.4;"/>
   </g>
   <g id="patch_38">
    <path clip-path="url(#pe2d40e0934)" d="M 1131.882353 407.839468 
C 1144.40311 413.36877 1155.250153 422.098363 1163.328796 433.147257 
C 1171.407439 444.196152 1176.436457 457.179723 1177.90832 470.787667 
C 1188.957214 478.866311 1197.686807 489.713353 1203.216109 502.23411 
C 1208.745411 514.754868 1210.881939 528.513479 1209.410076 542.121423 
C 1224.928486 530.774795 1235.715898 514.080885 1239.684388 495.270832 
C 1243.652877 476.460779 1240.52875 456.831853 1230.916687 440.183272 
C 1221.304624 423.534691 1205.86754 411.014655 1187.593311 405.046441 
C 1169.319082 399.078227 1149.468026 400.073445 1131.882353 407.839468 
" style="fill:#008000;opacity:0.4;"/>
   </g>
   <g id="patch_39">
    <path clip-path="url(#pe2d40e0934)" d="M 1131.882353 407.839468 
C 1119.361596 413.36877 1108.514553 422.098363 1100.43591 433.147257 
C 1092.357267 444.196152 1087.328249 457.179723 1085.856386 470.787667 
C 1099.212663 461.02193 1115.336666 455.755963 1131.882353 455.755963 
C 1148.42804 455.755963 1164.552043 461.02193 1177.90832 470.787667 
C 1176.436457 457.179723 1171.407439 444.196152 1163.328796 433.147257 
C 1155.250153 422.098363 1144.40311 413.36877 1131.882353 407.839468 
" style="fill:#b25900;opacity:0.4;"/>
   </g>
   <g id="patch_40">
    <path clip-path="url(#pe2d40e0934)" d="M 1054.35463 542.121423 
C 1056.421893 561.234075 1065.485537 578.923203 1079.791276 591.765042 
C 1094.097015 604.606881 1112.658227 611.715771 1131.882353 611.715771 
C 1151.106479 611.715771 1169.66769 604.606881 1183.97343 591.765042 
C 1198.279169 578.923203 1207.342813 561.234075 1209.410076 542.121423 
C 1198.361182 550.200067 1185.377611 555.229084 1171.769666 556.700947 
C 1158.161721 558.17281 1144.40311 556.036282 1131.882353 550.50698 
C 1119.361596 556.036282 1105.602984 558.17281 1091.99504 556.700947 
C 1078.387095 555.229084 1065.403524 550.200067 1054.35463 542.121423 
" style="fill:#0000ff;opacity:0.4;"/>
   </g>
   <g id="patch_41">
    <path clip-path="url(#pe2d40e0934)" d="M 1054.35463 542.121423 
C 1065.403524 550.200067 1078.387095 555.229084 1091.99504 556.700947 
C 1105.602984 558.17281 1119.361596 556.036282 1131.882353 550.50698 
C 1116.746838 543.822973 1104.124375 532.492161 1095.851532 518.163176 
C 1087.578688 503.834191 1084.077148 487.237411 1085.856386 470.787667 
C 1074.807492 478.866311 1066.077898 489.713353 1060.548597 502.23411 
C 1055.019295 514.754868 1052.882767 528.513479 1054.35463 542.121423 
" style="fill:#b200b2;opacity:0.4;"/>
   </g>
   <g id="patch_42">
    <path clip-path="url(#pe2d40e0934)" d="M 1177.90832 470.787667 
C 1179.687557 487.237411 1176.186018 503.834191 1167.913174 518.163176 
C 1159.640331 532.492161 1147.017868 543.822973 1131.882353 550.50698 
C 1144.40311 556.036282 1158.161721 558.17281 1171.769666 556.700947 
C 1185.377611 555.229084 1198.361182 550.200067 1209.410076 542.121423 
C 1210.881939 528.513479 1208.745411 514.754868 1203.216109 502.23411 
C 1197.686807 489.713353 1188.957214 478.866311 1177.90832 470.787667 
" style="fill:#0059b2;opacity:0.4;"/>
   </g>
   <g id="patch_43">
    <path clip-path="url(#pe2d40e0934)" d="M 1085.856386 470.787667 
C 1084.077148 487.237411 1087.578688 503.834191 1095.851532 518.163176 
C 1104.124375 532.492161 1116.746838 543.822973 1131.882353 550.50698 
C 1147.017868 543.822973 1159.640331 532.492161 1167.913174 518.163176 
C 1176.186018 503.834191 1179.687557 487.237411 1177.90832 470.787667 
C 1164.552043 461.02193 1148.42804 455.755963 1131.882353 455.755963 
C 1115.336666 455.755963 1099.212663 461.02193 1085.856386 470.787667 
" style="fill:#663366;opacity:0.4;"/>
   </g>
   <g id="text_56">
    <!-- 268 -->
    <g transform="translate(1043.179943 454.417873)scale(0.1 -0.1)">
     <use xlink:href="#DejaVuSans-50"/>
     <use x="63.623047" xlink:href="#DejaVuSans-54"/>
     <use x="127.246094" xlink:href="#DejaVuSans-56"/>
    </g>
   </g>
   <g id="text_57">
    <!-- 110 -->
    <g transform="translate(1201.497263 454.417873)scale(0.1 -0.1)">
     <use xlink:href="#DejaVuSans-49"/>
     <use x="63.623047" xlink:href="#DejaVuSans-49"/>
     <use x="127.246094" xlink:href="#DejaVuSans-48"/>
    </g>
   </g>
   <g id="text_58">
    <!-- 0 -->
    <g transform="translate(1128.701103 444.410349)scale(0.1 -0.1)">
     <use xlink:href="#DejaVuSans-48"/>
    </g>
   </g>
   <g id="text_59">
    <!-- 8 -->
    <g transform="translate(1128.701103 591.524694)scale(0.1 -0.1)">
     <use xlink:href="#DejaVuSans-56"/>
    </g>
   </g>
   <g id="text_60">
    <!-- 96 -->
    <g transform="translate(1077.273753 527.975045)scale(0.1 -0.1)">
     <use xlink:href="#DejaVuSans-57"/>
     <use x="63.623047" xlink:href="#DejaVuSans-54"/>
    </g>
   </g>
   <g id="text_61">
    <!-- 243 -->
    <g transform="translate(1170.584703 527.975045)scale(0.1 -0.1)">
     <use xlink:href="#DejaVuSans-50"/>
     <use x="63.623047" xlink:href="#DejaVuSans-52"/>
     <use x="127.246094" xlink:href="#DejaVuSans-51"/>
    </g>
   </g>
   <g id="text_62">
    <!-- 0 -->
    <g transform="translate(1128.701103 500.120147)scale(0.1 -0.1)">
     <use xlink:href="#DejaVuSans-48"/>
    </g>
   </g>
   <g id="text_63">
    <!-- TOP -->
    <g transform="translate(1037.379394 401.19332)scale(0.12 -0.12)">
     <use xlink:href="#DejaVuSans-84"/>
     <use x="61.083984" xlink:href="#DejaVuSans-79"/>
     <use x="139.794922" xlink:href="#DejaVuSans-80"/>
    </g>
   </g>
   <g id="text_64">
    <!-- BTM -->
    <g transform="translate(1202.374061 401.19332)scale(0.12 -0.12)">
     <use xlink:href="#DejaVuSans-66"/>
     <use x="68.603516" xlink:href="#DejaVuSans-84"/>
     <use x="129.6875" xlink:href="#DejaVuSans-77"/>
    </g>
   </g>
   <g id="text_65">
    <!-- S3 -->
    <g transform="translate(1124.25579 628.631886)scale(0.12 -0.12)">
     <use xlink:href="#DejaVuSans-83"/>
     <use x="63.476562" xlink:href="#DejaVuSans-51"/>
    </g>
   </g>
   <g id="text_66">
    <!-- 17171479 -->
    <g transform="translate(1101.342353 376.909091)scale(0.12 -0.12)">
     <use xlink:href="#DejaVuSans-49"/>
     <use x="63.623047" xlink:href="#DejaVuSans-55"/>
     <use x="127.246094" xlink:href="#DejaVuSans-49"/>
     <use x="190.869141" xlink:href="#DejaVuSans-55"/>
     <use x="254.492188" xlink:href="#DejaVuSans-49"/>
     <use x="318.115234" xlink:href="#DejaVuSans-52"/>
     <use x="381.738281" xlink:href="#DejaVuSans-55"/>
     <use x="445.361328" xlink:href="#DejaVuSans-57"/>
    </g>
   </g>
  </g>
  <g id="text_67">
   <!-- S2 vs S3 -->
   <defs>
    <path id="DejaVuSans-32"/>
    <path d="M 2.984375 54.6875 
L 12.5 54.6875 
L 29.59375 8.796875 
L 46.6875 54.6875 
L 56.203125 54.6875 
L 35.6875 0 
L 23.484375 0 
z
" id="DejaVuSans-118"/>
    <path d="M 44.28125 53.078125 
L 44.28125 44.578125 
Q 40.484375 46.53125 36.375 47.5 
Q 32.28125 48.484375 27.875 48.484375 
Q 21.1875 48.484375 17.84375 46.4375 
Q 14.5 44.390625 14.5 40.28125 
Q 14.5 37.15625 16.890625 35.375 
Q 19.28125 33.59375 26.515625 31.984375 
L 29.59375 31.296875 
Q 39.15625 29.25 43.1875 25.515625 
Q 47.21875 21.78125 47.21875 15.09375 
Q 47.21875 7.46875 41.1875 3.015625 
Q 35.15625 -1.421875 24.609375 -1.421875 
Q 20.21875 -1.421875 15.453125 -0.5625 
Q 10.6875 0.296875 5.421875 2 
L 5.421875 11.28125 
Q 10.40625 8.6875 15.234375 7.390625 
Q 20.0625 6.109375 24.8125 6.109375 
Q 31.15625 6.109375 34.5625 8.28125 
Q 37.984375 10.453125 37.984375 14.40625 
Q 37.984375 18.0625 35.515625 20.015625 
Q 33.0625 21.96875 24.703125 23.78125 
L 21.578125 24.515625 
Q 13.234375 26.265625 9.515625 29.90625 
Q 5.8125 33.546875 5.8125 39.890625 
Q 5.8125 47.609375 11.28125 51.796875 
Q 16.75 56 26.8125 56 
Q 31.78125 56 36.171875 55.265625 
Q 40.578125 54.546875 44.28125 53.078125 
z
" id="DejaVuSans-115"/>
   </defs>
   <g transform="translate(685.675 11.0725)scale(0.16 -0.16)">
    <use xlink:href="#DejaVuSans-83"/>
    <use x="63.476562" xlink:href="#DejaVuSans-50"/>
    <use x="127.099609" xlink:href="#DejaVuSans-32"/>
    <use x="158.886719" xlink:href="#DejaVuSans-118"/>
    <use x="218.066406" xlink:href="#DejaVuSans-115"/>
    <use x="270.166016" xlink:href="#DejaVuSans-32"/>
    <use x="301.953125" xlink:href="#DejaVuSans-83"/>
    <use x="365.429688" xlink:href="#DejaVuSans-51"/>
   </g>
  </g>
 </g>
 <defs>
  <clipPath id="pd361837e34">
   <rect height="247.090909" width="255.531779" x="216.351757" y="86.4"/>
  </clipPath>
  <clipPath id="pe891a74d35">
   <rect height="247.090909" width="255.531779" x="610.23411" y="86.4"/>
  </clipPath>
  <clipPath id="p84dff9fa07">
   <rect height="247.090909" width="255.531779" x="1004.116463" y="86.4"/>
  </clipPath>
  <clipPath id="pf51679520e">
   <rect height="247.090909" width="255.531779" x="216.351757" y="382.909091"/>
  </clipPath>
  <clipPath id="p2d20c731ca">
   <rect height="247.090909" width="255.531779" x="610.23411" y="382.909091"/>
  </clipPath>
  <clipPath id="pe2d40e0934">
   <rect height="247.090909" width="255.531779" x="1004.116463" y="382.909091"/>
  </clipPath>
 </defs>
</svg>
