<?xml version="1.0" encoding="utf-8" standalone="no"?>
<!DOCTYPE svg PUBLIC "-//W3C//DTD SVG 1.1//EN"
  "http://www.w3.org/Graphics/SVG/1.1/DTD/svg11.dtd">
<!-- Created with matplotlib (https://matplotlib.org/) -->
<svg height="720pt" version="1.1" viewBox="0 0 1440 720" width="1440pt" xmlns="http://www.w3.org/2000/svg" xmlns:xlink="http://www.w3.org/1999/xlink">
 <defs>
  <style type="text/css">
*{stroke-linecap:butt;stroke-linejoin:round;}
  </style>
 </defs>
 <g id="figure_1">
  <g id="patch_1">
   <path d="M 0 720 
L 1440 720 
L 1440 0 
L 0 0 
z
" style="fill:#ffffff;"/>
  </g>
  <g id="axes_1">
   <g id="patch_2">
    <path clip-path="url(#p08c296ca60)" d="M 291.72791 281.474247 
C 276.839737 276.345351 263.917926 266.693924 254.774641 253.873486 
C 245.631356 241.053048 240.714975 225.692305 240.714975 209.945455 
C 240.714975 194.198604 245.631356 178.837861 254.774641 166.017423 
C 263.917926 153.196985 276.839737 143.545558 291.72791 138.416662 
C 280.750152 135.462312 269.238204 135.074423 258.086479 137.283134 
C 246.934754 139.491845 236.43974 144.238432 227.416839 151.154113 
C 218.393939 158.069793 211.083042 166.970703 206.052162 177.165291 
C 201.021283 187.359879 198.404176 198.577105 198.404176 209.945455 
C 198.404176 221.313804 201.021283 232.53103 206.052162 242.725618 
C 211.083042 252.920206 218.393939 261.821116 227.416839 268.736797 
C 236.43974 275.652477 246.934754 280.399065 258.086479 282.607775 
C 269.238204 284.816486 280.750152 284.428597 291.72791 281.474247 
" style="fill:#ff0000;opacity:0.4;"/>
   </g>
   <g id="patch_3">
    <path clip-path="url(#p08c296ca60)" d="M 370.186167 156.773143 
C 384.172153 170.928695 392.023416 190.046021 392.023416 209.945455 
C 392.023416 229.844888 384.172153 248.962214 370.186167 263.117766 
C 380.470658 272.403216 393.231539 278.508418 406.914798 280.689883 
C 420.598056 282.871348 434.624742 281.036778 447.286695 275.409584 
C 459.948647 269.782391 470.710129 260.600665 478.260614 248.982553 
C 485.811098 237.364441 489.831118 223.801513 489.831118 209.945455 
C 489.831118 196.089397 485.811098 182.526468 478.260614 170.908356 
C 470.710129 159.290244 459.948647 150.108518 447.286695 144.481325 
C 434.624742 138.854131 420.598056 137.019561 406.914798 139.201026 
C 393.231539 141.382491 380.470658 147.487693 370.186167 156.773143 
" style="fill:#008000;opacity:0.4;"/>
   </g>
   <g id="patch_4">
    <path clip-path="url(#p08c296ca60)" d="M 291.72791 281.474247 
C 305.205275 286.117127 319.724352 286.85774 333.604197 283.610343 
C 347.484041 280.362946 360.167507 273.257892 370.186167 263.117766 
C 362.747012 256.401256 356.799517 248.197721 352.729159 239.03886 
C 348.658801 229.88 346.55546 219.968056 346.55546 209.945455 
C 346.55546 199.922853 348.658801 190.010909 352.729159 180.852049 
C 356.799517 171.693188 362.747012 163.489654 370.186167 156.773143 
C 360.167507 146.633017 347.484041 139.527963 333.604197 136.280566 
C 319.724352 133.033169 305.205275 133.773782 291.72791 138.416662 
C 307.457583 142.649854 321.360066 151.955696 331.26932 164.884316 
C 341.178573 177.812936 346.551779 193.656117 346.551779 209.945455 
C 346.551779 226.234792 341.178573 242.077973 331.26932 255.006593 
C 321.360066 267.935213 307.457583 277.241055 291.72791 281.474247 
" style="fill:#0000ff;opacity:0.4;"/>
   </g>
   <g id="patch_5">
    <path clip-path="url(#p08c296ca60)" d="M 291.72791 281.474247 
C 307.457583 277.241055 321.360066 267.935213 331.26932 255.006593 
C 341.178573 242.077973 346.551779 226.234792 346.551779 209.945455 
C 346.551779 193.656117 341.178573 177.812936 331.26932 164.884316 
C 321.360066 151.955696 307.457583 142.649854 291.72791 138.416662 
C 276.839737 143.545558 263.917926 153.196985 254.774641 166.017423 
C 245.631356 178.837861 240.714975 194.198604 240.714975 209.945455 
C 240.714975 225.692305 245.631356 241.053048 254.774641 253.873486 
C 263.917926 266.693924 276.839737 276.345351 291.72791 281.474247 
" style="fill:#b200b2;opacity:0.4;"/>
   </g>
   <g id="patch_6">
    <path clip-path="url(#p08c296ca60)" d="M 370.186167 156.773143 
C 362.747012 163.489654 356.799517 171.693188 352.729159 180.852049 
C 348.658801 190.010909 346.55546 199.922853 346.55546 209.945455 
C 346.55546 219.968056 348.658801 229.88 352.729159 239.03886 
C 356.799517 248.197721 362.747012 256.401256 370.186167 263.117766 
C 384.172153 248.962214 392.023416 229.844888 392.023416 209.945455 
C 392.023416 190.046021 384.172153 170.928695 370.186167 156.773143 
" style="fill:#0059b2;opacity:0.4;"/>
   </g>
   <g id="text_1">
    <!-- 95 -->
    <defs>
     <path d="M 10.984375 1.515625 
L 10.984375 10.5 
Q 14.703125 8.734375 18.5 7.8125 
Q 22.3125 6.890625 25.984375 6.890625 
Q 35.75 6.890625 40.890625 13.453125 
Q 46.046875 20.015625 46.78125 33.40625 
Q 43.953125 29.203125 39.59375 26.953125 
Q 35.25 24.703125 29.984375 24.703125 
Q 19.046875 24.703125 12.671875 31.3125 
Q 6.296875 37.9375 6.296875 49.421875 
Q 6.296875 60.640625 12.9375 67.421875 
Q 19.578125 74.21875 30.609375 74.21875 
Q 43.265625 74.21875 49.921875 64.515625 
Q 56.59375 54.828125 56.59375 36.375 
Q 56.59375 19.140625 48.40625 8.859375 
Q 40.234375 -1.421875 26.421875 -1.421875 
Q 22.703125 -1.421875 18.890625 -0.6875 
Q 15.09375 0.046875 10.984375 1.515625 
z
M 30.609375 32.421875 
Q 37.25 32.421875 41.125 36.953125 
Q 45.015625 41.5 45.015625 49.421875 
Q 45.015625 57.28125 41.125 61.84375 
Q 37.25 66.40625 30.609375 66.40625 
Q 23.96875 66.40625 20.09375 61.84375 
Q 16.21875 57.28125 16.21875 49.421875 
Q 16.21875 41.5 20.09375 36.953125 
Q 23.96875 32.421875 30.609375 32.421875 
z
" id="DejaVuSans-57"/>
     <path d="M 10.796875 72.90625 
L 49.515625 72.90625 
L 49.515625 64.59375 
L 19.828125 64.59375 
L 19.828125 46.734375 
Q 21.96875 47.46875 24.109375 47.828125 
Q 26.265625 48.1875 28.421875 48.1875 
Q 40.625 48.1875 47.75 41.5 
Q 54.890625 34.8125 54.890625 23.390625 
Q 54.890625 11.625 47.5625 5.09375 
Q 40.234375 -1.421875 26.90625 -1.421875 
Q 22.3125 -1.421875 17.546875 -0.640625 
Q 12.796875 0.140625 7.71875 1.703125 
L 7.71875 11.625 
Q 12.109375 9.234375 16.796875 8.0625 
Q 21.484375 6.890625 26.703125 6.890625 
Q 35.15625 6.890625 40.078125 11.328125 
Q 45.015625 15.765625 45.015625 23.390625 
Q 45.015625 31 40.078125 35.4375 
Q 35.15625 39.890625 26.703125 39.890625 
Q 22.75 39.890625 18.8125 39.015625 
Q 14.890625 38.140625 10.796875 36.28125 
z
" id="DejaVuSans-53"/>
    </defs>
    <g transform="translate(213.197076 212.70483)scale(0.1 -0.1)">
     <use xlink:href="#DejaVuSans-57"/>
     <use x="63.623047" xlink:href="#DejaVuSans-53"/>
    </g>
   </g>
   <g id="text_2">
    <!-- 247 -->
    <defs>
     <path d="M 19.1875 8.296875 
L 53.609375 8.296875 
L 53.609375 0 
L 7.328125 0 
L 7.328125 8.296875 
Q 12.9375 14.109375 22.625 23.890625 
Q 32.328125 33.6875 34.8125 36.53125 
Q 39.546875 41.84375 41.421875 45.53125 
Q 43.3125 49.21875 43.3125 52.78125 
Q 43.3125 58.59375 39.234375 62.25 
Q 35.15625 65.921875 28.609375 65.921875 
Q 23.96875 65.921875 18.8125 64.3125 
Q 13.671875 62.703125 7.8125 59.421875 
L 7.8125 69.390625 
Q 13.765625 71.78125 18.9375 73 
Q 24.125 74.21875 28.421875 74.21875 
Q 39.75 74.21875 46.484375 68.546875 
Q 53.21875 62.890625 53.21875 53.421875 
Q 53.21875 48.921875 51.53125 44.890625 
Q 49.859375 40.875 45.40625 35.40625 
Q 44.1875 33.984375 37.640625 27.21875 
Q 31.109375 20.453125 19.1875 8.296875 
z
" id="DejaVuSans-50"/>
     <path d="M 37.796875 64.3125 
L 12.890625 25.390625 
L 37.796875 25.390625 
z
M 35.203125 72.90625 
L 47.609375 72.90625 
L 47.609375 25.390625 
L 58.015625 25.390625 
L 58.015625 17.1875 
L 47.609375 17.1875 
L 47.609375 0 
L 37.796875 0 
L 37.796875 17.1875 
L 4.890625 17.1875 
L 4.890625 26.703125 
z
" id="DejaVuSans-52"/>
     <path d="M 8.203125 72.90625 
L 55.078125 72.90625 
L 55.078125 68.703125 
L 28.609375 0 
L 18.3125 0 
L 43.21875 64.59375 
L 8.203125 64.59375 
z
" id="DejaVuSans-55"/>
    </defs>
    <g transform="translate(431.383517 212.70483)scale(0.1 -0.1)">
     <use xlink:href="#DejaVuSans-50"/>
     <use x="63.623047" xlink:href="#DejaVuSans-52"/>
     <use x="127.246094" xlink:href="#DejaVuSans-55"/>
    </g>
   </g>
   <g id="text_3">
    <!-- 11 -->
    <defs>
     <path d="M 12.40625 8.296875 
L 28.515625 8.296875 
L 28.515625 63.921875 
L 10.984375 60.40625 
L 10.984375 69.390625 
L 28.421875 72.90625 
L 38.28125 72.90625 
L 38.28125 8.296875 
L 54.390625 8.296875 
L 54.390625 0 
L 12.40625 0 
z
" id="DejaVuSans-49"/>
    </defs>
    <g transform="translate(335.73955 212.70483)scale(0.1 -0.1)">
     <use xlink:href="#DejaVuSans-49"/>
     <use x="63.623047" xlink:href="#DejaVuSans-49"/>
    </g>
   </g>
   <g id="text_4">
    <!-- 276 -->
    <defs>
     <path d="M 33.015625 40.375 
Q 26.375 40.375 22.484375 35.828125 
Q 18.609375 31.296875 18.609375 23.390625 
Q 18.609375 15.53125 22.484375 10.953125 
Q 26.375 6.390625 33.015625 6.390625 
Q 39.65625 6.390625 43.53125 10.953125 
Q 47.40625 15.53125 47.40625 23.390625 
Q 47.40625 31.296875 43.53125 35.828125 
Q 39.65625 40.375 33.015625 40.375 
z
M 52.59375 71.296875 
L 52.59375 62.3125 
Q 48.875 64.0625 45.09375 64.984375 
Q 41.3125 65.921875 37.59375 65.921875 
Q 27.828125 65.921875 22.671875 59.328125 
Q 17.53125 52.734375 16.796875 39.40625 
Q 19.671875 43.65625 24.015625 45.921875 
Q 28.375 48.1875 33.59375 48.1875 
Q 44.578125 48.1875 50.953125 41.515625 
Q 57.328125 34.859375 57.328125 23.390625 
Q 57.328125 12.15625 50.6875 5.359375 
Q 44.046875 -1.421875 33.015625 -1.421875 
Q 20.359375 -1.421875 13.671875 8.265625 
Q 6.984375 17.96875 6.984375 36.375 
Q 6.984375 53.65625 15.1875 63.9375 
Q 23.390625 74.21875 37.203125 74.21875 
Q 40.921875 74.21875 44.703125 73.484375 
Q 48.484375 72.75 52.59375 71.296875 
z
" id="DejaVuSans-54"/>
    </defs>
    <g transform="translate(284.089627 212.70483)scale(0.1 -0.1)">
     <use xlink:href="#DejaVuSans-50"/>
     <use x="63.623047" xlink:href="#DejaVuSans-55"/>
     <use x="127.246094" xlink:href="#DejaVuSans-54"/>
    </g>
   </g>
   <g id="text_5">
    <!-- 100 -->
    <defs>
     <path d="M 31.78125 66.40625 
Q 24.171875 66.40625 20.328125 58.90625 
Q 16.5 51.421875 16.5 36.375 
Q 16.5 21.390625 20.328125 13.890625 
Q 24.171875 6.390625 31.78125 6.390625 
Q 39.453125 6.390625 43.28125 13.890625 
Q 47.125 21.390625 47.125 36.375 
Q 47.125 51.421875 43.28125 58.90625 
Q 39.453125 66.40625 31.78125 66.40625 
z
M 31.78125 74.21875 
Q 44.046875 74.21875 50.515625 64.515625 
Q 56.984375 54.828125 56.984375 36.375 
Q 56.984375 17.96875 50.515625 8.265625 
Q 44.046875 -1.421875 31.78125 -1.421875 
Q 19.53125 -1.421875 13.0625 8.265625 
Q 6.59375 17.96875 6.59375 36.375 
Q 6.59375 54.828125 13.0625 64.515625 
Q 19.53125 74.21875 31.78125 74.21875 
z
" id="DejaVuSans-48"/>
    </defs>
    <g transform="translate(359.745688 212.70483)scale(0.1 -0.1)">
     <use xlink:href="#DejaVuSans-49"/>
     <use x="63.623047" xlink:href="#DejaVuSans-48"/>
     <use x="127.246094" xlink:href="#DejaVuSans-48"/>
    </g>
   </g>
   <g id="text_6">
    <!-- TOP -->
    <defs>
     <path d="M -0.296875 72.90625 
L 61.375 72.90625 
L 61.375 64.59375 
L 35.5 64.59375 
L 35.5 0 
L 25.59375 0 
L 25.59375 64.59375 
L -0.296875 64.59375 
z
" id="DejaVuSans-84"/>
     <path d="M 39.40625 66.21875 
Q 28.65625 66.21875 22.328125 58.203125 
Q 16.015625 50.203125 16.015625 36.375 
Q 16.015625 22.609375 22.328125 14.59375 
Q 28.65625 6.59375 39.40625 6.59375 
Q 50.140625 6.59375 56.421875 14.59375 
Q 62.703125 22.609375 62.703125 36.375 
Q 62.703125 50.203125 56.421875 58.203125 
Q 50.140625 66.21875 39.40625 66.21875 
z
M 39.40625 74.21875 
Q 54.734375 74.21875 63.90625 63.9375 
Q 73.09375 53.65625 73.09375 36.375 
Q 73.09375 19.140625 63.90625 8.859375 
Q 54.734375 -1.421875 39.40625 -1.421875 
Q 24.03125 -1.421875 14.8125 8.828125 
Q 5.609375 19.09375 5.609375 36.375 
Q 5.609375 53.65625 14.8125 63.9375 
Q 24.03125 74.21875 39.40625 74.21875 
z
" id="DejaVuSans-79"/>
     <path d="M 19.671875 64.796875 
L 19.671875 37.40625 
L 32.078125 37.40625 
Q 38.96875 37.40625 42.71875 40.96875 
Q 46.484375 44.53125 46.484375 51.125 
Q 46.484375 57.671875 42.71875 61.234375 
Q 38.96875 64.796875 32.078125 64.796875 
z
M 9.8125 72.90625 
L 32.078125 72.90625 
Q 44.34375 72.90625 50.609375 67.359375 
Q 56.890625 61.8125 56.890625 51.125 
Q 56.890625 40.328125 50.609375 34.8125 
Q 44.34375 29.296875 32.078125 29.296875 
L 19.671875 29.296875 
L 19.671875 0 
L 9.8125 0 
z
" id="DejaVuSans-80"/>
    </defs>
    <g transform="translate(260.472353 300.516243)scale(0.12 -0.12)">
     <use xlink:href="#DejaVuSans-84"/>
     <use x="61.083984" xlink:href="#DejaVuSans-79"/>
     <use x="139.794922" xlink:href="#DejaVuSans-80"/>
    </g>
   </g>
   <g id="text_7">
    <!-- BTM -->
    <defs>
     <path d="M 19.671875 34.8125 
L 19.671875 8.109375 
L 35.5 8.109375 
Q 43.453125 8.109375 47.28125 11.40625 
Q 51.125 14.703125 51.125 21.484375 
Q 51.125 28.328125 47.28125 31.5625 
Q 43.453125 34.8125 35.5 34.8125 
z
M 19.671875 64.796875 
L 19.671875 42.828125 
L 34.28125 42.828125 
Q 41.5 42.828125 45.03125 45.53125 
Q 48.578125 48.25 48.578125 53.8125 
Q 48.578125 59.328125 45.03125 62.0625 
Q 41.5 64.796875 34.28125 64.796875 
z
M 9.8125 72.90625 
L 35.015625 72.90625 
Q 46.296875 72.90625 52.390625 68.21875 
Q 58.5 63.53125 58.5 54.890625 
Q 58.5 48.1875 55.375 44.234375 
Q 52.25 40.28125 46.1875 39.3125 
Q 53.46875 37.75 57.5 32.78125 
Q 61.53125 27.828125 61.53125 20.40625 
Q 61.53125 10.640625 54.890625 5.3125 
Q 48.25 0 35.984375 0 
L 9.8125 0 
z
" id="DejaVuSans-66"/>
     <path d="M 9.8125 72.90625 
L 24.515625 72.90625 
L 43.109375 23.296875 
L 61.8125 72.90625 
L 76.515625 72.90625 
L 76.515625 0 
L 66.890625 0 
L 66.890625 64.015625 
L 48.09375 14.015625 
L 38.1875 14.015625 
L 19.390625 64.015625 
L 19.390625 0 
L 9.8125 0 
z
" id="DejaVuSans-77"/>
    </defs>
    <g transform="translate(405.235164 298.08027)scale(0.12 -0.12)">
     <use xlink:href="#DejaVuSans-66"/>
     <use x="68.603516" xlink:href="#DejaVuSans-84"/>
     <use x="129.6875" xlink:href="#DejaVuSans-77"/>
    </g>
   </g>
   <g id="text_8">
    <!-- S2 -->
    <defs>
     <path d="M 53.515625 70.515625 
L 53.515625 60.890625 
Q 47.90625 63.578125 42.921875 64.890625 
Q 37.9375 66.21875 33.296875 66.21875 
Q 25.25 66.21875 20.875 63.09375 
Q 16.5 59.96875 16.5 54.203125 
Q 16.5 49.359375 19.40625 46.890625 
Q 22.3125 44.4375 30.421875 42.921875 
L 36.375 41.703125 
Q 47.40625 39.59375 52.65625 34.296875 
Q 57.90625 29 57.90625 20.125 
Q 57.90625 9.515625 50.796875 4.046875 
Q 43.703125 -1.421875 29.984375 -1.421875 
Q 24.8125 -1.421875 18.96875 -0.25 
Q 13.140625 0.921875 6.890625 3.21875 
L 6.890625 13.375 
Q 12.890625 10.015625 18.65625 8.296875 
Q 24.421875 6.59375 29.984375 6.59375 
Q 38.421875 6.59375 43.015625 9.90625 
Q 47.609375 13.234375 47.609375 19.390625 
Q 47.609375 24.75 44.3125 27.78125 
Q 41.015625 30.8125 33.5 32.328125 
L 27.484375 33.5 
Q 16.453125 35.6875 11.515625 40.375 
Q 6.59375 45.0625 6.59375 53.421875 
Q 6.59375 63.09375 13.40625 68.65625 
Q 20.21875 74.21875 32.171875 74.21875 
Q 37.3125 74.21875 42.625 73.28125 
Q 47.953125 72.359375 53.515625 70.515625 
z
" id="DejaVuSans-83"/>
    </defs>
    <g transform="translate(308.742633 302.096662)scale(0.12 -0.12)">
     <use xlink:href="#DejaVuSans-83"/>
     <use x="63.476562" xlink:href="#DejaVuSans-50"/>
    </g>
   </g>
   <g id="text_9">
    <!-- 17152627 -->
    <g transform="translate(313.577647 109.887058)scale(0.12 -0.12)">
     <use xlink:href="#DejaVuSans-49"/>
     <use x="63.623047" xlink:href="#DejaVuSans-55"/>
     <use x="127.246094" xlink:href="#DejaVuSans-49"/>
     <use x="190.869141" xlink:href="#DejaVuSans-53"/>
     <use x="254.492188" xlink:href="#DejaVuSans-50"/>
     <use x="318.115234" xlink:href="#DejaVuSans-54"/>
     <use x="381.738281" xlink:href="#DejaVuSans-50"/>
     <use x="445.361328" xlink:href="#DejaVuSans-55"/>
    </g>
   </g>
  </g>
  <g id="axes_2">
   <g id="patch_7">
    <path clip-path="url(#p4d7fb24ec3)" d="M 653.747365 283.543048 
C 637.281555 279.503723 622.638218 270.053155 612.175039 256.712955 
C 601.71186 243.372755 596.022235 226.899482 596.022235 209.945455 
C 596.022235 192.991427 601.71186 176.518154 612.175039 163.177954 
C 622.638218 149.837754 637.281555 140.387186 653.747365 136.347861 
C 636.506506 139.469602 620.898957 148.55245 609.667398 162.000296 
C 598.435839 175.448143 592.279105 192.424254 592.279105 209.945455 
C 592.279105 227.466655 598.435839 244.442767 609.667398 257.890613 
C 620.898957 271.338459 636.506506 280.421307 653.747365 283.543048 
" style="fill:#ff0000;opacity:0.4;"/>
   </g>
   <g id="patch_8">
    <path clip-path="url(#p4d7fb24ec3)" d="M 744.82493 189.691279 
C 746.654408 196.287142 747.581813 203.100574 747.581813 209.945455 
C 747.581813 216.790336 746.654408 223.603767 744.82493 230.19963 
C 747.238146 238.298171 751.079425 245.900624 756.16726 252.647764 
C 761.255095 259.394905 767.50807 265.178763 774.630725 269.726044 
C 781.753379 274.273326 789.631733 277.511263 797.893527 279.286861 
C 806.15532 281.062458 814.668344 281.347302 823.030348 280.127932 
C 831.392352 278.908563 839.469524 276.204493 846.88021 272.143493 
C 854.290895 268.082494 860.916504 262.72955 866.44397 256.337595 
C 871.971437 249.945639 876.312307 242.616959 879.26147 234.697842 
C 882.210633 226.778725 883.720895 218.395897 883.720895 209.945455 
C 883.720895 201.495012 882.210633 193.112184 879.26147 185.193067 
C 876.312307 177.27395 871.971437 169.94527 866.44397 163.553314 
C 860.916504 157.161359 854.290895 151.808415 846.88021 147.747416 
C 839.469524 143.686416 831.392352 140.982346 823.030348 139.762977 
C 814.668344 138.543607 806.15532 138.828451 797.893527 140.604049 
C 789.631733 142.379646 781.753379 145.617584 774.630725 150.164865 
C 767.50807 154.712146 761.255095 160.496004 756.16726 167.243145 
C 751.079425 173.990286 747.238146 181.592738 744.82493 189.691279 
" style="fill:#008000;opacity:0.4;"/>
   </g>
   <g id="patch_9">
    <path clip-path="url(#p4d7fb24ec3)" d="M 653.747365 283.543048 
C 672.877602 288.235999 693.103519 285.290079 710.100289 275.335204 
C 727.097059 265.380329 739.560258 249.180488 744.82493 230.19963 
C 742.86629 223.626606 741.871413 216.804093 741.871413 209.945455 
C 741.871413 203.086816 742.86629 196.264303 744.82493 189.691279 
C 739.560258 170.710421 727.097059 154.510581 710.100289 144.555705 
C 693.103519 134.60083 672.877602 131.65491 653.747365 136.347861 
C 664.522479 134.39685 675.595743 134.835742 686.182641 137.633442 
C 696.769538 140.431143 706.614003 145.519984 715.018577 152.539433 
C 723.423152 159.558882 730.184552 168.339159 734.82375 178.2582 
C 739.462948 188.177241 741.867734 198.995134 741.867734 209.945455 
C 741.867734 220.895776 739.462948 231.713668 734.82375 241.632709 
C 730.184552 251.55175 723.423152 260.332027 715.018577 267.351476 
C 706.614003 274.370925 696.769538 279.459766 686.182641 282.257467 
C 675.595743 285.055167 664.522479 285.494059 653.747365 283.543048 
" style="fill:#0000ff;opacity:0.4;"/>
   </g>
   <g id="patch_10">
    <path clip-path="url(#p4d7fb24ec3)" d="M 653.747365 283.543048 
C 664.522479 285.494059 675.595743 285.055167 686.182641 282.257467 
C 696.769538 279.459766 706.614003 274.370925 715.018577 267.351476 
C 723.423152 260.332027 730.184552 251.55175 734.82375 241.632709 
C 739.462948 231.713668 741.867734 220.895776 741.867734 209.945455 
C 741.867734 198.995134 739.462948 188.177241 734.82375 178.2582 
C 730.184552 168.339159 723.423152 159.558882 715.018577 152.539433 
C 706.614003 145.519984 696.769538 140.431143 686.182641 137.633442 
C 675.595743 134.835742 664.522479 134.39685 653.747365 136.347861 
C 637.281555 140.387186 622.638218 149.837754 612.175039 163.177954 
C 601.71186 176.518154 596.022235 192.991427 596.022235 209.945455 
C 596.022235 226.899482 601.71186 243.372755 612.175039 256.712955 
C 622.638218 270.053155 637.281555 279.503723 653.747365 283.543048 
" style="fill:#b200b2;opacity:0.4;"/>
   </g>
   <g id="patch_11">
    <path clip-path="url(#p4d7fb24ec3)" d="M 744.82493 189.691279 
C 742.86629 196.264303 741.871413 203.086816 741.871413 209.945455 
C 741.871413 216.804093 742.86629 223.626606 744.82493 230.19963 
C 746.654408 223.603767 747.581813 216.790336 747.581813 209.945455 
C 747.581813 203.100574 746.654408 196.287142 744.82493 189.691279 
" style="fill:#0059b2;opacity:0.4;"/>
   </g>
   <g id="text_10">
    <!-- 5 -->
    <g transform="translate(590.96942 212.70483)scale(0.1 -0.1)">
     <use xlink:href="#DejaVuSans-53"/>
    </g>
   </g>
   <g id="text_11">
    <!-- 334 -->
    <defs>
     <path d="M 40.578125 39.3125 
Q 47.65625 37.796875 51.625 33 
Q 55.609375 28.21875 55.609375 21.1875 
Q 55.609375 10.40625 48.1875 4.484375 
Q 40.765625 -1.421875 27.09375 -1.421875 
Q 22.515625 -1.421875 17.65625 -0.515625 
Q 12.796875 0.390625 7.625 2.203125 
L 7.625 11.71875 
Q 11.71875 9.328125 16.59375 8.109375 
Q 21.484375 6.890625 26.8125 6.890625 
Q 36.078125 6.890625 40.9375 10.546875 
Q 45.796875 14.203125 45.796875 21.1875 
Q 45.796875 27.640625 41.28125 31.265625 
Q 36.765625 34.90625 28.71875 34.90625 
L 20.21875 34.90625 
L 20.21875 43.015625 
L 29.109375 43.015625 
Q 36.375 43.015625 40.234375 45.921875 
Q 44.09375 48.828125 44.09375 54.296875 
Q 44.09375 59.90625 40.109375 62.90625 
Q 36.140625 65.921875 28.71875 65.921875 
Q 24.65625 65.921875 20.015625 65.03125 
Q 15.375 64.15625 9.8125 62.3125 
L 9.8125 71.09375 
Q 15.4375 72.65625 20.34375 73.4375 
Q 25.25 74.21875 29.59375 74.21875 
Q 40.828125 74.21875 47.359375 69.109375 
Q 53.90625 64.015625 53.90625 55.328125 
Q 53.90625 49.265625 50.4375 45.09375 
Q 46.96875 40.921875 40.578125 39.3125 
z
" id="DejaVuSans-51"/>
    </defs>
    <g transform="translate(806.107604 212.70483)scale(0.1 -0.1)">
     <use xlink:href="#DejaVuSans-51"/>
     <use x="63.623047" xlink:href="#DejaVuSans-51"/>
     <use x="127.246094" xlink:href="#DejaVuSans-52"/>
    </g>
   </g>
   <g id="text_12">
    <!-- 10 -->
    <g transform="translate(721.834374 212.70483)scale(0.1 -0.1)">
     <use xlink:href="#DejaVuSans-49"/>
     <use x="63.623047" xlink:href="#DejaVuSans-48"/>
    </g>
   </g>
   <g id="text_13">
    <!-- 372 -->
    <g transform="translate(659.401234 212.70483)scale(0.1 -0.1)">
     <use xlink:href="#DejaVuSans-51"/>
     <use x="63.623047" xlink:href="#DejaVuSans-55"/>
     <use x="127.246094" xlink:href="#DejaVuSans-50"/>
    </g>
   </g>
   <g id="text_14">
    <!-- 5 -->
    <g transform="translate(741.545363 212.70483)scale(0.1 -0.1)">
     <use xlink:href="#DejaVuSans-53"/>
    </g>
   </g>
   <g id="text_15">
    <!-- TOP -->
    <g transform="translate(655.067794 301.241189)scale(0.12 -0.12)">
     <use xlink:href="#DejaVuSans-84"/>
     <use x="61.083984" xlink:href="#DejaVuSans-79"/>
     <use x="139.794922" xlink:href="#DejaVuSans-80"/>
    </g>
   </g>
   <g id="text_16">
    <!-- BTM -->
    <g transform="translate(799.838029 297.371615)scale(0.12 -0.12)">
     <use xlink:href="#DejaVuSans-66"/>
     <use x="68.603516" xlink:href="#DejaVuSans-84"/>
     <use x="129.6875" xlink:href="#DejaVuSans-77"/>
    </g>
   </g>
   <g id="text_17">
    <!-- S2 -->
    <g transform="translate(664.175462 302.226663)scale(0.12 -0.12)">
     <use xlink:href="#DejaVuSans-83"/>
     <use x="63.476562" xlink:href="#DejaVuSans-50"/>
    </g>
   </g>
   <g id="text_18">
    <!-- 17160843 -->
    <defs>
     <path d="M 31.78125 34.625 
Q 24.75 34.625 20.71875 30.859375 
Q 16.703125 27.09375 16.703125 20.515625 
Q 16.703125 13.921875 20.71875 10.15625 
Q 24.75 6.390625 31.78125 6.390625 
Q 38.8125 6.390625 42.859375 10.171875 
Q 46.921875 13.96875 46.921875 20.515625 
Q 46.921875 27.09375 42.890625 30.859375 
Q 38.875 34.625 31.78125 34.625 
z
M 21.921875 38.8125 
Q 15.578125 40.375 12.03125 44.71875 
Q 8.5 49.078125 8.5 55.328125 
Q 8.5 64.0625 14.71875 69.140625 
Q 20.953125 74.21875 31.78125 74.21875 
Q 42.671875 74.21875 48.875 69.140625 
Q 55.078125 64.0625 55.078125 55.328125 
Q 55.078125 49.078125 51.53125 44.71875 
Q 48 40.375 41.703125 38.8125 
Q 48.828125 37.15625 52.796875 32.3125 
Q 56.78125 27.484375 56.78125 20.515625 
Q 56.78125 9.90625 50.3125 4.234375 
Q 43.84375 -1.421875 31.78125 -1.421875 
Q 19.734375 -1.421875 13.25 4.234375 
Q 6.78125 9.90625 6.78125 20.515625 
Q 6.78125 27.484375 10.78125 32.3125 
Q 14.796875 37.15625 21.921875 38.8125 
z
M 18.3125 54.390625 
Q 18.3125 48.734375 21.84375 45.5625 
Q 25.390625 42.390625 31.78125 42.390625 
Q 38.140625 42.390625 41.71875 45.5625 
Q 45.3125 48.734375 45.3125 54.390625 
Q 45.3125 60.0625 41.71875 63.234375 
Q 38.140625 66.40625 31.78125 66.40625 
Q 25.390625 66.40625 21.84375 63.234375 
Q 18.3125 60.0625 18.3125 54.390625 
z
" id="DejaVuSans-56"/>
    </defs>
    <g transform="translate(707.46 109.768913)scale(0.12 -0.12)">
     <use xlink:href="#DejaVuSans-49"/>
     <use x="63.623047" xlink:href="#DejaVuSans-55"/>
     <use x="127.246094" xlink:href="#DejaVuSans-49"/>
     <use x="190.869141" xlink:href="#DejaVuSans-54"/>
     <use x="254.492188" xlink:href="#DejaVuSans-48"/>
     <use x="318.115234" xlink:href="#DejaVuSans-56"/>
     <use x="381.738281" xlink:href="#DejaVuSans-52"/>
     <use x="445.361328" xlink:href="#DejaVuSans-51"/>
    </g>
   </g>
  </g>
  <g id="axes_3">
   <g id="patch_12">
    <path clip-path="url(#p8dad912d9f)" d="M 1079.121015 280.717706 
C 1064.767161 275.2658 1052.405989 265.573962 1043.686876 252.935392 
C 1034.967763 240.296821 1030.296562 225.299815 1030.296562 209.945455 
C 1030.296562 194.591094 1034.967763 179.594088 1043.686876 166.955518 
C 1052.405989 154.316947 1064.767161 144.625109 1079.121015 139.173204 
C 1068.220274 136.162958 1056.770005 135.711508 1045.6661 137.854177 
C 1034.562195 139.996846 1024.102004 144.676255 1015.103953 151.526278 
C 1006.105901 158.376301 998.810949 167.213502 993.789865 177.346441 
C 988.768781 187.47938 986.156025 198.636708 986.156025 209.945455 
C 986.156025 221.254201 988.768781 232.411529 993.789865 242.544468 
C 998.810949 252.677407 1006.105901 261.514608 1015.103953 268.364631 
C 1024.102004 275.214655 1034.562195 279.894063 1045.6661 282.036732 
C 1056.770005 284.179401 1068.220274 283.727951 1079.121015 280.717706 
" style="fill:#ff0000;opacity:0.4;"/>
   </g>
   <g id="patch_13">
    <path clip-path="url(#p8dad912d9f)" d="M 1158.188897 155.102012 
C 1165.619928 162.173114 1171.536868 170.681309 1175.5796 180.10877 
C 1179.622332 189.536231 1181.707141 199.68774 1181.707141 209.945455 
C 1181.707141 220.203169 1179.622332 230.354678 1175.5796 239.782139 
C 1171.536868 249.2096 1165.619928 257.717795 1158.188897 264.788897 
C 1168.681747 273.803398 1181.544456 279.620027 1195.243178 281.545166 
C 1208.941901 283.470304 1222.909583 281.424262 1235.480617 275.651025 
C 1248.05165 269.877788 1258.705661 260.616336 1266.172187 248.971074 
C 1273.638713 237.325811 1277.608681 223.778789 1277.608681 209.945455 
C 1277.608681 196.11212 1273.638713 182.565098 1266.172187 170.919835 
C 1258.705661 159.274573 1248.05165 150.013121 1235.480617 144.239884 
C 1222.909583 138.466647 1208.941901 136.420605 1195.243178 138.345744 
C 1181.544456 140.270882 1168.681747 146.087511 1158.188897 155.102012 
" style="fill:#008000;opacity:0.4;"/>
   </g>
   <g id="patch_14">
    <path clip-path="url(#p8dad912d9f)" d="M 1079.121015 280.717706 
C 1092.460522 285.78434 1106.964588 286.977768 1120.952864 284.159726 
C 1134.941141 281.341685 1147.851731 274.625372 1158.188897 264.788897 
C 1150.288253 258.001384 1143.946802 249.586108 1139.599814 240.120686 
C 1135.252827 230.655265 1133.002089 220.361332 1133.002089 209.945455 
C 1133.002089 199.529577 1135.252827 189.235645 1139.599814 179.770223 
C 1143.946802 170.304801 1150.288253 161.889525 1158.188897 155.102012 
C 1147.851731 145.265537 1134.941141 138.549225 1120.952864 135.731183 
C 1106.964588 132.913142 1092.460522 134.106569 1079.121015 139.173204 
C 1094.605127 143.44915 1108.266183 152.690781 1117.996395 165.472189 
C 1127.726606 178.253598 1132.99841 193.881787 1132.99841 209.945455 
C 1132.99841 226.009122 1127.726606 241.637311 1117.996395 254.41872 
C 1108.266183 267.200128 1094.605127 276.441759 1079.121015 280.717706 
" style="fill:#0000ff;opacity:0.4;"/>
   </g>
   <g id="patch_15">
    <path clip-path="url(#p8dad912d9f)" d="M 1079.121015 280.717706 
C 1094.605127 276.441759 1108.266183 267.200128 1117.996395 254.41872 
C 1127.726606 241.637311 1132.99841 226.009122 1132.99841 209.945455 
C 1132.99841 193.881787 1127.726606 178.253598 1117.996395 165.472189 
C 1108.266183 152.690781 1094.605127 143.44915 1079.121015 139.173204 
C 1064.767161 144.625109 1052.405989 154.316947 1043.686876 166.955518 
C 1034.967763 179.594088 1030.296562 194.591094 1030.296562 209.945455 
C 1030.296562 225.299815 1034.967763 240.296821 1043.686876 252.935392 
C 1052.405989 265.573962 1064.767161 275.2658 1079.121015 280.717706 
" style="fill:#b200b2;opacity:0.4;"/>
   </g>
   <g id="patch_16">
    <path clip-path="url(#p8dad912d9f)" d="M 1158.188897 155.102012 
C 1150.288253 161.889525 1143.946802 170.304801 1139.599814 179.770223 
C 1135.252827 189.235645 1133.002089 199.529577 1133.002089 209.945455 
C 1133.002089 220.361332 1135.252827 230.655265 1139.599814 240.120686 
C 1143.946802 249.586108 1150.288253 258.001384 1158.188897 264.788897 
C 1165.619928 257.717795 1171.536868 249.2096 1175.5796 239.782139 
C 1179.622332 230.354678 1181.707141 220.203169 1181.707141 209.945455 
C 1181.707141 199.68774 1179.622332 189.536231 1175.5796 180.10877 
C 1171.536868 170.681309 1165.619928 162.173114 1158.188897 155.102012 
" style="fill:#0059b2;opacity:0.4;"/>
   </g>
   <g id="text_19">
    <!-- 97 -->
    <g transform="translate(1001.863794 212.70483)scale(0.1 -0.1)">
     <use xlink:href="#DejaVuSans-57"/>
     <use x="63.623047" xlink:href="#DejaVuSans-55"/>
    </g>
   </g>
   <g id="text_20">
    <!-- 243 -->
    <g transform="translate(1220.114161 212.70483)scale(0.1 -0.1)">
     <use xlink:href="#DejaVuSans-50"/>
     <use x="63.623047" xlink:href="#DejaVuSans-52"/>
     <use x="127.246094" xlink:href="#DejaVuSans-51"/>
    </g>
   </g>
   <g id="text_21">
    <!-- 10 -->
    <g transform="translate(1122.518132 212.70483)scale(0.1 -0.1)">
     <use xlink:href="#DejaVuSans-49"/>
     <use x="63.623047" xlink:href="#DejaVuSans-48"/>
    </g>
   </g>
   <g id="text_22">
    <!-- 267 -->
    <g transform="translate(1072.103736 212.70483)scale(0.1 -0.1)">
     <use xlink:href="#DejaVuSans-50"/>
     <use x="63.623047" xlink:href="#DejaVuSans-54"/>
     <use x="127.246094" xlink:href="#DejaVuSans-55"/>
    </g>
   </g>
   <g id="text_23">
    <!-- 110 -->
    <g transform="translate(1147.810865 212.70483)scale(0.1 -0.1)">
     <use xlink:href="#DejaVuSans-49"/>
     <use x="63.623047" xlink:href="#DejaVuSans-49"/>
     <use x="127.246094" xlink:href="#DejaVuSans-48"/>
    </g>
   </g>
   <g id="text_24">
    <!-- TOP -->
    <g transform="translate(1047.571593 299.865765)scale(0.12 -0.12)">
     <use xlink:href="#DejaVuSans-84"/>
     <use x="61.083984" xlink:href="#DejaVuSans-79"/>
     <use x="139.794922" xlink:href="#DejaVuSans-80"/>
    </g>
   </g>
   <g id="text_25">
    <!-- BTM -->
    <g transform="translate(1192.34726 298.747868)scale(0.12 -0.12)">
     <use xlink:href="#DejaVuSans-66"/>
     <use x="68.603516" xlink:href="#DejaVuSans-84"/>
     <use x="129.6875" xlink:href="#DejaVuSans-77"/>
    </g>
   </g>
   <g id="text_26">
    <!-- S2 -->
    <g transform="translate(1098.375289 302.149862)scale(0.12 -0.12)">
     <use xlink:href="#DejaVuSans-83"/>
     <use x="63.476562" xlink:href="#DejaVuSans-50"/>
    </g>
   </g>
   <g id="text_27">
    <!-- 17171479 -->
    <g transform="translate(1101.342353 109.848846)scale(0.12 -0.12)">
     <use xlink:href="#DejaVuSans-49"/>
     <use x="63.623047" xlink:href="#DejaVuSans-55"/>
     <use x="127.246094" xlink:href="#DejaVuSans-49"/>
     <use x="190.869141" xlink:href="#DejaVuSans-55"/>
     <use x="254.492188" xlink:href="#DejaVuSans-49"/>
     <use x="318.115234" xlink:href="#DejaVuSans-52"/>
     <use x="381.738281" xlink:href="#DejaVuSans-55"/>
     <use x="445.361328" xlink:href="#DejaVuSans-57"/>
    </g>
   </g>
  </g>
  <g id="axes_4">
   <g id="patch_17">
    <path clip-path="url(#p1787c9d746)" d="M 325.064337 558.633693 
C 317.946804 551.933856 312.274805 543.848017 308.398119 534.874813 
C 304.521433 525.901609 302.521421 516.229364 302.521421 506.454545 
C 302.521421 496.679727 304.521433 487.007481 308.398119 478.034278 
C 312.274805 469.061074 317.946804 460.975235 325.064337 454.275398 
C 319.923466 449.092232 314.044708 444.697151 307.618834 441.232777 
C 301.192959 437.768403 294.290235 435.27262 287.134659 433.826418 
C 279.979084 432.380216 272.648906 431.999409 265.381993 432.696356 
C 258.11508 433.393302 250.990898 435.160379 244.240632 437.940246 
C 237.490365 440.720112 231.18783 444.482369 225.537546 449.104928 
C 219.887263 453.727488 214.951019 459.159801 210.888999 465.225586 
C 206.826979 471.291371 203.683602 477.924297 201.560872 484.909121 
C 199.438142 491.893946 198.359272 499.154288 198.359272 506.454545 
C 198.359272 513.754803 199.438142 521.015145 201.560872 527.999969 
C 203.683602 534.984794 206.826979 541.61772 210.888999 547.683505 
C 214.951019 553.74929 219.887263 559.181603 225.537546 563.804163 
C 231.18783 568.426722 237.490365 572.188979 244.240632 574.968845 
C 250.990898 577.748711 258.11508 579.515789 265.381993 580.212735 
C 272.648906 580.909681 279.979084 580.528875 287.134659 579.082673 
C 294.290235 577.636471 301.192959 575.140688 307.618834 571.676314 
C 314.044708 568.21194 319.923466 563.816859 325.064337 558.633693 
" style="fill:#ff0000;opacity:0.4;"/>
   </g>
   <g id="patch_18">
    <path clip-path="url(#p1787c9d746)" d="M 396.198722 438.260874 
C 410.619217 442.916756 423.197853 452.028901 432.116236 464.280038 
C 441.034618 476.531176 445.841237 491.301067 445.841237 506.454545 
C 445.841237 521.608024 441.034618 536.377915 432.116236 548.629053 
C 423.197853 560.88019 410.619217 569.992335 396.198722 574.648217 
C 406.949158 578.119164 418.369551 578.999278 429.524867 577.216502 
C 440.680182 575.433727 451.257435 571.03808 460.390621 564.389452 
C 469.523808 557.740824 476.956678 549.025755 482.080673 538.957785 
C 487.204668 528.889814 489.876022 517.751419 489.876022 506.454545 
C 489.876022 495.157672 487.204668 484.019277 482.080673 473.951306 
C 476.956678 463.883336 469.523808 455.168267 460.390621 448.519639 
C 451.257435 441.871011 440.680182 437.475364 429.524867 435.692589 
C 418.369551 433.909813 406.949158 434.789927 396.198722 438.260874 
" style="fill:#008000;opacity:0.4;"/>
   </g>
   <g id="patch_19">
    <path clip-path="url(#p1787c9d746)" d="M 325.064337 558.633693 
C 334.402425 567.423771 345.931154 573.548028 358.442418 576.364696 
C 370.953683 579.181364 383.994642 578.588495 396.198722 574.648217 
C 381.778227 569.992335 369.199591 560.88019 360.281208 548.629053 
C 351.362825 536.377915 346.556206 521.608024 346.556206 506.454545 
C 346.556206 491.301067 351.362825 476.531176 360.281208 464.280038 
C 369.199591 452.028901 381.778227 442.916756 396.198722 438.260874 
C 383.994642 434.320596 370.953683 433.727727 358.442418 436.544395 
C 345.931154 439.361063 334.402425 445.485319 325.064337 454.275398 
C 338.823881 468.148143 346.552534 486.915402 346.552534 506.454545 
C 346.552534 525.993689 338.823881 544.760947 325.064337 558.633693 
" style="fill:#0000ff;opacity:0.4;"/>
   </g>
   <g id="patch_20">
    <path clip-path="url(#p1787c9d746)" d="M 325.064337 558.633693 
C 338.823881 544.760947 346.552534 525.993689 346.552534 506.454545 
C 346.552534 486.915402 338.823881 468.148143 325.064337 454.275398 
C 317.946804 460.975235 312.274805 469.061074 308.398119 478.034278 
C 304.521433 487.007481 302.521421 496.679727 302.521421 506.454545 
C 302.521421 516.229364 304.521433 525.901609 308.398119 534.874813 
C 312.274805 543.848017 317.946804 551.933856 325.064337 558.633693 
" style="fill:#b200b2;opacity:0.4;"/>
   </g>
   <g id="patch_21">
    <path clip-path="url(#p1787c9d746)" d="M 396.198722 438.260874 
C 381.778227 442.916756 369.199591 452.028901 360.281208 464.280038 
C 351.362825 476.531176 346.556206 491.301067 346.556206 506.454545 
C 346.556206 521.608024 351.362825 536.377915 360.281208 548.629053 
C 369.199591 560.88019 381.778227 569.992335 396.198722 574.648217 
C 410.619217 569.992335 423.197853 560.88019 432.116236 548.629053 
C 441.034618 536.377915 445.841237 521.608024 445.841237 506.454545 
C 445.841237 491.301067 441.034618 476.531176 432.116236 464.280038 
C 423.197853 452.028901 410.619217 442.916756 396.198722 438.260874 
" style="fill:#0059b2;opacity:0.4;"/>
   </g>
   <g id="text_28">
    <!-- 277 -->
    <g transform="translate(240.896596 509.21392)scale(0.1 -0.1)">
     <use xlink:href="#DejaVuSans-50"/>
     <use x="63.623047" xlink:href="#DejaVuSans-55"/>
     <use x="127.246094" xlink:href="#DejaVuSans-55"/>
    </g>
   </g>
   <g id="text_29">
    <!-- 101 -->
    <g transform="translate(458.31488 509.21392)scale(0.1 -0.1)">
     <use xlink:href="#DejaVuSans-49"/>
     <use x="63.623047" xlink:href="#DejaVuSans-48"/>
     <use x="127.246094" xlink:href="#DejaVuSans-49"/>
    </g>
   </g>
   <g id="text_30">
    <!-- 7 -->
    <g transform="translate(347.457439 509.21392)scale(0.1 -0.1)">
     <use xlink:href="#DejaVuSans-55"/>
    </g>
   </g>
   <g id="text_31">
    <!-- 94 -->
    <g transform="translate(318.174478 509.21392)scale(0.1 -0.1)">
     <use xlink:href="#DejaVuSans-57"/>
     <use x="63.623047" xlink:href="#DejaVuSans-52"/>
    </g>
   </g>
   <g id="text_32">
    <!-- 246 -->
    <g transform="translate(386.654972 509.21392)scale(0.1 -0.1)">
     <use xlink:href="#DejaVuSans-50"/>
     <use x="63.623047" xlink:href="#DejaVuSans-52"/>
     <use x="127.246094" xlink:href="#DejaVuSans-54"/>
    </g>
   </g>
   <g id="text_33">
    <!-- TOP -->
    <g transform="translate(260.450278 596.916517)scale(0.12 -0.12)">
     <use xlink:href="#DejaVuSans-84"/>
     <use x="61.083984" xlink:href="#DejaVuSans-79"/>
     <use x="139.794922" xlink:href="#DejaVuSans-80"/>
    </g>
   </g>
   <g id="text_34">
    <!-- BTM -->
    <g transform="translate(405.257989 594.479793)scale(0.12 -0.12)">
     <use xlink:href="#DejaVuSans-66"/>
     <use x="68.603516" xlink:href="#DejaVuSans-84"/>
     <use x="129.6875" xlink:href="#DejaVuSans-77"/>
    </g>
   </g>
   <g id="text_35">
    <!-- S3 -->
    <g transform="translate(366.554767 594.479793)scale(0.12 -0.12)">
     <use xlink:href="#DejaVuSans-83"/>
     <use x="63.476562" xlink:href="#DejaVuSans-51"/>
    </g>
   </g>
   <g id="text_36">
    <!-- 17152627 -->
    <g transform="translate(313.577647 407.998642)scale(0.12 -0.12)">
     <use xlink:href="#DejaVuSans-49"/>
     <use x="63.623047" xlink:href="#DejaVuSans-55"/>
     <use x="127.246094" xlink:href="#DejaVuSans-49"/>
     <use x="190.869141" xlink:href="#DejaVuSans-53"/>
     <use x="254.492188" xlink:href="#DejaVuSans-50"/>
     <use x="318.115234" xlink:href="#DejaVuSans-54"/>
     <use x="381.738281" xlink:href="#DejaVuSans-50"/>
     <use x="445.361328" xlink:href="#DejaVuSans-55"/>
    </g>
   </g>
  </g>
  <g id="axes_5">
   <g id="patch_22">
    <path clip-path="url(#p4fca00d465)" d="M 739.310467 525.845225 
C 737.539089 519.533979 736.640854 513.009666 736.640854 506.454545 
C 736.640854 499.899425 737.539089 493.375112 739.310467 487.063866 
C 736.977855 478.374075 733.096256 470.176066 727.852582 462.864607 
C 722.608909 455.553147 716.088703 449.247509 708.605937 444.251335 
C 701.123171 439.25516 692.799913 435.649951 684.03696 433.609314 
C 675.274006 431.568677 666.21431 431.125899 657.294129 432.302304 
C 648.373949 433.478708 639.7388 436.255104 631.8045 440.497796 
C 623.870201 444.740488 616.766183 450.380265 610.834533 457.14555 
C 604.902883 463.910834 600.240364 471.691264 597.071496 480.11218 
C 593.902629 488.533096 592.279105 497.457126 592.279105 506.454545 
C 592.279105 515.451964 593.902629 524.375995 597.071496 532.796911 
C 600.240364 541.217827 604.902883 548.998257 610.834533 555.763541 
C 616.766183 562.528826 623.870201 568.168603 631.8045 572.411295 
C 639.7388 576.653987 648.373949 579.430382 657.294129 580.606787 
C 666.21431 581.783192 675.274006 581.340414 684.03696 579.299777 
C 692.799913 577.259139 701.123171 573.653931 708.605937 568.657756 
C 716.088703 563.661581 722.608909 557.355944 727.852582 550.044484 
C 733.096256 542.733025 736.977855 534.535016 739.310467 525.845225 
" style="fill:#ff0000;opacity:0.4;"/>
   </g>
   <g id="patch_23">
    <path clip-path="url(#p4fca00d465)" d="M 824.090987 436.434936 
C 839.9971 439.999952 854.223319 448.880728 864.411582 461.605235 
C 874.599846 474.329742 880.154317 490.153816 880.154317 506.454545 
C 880.154317 522.755275 874.599846 538.579349 864.411582 551.303856 
C 854.223319 564.028363 839.9971 572.909139 824.090987 576.474154 
C 840.724402 573.791025 855.869486 565.26676 866.793385 552.43952 
C 877.717285 539.61228 883.720895 523.302978 883.720895 506.454545 
C 883.720895 489.606113 877.717285 473.296811 866.793385 460.469571 
C 855.869486 447.64233 840.724402 439.118065 824.090987 436.434936 
" style="fill:#008000;opacity:0.4;"/>
   </g>
   <g id="patch_24">
    <path clip-path="url(#p4fca00d465)" d="M 739.310467 525.845225 
C 744.273224 543.527049 755.839511 558.64605 771.607038 568.062046 
C 787.374564 577.478041 806.170506 580.490648 824.090987 576.474154 
C 813.953021 578.109505 803.579789 577.523739 793.690379 574.757461 
C 783.800969 571.991183 774.629304 567.109827 766.811179 560.451777 
C 758.993054 553.793726 752.713397 545.51647 748.407524 536.1938 
C 744.101651 526.87113 741.871413 516.723563 741.871413 506.454545 
C 741.871413 496.185528 744.101651 486.037961 748.407524 476.715291 
C 752.713397 467.392621 758.993054 459.115365 766.811179 452.457314 
C 774.629304 445.799264 783.800969 440.917908 793.690379 438.15163 
C 803.579789 435.385352 813.953021 434.799586 824.090987 436.434936 
C 806.170506 432.418443 787.374564 435.43105 771.607038 444.847045 
C 755.839511 454.263041 744.273224 469.382042 739.310467 487.063866 
C 741.007954 493.3876 741.867734 499.906945 741.867734 506.454545 
C 741.867734 513.002146 741.007954 519.521491 739.310467 525.845225 
" style="fill:#0000ff;opacity:0.4;"/>
   </g>
   <g id="patch_25">
    <path clip-path="url(#p4fca00d465)" d="M 739.310467 525.845225 
C 741.007954 519.521491 741.867734 513.002146 741.867734 506.454545 
C 741.867734 499.906945 741.007954 493.3876 739.310467 487.063866 
C 737.539089 493.375112 736.640854 499.899425 736.640854 506.454545 
C 736.640854 513.009666 737.539089 519.533979 739.310467 525.845225 
" style="fill:#b200b2;opacity:0.4;"/>
   </g>
   <g id="patch_26">
    <path clip-path="url(#p4fca00d465)" d="M 824.090987 436.434936 
C 813.953021 434.799586 803.579789 435.385352 793.690379 438.15163 
C 783.800969 440.917908 774.629304 445.799264 766.811179 452.457314 
C 758.993054 459.115365 752.713397 467.392621 748.407524 476.715291 
C 744.101651 486.037961 741.871413 496.185528 741.871413 506.454545 
C 741.871413 516.723563 744.101651 526.87113 748.407524 536.1938 
C 752.713397 545.51647 758.993054 553.793726 766.811179 560.451777 
C 774.629304 567.109827 783.800969 571.991183 793.690379 574.757461 
C 803.579789 577.523739 813.953021 578.109505 824.090987 576.474154 
C 839.9971 572.909139 854.223319 564.028363 864.411582 551.303856 
C 874.599846 538.579349 880.154317 522.755275 880.154317 506.454545 
C 880.154317 490.153816 874.599846 474.329742 864.411582 461.605235 
C 854.223319 448.880728 839.9971 439.999952 824.090987 436.434936 
" style="fill:#0059b2;opacity:0.4;"/>
   </g>
   <g id="text_37">
    <!-- 373 -->
    <g transform="translate(654.91623 509.21392)scale(0.1 -0.1)">
     <use xlink:href="#DejaVuSans-51"/>
     <use x="63.623047" xlink:href="#DejaVuSans-55"/>
     <use x="127.246094" xlink:href="#DejaVuSans-51"/>
    </g>
   </g>
   <g id="text_38">
    <!-- 6 -->
    <g transform="translate(878.756356 509.21392)scale(0.1 -0.1)">
     <use xlink:href="#DejaVuSans-54"/>
    </g>
   </g>
   <g id="text_39">
    <!-- 10 -->
    <g transform="translate(748.363405 509.21392)scale(0.1 -0.1)">
     <use xlink:href="#DejaVuSans-49"/>
     <use x="63.623047" xlink:href="#DejaVuSans-48"/>
    </g>
   </g>
   <g id="text_40">
    <!-- 4 -->
    <g transform="translate(736.073044 509.21392)scale(0.1 -0.1)">
     <use xlink:href="#DejaVuSans-52"/>
    </g>
   </g>
   <g id="text_41">
    <!-- 333 -->
    <g transform="translate(801.469115 509.21392)scale(0.1 -0.1)">
     <use xlink:href="#DejaVuSans-51"/>
     <use x="63.623047" xlink:href="#DejaVuSans-51"/>
     <use x="127.246094" xlink:href="#DejaVuSans-51"/>
    </g>
   </g>
   <g id="text_42">
    <!-- TOP -->
    <g transform="translate(655.067794 597.616178)scale(0.12 -0.12)">
     <use xlink:href="#DejaVuSans-84"/>
     <use x="61.083984" xlink:href="#DejaVuSans-79"/>
     <use x="139.794922" xlink:href="#DejaVuSans-80"/>
    </g>
   </g>
   <g id="text_43">
    <!-- BTM -->
    <g transform="translate(799.838029 593.746604)scale(0.12 -0.12)">
     <use xlink:href="#DejaVuSans-66"/>
     <use x="68.603516" xlink:href="#DejaVuSans-84"/>
     <use x="129.6875" xlink:href="#DejaVuSans-77"/>
    </g>
   </g>
   <g id="text_44">
    <!-- S3 -->
    <g transform="translate(800.771023 594.578595)scale(0.12 -0.12)">
     <use xlink:href="#DejaVuSans-83"/>
     <use x="63.476562" xlink:href="#DejaVuSans-51"/>
    </g>
   </g>
   <g id="text_45">
    <!-- 17160843 -->
    <g transform="translate(707.46 407.263479)scale(0.12 -0.12)">
     <use xlink:href="#DejaVuSans-49"/>
     <use x="63.623047" xlink:href="#DejaVuSans-55"/>
     <use x="127.246094" xlink:href="#DejaVuSans-49"/>
     <use x="190.869141" xlink:href="#DejaVuSans-54"/>
     <use x="254.492188" xlink:href="#DejaVuSans-48"/>
     <use x="318.115234" xlink:href="#DejaVuSans-56"/>
     <use x="381.738281" xlink:href="#DejaVuSans-52"/>
     <use x="445.361328" xlink:href="#DejaVuSans-51"/>
    </g>
   </g>
  </g>
  <g id="axes_6">
   <g id="patch_27">
    <path clip-path="url(#peff9efab9c)" d="M 1110.827851 559.03367 
C 1103.588317 552.322253 1097.812317 544.187399 1093.862654 535.140072 
C 1089.91299 526.092745 1087.874126 516.326423 1087.874126 506.454545 
C 1087.874126 496.582668 1089.91299 486.816345 1093.862654 477.769019 
C 1097.812317 468.721692 1103.588317 460.586838 1110.827851 453.875421 
C 1100.486693 443.793354 1087.397401 436.982685 1073.206182 434.299973 
C 1059.014963 431.617262 1044.342781 433.179895 1031.034916 438.791345 
C 1017.727051 444.402795 1006.365815 453.817522 998.380081 465.851461 
C 990.394346 477.8854 986.133544 492.011982 986.133544 506.454545 
C 986.133544 520.897109 990.394346 535.023691 998.380081 547.05763 
C 1006.365815 559.091568 1017.727051 568.506296 1031.034916 574.117746 
C 1044.342781 579.729196 1059.014963 581.291829 1073.206182 578.609118 
C 1087.397401 575.926406 1100.486693 569.115737 1110.827851 559.03367 
" style="fill:#ff0000;opacity:0.4;"/>
   </g>
   <g id="patch_28">
    <path clip-path="url(#peff9efab9c)" d="M 1181.472526 438.184239 
C 1195.931038 442.822538 1208.548969 451.936175 1217.496962 464.203848 
C 1226.444955 476.471521 1231.26862 491.270265 1231.26862 506.454545 
C 1231.26862 521.638826 1226.444955 536.43757 1217.496962 548.705243 
C 1208.548969 560.972916 1195.931038 570.086553 1181.472526 574.724852 
C 1192.371848 578.531565 1204.025952 579.673396 1215.456854 578.054527 
C 1226.887757 576.435658 1237.766506 572.102675 1247.180184 565.419192 
C 1256.593861 558.735708 1264.271565 549.894058 1269.569002 539.636211 
C 1274.866439 529.378363 1277.631162 517.999513 1277.631162 506.454545 
C 1277.631162 494.909578 1274.866439 483.530728 1269.569002 473.27288 
C 1264.271565 463.015033 1256.593861 454.173383 1247.180184 447.489899 
C 1237.766506 440.806416 1226.887757 436.473433 1215.456854 434.854564 
C 1204.025952 433.235695 1192.371848 434.377526 1181.472526 438.184239 
" style="fill:#008000;opacity:0.4;"/>
   </g>
   <g id="patch_29">
    <path clip-path="url(#peff9efab9c)" d="M 1110.827851 559.03367 
C 1120.152923 567.678486 1131.612049 573.688921 1144.025264 576.446072 
C 1156.43848 579.203223 1169.364574 578.60909 1181.472526 574.724852 
C 1167.312134 569.779174 1155.035241 560.548262 1146.352064 548.318019 
C 1137.668887 536.087775 1133.002259 521.45376 1133.002259 506.454545 
C 1133.002259 491.455331 1137.668887 476.821316 1146.352064 464.591072 
C 1155.035241 452.360829 1167.312134 443.129917 1181.472526 438.184239 
C 1169.364574 434.300001 1156.43848 433.705868 1144.025264 436.463019 
C 1131.612049 439.22017 1120.152923 445.230605 1110.827851 453.875421 
C 1117.844726 460.716492 1123.421679 468.893498 1127.229265 477.923397 
C 1131.03685 486.953296 1132.998585 496.65471 1132.998585 506.454545 
C 1132.998585 516.254381 1131.03685 525.955795 1127.229265 534.985694 
C 1123.421679 544.015593 1117.844726 552.192599 1110.827851 559.03367 
" style="fill:#0000ff;opacity:0.4;"/>
   </g>
   <g id="patch_30">
    <path clip-path="url(#peff9efab9c)" d="M 1110.827851 559.03367 
C 1117.844726 552.192599 1123.421679 544.015593 1127.229265 534.985694 
C 1131.03685 525.955795 1132.998585 516.254381 1132.998585 506.454545 
C 1132.998585 496.65471 1131.03685 486.953296 1127.229265 477.923397 
C 1123.421679 468.893498 1117.844726 460.716492 1110.827851 453.875421 
C 1103.588317 460.586838 1097.812317 468.721692 1093.862654 477.769019 
C 1089.91299 486.816345 1087.874126 496.582668 1087.874126 506.454545 
C 1087.874126 516.326423 1089.91299 526.092745 1093.862654 535.140072 
C 1097.812317 544.187399 1103.588317 552.322253 1110.827851 559.03367 
" style="fill:#b200b2;opacity:0.4;"/>
   </g>
   <g id="patch_31">
    <path clip-path="url(#peff9efab9c)" d="M 1181.472526 438.184239 
C 1167.312134 443.129917 1155.035241 452.360829 1146.352064 464.591072 
C 1137.668887 476.821316 1133.002259 491.455331 1133.002259 506.454545 
C 1133.002259 521.45376 1137.668887 536.087775 1146.352064 548.318019 
C 1155.035241 560.548262 1167.312134 569.779174 1181.472526 574.724852 
C 1195.931038 570.086553 1208.548969 560.972916 1217.496962 548.705243 
C 1226.444955 536.43757 1231.26862 521.638826 1231.26862 506.454545 
C 1231.26862 491.270265 1226.444955 476.471521 1217.496962 464.203848 
C 1208.548969 451.936175 1195.931038 442.822538 1181.472526 438.184239 
" style="fill:#0059b2;opacity:0.4;"/>
   </g>
   <g id="text_46">
    <!-- 268 -->
    <g transform="translate(1027.460085 509.21392)scale(0.1 -0.1)">
     <use xlink:href="#DejaVuSans-50"/>
     <use x="63.623047" xlink:href="#DejaVuSans-54"/>
     <use x="127.246094" xlink:href="#DejaVuSans-56"/>
    </g>
   </g>
   <g id="text_47">
    <!-- 110 -->
    <g transform="translate(1244.906141 509.21392)scale(0.1 -0.1)">
     <use xlink:href="#DejaVuSans-49"/>
     <use x="63.623047" xlink:href="#DejaVuSans-49"/>
     <use x="127.246094" xlink:href="#DejaVuSans-48"/>
    </g>
   </g>
   <g id="text_48">
    <!-- 8 -->
    <g transform="translate(1133.593202 509.21392)scale(0.1 -0.1)">
     <use xlink:href="#DejaVuSans-56"/>
    </g>
   </g>
   <g id="text_49">
    <!-- 96 -->
    <g transform="translate(1104.073856 509.21392)scale(0.1 -0.1)">
     <use xlink:href="#DejaVuSans-57"/>
     <use x="63.623047" xlink:href="#DejaVuSans-54"/>
    </g>
   </g>
   <g id="text_50">
    <!-- 243 -->
    <g transform="translate(1172.59169 509.21392)scale(0.1 -0.1)">
     <use xlink:href="#DejaVuSans-50"/>
     <use x="63.623047" xlink:href="#DejaVuSans-52"/>
     <use x="127.246094" xlink:href="#DejaVuSans-51"/>
    </g>
   </g>
   <g id="text_51">
    <!-- TOP -->
    <g transform="translate(1047.560439 596.253332)scale(0.12 -0.12)">
     <use xlink:href="#DejaVuSans-84"/>
     <use x="61.083984" xlink:href="#DejaVuSans-79"/>
     <use x="139.794922" xlink:href="#DejaVuSans-80"/>
    </g>
   </g>
   <g id="text_52">
    <!-- BTM -->
    <g transform="translate(1192.358585 595.135263)scale(0.12 -0.12)">
     <use xlink:href="#DejaVuSans-66"/>
     <use x="68.603516" xlink:href="#DejaVuSans-84"/>
     <use x="129.6875" xlink:href="#DejaVuSans-77"/>
    </g>
   </g>
   <g id="text_53">
    <!-- S3 -->
    <g transform="translate(1151.944811 594.518058)scale(0.12 -0.12)">
     <use xlink:href="#DejaVuSans-83"/>
     <use x="63.476562" xlink:href="#DejaVuSans-51"/>
    </g>
   </g>
   <g id="text_54">
    <!-- 17171479 -->
    <g transform="translate(1101.342353 408.653187)scale(0.12 -0.12)">
     <use xlink:href="#DejaVuSans-49"/>
     <use x="63.623047" xlink:href="#DejaVuSans-55"/>
     <use x="127.246094" xlink:href="#DejaVuSans-49"/>
     <use x="190.869141" xlink:href="#DejaVuSans-55"/>
     <use x="254.492188" xlink:href="#DejaVuSans-49"/>
     <use x="318.115234" xlink:href="#DejaVuSans-52"/>
     <use x="381.738281" xlink:href="#DejaVuSans-55"/>
     <use x="445.361328" xlink:href="#DejaVuSans-57"/>
    </g>
   </g>
  </g>
  <g id="text_55">
   <!-- S2 vs S3 -->
   <defs>
    <path id="DejaVuSans-32"/>
    <path d="M 2.984375 54.6875 
L 12.5 54.6875 
L 29.59375 8.796875 
L 46.6875 54.6875 
L 56.203125 54.6875 
L 35.6875 0 
L 23.484375 0 
z
" id="DejaVuSans-118"/>
    <path d="M 44.28125 53.078125 
L 44.28125 44.578125 
Q 40.484375 46.53125 36.375 47.5 
Q 32.28125 48.484375 27.875 48.484375 
Q 21.1875 48.484375 17.84375 46.4375 
Q 14.5 44.390625 14.5 40.28125 
Q 14.5 37.15625 16.890625 35.375 
Q 19.28125 33.59375 26.515625 31.984375 
L 29.59375 31.296875 
Q 39.15625 29.25 43.1875 25.515625 
Q 47.21875 21.78125 47.21875 15.09375 
Q 47.21875 7.46875 41.1875 3.015625 
Q 35.15625 -1.421875 24.609375 -1.421875 
Q 20.21875 -1.421875 15.453125 -0.5625 
Q 10.6875 0.296875 5.421875 2 
L 5.421875 11.28125 
Q 10.40625 8.6875 15.234375 7.390625 
Q 20.0625 6.109375 24.8125 6.109375 
Q 31.15625 6.109375 34.5625 8.28125 
Q 37.984375 10.453125 37.984375 14.40625 
Q 37.984375 18.0625 35.515625 20.015625 
Q 33.0625 21.96875 24.703125 23.78125 
L 21.578125 24.515625 
Q 13.234375 26.265625 9.515625 29.90625 
Q 5.8125 33.546875 5.8125 39.890625 
Q 5.8125 47.609375 11.28125 51.796875 
Q 16.75 56 26.8125 56 
Q 31.78125 56 36.171875 55.265625 
Q 40.578125 54.546875 44.28125 53.078125 
z
" id="DejaVuSans-115"/>
   </defs>
   <g transform="translate(685.675 11.0725)scale(0.16 -0.16)">
    <use xlink:href="#DejaVuSans-83"/>
    <use x="63.476562" xlink:href="#DejaVuSans-50"/>
    <use x="127.099609" xlink:href="#DejaVuSans-32"/>
    <use x="158.886719" xlink:href="#DejaVuSans-118"/>
    <use x="218.066406" xlink:href="#DejaVuSans-115"/>
    <use x="270.166016" xlink:href="#DejaVuSans-32"/>
    <use x="301.953125" xlink:href="#DejaVuSans-83"/>
    <use x="365.429688" xlink:href="#DejaVuSans-51"/>
   </g>
  </g>
 </g>
 <defs>
  <clipPath id="p08c296ca60">
   <rect height="188.116793" width="328.235294" x="180" y="115.887058"/>
  </clipPath>
  <clipPath id="p4d7fb24ec3">
   <rect height="188.353082" width="328.235294" x="573.882353" y="115.768913"/>
  </clipPath>
  <clipPath id="p8dad912d9f">
   <rect height="188.193218" width="328.235294" x="967.764706" y="115.848846"/>
  </clipPath>
  <clipPath id="p1787c9d746">
   <rect height="184.911806" width="328.235294" x="180" y="413.998642"/>
  </clipPath>
  <clipPath id="p4fca00d465">
   <rect height="186.382133" width="328.235294" x="573.882353" y="413.263479"/>
  </clipPath>
  <clipPath id="peff9efab9c">
   <rect height="183.602717" width="328.235294" x="967.764706" y="414.653187"/>
  </clipPath>
 </defs>
</svg>
