<?xml version="1.0" encoding="utf-8" standalone="no"?>
<!DOCTYPE svg PUBLIC "-//W3C//DTD SVG 1.1//EN"
  "http://www.w3.org/Graphics/SVG/1.1/DTD/svg11.dtd">
<!-- Created with matplotlib (https://matplotlib.org/) -->
<svg height="360pt" version="1.1" viewBox="0 0 1440 360" width="1440pt" xmlns="http://www.w3.org/2000/svg" xmlns:xlink="http://www.w3.org/1999/xlink">
 <defs>
  <style type="text/css">
*{stroke-linecap:butt;stroke-linejoin:round;}
  </style>
 </defs>
 <g id="figure_1">
  <g id="patch_1">
   <path d="M 0 360 
L 1440 360 
L 1440 0 
L 0 0 
z
" style="fill:#ffffff;"/>
  </g>
  <g id="axes_1">
   <g id="patch_2">
    <path clip-path="url(#p294431138f)" d="M 214.546877 218.712431 
C 207.99512 206.537737 204.565049 192.925654 204.565049 179.1 
C 204.565049 165.274346 207.99512 151.662263 214.546877 139.487569 
C 204.197612 150.070067 198.396824 164.29809 198.396824 179.1 
C 198.396824 193.90191 204.197612 208.129933 214.546877 218.712431 
" style="fill:#ff0000;opacity:0.4;"/>
   </g>
   <g id="patch_3">
    <path clip-path="url(#p294431138f)" d="M 370.261631 163.411717 
C 371.249673 168.582697 371.74701 173.835472 371.74701 179.1 
C 371.74701 184.364528 371.249673 189.617303 370.261631 194.788283 
C 372.149745 201.860073 375.299099 208.53327 379.5579 214.486237 
C 383.8167 220.439204 389.115407 225.574738 395.198631 229.645313 
C 401.281855 233.715888 408.050266 236.655039 415.177637 238.321104 
C 422.305009 239.987168 429.674962 240.352941 436.932276 239.400794 
C 444.18959 238.448646 451.215765 236.194125 457.67215 232.745894 
C 464.128534 229.297664 469.909706 224.712028 474.737021 219.210008 
C 479.564336 213.707988 483.358972 207.379424 485.938034 200.529341 
C 488.517096 193.679258 489.838471 186.419508 489.838471 179.1 
C 489.838471 171.780492 488.517096 164.520742 485.938034 157.670659 
C 483.358972 150.820576 479.564336 144.492012 474.737021 138.989992 
C 469.909706 133.487972 464.128534 128.902336 457.67215 125.454106 
C 451.215765 122.005875 444.18959 119.751354 436.932276 118.799206 
C 429.674962 117.847059 422.305009 118.212832 415.177637 119.878896 
C 408.050266 121.544961 401.281855 124.484112 395.198631 128.554687 
C 389.115407 132.625262 383.8167 137.760796 379.5579 143.713763 
C 375.299099 149.66673 372.149745 156.339927 370.261631 163.411717 
" style="fill:#008000;opacity:0.4;"/>
   </g>
   <g id="patch_4">
    <path clip-path="url(#p294431138f)" d="M 214.546877 218.712431 
C 222.727809 233.914515 235.420675 246.215315 250.871879 253.9154 
C 266.323082 261.615486 283.786714 264.343135 300.850069 261.721507 
C 317.913423 259.099878 333.752765 251.255532 346.179792 239.27221 
C 358.60682 227.288889 367.021618 211.74509 370.261631 194.788283 
C 368.895307 189.67082 368.203354 184.396722 368.203354 179.1 
C 368.203354 173.803278 368.895307 168.52918 370.261631 163.411717 
C 367.021618 146.45491 358.60682 130.911111 346.179792 118.92779 
C 333.752765 106.944468 317.913423 99.100122 300.850069 96.478493 
C 283.786714 93.856865 266.323082 96.584514 250.871879 104.2846 
C 235.420675 111.984685 222.727809 124.285485 214.546877 139.487569 
C 218.461323 135.484906 222.947544 132.08449 227.859094 129.397322 
C 232.770644 126.710155 238.053492 124.765797 243.535187 123.627719 
C 249.016881 122.489641 254.637119 122.170363 260.212435 122.680308 
C 265.787751 123.190253 271.256813 124.523811 276.44109 126.637449 
C 281.625367 128.751087 286.467828 131.621554 290.810398 135.155148 
C 295.152968 138.688741 298.947874 142.846589 302.071238 147.492963 
C 305.194602 152.139337 307.612063 157.223124 309.244708 162.578371 
C 310.877353 167.933617 311.70722 173.501411 311.70722 179.1 
C 311.70722 184.698589 310.877353 190.266383 309.244708 195.621629 
C 307.612063 200.976876 305.194602 206.060663 302.071238 210.707037 
C 298.947874 215.353411 295.152968 219.511259 290.810398 223.044852 
C 286.467828 226.578446 281.625367 229.448913 276.44109 231.562551 
C 271.256813 233.676189 265.787751 235.009747 260.212435 235.519692 
C 254.637119 236.029637 249.016881 235.710359 243.535187 234.572281 
C 238.053492 233.434203 232.770644 231.489845 227.859094 228.802678 
C 222.947544 226.11551 218.461323 222.715094 214.546877 218.712431 
" style="fill:#0000ff;opacity:0.4;"/>
   </g>
   <g id="patch_5">
    <path clip-path="url(#p294431138f)" d="M 214.546877 218.712431 
C 218.461323 222.715094 222.947544 226.11551 227.859094 228.802678 
C 232.770644 231.489845 238.053492 233.434203 243.535187 234.572281 
C 249.016881 235.710359 254.637119 236.029637 260.212435 235.519692 
C 265.787751 235.009747 271.256813 233.676189 276.44109 231.562551 
C 281.625367 229.448913 286.467828 226.578446 290.810398 223.044852 
C 295.152968 219.511259 298.947874 215.353411 302.071238 210.707037 
C 305.194602 206.060663 307.612063 200.976876 309.244708 195.621629 
C 310.877353 190.266383 311.70722 184.698589 311.70722 179.1 
C 311.70722 173.501411 310.877353 167.933617 309.244708 162.578371 
C 307.612063 157.223124 305.194602 152.139337 302.071238 147.492963 
C 298.947874 142.846589 295.152968 138.688741 290.810398 135.155148 
C 286.467828 131.621554 281.625367 128.751087 276.44109 126.637449 
C 271.256813 124.523811 265.787751 123.190253 260.212435 122.680308 
C 254.637119 122.170363 249.016881 122.489641 243.535187 123.627719 
C 238.053492 124.765797 232.770644 126.710155 227.859094 129.397322 
C 222.947544 132.08449 218.461323 135.484906 214.546877 139.487569 
C 207.99512 151.662263 204.565049 165.274346 204.565049 179.1 
C 204.565049 192.925654 207.99512 206.537737 214.546877 218.712431 
" style="fill:#b200b2;opacity:0.4;"/>
   </g>
   <g id="patch_6">
    <path clip-path="url(#p294431138f)" d="M 370.261631 163.411717 
C 368.895307 168.52918 368.203354 173.803278 368.203354 179.1 
C 368.203354 184.396722 368.895307 189.67082 370.261631 194.788283 
C 371.249673 189.617303 371.74701 184.364528 371.74701 179.1 
C 371.74701 173.835472 371.249673 168.582697 370.261631 163.411717 
" style="fill:#0059b2;opacity:0.4;"/>
   </g>
   <g id="text_1">
    <!-- 14 -->
    <defs>
     <path d="M 12.40625 8.296875 
L 28.515625 8.296875 
L 28.515625 63.921875 
L 10.984375 60.40625 
L 10.984375 69.390625 
L 28.421875 72.90625 
L 38.28125 72.90625 
L 38.28125 8.296875 
L 54.390625 8.296875 
L 54.390625 0 
L 12.40625 0 
z
" id="DejaVuSans-49"/>
     <path d="M 37.796875 64.3125 
L 12.890625 25.390625 
L 37.796875 25.390625 
z
M 35.203125 72.90625 
L 47.609375 72.90625 
L 47.609375 25.390625 
L 58.015625 25.390625 
L 58.015625 17.1875 
L 47.609375 17.1875 
L 47.609375 0 
L 37.796875 0 
L 37.796875 17.1875 
L 4.890625 17.1875 
L 4.890625 26.703125 
z
" id="DejaVuSans-52"/>
    </defs>
    <g transform="translate(195.118436 181.859375)scale(0.1 -0.1)">
     <use xlink:href="#DejaVuSans-49"/>
     <use x="63.623047" xlink:href="#DejaVuSans-52"/>
    </g>
   </g>
   <g id="text_2">
    <!-- 466 -->
    <defs>
     <path d="M 33.015625 40.375 
Q 26.375 40.375 22.484375 35.828125 
Q 18.609375 31.296875 18.609375 23.390625 
Q 18.609375 15.53125 22.484375 10.953125 
Q 26.375 6.390625 33.015625 6.390625 
Q 39.65625 6.390625 43.53125 10.953125 
Q 47.40625 15.53125 47.40625 23.390625 
Q 47.40625 31.296875 43.53125 35.828125 
Q 39.65625 40.375 33.015625 40.375 
z
M 52.59375 71.296875 
L 52.59375 62.3125 
Q 48.875 64.0625 45.09375 64.984375 
Q 41.3125 65.921875 37.59375 65.921875 
Q 27.828125 65.921875 22.671875 59.328125 
Q 17.53125 52.734375 16.796875 39.40625 
Q 19.671875 43.65625 24.015625 45.921875 
Q 28.375 48.1875 33.59375 48.1875 
Q 44.578125 48.1875 50.953125 41.515625 
Q 57.328125 34.859375 57.328125 23.390625 
Q 57.328125 12.15625 50.6875 5.359375 
Q 44.046875 -1.421875 33.015625 -1.421875 
Q 20.359375 -1.421875 13.671875 8.265625 
Q 6.984375 17.96875 6.984375 36.375 
Q 6.984375 53.65625 15.1875 63.9375 
Q 23.390625 74.21875 37.203125 74.21875 
Q 40.921875 74.21875 44.703125 73.484375 
Q 48.484375 72.75 52.59375 71.296875 
z
" id="DejaVuSans-54"/>
    </defs>
    <g transform="translate(421.24899 181.859375)scale(0.1 -0.1)">
     <use xlink:href="#DejaVuSans-52"/>
     <use x="63.623047" xlink:href="#DejaVuSans-54"/>
     <use x="127.246094" xlink:href="#DejaVuSans-54"/>
    </g>
   </g>
   <g id="text_3">
    <!-- 490 -->
    <defs>
     <path d="M 10.984375 1.515625 
L 10.984375 10.5 
Q 14.703125 8.734375 18.5 7.8125 
Q 22.3125 6.890625 25.984375 6.890625 
Q 35.75 6.890625 40.890625 13.453125 
Q 46.046875 20.015625 46.78125 33.40625 
Q 43.953125 29.203125 39.59375 26.953125 
Q 35.25 24.703125 29.984375 24.703125 
Q 19.046875 24.703125 12.671875 31.3125 
Q 6.296875 37.9375 6.296875 49.421875 
Q 6.296875 60.640625 12.9375 67.421875 
Q 19.578125 74.21875 30.609375 74.21875 
Q 43.265625 74.21875 49.921875 64.515625 
Q 56.59375 54.828125 56.59375 36.375 
Q 56.59375 19.140625 48.40625 8.859375 
Q 40.234375 -1.421875 26.421875 -1.421875 
Q 22.703125 -1.421875 18.890625 -0.6875 
Q 15.09375 0.046875 10.984375 1.515625 
z
M 30.609375 32.421875 
Q 37.25 32.421875 41.125 36.953125 
Q 45.015625 41.5 45.015625 49.421875 
Q 45.015625 57.28125 41.125 61.84375 
Q 37.25 66.40625 30.609375 66.40625 
Q 23.96875 66.40625 20.09375 61.84375 
Q 16.21875 57.28125 16.21875 49.421875 
Q 16.21875 41.5 20.09375 36.953125 
Q 23.96875 32.421875 30.609375 32.421875 
z
" id="DejaVuSans-57"/>
     <path d="M 31.78125 66.40625 
Q 24.171875 66.40625 20.328125 58.90625 
Q 16.5 51.421875 16.5 36.375 
Q 16.5 21.390625 20.328125 13.890625 
Q 24.171875 6.390625 31.78125 6.390625 
Q 39.453125 6.390625 43.28125 13.890625 
Q 47.125 21.390625 47.125 36.375 
Q 47.125 51.421875 43.28125 58.90625 
Q 39.453125 66.40625 31.78125 66.40625 
z
M 31.78125 74.21875 
Q 44.046875 74.21875 50.515625 64.515625 
Q 56.984375 54.828125 56.984375 36.375 
Q 56.984375 17.96875 50.515625 8.265625 
Q 44.046875 -1.421875 31.78125 -1.421875 
Q 19.53125 -1.421875 13.0625 8.265625 
Q 6.59375 17.96875 6.59375 36.375 
Q 6.59375 54.828125 13.0625 64.515625 
Q 19.53125 74.21875 31.78125 74.21875 
z
" id="DejaVuSans-48"/>
    </defs>
    <g transform="translate(299.812814 181.859375)scale(0.1 -0.1)">
     <use xlink:href="#DejaVuSans-52"/>
     <use x="63.623047" xlink:href="#DejaVuSans-57"/>
     <use x="127.246094" xlink:href="#DejaVuSans-48"/>
    </g>
   </g>
   <g id="text_4">
    <!-- 393 -->
    <defs>
     <path d="M 40.578125 39.3125 
Q 47.65625 37.796875 51.625 33 
Q 55.609375 28.21875 55.609375 21.1875 
Q 55.609375 10.40625 48.1875 4.484375 
Q 40.765625 -1.421875 27.09375 -1.421875 
Q 22.515625 -1.421875 17.65625 -0.515625 
Q 12.796875 0.390625 7.625 2.203125 
L 7.625 11.71875 
Q 11.71875 9.328125 16.59375 8.109375 
Q 21.484375 6.890625 26.8125 6.890625 
Q 36.078125 6.890625 40.9375 10.546875 
Q 45.796875 14.203125 45.796875 21.1875 
Q 45.796875 27.640625 41.28125 31.265625 
Q 36.765625 34.90625 28.71875 34.90625 
L 20.21875 34.90625 
L 20.21875 43.015625 
L 29.109375 43.015625 
Q 36.375 43.015625 40.234375 45.921875 
Q 44.09375 48.828125 44.09375 54.296875 
Q 44.09375 59.90625 40.109375 62.90625 
Q 36.140625 65.921875 28.71875 65.921875 
Q 24.65625 65.921875 20.015625 65.03125 
Q 15.375 64.15625 9.8125 62.3125 
L 9.8125 71.09375 
Q 15.4375 72.65625 20.34375 73.4375 
Q 25.25 74.21875 29.59375 74.21875 
Q 40.828125 74.21875 47.359375 69.109375 
Q 53.90625 64.015625 53.90625 55.328125 
Q 53.90625 49.265625 50.4375 45.09375 
Q 46.96875 40.921875 40.578125 39.3125 
z
" id="DejaVuSans-51"/>
    </defs>
    <g transform="translate(248.592384 181.859375)scale(0.1 -0.1)">
     <use xlink:href="#DejaVuSans-51"/>
     <use x="63.623047" xlink:href="#DejaVuSans-57"/>
     <use x="127.246094" xlink:href="#DejaVuSans-51"/>
    </g>
   </g>
   <g id="text_5">
    <!-- 3 -->
    <g transform="translate(366.793932 181.859375)scale(0.1 -0.1)">
     <use xlink:href="#DejaVuSans-51"/>
    </g>
   </g>
   <g id="text_6">
    <!-- TOP -->
    <defs>
     <path d="M -0.296875 72.90625 
L 61.375 72.90625 
L 61.375 64.59375 
L 35.5 64.59375 
L 35.5 0 
L 25.59375 0 
L 25.59375 64.59375 
L -0.296875 64.59375 
z
" id="DejaVuSans-84"/>
     <path d="M 39.40625 66.21875 
Q 28.65625 66.21875 22.328125 58.203125 
Q 16.015625 50.203125 16.015625 36.375 
Q 16.015625 22.609375 22.328125 14.59375 
Q 28.65625 6.59375 39.40625 6.59375 
Q 50.140625 6.59375 56.421875 14.59375 
Q 62.703125 22.609375 62.703125 36.375 
Q 62.703125 50.203125 56.421875 58.203125 
Q 50.140625 66.21875 39.40625 66.21875 
z
M 39.40625 74.21875 
Q 54.734375 74.21875 63.90625 63.9375 
Q 73.09375 53.65625 73.09375 36.375 
Q 73.09375 19.140625 63.90625 8.859375 
Q 54.734375 -1.421875 39.40625 -1.421875 
Q 24.03125 -1.421875 14.8125 8.828125 
Q 5.609375 19.09375 5.609375 36.375 
Q 5.609375 53.65625 14.8125 63.9375 
Q 24.03125 74.21875 39.40625 74.21875 
z
" id="DejaVuSans-79"/>
     <path d="M 19.671875 64.796875 
L 19.671875 37.40625 
L 32.078125 37.40625 
Q 38.96875 37.40625 42.71875 40.96875 
Q 46.484375 44.53125 46.484375 51.125 
Q 46.484375 57.671875 42.71875 61.234375 
Q 38.96875 64.796875 32.078125 64.796875 
z
M 9.8125 72.90625 
L 32.078125 72.90625 
Q 44.34375 72.90625 50.609375 67.359375 
Q 56.890625 61.8125 56.890625 51.125 
Q 56.890625 40.328125 50.609375 34.8125 
Q 44.34375 29.296875 32.078125 29.296875 
L 19.671875 29.296875 
L 19.671875 0 
L 9.8125 0 
z
" id="DejaVuSans-80"/>
    </defs>
    <g transform="translate(243.046397 251.575448)scale(0.12 -0.12)">
     <use xlink:href="#DejaVuSans-84"/>
     <use x="61.083984" xlink:href="#DejaVuSans-79"/>
     <use x="139.794922" xlink:href="#DejaVuSans-80"/>
    </g>
   </g>
   <g id="text_7">
    <!-- BTM -->
    <defs>
     <path d="M 19.671875 34.8125 
L 19.671875 8.109375 
L 35.5 8.109375 
Q 43.453125 8.109375 47.28125 11.40625 
Q 51.125 14.703125 51.125 21.484375 
Q 51.125 28.328125 47.28125 31.5625 
Q 43.453125 34.8125 35.5 34.8125 
z
M 19.671875 64.796875 
L 19.671875 42.828125 
L 34.28125 42.828125 
Q 41.5 42.828125 45.03125 45.53125 
Q 48.578125 48.25 48.578125 53.8125 
Q 48.578125 59.328125 45.03125 62.0625 
Q 41.5 64.796875 34.28125 64.796875 
z
M 9.8125 72.90625 
L 35.015625 72.90625 
Q 46.296875 72.90625 52.390625 68.21875 
Q 58.5 63.53125 58.5 54.890625 
Q 58.5 48.1875 55.375 44.234375 
Q 52.25 40.28125 46.1875 39.3125 
Q 53.46875 37.75 57.5 32.78125 
Q 61.53125 27.828125 61.53125 20.40625 
Q 61.53125 10.640625 54.890625 5.3125 
Q 48.25 0 35.984375 0 
L 9.8125 0 
z
" id="DejaVuSans-66"/>
     <path d="M 9.8125 72.90625 
L 24.515625 72.90625 
L 43.109375 23.296875 
L 61.8125 72.90625 
L 76.515625 72.90625 
L 76.515625 0 
L 66.890625 0 
L 66.890625 64.015625 
L 48.09375 14.015625 
L 38.1875 14.015625 
L 19.390625 64.015625 
L 19.390625 0 
L 9.8125 0 
z
" id="DejaVuSans-77"/>
    </defs>
    <g transform="translate(416.062787 255.737808)scale(0.12 -0.12)">
     <use xlink:href="#DejaVuSans-66"/>
     <use x="68.603516" xlink:href="#DejaVuSans-84"/>
     <use x="129.6875" xlink:href="#DejaVuSans-77"/>
    </g>
   </g>
   <g id="text_8">
    <!-- SOMOZA -->
    <defs>
     <path d="M 53.515625 70.515625 
L 53.515625 60.890625 
Q 47.90625 63.578125 42.921875 64.890625 
Q 37.9375 66.21875 33.296875 66.21875 
Q 25.25 66.21875 20.875 63.09375 
Q 16.5 59.96875 16.5 54.203125 
Q 16.5 49.359375 19.40625 46.890625 
Q 22.3125 44.4375 30.421875 42.921875 
L 36.375 41.703125 
Q 47.40625 39.59375 52.65625 34.296875 
Q 57.90625 29 57.90625 20.125 
Q 57.90625 9.515625 50.796875 4.046875 
Q 43.703125 -1.421875 29.984375 -1.421875 
Q 24.8125 -1.421875 18.96875 -0.25 
Q 13.140625 0.921875 6.890625 3.21875 
L 6.890625 13.375 
Q 12.890625 10.015625 18.65625 8.296875 
Q 24.421875 6.59375 29.984375 6.59375 
Q 38.421875 6.59375 43.015625 9.90625 
Q 47.609375 13.234375 47.609375 19.390625 
Q 47.609375 24.75 44.3125 27.78125 
Q 41.015625 30.8125 33.5 32.328125 
L 27.484375 33.5 
Q 16.453125 35.6875 11.515625 40.375 
Q 6.59375 45.0625 6.59375 53.421875 
Q 6.59375 63.09375 13.40625 68.65625 
Q 20.21875 74.21875 32.171875 74.21875 
Q 37.3125 74.21875 42.625 73.28125 
Q 47.953125 72.359375 53.515625 70.515625 
z
" id="DejaVuSans-83"/>
     <path d="M 5.609375 72.90625 
L 62.890625 72.90625 
L 62.890625 65.375 
L 16.796875 8.296875 
L 64.015625 8.296875 
L 64.015625 0 
L 4.5 0 
L 4.5 7.515625 
L 50.59375 64.59375 
L 5.609375 64.59375 
z
" id="DejaVuSans-90"/>
     <path d="M 34.1875 63.1875 
L 20.796875 26.90625 
L 47.609375 26.90625 
z
M 28.609375 72.90625 
L 39.796875 72.90625 
L 67.578125 0 
L 57.328125 0 
L 50.6875 18.703125 
L 17.828125 18.703125 
L 11.1875 0 
L 0.78125 0 
z
" id="DejaVuSans-65"/>
    </defs>
    <g transform="translate(261.509467 278.51123)scale(0.12 -0.12)">
     <use xlink:href="#DejaVuSans-83"/>
     <use x="63.476562" xlink:href="#DejaVuSans-79"/>
     <use x="142.1875" xlink:href="#DejaVuSans-77"/>
     <use x="228.466797" xlink:href="#DejaVuSans-79"/>
     <use x="307.177734" xlink:href="#DejaVuSans-90"/>
     <use x="375.683594" xlink:href="#DejaVuSans-65"/>
    </g>
   </g>
   <g id="text_9">
    <!-- SOMOZA vs MIX 17160843 -->
    <defs>
     <path id="DejaVuSans-32"/>
     <path d="M 2.984375 54.6875 
L 12.5 54.6875 
L 29.59375 8.796875 
L 46.6875 54.6875 
L 56.203125 54.6875 
L 35.6875 0 
L 23.484375 0 
z
" id="DejaVuSans-118"/>
     <path d="M 44.28125 53.078125 
L 44.28125 44.578125 
Q 40.484375 46.53125 36.375 47.5 
Q 32.28125 48.484375 27.875 48.484375 
Q 21.1875 48.484375 17.84375 46.4375 
Q 14.5 44.390625 14.5 40.28125 
Q 14.5 37.15625 16.890625 35.375 
Q 19.28125 33.59375 26.515625 31.984375 
L 29.59375 31.296875 
Q 39.15625 29.25 43.1875 25.515625 
Q 47.21875 21.78125 47.21875 15.09375 
Q 47.21875 7.46875 41.1875 3.015625 
Q 35.15625 -1.421875 24.609375 -1.421875 
Q 20.21875 -1.421875 15.453125 -0.5625 
Q 10.6875 0.296875 5.421875 2 
L 5.421875 11.28125 
Q 10.40625 8.6875 15.234375 7.390625 
Q 20.0625 6.109375 24.8125 6.109375 
Q 31.15625 6.109375 34.5625 8.28125 
Q 37.984375 10.453125 37.984375 14.40625 
Q 37.984375 18.0625 35.515625 20.015625 
Q 33.0625 21.96875 24.703125 23.78125 
L 21.578125 24.515625 
Q 13.234375 26.265625 9.515625 29.90625 
Q 5.8125 33.546875 5.8125 39.890625 
Q 5.8125 47.609375 11.28125 51.796875 
Q 16.75 56 26.8125 56 
Q 31.78125 56 36.171875 55.265625 
Q 40.578125 54.546875 44.28125 53.078125 
z
" id="DejaVuSans-115"/>
     <path d="M 9.8125 72.90625 
L 19.671875 72.90625 
L 19.671875 0 
L 9.8125 0 
z
" id="DejaVuSans-73"/>
     <path d="M 6.296875 72.90625 
L 16.890625 72.90625 
L 35.015625 45.796875 
L 53.21875 72.90625 
L 63.8125 72.90625 
L 40.375 37.890625 
L 65.375 0 
L 54.78125 0 
L 34.28125 31 
L 13.625 0 
L 2.984375 0 
L 29 38.921875 
z
" id="DejaVuSans-88"/>
     <path d="M 8.203125 72.90625 
L 55.078125 72.90625 
L 55.078125 68.703125 
L 28.609375 0 
L 18.3125 0 
L 43.21875 64.59375 
L 8.203125 64.59375 
z
" id="DejaVuSans-55"/>
     <path d="M 31.78125 34.625 
Q 24.75 34.625 20.71875 30.859375 
Q 16.703125 27.09375 16.703125 20.515625 
Q 16.703125 13.921875 20.71875 10.15625 
Q 24.75 6.390625 31.78125 6.390625 
Q 38.8125 6.390625 42.859375 10.171875 
Q 46.921875 13.96875 46.921875 20.515625 
Q 46.921875 27.09375 42.890625 30.859375 
Q 38.875 34.625 31.78125 34.625 
z
M 21.921875 38.8125 
Q 15.578125 40.375 12.03125 44.71875 
Q 8.5 49.078125 8.5 55.328125 
Q 8.5 64.0625 14.71875 69.140625 
Q 20.953125 74.21875 31.78125 74.21875 
Q 42.671875 74.21875 48.875 69.140625 
Q 55.078125 64.0625 55.078125 55.328125 
Q 55.078125 49.078125 51.53125 44.71875 
Q 48 40.375 41.703125 38.8125 
Q 48.828125 37.15625 52.796875 32.3125 
Q 56.78125 27.484375 56.78125 20.515625 
Q 56.78125 9.90625 50.3125 4.234375 
Q 43.84375 -1.421875 31.78125 -1.421875 
Q 19.734375 -1.421875 13.25 4.234375 
Q 6.78125 9.90625 6.78125 20.515625 
Q 6.78125 27.484375 10.78125 32.3125 
Q 14.796875 37.15625 21.921875 38.8125 
z
M 18.3125 54.390625 
Q 18.3125 48.734375 21.84375 45.5625 
Q 25.390625 42.390625 31.78125 42.390625 
Q 38.140625 42.390625 41.71875 45.5625 
Q 45.3125 48.734375 45.3125 54.390625 
Q 45.3125 60.0625 41.71875 63.234375 
Q 38.140625 66.40625 31.78125 66.40625 
Q 25.390625 66.40625 21.84375 63.234375 
Q 18.3125 60.0625 18.3125 54.390625 
z
" id="DejaVuSans-56"/>
    </defs>
    <g transform="translate(263.47671 71.112196)scale(0.12 -0.12)">
     <use xlink:href="#DejaVuSans-83"/>
     <use x="63.476562" xlink:href="#DejaVuSans-79"/>
     <use x="142.1875" xlink:href="#DejaVuSans-77"/>
     <use x="228.466797" xlink:href="#DejaVuSans-79"/>
     <use x="307.177734" xlink:href="#DejaVuSans-90"/>
     <use x="375.683594" xlink:href="#DejaVuSans-65"/>
     <use x="444.091797" xlink:href="#DejaVuSans-32"/>
     <use x="475.878906" xlink:href="#DejaVuSans-118"/>
     <use x="535.058594" xlink:href="#DejaVuSans-115"/>
     <use x="587.158203" xlink:href="#DejaVuSans-32"/>
     <use x="618.945312" xlink:href="#DejaVuSans-77"/>
     <use x="705.224609" xlink:href="#DejaVuSans-73"/>
     <use x="734.716797" xlink:href="#DejaVuSans-88"/>
     <use x="803.222656" xlink:href="#DejaVuSans-32"/>
     <use x="835.009766" xlink:href="#DejaVuSans-49"/>
     <use x="898.632812" xlink:href="#DejaVuSans-55"/>
     <use x="962.255859" xlink:href="#DejaVuSans-49"/>
     <use x="1025.878906" xlink:href="#DejaVuSans-54"/>
     <use x="1089.501953" xlink:href="#DejaVuSans-48"/>
     <use x="1153.125" xlink:href="#DejaVuSans-56"/>
     <use x="1216.748047" xlink:href="#DejaVuSans-52"/>
     <use x="1280.371094" xlink:href="#DejaVuSans-51"/>
    </g>
   </g>
  </g>
  <g id="axes_2">
   <g id="patch_7">
    <path clip-path="url(#pf67ba935be)" d="M 628.709161 233.457979 
C 616.848499 217.821924 610.425196 198.725533 610.425196 179.1 
C 610.425196 159.474467 616.848499 140.378076 628.709161 124.742021 
C 618.208368 129.426488 609.286577 137.054892 603.027684 146.700469 
C 596.768791 156.346045 593.436954 167.6017 593.436954 179.1 
C 593.436954 190.5983 596.768791 201.853955 603.027684 211.499531 
C 609.286577 221.145108 618.208368 228.773512 628.709161 233.457979 
" style="fill:#ff0000;opacity:0.4;"/>
   </g>
   <g id="patch_8">
    <path clip-path="url(#pf67ba935be)" d="M 772.022267 124.73087 
C 783.888256 140.368893 790.314692 159.469681 790.314692 179.1 
C 790.314692 198.730319 783.888256 217.831107 772.022267 233.46913 
C 782.178748 241.296255 794.328109 246.123041 807.086937 247.399875 
C 819.845765 248.676708 832.710686 246.353215 844.21681 240.693965 
C 855.722934 235.034715 865.416309 226.262982 872.193179 215.377577 
C 878.970049 204.492172 882.563046 191.922558 882.563046 179.1 
C 882.563046 166.277442 878.970049 153.707828 872.193179 142.822423 
C 865.416309 131.937018 855.722934 123.165285 844.21681 117.506035 
C 832.710686 111.846785 819.845765 109.523292 807.086937 110.800125 
C 794.328109 112.076959 782.178748 116.903745 772.022267 124.73087 
" style="fill:#008000;opacity:0.4;"/>
   </g>
   <g id="patch_9">
    <path clip-path="url(#pf67ba935be)" d="M 628.709161 233.457979 
C 637.096871 244.515599 647.931234 253.483224 660.361542 259.656722 
C 672.79185 265.83022 686.484018 269.043668 700.362946 269.044748 
C 714.241873 269.045828 727.934542 265.83451 740.36581 259.662947 
C 752.797078 253.491383 763.632837 244.525444 772.022267 233.46913 
C 763.702263 227.057292 756.964004 218.820402 752.32805 209.394795 
C 747.692096 199.969189 745.280984 189.604005 745.280984 179.1 
C 745.280984 168.595995 747.692096 158.230811 752.32805 148.805205 
C 756.964004 139.379598 763.702263 131.142708 772.022267 124.73087 
C 763.632837 113.674556 752.797078 104.708617 740.36581 98.537053 
C 727.934542 92.36549 714.241873 89.154172 700.362946 89.155252 
C 686.484018 89.156332 672.79185 92.36978 660.361542 98.543278 
C 647.931234 104.716776 637.096871 113.684401 628.709161 124.742021 
C 637.771621 120.699203 647.702851 118.986156 657.596021 119.759301 
C 667.489191 120.532446 677.033729 123.767512 685.358115 129.1691 
C 693.6825 134.570689 700.52541 141.969233 705.262012 150.689162 
C 709.998613 159.409091 712.480213 169.176666 712.480213 179.1 
C 712.480213 189.023334 709.998613 198.790909 705.262012 207.510838 
C 700.52541 216.230767 693.6825 223.629311 685.358115 229.0309 
C 677.033729 234.432488 667.489191 237.667554 657.596021 238.440699 
C 647.702851 239.213844 637.771621 237.500797 628.709161 233.457979 
" style="fill:#0000ff;opacity:0.4;"/>
   </g>
   <g id="patch_10">
    <path clip-path="url(#pf67ba935be)" d="M 628.709161 233.457979 
C 637.771621 237.500797 647.702851 239.213844 657.596021 238.440699 
C 667.489191 237.667554 677.033729 234.432488 685.358115 229.0309 
C 693.6825 223.629311 700.52541 216.230767 705.262012 207.510838 
C 709.998613 198.790909 712.480213 189.023334 712.480213 179.1 
C 712.480213 169.176666 709.998613 159.409091 705.262012 150.689162 
C 700.52541 141.969233 693.6825 134.570689 685.358115 129.1691 
C 677.033729 123.767512 667.489191 120.532446 657.596021 119.759301 
C 647.702851 118.986156 637.771621 120.699203 628.709161 124.742021 
C 616.848499 140.378076 610.425196 159.474467 610.425196 179.1 
C 610.425196 198.725533 616.848499 217.821924 628.709161 233.457979 
" style="fill:#b200b2;opacity:0.4;"/>
   </g>
   <g id="patch_11">
    <path clip-path="url(#pf67ba935be)" d="M 772.022267 124.73087 
C 763.702263 131.142708 756.964004 139.379598 752.32805 148.805205 
C 747.692096 158.230811 745.280984 168.595995 745.280984 179.1 
C 745.280984 189.604005 747.692096 199.969189 752.32805 209.394795 
C 756.964004 218.820402 763.702263 227.057292 772.022267 233.46913 
C 783.888256 217.831107 790.314692 198.730319 790.314692 179.1 
C 790.314692 159.469681 783.888256 140.368893 772.022267 124.73087 
" style="fill:#0059b2;opacity:0.4;"/>
   </g>
   <g id="text_10">
    <!-- 49 -->
    <g transform="translate(595.568575 181.859375)scale(0.1 -0.1)">
     <use xlink:href="#DejaVuSans-52"/>
     <use x="63.623047" xlink:href="#DejaVuSans-57"/>
    </g>
   </g>
   <g id="text_11">
    <!-- 398 -->
    <g transform="translate(826.895119 181.859375)scale(0.1 -0.1)">
     <use xlink:href="#DejaVuSans-51"/>
     <use x="63.623047" xlink:href="#DejaVuSans-57"/>
     <use x="127.246094" xlink:href="#DejaVuSans-56"/>
    </g>
   </g>
   <g id="text_12">
    <!-- 429 -->
    <defs>
     <path d="M 19.1875 8.296875 
L 53.609375 8.296875 
L 53.609375 0 
L 7.328125 0 
L 7.328125 8.296875 
Q 12.9375 14.109375 22.625 23.890625 
Q 32.328125 33.6875 34.8125 36.53125 
Q 39.546875 41.84375 41.421875 45.53125 
Q 43.3125 49.21875 43.3125 52.78125 
Q 43.3125 58.59375 39.234375 62.25 
Q 35.15625 65.921875 28.609375 65.921875 
Q 23.96875 65.921875 18.8125 64.3125 
Q 13.671875 62.703125 7.8125 59.421875 
L 7.8125 69.390625 
Q 13.765625 71.78125 18.9375 73 
Q 24.125 74.21875 28.421875 74.21875 
Q 39.75 74.21875 46.484375 68.546875 
Q 53.21875 62.890625 53.21875 53.421875 
Q 53.21875 48.921875 51.53125 44.890625 
Q 49.859375 40.875 45.40625 35.40625 
Q 44.1875 33.984375 37.640625 27.21875 
Q 31.109375 20.453125 19.1875 8.296875 
z
" id="DejaVuSans-50"/>
    </defs>
    <g transform="translate(704.547201 181.859375)scale(0.1 -0.1)">
     <use xlink:href="#DejaVuSans-52"/>
     <use x="63.623047" xlink:href="#DejaVuSans-50"/>
     <use x="127.246094" xlink:href="#DejaVuSans-57"/>
    </g>
   </g>
   <g id="text_13">
    <!-- 339 -->
    <g transform="translate(651.908954 181.859375)scale(0.1 -0.1)">
     <use xlink:href="#DejaVuSans-51"/>
     <use x="63.623047" xlink:href="#DejaVuSans-51"/>
     <use x="127.246094" xlink:href="#DejaVuSans-57"/>
    </g>
   </g>
   <g id="text_14">
    <!-- 118 -->
    <g transform="translate(758.254088 181.859375)scale(0.1 -0.1)">
     <use xlink:href="#DejaVuSans-49"/>
     <use x="63.623047" xlink:href="#DejaVuSans-49"/>
     <use x="127.246094" xlink:href="#DejaVuSans-56"/>
    </g>
   </g>
   <g id="text_15">
    <!-- TOP -->
    <g transform="translate(640.952958 255.010001)scale(0.12 -0.12)">
     <use xlink:href="#DejaVuSans-84"/>
     <use x="61.083984" xlink:href="#DejaVuSans-79"/>
     <use x="139.794922" xlink:href="#DejaVuSans-80"/>
    </g>
   </g>
   <g id="text_16">
    <!-- BTM -->
    <g transform="translate(800.96389 264.129403)scale(0.12 -0.12)">
     <use xlink:href="#DejaVuSans-66"/>
     <use x="68.603516" xlink:href="#DejaVuSans-84"/>
     <use x="129.6875" xlink:href="#DejaVuSans-77"/>
    </g>
   </g>
   <g id="text_17">
    <!-- SOMOZA -->
    <g transform="translate(673.723382 285.43312)scale(0.12 -0.12)">
     <use xlink:href="#DejaVuSans-83"/>
     <use x="63.476562" xlink:href="#DejaVuSans-79"/>
     <use x="142.1875" xlink:href="#DejaVuSans-77"/>
     <use x="228.466797" xlink:href="#DejaVuSans-79"/>
     <use x="307.177734" xlink:href="#DejaVuSans-90"/>
     <use x="375.683594" xlink:href="#DejaVuSans-65"/>
    </g>
   </g>
   <g id="text_18">
    <!-- SOMOZA vs MIX 17152627 -->
    <defs>
     <path d="M 10.796875 72.90625 
L 49.515625 72.90625 
L 49.515625 64.59375 
L 19.828125 64.59375 
L 19.828125 46.734375 
Q 21.96875 47.46875 24.109375 47.828125 
Q 26.265625 48.1875 28.421875 48.1875 
Q 40.625 48.1875 47.75 41.5 
Q 54.890625 34.8125 54.890625 23.390625 
Q 54.890625 11.625 47.5625 5.09375 
Q 40.234375 -1.421875 26.90625 -1.421875 
Q 22.3125 -1.421875 17.546875 -0.640625 
Q 12.796875 0.140625 7.71875 1.703125 
L 7.71875 11.625 
Q 12.109375 9.234375 16.796875 8.0625 
Q 21.484375 6.890625 26.703125 6.890625 
Q 35.15625 6.890625 40.078125 11.328125 
Q 45.015625 15.765625 45.015625 23.390625 
Q 45.015625 31 40.078125 35.4375 
Q 35.15625 39.890625 26.703125 39.890625 
Q 22.75 39.890625 18.8125 39.015625 
Q 14.890625 38.140625 10.796875 36.28125 
z
" id="DejaVuSans-53"/>
    </defs>
    <g transform="translate(657.359063 63.600651)scale(0.12 -0.12)">
     <use xlink:href="#DejaVuSans-83"/>
     <use x="63.476562" xlink:href="#DejaVuSans-79"/>
     <use x="142.1875" xlink:href="#DejaVuSans-77"/>
     <use x="228.466797" xlink:href="#DejaVuSans-79"/>
     <use x="307.177734" xlink:href="#DejaVuSans-90"/>
     <use x="375.683594" xlink:href="#DejaVuSans-65"/>
     <use x="444.091797" xlink:href="#DejaVuSans-32"/>
     <use x="475.878906" xlink:href="#DejaVuSans-118"/>
     <use x="535.058594" xlink:href="#DejaVuSans-115"/>
     <use x="587.158203" xlink:href="#DejaVuSans-32"/>
     <use x="618.945312" xlink:href="#DejaVuSans-77"/>
     <use x="705.224609" xlink:href="#DejaVuSans-73"/>
     <use x="734.716797" xlink:href="#DejaVuSans-88"/>
     <use x="803.222656" xlink:href="#DejaVuSans-32"/>
     <use x="835.009766" xlink:href="#DejaVuSans-49"/>
     <use x="898.632812" xlink:href="#DejaVuSans-55"/>
     <use x="962.255859" xlink:href="#DejaVuSans-49"/>
     <use x="1025.878906" xlink:href="#DejaVuSans-53"/>
     <use x="1089.501953" xlink:href="#DejaVuSans-50"/>
     <use x="1153.125" xlink:href="#DejaVuSans-54"/>
     <use x="1216.748047" xlink:href="#DejaVuSans-50"/>
     <use x="1280.371094" xlink:href="#DejaVuSans-55"/>
    </g>
   </g>
  </g>
  <g id="axes_3">
   <g id="patch_12">
    <path clip-path="url(#p128d0a238a)" d="M 1020.818958 232.651367 
C 1009.424711 217.124527 1003.278018 198.359066 1003.278018 179.1 
C 1003.278018 159.840934 1009.424711 141.075473 1020.818958 125.548633 
C 1010.811724 130.465856 1002.380372 138.091114 996.485607 147.555552 
C 990.590843 157.019989 987.465397 167.949941 987.465397 179.1 
C 987.465397 190.250059 990.590843 201.180011 996.485607 210.644448 
C 1002.380372 220.108886 1010.811724 227.734144 1020.818958 232.651367 
" style="fill:#ff0000;opacity:0.4;"/>
   </g>
   <g id="patch_13">
    <path clip-path="url(#p128d0a238a)" d="M 1163.95194 121.910277 
C 1177.115095 138.058526 1184.307853 158.266503 1184.307853 179.1 
C 1184.307853 199.933497 1177.115095 220.141474 1163.95194 236.289723 
C 1174.501761 243.966954 1186.973002 248.577325 1199.979743 249.608487 
C 1212.986485 250.639649 1226.028383 248.051936 1237.656102 242.132919 
C 1249.283821 236.213902 1259.050065 227.191273 1265.86952 216.06771 
C 1272.688975 204.944147 1276.299309 192.147552 1276.299309 179.1 
C 1276.299309 166.052448 1272.688975 153.255853 1265.86952 142.13229 
C 1259.050065 131.008727 1249.283821 121.986098 1237.656102 116.067081 
C 1226.028383 110.148064 1212.986485 107.560351 1199.979743 108.591513 
C 1186.973002 109.622675 1174.501761 114.233046 1163.95194 121.910277 
" style="fill:#008000;opacity:0.4;"/>
   </g>
   <g id="patch_14">
    <path clip-path="url(#p128d0a238a)" d="M 1020.818958 232.651367 
C 1028.996601 243.794969 1039.619174 252.918748 1051.869405 259.320744 
C 1064.119635 265.722741 1077.675088 269.23445 1091.492843 269.585689 
C 1105.310598 269.936928 1119.02696 267.118453 1131.58663 261.347109 
C 1144.1463 255.575766 1155.218697 247.00346 1163.95194 236.289723 
C 1154.934639 229.727724 1147.595862 221.12513 1142.536671 211.186512 
C 1137.47748 201.247894 1134.839871 190.252199 1134.839871 179.1 
C 1134.839871 167.947801 1137.47748 156.952106 1142.536671 147.013488 
C 1147.595862 137.07487 1154.934639 128.472276 1163.95194 121.910277 
C 1155.218697 111.19654 1144.1463 102.624234 1131.58663 96.852891 
C 1119.02696 91.081547 1105.310598 88.263072 1091.492843 88.614311 
C 1077.675088 88.96555 1064.119635 92.477259 1051.869405 98.879256 
C 1039.619174 105.281252 1028.996601 114.405031 1020.818958 125.548633 
C 1029.915118 121.079082 1040.001837 118.999956 1050.12403 119.508123 
C 1060.246222 120.01629 1070.073992 123.095189 1078.676772 128.453284 
C 1087.279551 133.81138 1094.376966 141.274046 1099.296977 150.13466 
C 1104.216989 158.995275 1106.799249 168.96506 1106.799249 179.1 
C 1106.799249 189.23494 1104.216989 199.204725 1099.296977 208.06534 
C 1094.376966 216.925954 1087.279551 224.38862 1078.676772 229.746716 
C 1070.073992 235.104811 1060.246222 238.18371 1050.12403 238.691877 
C 1040.001837 239.200044 1029.915118 237.120918 1020.818958 232.651367 
" style="fill:#0000ff;opacity:0.4;"/>
   </g>
   <g id="patch_15">
    <path clip-path="url(#p128d0a238a)" d="M 1020.818958 232.651367 
C 1029.915118 237.120918 1040.001837 239.200044 1050.12403 238.691877 
C 1060.246222 238.18371 1070.073992 235.104811 1078.676772 229.746716 
C 1087.279551 224.38862 1094.376966 216.925954 1099.296977 208.06534 
C 1104.216989 199.204725 1106.799249 189.23494 1106.799249 179.1 
C 1106.799249 168.96506 1104.216989 158.995275 1099.296977 150.13466 
C 1094.376966 141.274046 1087.279551 133.81138 1078.676772 128.453284 
C 1070.073992 123.095189 1060.246222 120.01629 1050.12403 119.508123 
C 1040.001837 118.999956 1029.915118 121.079082 1020.818958 125.548633 
C 1009.424711 141.075473 1003.278018 159.840934 1003.278018 179.1 
C 1003.278018 198.359066 1009.424711 217.124527 1020.818958 232.651367 
" style="fill:#b200b2;opacity:0.4;"/>
   </g>
   <g id="patch_16">
    <path clip-path="url(#p128d0a238a)" d="M 1163.95194 121.910277 
C 1154.934639 128.472276 1147.595862 137.07487 1142.536671 147.013488 
C 1137.47748 156.952106 1134.839871 167.947801 1134.839871 179.1 
C 1134.839871 190.252199 1137.47748 201.247894 1142.536671 211.186512 
C 1147.595862 221.12513 1154.934639 229.727724 1163.95194 236.289723 
C 1177.115095 220.141474 1184.307853 199.933497 1184.307853 179.1 
C 1184.307853 158.266503 1177.115095 138.058526 1163.95194 121.910277 
" style="fill:#0059b2;opacity:0.4;"/>
   </g>
   <g id="text_19">
    <!-- 44 -->
    <g transform="translate(989.009208 181.859375)scale(0.1 -0.1)">
     <use xlink:href="#DejaVuSans-52"/>
     <use x="63.623047" xlink:href="#DejaVuSans-52"/>
    </g>
   </g>
   <g id="text_20">
    <!-- 406 -->
    <g transform="translate(1220.759831 181.859375)scale(0.1 -0.1)">
     <use xlink:href="#DejaVuSans-52"/>
     <use x="63.623047" xlink:href="#DejaVuSans-48"/>
     <use x="127.246094" xlink:href="#DejaVuSans-54"/>
    </g>
   </g>
   <g id="text_21">
    <!-- 410 -->
    <g transform="translate(1096.938019 181.859375)scale(0.1 -0.1)">
     <use xlink:href="#DejaVuSans-52"/>
     <use x="63.623047" xlink:href="#DejaVuSans-49"/>
     <use x="127.246094" xlink:href="#DejaVuSans-48"/>
    </g>
   </g>
   <g id="text_22">
    <!-- 341 -->
    <g transform="translate(1045.494884 181.859375)scale(0.1 -0.1)">
     <use xlink:href="#DejaVuSans-51"/>
     <use x="63.623047" xlink:href="#DejaVuSans-52"/>
     <use x="127.246094" xlink:href="#DejaVuSans-49"/>
    </g>
   </g>
   <g id="text_23">
    <!-- 135 -->
    <g transform="translate(1150.030112 181.859375)scale(0.1 -0.1)">
     <use xlink:href="#DejaVuSans-49"/>
     <use x="63.623047" xlink:href="#DejaVuSans-51"/>
     <use x="127.246094" xlink:href="#DejaVuSans-53"/>
    </g>
   </g>
   <g id="text_24">
    <!-- TOP -->
    <g transform="translate(1035.126698 255.24877)scale(0.12 -0.12)">
     <use xlink:href="#DejaVuSans-84"/>
     <use x="61.083984" xlink:href="#DejaVuSans-79"/>
     <use x="139.794922" xlink:href="#DejaVuSans-80"/>
    </g>
   </g>
   <g id="text_25">
    <!-- BTM -->
    <g transform="translate(1192.611465 266.311563)scale(0.12 -0.12)">
     <use xlink:href="#DejaVuSans-66"/>
     <use x="68.603516" xlink:href="#DejaVuSans-84"/>
     <use x="129.6875" xlink:href="#DejaVuSans-77"/>
    </g>
   </g>
   <g id="text_26">
    <!-- SOMOZA -->
    <g transform="translate(1067.146373 286.096761)scale(0.12 -0.12)">
     <use xlink:href="#DejaVuSans-83"/>
     <use x="63.476562" xlink:href="#DejaVuSans-79"/>
     <use x="142.1875" xlink:href="#DejaVuSans-77"/>
     <use x="228.466797" xlink:href="#DejaVuSans-79"/>
     <use x="307.177734" xlink:href="#DejaVuSans-90"/>
     <use x="375.683594" xlink:href="#DejaVuSans-65"/>
    </g>
   </g>
   <g id="text_27">
    <!-- SOMOZA vs MIX -->
    <g transform="translate(1083.68829 62.884391)scale(0.12 -0.12)">
     <use xlink:href="#DejaVuSans-83"/>
     <use x="63.476562" xlink:href="#DejaVuSans-79"/>
     <use x="142.1875" xlink:href="#DejaVuSans-77"/>
     <use x="228.466797" xlink:href="#DejaVuSans-79"/>
     <use x="307.177734" xlink:href="#DejaVuSans-90"/>
     <use x="375.683594" xlink:href="#DejaVuSans-65"/>
     <use x="444.091797" xlink:href="#DejaVuSans-32"/>
     <use x="475.878906" xlink:href="#DejaVuSans-118"/>
     <use x="535.058594" xlink:href="#DejaVuSans-115"/>
     <use x="587.158203" xlink:href="#DejaVuSans-32"/>
     <use x="618.945312" xlink:href="#DejaVuSans-77"/>
     <use x="705.224609" xlink:href="#DejaVuSans-73"/>
     <use x="734.716797" xlink:href="#DejaVuSans-88"/>
    </g>
   </g>
  </g>
  <g id="text_28">
   <!-- SOMOZA -->
   <g transform="translate(684.47125 3.8725)scale(0.16 -0.16)">
    <use xlink:href="#DejaVuSans-83"/>
    <use x="63.476562" xlink:href="#DejaVuSans-79"/>
    <use x="142.1875" xlink:href="#DejaVuSans-77"/>
    <use x="228.466797" xlink:href="#DejaVuSans-79"/>
    <use x="307.177734" xlink:href="#DejaVuSans-90"/>
    <use x="375.683594" xlink:href="#DejaVuSans-65"/>
   </g>
  </g>
 </g>
 <defs>
  <clipPath id="p294431138f">
   <rect height="203.975608" width="328.235294" x="180" y="77.112196"/>
  </clipPath>
  <clipPath id="pf67ba935be">
   <rect height="218.998698" width="328.235294" x="573.882353" y="69.600651"/>
  </clipPath>
  <clipPath id="p128d0a238a">
   <rect height="220.431218" width="328.235294" x="967.764706" y="68.884391"/>
  </clipPath>
 </defs>
</svg>
